<svg version="1.1" id="Layer_1" xmlns="http://www.w3.org/2000/svg" xmlns:xlink="http://www.w3.org/1999/xlink" x="0px" y="0px"
	 width="100%" viewBox="0 0 512 512" enable-background="new 0 0 512 512" xml:space="preserve">
<path fill="#3E3E3E" opacity="1.000000" stroke="none" 
	d="
M513.000000,355.000000 
	C513.000000,370.020905 513.000000,385.041779 512.614319,400.575256 
	C511.718109,402.916809 511.141479,404.730225 510.706818,406.577087 
	C503.597229,436.785278 489.073151,462.448578 465.037598,482.567169 
	C449.249664,495.782288 431.556122,504.995911 411.709442,510.273773 
	C410.017609,510.723663 408.564178,512.070068 407.000000,513.000000 
	C401.311951,513.000000 395.623932,513.000000 389.496887,512.641602 
	C388.344727,510.519806 387.631531,508.756439 386.960297,506.657776 
	C386.958344,505.876129 386.914429,505.429810 386.982056,504.639160 
	C388.241669,499.977264 391.310120,498.500549 395.506012,497.783478 
	C452.975311,487.962280 494.760254,441.809875 497.859222,384.899414 
	C502.046814,307.996826 434.213013,247.003738 357.652954,259.100677 
	C356.679962,259.327789 356.055542,259.599884 355.344116,259.813293 
	C355.257141,259.754547 355.117493,259.911255 354.687805,259.885132 
	C353.760284,259.897919 353.251221,259.882721 352.766174,259.983429 
	C290.466888,272.917694 249.087143,330.647797 257.366943,394.332977 
	C261.403076,425.377228 275.723816,451.369385 300.013611,471.425568 
	C316.615936,485.134247 335.428223,494.254852 357.284058,497.360901 
	C360.045868,498.358459 362.494232,499.184875 365.092102,500.343964 
	C365.857483,502.779388 366.473297,504.882141 367.045837,507.346619 
	C366.335052,509.472198 365.667511,511.236115 365.000000,513.000000 
	C359.311951,513.000000 353.623932,513.000000 347.425659,512.628052 
	C345.295563,511.558228 343.703583,510.784760 342.051117,510.175293 
	C333.666199,507.082764 324.931335,504.720673 316.934998,500.835083 
	C295.479553,490.409546 277.845886,475.219696 264.419006,455.451172 
	C262.001068,451.891205 259.500000,450.911102 255.482346,450.916687 
	C182.317688,451.018188 109.152855,450.990814 35.988052,450.990326 
	C34.488106,450.990326 32.986267,451.032379 31.488508,450.973480 
	C19.209785,450.490723 13.028270,444.052063 13.008148,431.748138 
	C13.004333,429.414856 13.007502,427.081604 13.007501,424.748322 
	C13.007463,336.917236 13.010772,249.086136 12.986023,161.255051 
	C12.985468,159.283463 13.417315,156.624191 12.357565,155.466705 
	C8.893482,151.683197 4.831841,148.446793 1.000002,145.000000 
	C1.000000,113.979103 1.000000,82.958214 1.346223,51.479042 
	C8.315434,41.597298 17.547123,38.915432 28.629425,39.896736 
	C35.401272,40.496365 42.269508,40.007496 49.094452,40.007492 
	C62.005669,40.007488 62.220425,40.002647 61.935074,27.338490 
	C61.721725,17.870008 61.562016,8.637423 69.927887,1.955367 
	C70.097847,1.819610 69.982330,1.326430 70.000000,1.000000 
	C76.687645,1.000000 83.375290,1.000000 90.503677,1.352572 
	C94.709892,6.324586 98.522903,10.778339 98.076065,17.469227 
	C97.678062,23.428902 98.138634,29.441069 97.940704,35.420815 
	C97.827248,38.848389 98.985054,40.133465 102.503494,40.065018 
	C111.812027,39.883949 121.127014,40.070251 130.438416,39.990814 
	C141.430069,39.897038 140.016953,41.417480 139.952057,30.502935 
	C139.890640,20.169676 139.102020,9.758309 147.940033,1.956953 
	C148.109528,1.807337 147.986526,1.326370 148.000000,1.000000 
	C154.687637,1.000000 161.375290,1.000000 168.503632,1.352051 
	C171.346252,6.098014 174.889603,10.252269 175.874634,14.943682 
	C177.249512,21.491686 176.929718,28.441620 176.908691,35.218239 
	C176.897232,38.915909 178.109283,40.143353 181.796844,40.072575 
	C191.934677,39.877991 202.078735,40.011368 212.220322,40.005760 
	C218.995071,40.002014 218.965317,39.994747 219.014114,33.212723 
	C219.094864,21.991899 216.898727,10.267866 226.000000,1.000000 
	C232.687637,1.000000 239.375290,1.000000 246.508423,1.351965 
	C249.475342,5.842104 253.293335,9.713778 254.211609,14.181460 
	C255.559738,20.740511 255.137878,27.736818 254.886810,34.525257 
	C254.719864,39.039337 256.315521,40.209251 260.612640,40.095264 
	C270.921387,39.821808 281.245422,39.861641 291.556793,40.080105 
	C295.508423,40.163822 297.169220,39.200729 297.102783,34.859177 
	C296.923004,23.115423 294.894714,10.887923 304.000000,1.000000 
	C310.687653,1.000000 317.375275,1.000000 324.524872,1.347809 
	C331.290710,6.609213 333.468719,13.169818 333.043823,20.969759 
	C332.772278,25.954395 333.109650,30.969481 332.959381,35.964455 
	C332.868103,38.998127 334.065582,40.069572 337.063416,40.041630 
	C348.394836,39.935997 359.728485,39.928322 371.059723,40.043907 
	C374.186768,40.075802 375.103424,38.741993 375.039307,35.842419 
	C374.914032,30.179047 374.447876,24.437134 375.182831,18.867626 
	C375.787811,14.283216 377.749237,9.831972 379.470062,5.463757 
	C380.135529,3.774467 381.793945,2.476342 383.000000,1.000005 
	C389.687653,1.000000 396.375275,1.000000 403.504486,1.353234 
	C410.401093,8.026672 411.807281,15.868076 411.043152,24.483353 
	C410.736206,27.944242 411.202820,31.471117 410.938721,34.939125 
	C410.641998,38.835556 412.050385,40.156708 416.012207,40.084492 
	C427.967651,39.866550 439.929626,39.997692 451.889038,40.009872 
	C464.634369,40.022854 472.936554,48.381664 472.989380,61.255653 
	C473.012573,66.903069 473.020599,72.550812 472.985779,78.198105 
	C472.944214,84.935577 471.696167,86.622787 464.892639,88.761887 
	C459.132874,87.312401 457.130463,83.672966 457.265167,78.297440 
	C457.402832,72.802643 457.181641,67.298798 457.322327,61.804153 
	C457.442383,57.115814 455.249329,55.137032 450.684753,55.167053 
	C440.688293,55.232796 430.691040,55.184002 420.694122,55.182285 
	C417.591614,55.181751 414.489136,55.182201 410.990479,55.182201 
	C410.990479,65.900124 411.110718,75.874985 410.955780,85.845573 
	C410.809021,95.289734 403.909332,102.463364 394.478943,103.339851 
	C385.556244,104.169144 377.207855,98.202324 375.888519,88.921280 
	C374.888733,81.888412 375.296692,74.650993 375.149567,67.503128 
	C375.068573,63.567741 375.135071,59.629322 375.135071,55.591812 
	C360.695862,55.591812 346.984650,55.591812 332.901794,55.591812 
	C332.901794,65.815460 333.106812,75.638283 332.844543,85.448608 
	C332.578003,95.419838 325.710663,102.543015 316.150360,103.364937 
	C307.352356,104.121315 299.160126,97.921120 297.394379,88.860207 
	C296.860138,86.118752 297.051422,83.221886 297.038025,80.395599 
	C296.998840,72.136726 297.024078,63.877544 297.024078,55.182491 
	C284.304260,55.182491 272.331573,55.428638 260.377686,55.062057 
	C255.556152,54.914196 254.567886,56.617062 254.634415,61.016357 
	C254.772659,70.159607 254.897308,79.366226 253.996414,88.444466 
	C253.074463,97.734871 244.810883,103.999641 235.868195,103.414589 
	C226.180450,102.780800 219.096283,95.443352 219.014252,85.817085 
	C218.941849,77.320305 219.012894,68.822388 218.983597,60.325096 
	C218.978104,58.733257 218.797852,57.142025 218.675293,55.183861 
	C205.725845,55.183861 193.252182,55.332390 180.785782,55.097340 
	C176.818283,55.022537 176.086517,56.585144 176.145645,60.095482 
	C176.297134,69.087395 176.218567,78.087852 176.006516,87.079582 
	C175.861694,93.220543 172.754608,97.829361 167.549393,100.926926 
	C156.186951,107.688568 141.768753,100.364525 140.996475,87.168396 
	C140.452225,77.868538 140.673157,68.518250 140.736923,59.191742 
	C140.757446,56.189964 139.763519,55.067623 136.693939,55.132401 
	C129.033066,55.294071 121.366447,55.183189 113.702141,55.182312 
	C108.597145,55.181725 103.492142,55.182201 97.998047,55.182201 
	C97.998047,65.893089 98.079910,75.866188 97.974403,85.837296 
	C97.874329,95.294403 91.043655,102.475060 81.563377,103.337608 
	C72.575600,104.155350 64.164680,98.119568 62.999401,88.921967 
	C62.042580,81.369759 62.388519,73.649490 62.215347,66.002396 
	C62.137581,62.568340 62.202183,59.131062 62.202183,55.428146 
	C54.004116,55.428146 46.551510,55.428146 38.629593,55.342255 
	C32.842564,55.232788 27.524792,55.183052 22.207151,55.194611 
	C18.518866,55.202637 16.048756,56.773956 16.042606,60.762177 
	C16.004169,85.691963 16.007879,110.621849 16.036167,135.551666 
	C16.040251,139.150986 17.825865,141.080109 21.595442,141.012253 
	C27.408573,140.907623 33.223297,140.891357 39.499695,140.902191 
	C176.788116,140.981644 313.614166,140.996490 450.440247,141.011185 
	C450.773560,141.011230 451.108093,140.989609 451.440002,141.010773 
	C455.455475,141.266769 457.287903,139.290527 457.280548,135.366058 
	C457.269958,129.699768 457.256714,124.033119 457.305389,118.367142 
	C457.362274,111.743507 458.684509,110.002686 465.400024,107.989204 
	C470.938171,108.852493 473.056305,112.064499 473.005463,117.104317 
	C472.943329,123.265099 473.022552,129.427200 472.983704,135.588364 
	C472.933746,143.505539 469.367950,149.444199 463.028046,154.101974 
	C461.503265,155.222198 460.131042,157.701782 460.122101,159.563080 
	C459.952148,195.032043 459.935211,230.502396 460.143463,265.970947 
	C460.156555,268.208496 461.826294,270.865997 463.491638,272.586273 
	C469.262482,278.547546 475.920502,283.717773 481.248657,290.027008 
	C496.511414,308.100128 506.508728,328.853271 511.032990,352.167938 
	C511.233337,353.200317 512.324036,354.059906 513.000000,355.000000 
M243.918930,309.948761 
	C252.594177,310.066803 253.129166,309.531769 253.135330,300.705414 
	C253.138672,295.913086 253.138412,291.120758 253.135391,286.328430 
	C253.129532,277.085846 252.581497,276.587494 242.136047,277.013123 
	C236.838531,277.000000 231.540436,277.029968 226.243668,276.959869 
	C222.101288,276.905029 220.129730,278.942902 220.123398,283.002289 
	C220.112579,289.955597 220.117798,296.908905 220.121643,303.862213 
	C220.123901,307.909546 222.093384,310.024872 226.203308,309.989532 
	C231.828705,309.941223 237.453964,309.876343 243.918930,309.948761 
M316.126617,204.975723 
	C310.823364,204.960999 305.519562,204.986938 300.217010,204.918549 
	C296.085876,204.865280 294.085327,206.859970 294.086731,210.951477 
	C294.089111,217.912369 294.092194,224.873276 294.086975,231.834167 
	C294.083923,235.914871 296.108948,237.981293 300.192169,237.952057 
	C305.823334,237.911713 311.454254,237.833069 317.920166,237.908920 
	C326.368988,238.028748 327.091309,237.340897 327.100037,229.134949 
	C327.105286,224.184570 327.103119,219.234177 327.100647,214.283798 
	C327.096100,205.045029 326.530640,204.530243 316.126617,204.975723 
M443.909332,259.629700 
	C444.178986,259.410126 444.448639,259.190552 444.855621,258.046417 
	C444.855621,224.289261 444.855621,190.532104 444.855621,156.287003 
	C442.485748,156.287003 440.686615,156.287003 438.887482,156.287003 
	C311.436218,156.287003 183.984924,156.285889 56.533657,156.298279 
	C54.710102,156.298462 52.886559,156.467682 50.141819,156.333832 
	C43.190083,156.333832 36.238346,156.333832 28.968058,156.333832 
	C28.968058,249.395172 28.968058,341.982819 28.968058,434.892059 
	C36.467377,434.892059 43.740898,434.892059 51.938717,435.046448 
	C118.847908,435.046448 185.757095,435.046448 252.257980,435.046448 
	C248.542618,422.242798 244.923172,409.769714 241.217117,396.998169 
	C236.206528,396.998169 230.883514,397.071991 225.563232,396.982941 
	C214.148453,396.791870 205.806488,389.169464 205.249802,377.850891 
	C204.841110,369.541107 204.818939,361.174225 205.280014,352.869171 
	C205.896118,341.772217 214.186203,334.238739 225.334518,334.020782 
	C230.664566,333.916595 235.998276,334.000153 241.330338,333.999695 
	C249.324066,333.998962 249.817062,333.543488 250.872849,324.986694 
	C242.363297,324.986694 233.875641,325.128815 225.394638,324.951904 
	C213.978821,324.713776 205.754517,316.959320 205.234512,305.633392 
	C204.860443,297.486694 204.848328,289.293304 205.245743,281.148590 
	C205.799179,269.806519 214.052917,262.186829 225.511078,261.995789 
	C233.007172,261.870789 240.508743,261.867401 248.004807,261.992584 
	C259.852631,262.190430 267.861877,270.303223 268.113220,282.254761 
	C268.202698,286.509308 268.127563,290.767334 268.127563,296.489563 
	C283.182037,277.147186 300.896027,263.267548 321.787140,253.325363 
	C314.062347,252.943771 306.564056,253.117691 299.076843,252.903198 
	C287.733154,252.578201 279.567993,244.601379 279.163910,233.313171 
	C278.877991,225.325760 278.857971,217.309494 279.177063,209.324402 
	C279.629364,198.006500 287.858215,190.170303 299.235565,189.969849 
	C307.230499,189.828995 315.235992,189.785141 323.226471,190.031815 
	C332.296814,190.311829 341.123108,196.701782 341.417908,205.507523 
	C341.893066,219.700500 346.019318,234.635956 336.270264,248.085632 
	C343.047180,246.507782 349.407227,245.026978 355.680939,243.566284 
	C354.882660,241.040222 353.546326,238.687561 353.489380,236.304352 
	C353.251007,226.325470 352.715363,216.276688 353.598846,206.370392 
	C354.426178,197.093719 362.487701,190.370514 371.682953,190.060287 
	C380.336517,189.768311 389.016876,189.760071 397.669006,190.076355 
	C406.822723,190.410995 415.437439,197.489075 415.605591,206.475021 
	C415.856262,219.869766 419.209137,233.766739 412.129944,245.752960 
	C422.662933,250.251236 433.137054,254.724365 443.909332,259.629700 
M368.164856,209.189224 
	C368.134674,216.659515 368.135742,224.130127 368.062439,231.599991 
	C368.019592,235.966339 370.135651,237.976944 374.459442,237.955048 
	C381.266235,237.920578 388.073730,237.945618 394.880402,238.006882 
	C399.265594,238.046356 401.200714,235.941360 401.132385,231.576050 
	C401.025909,224.770523 401.027100,217.960922 401.131561,211.155334 
	C401.199432,206.733002 399.179993,204.792084 394.796600,204.865601 
	C387.991150,204.979767 381.166656,204.673416 374.385773,205.104584 
	C372.318909,205.235977 370.369019,207.206696 368.164856,209.189224 
M234.428772,382.001221 
	C236.509399,382.001221 238.590027,382.001221 240.252151,382.001221 
	C241.299652,370.572845 242.272919,359.954529 243.275772,349.013306 
	C237.478821,349.013306 231.519623,348.970581 225.561401,349.028931 
	C221.855835,349.065216 220.185318,351.231903 220.139145,354.753113 
	C220.078217,359.400421 220.110504,364.048981 220.109772,368.697021 
	C220.107666,382.001221 220.109070,382.001221 234.428772,382.001221 
M317.390198,59.500004 
	C317.513550,46.023746 317.713776,32.547096 317.644623,19.071829 
	C317.637512,17.682726 316.023560,16.301867 315.155212,14.917167 
	C314.138153,16.310755 312.243561,17.699263 312.235474,19.098701 
	C312.110199,40.735825 312.182861,62.374844 312.404907,84.011421 
	C312.418793,85.365509 314.045959,86.703041 314.922577,88.048279 
	C315.743256,86.689293 317.233032,85.350075 317.273865,83.968040 
	C317.504761,76.151093 317.388275,68.323883 317.390198,59.500004 
M390.779022,16.472807 
	C390.665771,16.957401 390.451782,17.442411 390.453796,17.926533 
	C390.544830,40.067318 390.654297,62.208035 390.765686,84.348732 
	C390.768188,84.847305 390.629608,85.491623 390.881470,85.815422 
	C391.515564,86.630554 392.328705,87.868622 393.082825,87.877693 
	C393.918579,87.887756 395.166748,86.883873 395.515106,86.028267 
	C395.988892,84.864586 395.848389,83.423172 395.853149,82.100433 
	C395.901123,68.779076 395.931244,55.457649 395.953033,42.136215 
	C395.965576,34.476093 395.994934,26.815594 395.932404,19.155952 
	C395.906921,16.031952 395.184021,13.566617 390.779022,16.472807 
M77.862579,82.270424 
	C77.865295,83.101463 77.613426,84.048546 77.927528,84.737648 
	C78.462830,85.912064 79.353714,86.924408 80.095207,88.004837 
	C81.037445,86.891945 82.128334,85.866829 82.859161,84.629112 
	C83.224220,84.010849 82.934990,83.004089 82.935501,82.173058 
	C82.948082,61.728943 82.961143,41.284828 82.968246,20.840712 
	C82.968643,19.678331 83.258774,18.352068 82.799110,17.398514 
	C82.315933,16.396194 81.084892,15.119884 80.195061,15.130861 
	C79.346245,15.141334 78.157410,16.520964 77.771957,17.544868 
	C77.329819,18.719391 77.571518,20.164951 77.577454,21.492495 
	C77.666534,41.434177 77.765739,61.375813 77.862579,82.270424 
M161.019989,46.499645 
	C161.044876,37.529182 161.188110,28.556002 160.982513,19.590822 
	C160.946686,18.028263 159.440765,16.499414 158.613831,14.954995 
	C157.697235,16.569540 155.993820,18.178883 155.983093,19.799419 
	C155.842484,41.061779 155.889084,62.326214 156.091064,83.588203 
	C156.105148,85.070206 157.717072,86.537025 158.585953,88.010902 
	C159.392593,86.468307 160.873138,84.936813 160.898773,83.381348 
	C161.095856,71.423416 161.010544,59.460831 161.019989,46.499645 
M234.995300,87.368851 
	C239.020126,89.220642 239.080856,86.548988 239.090546,83.791573 
	C239.165421,62.513920 239.304321,41.236019 239.208450,19.959166 
	C239.200912,18.286638 237.568130,16.621433 236.690689,14.952826 
	C235.794922,16.607845 234.136124,18.255508 234.120087,19.919008 
	C233.937347,38.869930 233.984879,57.823307 234.025589,76.775917 
	C234.032684,80.079018 234.293350,83.381569 234.995300,87.368851 
z"/>
<path fill="#FFFFFF" opacity="1.000000" stroke="none" 
	d="
M1.000002,145.468658 
	C4.831841,148.446793 8.893482,151.683197 12.357565,155.466705 
	C13.417315,156.624191 12.985468,159.283463 12.986023,161.255051 
	C13.010772,249.086136 13.007463,336.917236 13.007501,424.748322 
	C13.007502,427.081604 13.004333,429.414856 13.008148,431.748138 
	C13.028270,444.052063 19.209785,450.490723 31.488508,450.973480 
	C32.986267,451.032379 34.488106,450.990326 35.988052,450.990326 
	C109.152855,450.990814 182.317688,451.018188 255.482346,450.916687 
	C259.500000,450.911102 262.001068,451.891205 264.419006,455.451172 
	C277.845886,475.219696 295.479553,490.409546 316.934998,500.835083 
	C324.931335,504.720673 333.666199,507.082764 342.051117,510.175293 
	C343.703583,510.784760 345.295563,511.558228 346.957703,512.628052 
	C231.737350,513.000000 116.474701,513.000000 1.000000,513.000000 
	C1.000000,390.645844 1.000000,268.291595 1.000002,145.468658 
z"/>
<path fill="#FFFFFF" opacity="1.000000" stroke="none" 
	d="
M513.000000,354.531342 
	C512.324036,354.059906 511.233337,353.200317 511.032990,352.167938 
	C506.508728,328.853271 496.511414,308.100128 481.248657,290.027008 
	C475.920502,283.717773 469.262482,278.547546 463.491638,272.586273 
	C461.826294,270.865997 460.156555,268.208496 460.143463,265.970947 
	C459.935211,230.502396 459.952148,195.032043 460.122101,159.563080 
	C460.131042,157.701782 461.503265,155.222198 463.028046,154.101974 
	C469.367950,149.444199 472.933746,143.505539 472.983704,135.588364 
	C473.022552,129.427200 472.943329,123.265099 473.005463,117.104317 
	C473.056305,112.064499 470.938171,108.852493 465.388489,107.525101 
	C465.043793,101.037689 465.082703,95.039291 465.121643,89.040886 
	C471.696167,86.622787 472.944214,84.935577 472.985779,78.198105 
	C473.020599,72.550812 473.012573,66.903069 472.989380,61.255653 
	C472.936554,48.381664 464.634369,40.022854 451.889038,40.009872 
	C439.929626,39.997692 427.967651,39.866550 416.012207,40.084492 
	C412.050385,40.156708 410.641998,38.835556 410.938721,34.939125 
	C411.202820,31.471117 410.736206,27.944242 411.043152,24.483353 
	C411.807281,15.868076 410.401093,8.026672 403.973022,1.353234 
	C440.298981,1.000000 476.597931,1.000000 513.000000,1.000000 
	C513.000000,118.687538 513.000000,236.375107 513.000000,354.531342 
z"/>
<path fill="#FFFFFF" opacity="1.000000" stroke="none" 
	d="
M407.468658,513.000000 
	C408.564178,512.070068 410.017609,510.723663 411.709442,510.273773 
	C431.556122,504.995911 449.249664,495.782288 465.037598,482.567169 
	C489.073151,462.448578 503.597229,436.785278 510.706818,406.577087 
	C511.141479,404.730225 511.718109,402.916809 512.614319,401.043915 
	C513.000000,438.258270 513.000000,475.516510 513.000000,513.000000 
	C477.979431,513.000000 442.958374,513.000000 407.468658,513.000000 
z"/>
<path fill="#FFFFFF" opacity="1.000000" stroke="none" 
	d="
M69.531342,1.000000 
	C69.982330,1.326430 70.097847,1.819610 69.927887,1.955367 
	C61.562016,8.637423 61.721725,17.870008 61.935074,27.338490 
	C62.220425,40.002647 62.005669,40.007488 49.094452,40.007492 
	C42.269508,40.007496 35.401272,40.496365 28.629425,39.896736 
	C17.547123,38.915432 8.315434,41.597298 1.346223,51.010384 
	C1.000000,34.394840 1.000000,17.789680 1.000000,1.000000 
	C23.687227,1.000000 46.374954,1.000000 69.531342,1.000000 
z"/>
<path fill="#FFFFFF" opacity="1.000000" stroke="none" 
	d="
M225.531342,1.000000 
	C216.898727,10.267866 219.094864,21.991899 219.014114,33.212723 
	C218.965317,39.994747 218.995071,40.002014 212.220322,40.005760 
	C202.078735,40.011368 191.934677,39.877991 181.796844,40.072575 
	C178.109283,40.143353 176.897232,38.915909 176.908691,35.218239 
	C176.929718,28.441620 177.249512,21.491686 175.874634,14.943682 
	C174.889603,10.252269 171.346252,6.098014 168.972168,1.352051 
	C187.687561,1.000000 206.375122,1.000000 225.531342,1.000000 
z"/>
<path fill="#FFFFFF" opacity="1.000000" stroke="none" 
	d="
M147.531342,1.000000 
	C147.986526,1.326370 148.109528,1.807337 147.940033,1.956953 
	C139.102020,9.758309 139.890640,20.169676 139.952057,30.502935 
	C140.016953,41.417480 141.430069,39.897038 130.438416,39.990814 
	C121.127014,40.070251 111.812027,39.883949 102.503494,40.065018 
	C98.985054,40.133465 97.827248,38.848389 97.940704,35.420815 
	C98.138634,29.441069 97.678062,23.428902 98.076065,17.469227 
	C98.522903,10.778339 94.709892,6.324586 90.972214,1.352572 
	C109.687561,1.000000 128.375122,1.000000 147.531342,1.000000 
z"/>
<path fill="#FFFFFF" opacity="1.000000" stroke="none" 
	d="
M382.531342,1.000005 
	C381.793945,2.476342 380.135529,3.774467 379.470062,5.463757 
	C377.749237,9.831972 375.787811,14.283216 375.182831,18.867626 
	C374.447876,24.437134 374.914032,30.179047 375.039307,35.842419 
	C375.103424,38.741993 374.186768,40.075802 371.059723,40.043907 
	C359.728485,39.928322 348.394836,39.935997 337.063416,40.041630 
	C334.065582,40.069572 332.868103,38.998127 332.959381,35.964455 
	C333.109650,30.969481 332.772278,25.954395 333.043823,20.969759 
	C333.468719,13.169818 331.290710,6.609213 324.993408,1.347809 
	C344.020905,1.000000 363.041779,1.000000 382.531342,1.000005 
z"/>
<path fill="#FFFFFF" opacity="1.000000" stroke="none" 
	d="
M303.531342,1.000000 
	C294.894714,10.887923 296.923004,23.115423 297.102783,34.859177 
	C297.169220,39.200729 295.508423,40.163822 291.556793,40.080105 
	C281.245422,39.861641 270.921387,39.821808 260.612640,40.095264 
	C256.315521,40.209251 254.719864,39.039337 254.886810,34.525257 
	C255.137878,27.736818 255.559738,20.740511 254.211609,14.181460 
	C253.293335,9.713778 249.475342,5.842104 246.976959,1.351965 
	C265.687561,1.000000 284.375122,1.000000 303.531342,1.000000 
z"/>
<path fill="#FFFFFF" opacity="1.000000" stroke="none" 
	d="
M365.468628,513.000000 
	C365.667511,511.236115 366.335052,509.472198 367.504761,507.359070 
	C374.310760,507.004211 380.614532,506.998657 386.918335,506.993103 
	C387.631531,508.756439 388.344727,510.519806 389.028961,512.641602 
	C381.312408,513.000000 373.624847,513.000000 365.468628,513.000000 
z"/>
<path fill="#E3E9F7" opacity="1.000000" stroke="none" 
	d="
M51.063011,156.558029 
	C52.886559,156.467682 54.710102,156.298462 56.533657,156.298279 
	C183.984924,156.285889 311.436218,156.287003 438.887482,156.287003 
	C440.686615,156.287003 442.485748,156.287003 444.855621,156.287003 
	C444.855621,190.532104 444.855621,224.289261 444.505157,258.540771 
	C443.973511,259.089233 443.792358,259.143341 443.611176,259.197479 
	C433.137054,254.724365 422.662933,250.251236 412.129944,245.752960 
	C419.209137,233.766739 415.856262,219.869766 415.605591,206.475021 
	C415.437439,197.489075 406.822723,190.410995 397.669006,190.076355 
	C389.016876,189.760071 380.336517,189.768311 371.682953,190.060287 
	C362.487701,190.370514 354.426178,197.093719 353.598846,206.370392 
	C352.715363,216.276688 353.251007,226.325470 353.489380,236.304352 
	C353.546326,238.687561 354.882660,241.040222 355.680939,243.566284 
	C349.407227,245.026978 343.047180,246.507782 336.270264,248.085632 
	C346.019318,234.635956 341.893066,219.700500 341.417908,205.507523 
	C341.123108,196.701782 332.296814,190.311829 323.226471,190.031815 
	C315.235992,189.785141 307.230499,189.828995 299.235565,189.969849 
	C287.858215,190.170303 279.629364,198.006500 279.177063,209.324402 
	C278.857971,217.309494 278.877991,225.325760 279.163910,233.313171 
	C279.567993,244.601379 287.733154,252.578201 299.076843,252.903198 
	C306.564056,253.117691 314.062347,252.943771 321.787140,253.325363 
	C300.896027,263.267548 283.182037,277.147186 268.127563,296.489563 
	C268.127563,290.767334 268.202698,286.509308 268.113220,282.254761 
	C267.861877,270.303223 259.852631,262.190430 248.004807,261.992584 
	C240.508743,261.867401 233.007172,261.870789 225.511078,261.995789 
	C214.052917,262.186829 205.799179,269.806519 205.245743,281.148590 
	C204.848328,289.293304 204.860443,297.486694 205.234512,305.633392 
	C205.754517,316.959320 213.978821,324.713776 225.394638,324.951904 
	C233.875641,325.128815 242.363297,324.986694 250.872849,324.986694 
	C249.817062,333.543488 249.324066,333.998962 241.330338,333.999695 
	C235.998276,334.000153 230.664566,333.916595 225.334518,334.020782 
	C214.186203,334.238739 205.896118,341.772217 205.280014,352.869171 
	C204.818939,361.174225 204.841110,369.541107 205.249802,377.850891 
	C205.806488,389.169464 214.148453,396.791870 225.563232,396.982941 
	C230.883514,397.071991 236.206528,396.998169 241.217117,396.998169 
	C244.923172,409.769714 248.542618,422.242798 252.257980,435.046448 
	C185.757095,435.046448 118.847908,435.046448 51.470001,434.507507 
	C51.021862,341.498413 51.042439,249.028214 51.063011,156.558029 
M211.224243,247.292282 
	C215.560349,249.162674 219.774841,252.178635 224.258942,252.654602 
	C232.488632,253.528168 240.890793,253.204803 249.196259,252.830475 
	C260.044678,252.341522 267.795319,244.231262 268.067749,233.424942 
	C268.264923,225.606049 268.248901,217.776047 268.098328,209.955429 
	C267.869812,198.088806 259.783875,190.154419 247.787170,189.951385 
	C240.631210,189.830276 233.470932,189.862961 226.313736,189.936493 
	C213.327820,190.069855 205.288895,198.156342 205.129013,211.252335 
	C205.045700,218.076370 205.115479,224.902267 205.113495,231.727325 
	C205.111847,237.437958 206.741714,242.540634 211.224243,247.292282 
M61.270981,269.887024 
	C59.959816,273.427612 57.749313,276.910278 57.516964,280.520325 
	C56.962463,289.135437 56.845146,297.846436 57.466194,306.452698 
	C58.275909,317.673431 66.417793,324.765625 77.783752,324.970032 
	C85.437737,325.107697 93.103310,325.182251 100.751472,324.923584 
	C111.865692,324.547729 119.798599,316.598633 120.133408,305.511078 
	C120.374443,297.528961 120.372681,289.528961 120.152115,281.545990 
	C119.838333,270.189362 111.749084,262.232330 100.417664,262.000763 
	C92.930412,261.847778 85.437462,261.993896 77.947319,261.955994 
	C71.398933,261.922852 65.962486,264.262543 61.270981,269.887024 
M85.513504,189.920166 
	C83.014015,189.921432 80.513863,189.885483 78.015152,189.930283 
	C65.969902,190.146149 57.827007,197.705231 57.287247,209.685318 
	C56.935123,217.500778 56.935406,225.358154 57.291595,233.173340 
	C57.808144,244.506866 65.588249,252.428131 76.579384,252.856232 
	C84.731537,253.173752 92.916809,253.188278 101.067711,252.856262 
	C111.973213,252.412003 119.782715,244.467209 120.119591,233.609634 
	C120.372650,225.453369 120.378967,217.276154 120.116737,209.120422 
	C119.760376,198.036804 111.699715,190.287170 100.504387,189.964966 
	C95.842392,189.830811 91.173744,189.928101 85.513504,189.920166 
M141.919113,192.183929 
	C135.019379,195.939575 131.495041,201.896667 131.236618,209.596329 
	C130.974365,217.409424 130.920822,225.247879 131.228134,233.057449 
	C131.686401,244.702698 139.802917,252.625473 151.375443,252.915009 
	C159.026138,253.106415 166.690598,253.127701 174.339859,252.909302 
	C185.740509,252.583817 193.798737,244.607788 194.103592,233.337509 
	C194.319489,225.355316 194.319763,217.357697 194.100800,209.375626 
	C193.796127,198.268677 185.820389,190.287292 174.755539,189.998093 
	C166.772812,189.789459 158.775452,189.794678 150.794922,190.039948 
	C148.052948,190.124222 145.342224,191.224213 141.919113,192.183929 
M192.365051,273.454865 
	C188.462799,265.702332 182.114578,261.965118 173.493530,261.964569 
	C166.171692,261.964111 158.848175,261.869354 151.528397,261.993164 
	C140.111847,262.186188 131.915100,269.732025 131.295898,281.140015 
	C130.854645,289.269287 130.888336,297.456451 131.276993,305.590729 
	C131.794220,316.415405 139.425735,324.341766 149.865509,324.830780 
	C158.497818,325.235107 167.178558,325.210632 175.812088,324.814789 
	C184.569885,324.413269 192.795273,318.267395 193.387955,309.846680 
	C194.220322,298.020172 193.061890,286.053558 192.365051,273.454865 
M78.711250,333.998199 
	C65.791168,334.334320 57.752602,341.696564 57.264935,354.090363 
	C56.963741,361.744995 56.946320,369.432587 57.274601,377.085114 
	C57.788315,389.060211 65.995308,396.839111 77.897125,396.983063 
	C85.395958,397.073792 92.899574,397.122955 100.396172,396.962830 
	C111.741219,396.720459 119.831291,388.742828 120.153023,377.376678 
	C120.374580,369.549713 120.363144,361.707611 120.167374,353.879456 
	C119.875572,342.211304 111.786682,334.237946 100.163254,334.024200 
	C93.332214,333.898590 86.497025,333.999146 78.711250,333.998199 
M131.152756,376.148499 
	C132.202820,389.928467 139.677948,396.962891 153.336670,396.998444 
	C160.154907,397.016205 166.974533,397.084412 173.791260,396.980560 
	C185.733231,396.798645 193.866135,388.860321 194.132172,377.009796 
	C194.303833,369.363892 194.299103,361.708130 194.134430,354.061951 
	C193.878204,342.165192 185.790512,334.203247 173.872345,334.021027 
	C166.723114,333.911682 159.570541,333.956940 152.420013,334.008118 
	C139.499451,334.100555 131.361008,342.219086 131.168564,355.262329 
	C131.070435,361.912903 131.150436,368.566071 131.152756,376.148499 
z"/>
<path fill="#FE6B6B" opacity="1.000000" stroke="none" 
	d="
M464.892639,88.761887 
	C465.082703,95.039291 465.043793,101.037689 465.016418,107.500198 
	C458.684509,110.002686 457.362274,111.743507 457.305389,118.367142 
	C457.256714,124.033119 457.269958,129.699768 457.280548,135.366058 
	C457.287903,139.290527 455.455475,141.266769 451.440002,141.010773 
	C451.108093,140.989609 450.773560,141.011230 450.440247,141.011185 
	C313.614166,140.996490 176.788116,140.981644 39.488472,140.444336 
	C39.042892,111.757301 39.070896,83.592720 39.098900,55.428146 
	C46.551510,55.428146 54.004116,55.428146 62.202183,55.428146 
	C62.202183,59.131062 62.137581,62.568340 62.215347,66.002396 
	C62.388519,73.649490 62.042580,81.369759 62.999401,88.921967 
	C64.164680,98.119568 72.575600,104.155350 81.563377,103.337608 
	C91.043655,102.475060 97.874329,95.294403 97.974403,85.837296 
	C98.079910,75.866188 97.998047,65.893089 97.998047,55.182201 
	C103.492142,55.182201 108.597145,55.181725 113.702141,55.182312 
	C121.366447,55.183189 129.033066,55.294071 136.693939,55.132401 
	C139.763519,55.067623 140.757446,56.189964 140.736923,59.191742 
	C140.673157,68.518250 140.452225,77.868538 140.996475,87.168396 
	C141.768753,100.364525 156.186951,107.688568 167.549393,100.926926 
	C172.754608,97.829361 175.861694,93.220543 176.006516,87.079582 
	C176.218567,78.087852 176.297134,69.087395 176.145645,60.095482 
	C176.086517,56.585144 176.818283,55.022537 180.785782,55.097340 
	C193.252182,55.332390 205.725845,55.183861 218.675293,55.183861 
	C218.797852,57.142025 218.978104,58.733257 218.983597,60.325096 
	C219.012894,68.822388 218.941849,77.320305 219.014252,85.817085 
	C219.096283,95.443352 226.180450,102.780800 235.868195,103.414589 
	C244.810883,103.999641 253.074463,97.734871 253.996414,88.444466 
	C254.897308,79.366226 254.772659,70.159607 254.634415,61.016357 
	C254.567886,56.617062 255.556152,54.914196 260.377686,55.062057 
	C272.331573,55.428638 284.304260,55.182491 297.024078,55.182491 
	C297.024078,63.877544 296.998840,72.136726 297.038025,80.395599 
	C297.051422,83.221886 296.860138,86.118752 297.394379,88.860207 
	C299.160126,97.921120 307.352356,104.121315 316.150360,103.364937 
	C325.710663,102.543015 332.578003,95.419838 332.844543,85.448608 
	C333.106812,75.638283 332.901794,65.815460 332.901794,55.591812 
	C346.984650,55.591812 360.695862,55.591812 375.135071,55.591812 
	C375.135071,59.629322 375.068573,63.567741 375.149567,67.503128 
	C375.296692,74.650993 374.888733,81.888412 375.888519,88.921280 
	C377.207855,98.202324 385.556244,104.169144 394.478943,103.339851 
	C403.909332,102.463364 410.809021,95.289734 410.955780,85.845573 
	C411.110718,75.874985 410.990479,65.900124 410.990479,55.182201 
	C414.489136,55.182201 417.591614,55.181751 420.694122,55.182285 
	C430.691040,55.184002 440.688293,55.232796 450.684753,55.167053 
	C455.249329,55.137032 457.442383,57.115814 457.322327,61.804153 
	C457.181641,67.298798 457.402832,72.802643 457.265167,78.297440 
	C457.130463,83.672966 459.132874,87.312401 464.892639,88.761887 
z"/>
<path fill="#D5D9E2" opacity="1.000000" stroke="none" 
	d="
M50.602417,156.445923 
	C51.042439,249.028214 51.021862,341.498413 51.007854,434.430328 
	C43.740898,434.892059 36.467377,434.892059 28.968058,434.892059 
	C28.968058,341.982819 28.968058,249.395172 28.968058,156.333832 
	C36.238346,156.333832 43.190083,156.333832 50.602417,156.445923 
z"/>
<path fill="#FBC856" opacity="1.000000" stroke="none" 
	d="
M358.001526,259.145691 
	C434.213013,247.003738 502.046814,307.996826 497.859222,384.899414 
	C494.760254,441.809875 452.975311,487.962280 395.506012,497.783478 
	C391.310120,498.500549 388.241669,499.977264 386.581238,504.632935 
	C379.026764,503.317780 371.984680,501.664551 364.942566,500.011292 
	C362.494232,499.184875 360.045868,498.358459 357.057678,497.089630 
	C346.189667,490.324707 335.728973,484.203278 325.622772,477.543854 
	C322.964172,475.791931 321.402679,472.375031 319.665680,469.833466 
	C345.419495,485.187317 372.695312,490.142548 401.560303,483.259888 
	C458.720917,469.630341 493.475006,415.569946 482.942535,357.429901 
	C473.411713,304.819031 422.685638,266.225769 369.381836,270.622620 
	C350.338287,272.193481 333.083282,278.357666 317.045624,287.961060 
	C320.712524,284.080200 323.932129,279.987793 328.023407,277.153717 
	C336.816650,271.062500 346.058990,265.619568 355.117493,259.911255 
	C355.117493,259.911255 355.257141,259.754547 355.688263,259.807495 
	C356.746765,259.622192 357.374146,259.383942 358.001526,259.145691 
z"/>
<path fill="#F1B337" opacity="1.000000" stroke="none" 
	d="
M354.687805,259.885132 
	C346.058990,265.619568 336.816650,271.062500 328.023407,277.153717 
	C323.932129,279.987793 320.712524,284.080200 316.861877,288.217590 
	C272.301880,318.902313 256.875610,376.051056 279.318542,424.121124 
	C287.989868,442.694061 301.318207,457.268646 318.004150,469.083130 
	C318.401154,469.444611 318.836670,469.613953 319.279541,469.758423 
	C319.286865,469.733582 319.337372,469.722748 319.337372,469.722748 
	C321.402679,472.375031 322.964172,475.791931 325.622772,477.543854 
	C335.728973,484.203278 346.189667,490.324707 356.744232,496.918488 
	C335.428223,494.254852 316.615936,485.134247 300.013611,471.425568 
	C275.723816,451.369385 261.403076,425.377228 257.366943,394.332977 
	C249.087143,330.647797 290.466888,272.917694 352.766174,259.983429 
	C353.251221,259.882721 353.760284,259.897919 354.687805,259.885132 
z"/>
<path fill="#ED5354" opacity="1.000000" stroke="none" 
	d="
M38.629589,55.342255 
	C39.070896,83.592720 39.042892,111.757301 39.026115,140.379730 
	C33.223297,140.891357 27.408573,140.907623 21.595442,141.012253 
	C17.825865,141.080109 16.040251,139.150986 16.036167,135.551666 
	C16.007879,110.621849 16.004169,85.691963 16.042606,60.762177 
	C16.048756,56.773956 18.518866,55.202637 22.207151,55.194611 
	C27.524792,55.183052 32.842564,55.232788 38.629589,55.342255 
z"/>
<path fill="#3D92F3" opacity="1.000000" stroke="none" 
	d="
M368.265198,208.762131 
	C370.369019,207.206696 372.318909,205.235977 374.385773,205.104584 
	C381.166656,204.673416 387.991150,204.979767 394.796600,204.865601 
	C399.179993,204.792084 401.199432,206.733002 401.131561,211.155334 
	C401.027100,217.960922 401.025909,224.770523 401.132385,231.576050 
	C401.200714,235.941360 399.265594,238.046356 394.880402,238.006882 
	C388.073730,237.945618 381.266235,237.920578 374.459442,237.955048 
	C370.135651,237.976944 368.019592,235.966339 368.062439,231.599991 
	C368.135742,224.130127 368.134674,216.659515 368.265198,208.762131 
z"/>
<path fill="#348DEE" opacity="1.000000" stroke="none" 
	d="
M317.085266,237.770844 
	C311.454254,237.833069 305.823334,237.911713 300.192169,237.952057 
	C296.108948,237.981293 294.083923,235.914871 294.086975,231.834167 
	C294.092194,224.873276 294.089111,217.912369 294.086731,210.951477 
	C294.085327,206.859970 296.085876,204.865280 300.217010,204.918549 
	C305.519562,204.986938 310.823364,204.960999 316.577209,205.510620 
	C317.046967,216.620621 317.066101,227.195740 317.085266,237.770844 
z"/>
<path fill="#338DEE" opacity="1.000000" stroke="none" 
	d="
M243.079285,309.818542 
	C237.453964,309.876343 231.828705,309.941223 226.203308,309.989532 
	C222.093384,310.024872 220.123901,307.909546 220.121643,303.862213 
	C220.117798,296.908905 220.112579,289.955597 220.123398,283.002289 
	C220.129730,278.942902 222.101288,276.905029 226.243668,276.959869 
	C231.540436,277.029968 236.838531,277.000000 242.585114,277.542847 
	C243.049225,288.654541 243.064255,299.236542 243.079285,309.818542 
z"/>
<path fill="#338CED" opacity="1.000000" stroke="none" 
	d="
M233.947510,382.001221 
	C220.109070,382.001221 220.107666,382.001221 220.109772,368.697021 
	C220.110504,364.048981 220.078217,359.400421 220.139145,354.753113 
	C220.185318,351.231903 221.855835,349.065216 225.561401,349.028931 
	C231.519623,348.970581 237.478821,349.013306 243.275772,349.013306 
	C242.272919,359.954529 241.299652,370.572845 240.252151,382.001221 
	C238.590027,382.001221 236.509399,382.001221 233.947510,382.001221 
z"/>
<path fill="#D5DAE7" opacity="1.000000" stroke="none" 
	d="
M317.390137,60.000088 
	C317.388275,68.323883 317.504761,76.151093 317.273865,83.968040 
	C317.233032,85.350075 315.743256,86.689293 314.922577,88.048279 
	C314.045959,86.703041 312.418793,85.365509 312.404907,84.011421 
	C312.182861,62.374844 312.110199,40.735825 312.235474,19.098701 
	C312.243561,17.699263 314.138153,16.310755 315.155212,14.917174 
	C316.023560,16.301867 317.637512,17.682726 317.644623,19.071829 
	C317.713776,32.547096 317.513550,46.023746 317.390137,60.000088 
z"/>
<path fill="#D7DDEA" opacity="1.000000" stroke="none" 
	d="
M390.997528,16.104866 
	C395.184021,13.566617 395.906921,16.031952 395.932404,19.155952 
	C395.994934,26.815594 395.965576,34.476093 395.953033,42.136215 
	C395.931244,55.457649 395.901123,68.779076 395.853149,82.100433 
	C395.848389,83.423172 395.988892,84.864586 395.515106,86.028267 
	C395.166748,86.883873 393.918579,87.887756 393.082825,87.877693 
	C392.328705,87.868622 391.515564,86.630554 390.881470,85.815422 
	C390.629608,85.491623 390.768188,84.847305 390.765686,84.348732 
	C390.654297,62.208035 390.544830,40.067318 390.453796,17.926533 
	C390.451782,17.442411 390.665771,16.957401 390.997528,16.104866 
z"/>
<path fill="#E0E6F4" opacity="1.000000" stroke="none" 
	d="
M77.862572,81.793945 
	C77.765739,61.375813 77.666534,41.434177 77.577454,21.492495 
	C77.571518,20.164951 77.329819,18.719391 77.771957,17.544868 
	C78.157410,16.520964 79.346245,15.141334 80.195061,15.130861 
	C81.084892,15.119884 82.315933,16.396194 82.799110,17.398514 
	C83.258774,18.352068 82.968643,19.678331 82.968246,20.840712 
	C82.961143,41.284828 82.948082,61.728943 82.935501,82.173058 
	C82.934990,83.004089 83.224220,84.010849 82.859161,84.629112 
	C82.128334,85.866829 81.037445,86.891945 80.095207,88.004837 
	C79.353714,86.924408 78.462830,85.912064 77.927528,84.737648 
	C77.613426,84.048546 77.865295,83.101463 77.862572,81.793945 
z"/>
<path fill="#E4EAF8" opacity="1.000000" stroke="none" 
	d="
M161.016434,46.999668 
	C161.010544,59.460831 161.095856,71.423416 160.898773,83.381348 
	C160.873138,84.936813 159.392593,86.468307 158.585953,88.010902 
	C157.717072,86.537025 156.105148,85.070206 156.091064,83.588203 
	C155.889084,62.326214 155.842484,41.061779 155.983093,19.799419 
	C155.993820,18.178883 157.697235,16.569540 158.613831,14.954996 
	C159.440765,16.499414 160.946686,18.028263 160.982513,19.590822 
	C161.188110,28.556002 161.044876,37.529182 161.016434,46.999668 
z"/>
<path fill="#E3E9F7" opacity="1.000000" stroke="none" 
	d="
M234.716095,87.026611 
	C234.293350,83.381569 234.032684,80.079018 234.025589,76.775917 
	C233.984879,57.823307 233.937347,38.869930 234.120087,19.919008 
	C234.136124,18.255508 235.794922,16.607845 236.690689,14.952826 
	C237.568130,16.621433 239.200912,18.286638 239.208450,19.959166 
	C239.304321,41.236019 239.165421,62.513920 239.090546,83.791573 
	C239.080856,86.548988 239.020126,89.220642 234.716095,87.026611 
z"/>
<path fill="#549FFE" opacity="1.000000" stroke="none" 
	d="
M317.502716,237.839874 
	C317.066101,227.195740 317.046967,216.620621 317.044373,205.585205 
	C326.530640,204.530243 327.096100,205.045029 327.100647,214.283798 
	C327.103119,219.234177 327.105286,224.184570 327.100037,229.134949 
	C327.091309,237.340897 326.368988,238.028748 317.502716,237.839874 
z"/>
<path fill="#549FFE" opacity="1.000000" stroke="none" 
	d="
M243.499115,309.883667 
	C243.064255,299.236542 243.049225,288.654541 243.053375,277.614258 
	C252.581497,276.587494 253.129532,277.085846 253.135391,286.328430 
	C253.138412,291.120758 253.138672,295.913086 253.135330,300.705414 
	C253.129166,309.531769 252.594177,310.066803 243.499115,309.883667 
z"/>
<path fill="#F4B63A" opacity="1.000000" stroke="none" 
	d="
M365.092102,500.343994 
	C371.984680,501.664551 379.026764,503.317780 386.469666,504.977234 
	C386.914429,505.429810 386.958344,505.876129 386.960297,506.657776 
	C380.614532,506.998657 374.310760,507.004211 367.548035,506.997345 
	C366.473297,504.882141 365.857483,502.779388 365.092102,500.343994 
z"/>
<path fill="#F1B337" opacity="1.000000" stroke="none" 
	d="
M357.652954,259.100677 
	C357.374146,259.383942 356.746765,259.622192 355.775269,259.866211 
	C356.055542,259.599884 356.679962,259.327789 357.652954,259.100677 
z"/>
<path fill="#D5D9E2" opacity="1.000000" stroke="none" 
	d="
M443.760254,259.413574 
	C443.792358,259.143341 443.973511,259.089233 444.436462,259.003052 
	C444.448639,259.190552 444.178986,259.410126 443.760254,259.413574 
z"/>
<path fill="#3E3F3F" opacity="1.000000" stroke="none" 
	d="
M210.966110,247.033844 
	C206.741714,242.540634 205.111847,237.437958 205.113495,231.727325 
	C205.115479,224.902267 205.045700,218.076370 205.129013,211.252335 
	C205.288895,198.156342 213.327820,190.069855 226.313736,189.936493 
	C233.470932,189.862961 240.631210,189.830276 247.787170,189.951385 
	C259.783875,190.154419 267.869812,198.088806 268.098328,209.955429 
	C268.248901,217.776047 268.264923,225.606049 268.067749,233.424942 
	C267.795319,244.231262 260.044678,252.341522 249.196259,252.830475 
	C240.890793,253.204803 232.488632,253.528168 224.258942,252.654602 
	C219.774841,252.178635 215.560349,249.162674 210.966110,247.033844 
M243.921646,237.905365 
	C252.434402,238.026001 253.121445,237.375626 253.131317,229.148834 
	C253.137268,224.192154 253.134933,219.235489 253.131912,214.278809 
	C253.126266,205.026443 252.576172,204.527634 242.133728,204.979858 
	C236.836655,204.964844 231.539032,204.991165 226.242676,204.921570 
	C222.102402,204.867172 220.130493,206.901993 220.125977,210.965088 
	C220.118256,217.917877 220.123596,224.870667 220.123962,231.823456 
	C220.124176,235.881897 222.120209,237.980194 226.212509,237.949677 
	C231.837143,237.907745 237.461548,237.830765 243.921646,237.905365 
z"/>
<path fill="#3E3F3F" opacity="1.000000" stroke="none" 
	d="
M61.512550,269.609741 
	C65.962486,264.262543 71.398933,261.922852 77.947319,261.955994 
	C85.437462,261.993896 92.930412,261.847778 100.417664,262.000763 
	C111.749084,262.232330 119.838333,270.189362 120.152115,281.545990 
	C120.372681,289.528961 120.374443,297.528961 120.133408,305.511078 
	C119.798599,316.598633 111.865692,324.547729 100.751472,324.923584 
	C93.103310,325.182251 85.437737,325.107697 77.783752,324.970032 
	C66.417793,324.765625 58.275909,317.673431 57.466194,306.452698 
	C56.845146,297.846436 56.962463,289.135437 57.516964,280.520325 
	C57.749313,276.910278 59.959816,273.427612 61.512550,269.609741 
M94.151291,277.016876 
	C88.830055,277.003510 83.508537,277.019623 78.187691,276.966919 
	C74.276421,276.928192 72.271072,278.890625 72.230156,282.710510 
	C72.153557,289.860352 72.163582,297.011932 72.224113,304.162079 
	C72.256485,307.985748 74.265053,310.005310 78.140388,309.981934 
	C83.790932,309.947815 89.441223,309.871307 95.930122,309.943085 
	C104.695709,310.069916 105.204559,309.566833 105.212563,300.730225 
	C105.216919,295.925018 105.216331,291.119812 105.212723,286.314606 
	C105.205765,277.060455 104.672157,276.579468 94.151291,277.016876 
z"/>
<path fill="#3F3F40" opacity="1.000000" stroke="none" 
	d="
M86.010811,189.920166 
	C91.173744,189.928101 95.842392,189.830811 100.504387,189.964966 
	C111.699715,190.287170 119.760376,198.036804 120.116737,209.120422 
	C120.378967,217.276154 120.372650,225.453369 120.119591,233.609634 
	C119.782715,244.467209 111.973213,252.412003 101.067711,252.856262 
	C92.916809,253.188278 84.731537,253.173752 76.579384,252.856232 
	C65.588249,252.428131 57.808144,244.506866 57.291595,233.173340 
	C56.935406,225.358154 56.935123,217.500778 57.287247,209.685318 
	C57.827007,197.705231 65.969902,190.146149 78.015152,189.930283 
	C80.513863,189.885483 83.014015,189.921432 86.010811,189.920166 
M94.147598,204.980667 
	C88.825676,204.965714 83.503510,204.976822 78.181915,204.927185 
	C74.273285,204.890717 72.268311,206.853638 72.229332,210.677704 
	C72.156433,217.828644 72.164955,224.981201 72.223969,232.132385 
	C72.255623,235.967957 74.293861,237.966934 78.153664,237.945572 
	C83.804504,237.914291 89.455032,237.826523 95.938683,237.900131 
	C104.682510,238.037445 105.203804,237.520721 105.211197,228.676437 
	C105.215218,223.872818 105.215073,219.069214 105.211197,214.265594 
	C105.203735,205.024307 104.642822,204.520142 94.147598,204.980667 
z"/>
<path fill="#3F3F40" opacity="1.000000" stroke="none" 
	d="
M142.268158,192.022064 
	C145.342224,191.224213 148.052948,190.124222 150.794922,190.039948 
	C158.775452,189.794678 166.772812,189.789459 174.755539,189.998093 
	C185.820389,190.287292 193.796127,198.268677 194.100800,209.375626 
	C194.319763,217.357697 194.319489,225.355316 194.103592,233.337509 
	C193.798737,244.607788 185.740509,252.583817 174.339859,252.909302 
	C166.690598,253.127701 159.026138,253.106415 151.375443,252.915009 
	C139.802917,252.625473 131.686401,244.702698 131.228134,233.057449 
	C130.920822,225.247879 130.974365,217.409424 131.236618,209.596329 
	C131.495041,201.896667 135.019379,195.939575 142.268158,192.022064 
M169.929977,237.902679 
	C178.639572,238.032379 179.161835,237.511765 179.168243,228.665344 
	C179.171722,223.868042 179.171555,219.070755 179.168259,214.273453 
	C179.161911,205.021973 178.612396,204.525543 168.140793,204.980133 
	C162.813309,204.965210 157.485550,204.979446 152.158447,204.925690 
	C148.255188,204.886292 146.222839,206.807526 146.186691,210.656357 
	C146.119446,217.814850 146.123245,224.974777 146.182709,232.133408 
	C146.214630,235.976471 148.267105,237.966095 152.125473,237.945572 
	C157.782333,237.915466 163.438889,237.828613 169.929977,237.902679 
z"/>
<path fill="#3E3F3F" opacity="1.000000" stroke="none" 
	d="
M192.559967,273.800842 
	C193.061890,286.053558 194.220322,298.020172 193.387955,309.846680 
	C192.795273,318.267395 184.569885,324.413269 175.812088,324.814789 
	C167.178558,325.210632 158.497818,325.235107 149.865509,324.830780 
	C139.425735,324.341766 131.794220,316.415405 131.276993,305.590729 
	C130.888336,297.456451 130.854645,289.269287 131.295898,281.140015 
	C131.915100,269.732025 140.111847,262.186188 151.528397,261.993164 
	C158.848175,261.869354 166.171692,261.964111 173.493530,261.964569 
	C182.114578,261.965118 188.462799,265.702332 192.559967,273.800842 
M169.925507,309.945221 
	C178.650406,310.067230 179.162750,309.557556 179.169647,300.718140 
	C179.173401,295.919922 179.173111,291.121735 179.169754,286.323517 
	C179.163269,277.068970 178.625626,276.581970 168.144867,277.016693 
	C162.818283,277.003632 157.491440,277.019073 152.165222,276.967926 
	C148.265121,276.930481 146.226593,278.855194 146.187897,282.697693 
	C146.115814,289.854797 146.123749,297.013519 146.182724,304.170868 
	C146.214340,308.010162 148.251083,310.003326 152.118073,309.981354 
	C157.774399,309.949158 163.430466,309.872833 169.925507,309.945221 
z"/>
<path fill="#3E3F3F" opacity="1.000000" stroke="none" 
	d="
M79.187469,333.998108 
	C86.497025,333.999146 93.332214,333.898590 100.163254,334.024200 
	C111.786682,334.237946 119.875572,342.211304 120.167374,353.879456 
	C120.363144,361.707611 120.374580,369.549713 120.153023,377.376678 
	C119.831291,388.742828 111.741219,396.720459 100.396172,396.962830 
	C92.899574,397.122955 85.395958,397.073792 77.897125,396.983063 
	C65.995308,396.839111 57.788315,389.060211 57.274601,377.085114 
	C56.946320,369.432587 56.963741,361.744995 57.264935,354.090363 
	C57.752602,341.696564 65.791168,334.334320 79.187469,333.998108 
M95.938393,381.944672 
	C104.726143,382.073975 105.204849,381.602417 105.212959,372.770111 
	C105.217369,367.966309 105.216850,363.162537 105.213120,358.358734 
	C105.205963,349.127167 104.661812,348.635437 94.153496,349.046478 
	C88.831825,349.033325 83.509842,349.051117 78.188591,348.996765 
	C74.271271,348.956757 72.274704,350.933716 72.231720,354.744690 
	C72.151077,361.894958 72.156136,369.047302 72.228142,376.197754 
	C72.266380,379.994934 74.214333,382.043640 78.139534,381.995148 
	C83.790291,381.925415 89.441284,381.874023 95.938393,381.944672 
z"/>
<path fill="#3E3F3F" opacity="1.000000" stroke="none" 
	d="
M131.151337,375.683289 
	C131.150436,368.566071 131.070435,361.912903 131.168564,355.262329 
	C131.361008,342.219086 139.499451,334.100555 152.420013,334.008118 
	C159.570541,333.956940 166.723114,333.911682 173.872345,334.021027 
	C185.790512,334.203247 193.878204,342.165192 194.134430,354.061951 
	C194.299103,361.708130 194.303833,369.363892 194.132172,377.009796 
	C193.866135,388.860321 185.733231,396.798645 173.791260,396.980560 
	C166.974533,397.084412 160.154907,397.016205 153.336670,396.998444 
	C139.677948,396.962891 132.202820,389.928467 131.151337,375.683289 
M168.144379,349.046082 
	C162.817703,349.033234 157.490784,349.047211 152.164429,348.998596 
	C148.263809,348.963013 146.228500,350.901337 146.188019,354.735748 
	C146.112442,361.892883 146.116150,369.051849 146.185287,376.209106 
	C146.222168,380.026001 148.204453,382.040863 152.117706,381.994232 
	C157.773834,381.926880 163.430161,381.874390 169.932953,381.945740 
	C178.689362,382.073303 179.163269,381.603638 179.170135,372.758911 
	C179.173874,367.961487 179.173477,363.164062 179.170303,358.366638 
	C179.164154,349.132111 178.622879,348.640594 168.144379,349.046082 
z"/>
<path fill="#40403F" opacity="1.000000" stroke="none" 
	d="
M318.042664,468.890991 
	C301.318207,457.268646 287.989868,442.694061 279.318542,424.121124 
	C256.875610,376.051056 272.301880,318.902313 316.809753,288.576447 
	C333.083282,278.357666 350.338287,272.193481 369.381836,270.622620 
	C422.685638,266.225769 473.411713,304.819031 482.942535,357.429901 
	C493.475006,415.569946 458.720917,469.630341 401.560303,483.259888 
	C372.695312,490.142548 345.419495,485.187317 319.665680,469.833466 
	C319.337372,469.722748 319.286865,469.733582 319.151978,469.522339 
	C318.692291,469.171021 318.367493,469.031006 318.042664,468.890991 
M363.265259,286.349030 
	C319.165558,294.692017 281.743805,334.889618 285.175232,370.624908 
	C290.865082,371.390259 299.569366,368.702148 299.644257,378.146393 
	C299.721649,387.906006 290.739136,385.134705 284.946411,386.103577 
	C284.711609,399.733643 291.271027,418.417358 301.705414,432.537750 
	C317.024872,453.268890 337.250610,466.171234 363.807922,470.063660 
	C365.541443,470.298706 367.274963,470.533752 369.561859,470.843811 
	C369.561859,468.118958 369.489197,465.984589 369.576324,463.856689 
	C369.787292,458.704193 372.575470,455.513641 376.860931,455.409576 
	C381.300110,455.301788 384.324219,458.644775 384.544708,464.014435 
	C384.636230,466.243256 384.559875,468.478973 384.559875,470.782043 
	C441.567474,465.574066 469.467712,416.164368 468.839142,385.957245 
	C463.109192,385.368530 454.817810,387.716309 454.412109,378.764862 
	C453.946014,368.481384 463.357483,371.605286 469.155731,370.536469 
	C467.118988,325.388367 426.370575,287.203552 384.778717,286.310028 
	C383.879700,291.981262 386.733429,300.645874 377.216675,300.816864 
	C367.188385,300.997101 370.335388,291.935638 369.229767,285.809387 
	C367.264862,286.045746 365.654572,286.239471 363.265259,286.349030 
z"/>
<path fill="#FBC856" opacity="1.000000" stroke="none" 
	d="
M318.004150,469.083130 
	C318.367493,469.031006 318.692291,469.171021 319.144653,469.547180 
	C318.836670,469.613953 318.401154,469.444611 318.004150,469.083130 
z"/>
<path fill="#338CED" opacity="1.000000" stroke="none" 
	d="
M243.086044,237.768799 
	C237.461548,237.830765 231.837143,237.907745 226.212509,237.949677 
	C222.120209,237.980194 220.124176,235.881897 220.123962,231.823456 
	C220.123596,224.870667 220.118256,217.917877 220.125977,210.965088 
	C220.130493,206.901993 222.102402,204.867172 226.242676,204.921570 
	C231.539032,204.991165 236.836655,204.964844 242.582916,205.515289 
	C243.050095,216.623413 243.068069,227.196106 243.086044,237.768799 
z"/>
<path fill="#549FFE" opacity="1.000000" stroke="none" 
	d="
M243.503845,237.837097 
	C243.068069,227.196106 243.050095,216.623413 243.050430,205.590820 
	C252.576172,204.527634 253.126266,205.026443 253.131912,214.278809 
	C253.134933,219.235489 253.137268,224.192154 253.131317,229.148834 
	C253.121445,237.375626 252.434402,238.026001 243.503845,237.837097 
z"/>
<path fill="#338CED" opacity="1.000000" stroke="none" 
	d="
M95.091621,309.812866 
	C89.441223,309.871307 83.790932,309.947815 78.140388,309.981934 
	C74.265053,310.005310 72.256485,307.985748 72.224113,304.162079 
	C72.163582,297.011932 72.153557,289.860352 72.230156,282.710510 
	C72.271072,278.890625 74.276421,276.928192 78.187691,276.966919 
	C83.508537,277.019623 88.830055,277.003510 94.598274,277.547485 
	C95.060715,288.656342 95.076172,299.234619 95.091621,309.812866 
z"/>
<path fill="#549FFE" opacity="1.000000" stroke="none" 
	d="
M95.510872,309.877991 
	C95.076172,299.234619 95.060715,288.656342 95.067383,277.620361 
	C104.672157,276.579468 105.205765,277.060455 105.212723,286.314606 
	C105.216331,291.119812 105.216919,295.925018 105.212563,300.730225 
	C105.204559,309.566833 104.695709,310.069916 95.510872,309.877991 
z"/>
<path fill="#338CED" opacity="1.000000" stroke="none" 
	d="
M95.105698,237.762833 
	C89.455032,237.826523 83.804504,237.914291 78.153664,237.945572 
	C74.293861,237.966934 72.255623,235.967957 72.223969,232.132385 
	C72.164955,224.981201 72.156433,217.828644 72.229332,210.677704 
	C72.268311,206.853638 74.273285,204.890717 78.181915,204.927185 
	C83.503510,204.976822 88.825676,204.965714 94.595413,205.517654 
	C95.064049,216.624039 95.084877,227.193436 95.105698,237.762833 
z"/>
<path fill="#549FFE" opacity="1.000000" stroke="none" 
	d="
M95.522186,237.831482 
	C95.084877,227.193436 95.064049,216.624039 95.063583,205.595108 
	C104.642822,204.520142 105.203735,205.024307 105.211197,214.265594 
	C105.215073,219.069214 105.215218,223.872818 105.211197,228.676437 
	C105.203804,237.520721 104.682510,238.037445 95.522186,237.831482 
z"/>
<path fill="#338CED" opacity="1.000000" stroke="none" 
	d="
M169.095581,237.765930 
	C163.438889,237.828613 157.782333,237.915466 152.125473,237.945572 
	C148.267105,237.966095 146.214630,235.976471 146.182709,232.133408 
	C146.123245,224.974777 146.119446,217.814850 146.186691,210.656357 
	C146.222839,206.807526 148.255188,204.886292 152.158447,204.925690 
	C157.485550,204.979446 162.813309,204.965210 168.588501,205.516205 
	C169.056000,216.623505 169.075790,227.194717 169.095581,237.765930 
z"/>
<path fill="#549FFE" opacity="1.000000" stroke="none" 
	d="
M169.512787,237.834305 
	C169.075790,227.194717 169.056000,216.623505 169.056381,205.592606 
	C178.612396,204.525543 179.161911,205.021973 179.168259,214.273453 
	C179.171555,219.070755 179.171722,223.868042 179.168243,228.665344 
	C179.161835,237.511765 178.639572,238.032379 169.512787,237.834305 
z"/>
<path fill="#338CED" opacity="1.000000" stroke="none" 
	d="
M169.086655,309.815338 
	C163.430466,309.872833 157.774399,309.949158 152.118073,309.981354 
	C148.251083,310.003326 146.214340,308.010162 146.182724,304.170868 
	C146.123749,297.013519 146.115814,289.854797 146.187897,282.697693 
	C146.226593,278.855194 148.265121,276.930481 152.165222,276.967926 
	C157.491440,277.019073 162.818283,277.003632 168.592010,277.546661 
	C169.054977,288.656189 169.070816,299.235779 169.086655,309.815338 
z"/>
<path fill="#549FFE" opacity="1.000000" stroke="none" 
	d="
M169.506073,309.880280 
	C169.070816,299.235779 169.054977,288.656189 169.060760,277.618774 
	C178.625626,276.581970 179.163269,277.068970 179.169754,286.323517 
	C179.173111,291.121735 179.173401,295.919922 179.169647,300.718140 
	C179.162750,309.557556 178.650406,310.067230 169.506073,309.880280 
z"/>
<path fill="#338CED" opacity="1.000000" stroke="none" 
	d="
M95.092163,381.814758 
	C89.441284,381.874023 83.790291,381.925415 78.139534,381.995148 
	C74.214333,382.043640 72.266380,379.994934 72.228142,376.197754 
	C72.156136,369.047302 72.151077,361.894958 72.231720,354.744690 
	C72.274704,350.933716 74.271271,348.956757 78.188591,348.996765 
	C83.509842,349.051117 88.831825,349.033325 94.600220,349.572235 
	C95.062019,360.670258 95.077095,371.242493 95.092163,381.814758 
z"/>
<path fill="#549FFE" opacity="1.000000" stroke="none" 
	d="
M95.515274,381.879700 
	C95.077095,371.242493 95.062019,360.670258 95.069946,349.641724 
	C104.661812,348.635437 105.205963,349.127167 105.213120,358.358734 
	C105.216850,363.162537 105.217369,367.966309 105.212959,372.770111 
	C105.204849,381.602417 104.726143,382.073975 95.515274,381.879700 
z"/>
<path fill="#338CED" opacity="1.000000" stroke="none" 
	d="
M169.086395,381.815552 
	C163.430161,381.874390 157.773834,381.926880 152.117706,381.994232 
	C148.204453,382.040863 146.222168,380.026001 146.185287,376.209106 
	C146.116150,369.051849 146.112442,361.892883 146.188019,354.735748 
	C146.228500,350.901337 148.263809,348.963013 152.164429,348.998596 
	C157.490784,349.047211 162.817703,349.033234 168.592072,349.570831 
	C169.055313,360.668915 169.070847,371.242218 169.086395,381.815552 
z"/>
<path fill="#549FFE" opacity="1.000000" stroke="none" 
	d="
M169.509674,381.880646 
	C169.070847,371.242218 169.055313,360.668915 169.061310,349.639069 
	C178.622879,348.640594 179.164154,349.132111 179.170303,358.366638 
	C179.173477,363.164062 179.173874,367.961487 179.170135,372.758911 
	C179.163269,381.603638 178.689362,382.073303 169.509674,381.880646 
z"/>
<path fill="#E3E9F7" opacity="1.000000" stroke="none" 
	d="
M364.044281,286.433167 
	C365.654572,286.239471 367.264862,286.045746 369.229767,285.809387 
	C370.335388,291.935638 367.188385,300.997101 377.216675,300.816864 
	C386.733429,300.645874 383.879700,291.981262 384.778717,286.310028 
	C426.370575,287.203552 467.118988,325.388367 469.155731,370.536469 
	C463.357483,371.605286 453.946014,368.481384 454.412109,378.764862 
	C454.817810,387.716309 463.109192,385.368530 468.839142,385.957245 
	C469.467712,416.164368 441.567474,465.574066 384.559875,470.782043 
	C384.559875,468.478973 384.636230,466.243256 384.544708,464.014435 
	C384.324219,458.644775 381.300110,455.301788 376.860931,455.409576 
	C372.575470,455.513641 369.787292,458.704193 369.576324,463.856689 
	C369.489197,465.984589 369.561859,468.118958 369.561859,470.843811 
	C367.274963,470.533752 365.541443,470.298706 363.294983,469.645691 
	C361.746277,468.434174 360.783447,467.514557 359.663391,466.866608 
	C348.662323,460.502441 338.743958,453.006165 330.420959,443.148621 
	C311.711578,420.989655 304.195648,395.296417 307.336456,367.041779 
	C310.971436,334.341370 327.568054,309.138733 355.914520,291.962555 
	C358.713562,290.266510 361.338531,288.283173 364.044281,286.433167 
M354.701599,381.697021 
	C357.059265,392.314972 363.897522,399.117279 373.871460,400.766083 
	C382.878723,402.255096 391.757599,397.483368 397.195984,388.686707 
	C398.073456,387.267365 400.391663,386.023895 402.095337,385.954102 
	C409.404816,385.654572 416.734863,385.907867 424.054810,385.793884 
	C429.149872,385.714600 432.324371,382.811066 432.447113,378.469696 
	C432.576782,373.884491 429.395752,370.917664 423.966095,370.837677 
	C417.145020,370.737183 410.317444,370.671844 403.500671,370.868225 
	C400.228973,370.962494 398.272003,370.220490 396.420471,367.068146 
	C394.490509,363.782318 391.372437,360.834412 388.112244,358.797791 
	C385.233093,356.999146 384.474365,355.166840 384.513397,352.056671 
	C384.659576,340.410370 384.678650,328.759552 384.518219,317.113525 
	C384.433289,310.948273 380.020050,307.419586 374.793182,309.040649 
	C370.591339,310.343811 369.528473,313.677734 369.537781,317.662079 
	C369.564972,329.310211 369.474609,340.959137 369.594391,352.606079 
	C369.622894,355.379669 368.910767,357.057098 366.302094,358.508728 
	C357.610016,363.345520 353.770172,370.963776 354.701599,381.697021 
z"/>
<path fill="#D7DBE3" opacity="1.000000" stroke="none" 
	d="
M363.654785,286.391113 
	C361.338531,288.283173 358.713562,290.266510 355.914520,291.962555 
	C327.568054,309.138733 310.971436,334.341370 307.336456,367.041779 
	C304.195648,395.296417 311.711578,420.989655 330.420959,443.148621 
	C338.743958,453.006165 348.662323,460.502441 359.663391,466.866608 
	C360.783447,467.514557 361.746277,468.434174 362.900269,469.538116 
	C337.250610,466.171234 317.024872,453.268890 301.705414,432.537750 
	C291.271027,418.417358 284.711609,399.733643 284.946411,386.103577 
	C290.739136,385.134705 299.721649,387.906006 299.644257,378.146393 
	C299.569366,368.702148 290.865082,371.390259 285.175232,370.624908 
	C281.743805,334.889618 319.165558,294.692017 363.654785,286.391113 
z"/>
<path fill="#404040" opacity="1.000000" stroke="none" 
	d="
M354.621613,381.293701 
	C353.770172,370.963776 357.610016,363.345520 366.302094,358.508728 
	C368.910767,357.057098 369.622894,355.379669 369.594391,352.606079 
	C369.474609,340.959137 369.564972,329.310211 369.537781,317.662079 
	C369.528473,313.677734 370.591339,310.343811 374.793182,309.040649 
	C380.020050,307.419586 384.433289,310.948273 384.518219,317.113525 
	C384.678650,328.759552 384.659576,340.410370 384.513397,352.056671 
	C384.474365,355.166840 385.233093,356.999146 388.112244,358.797791 
	C391.372437,360.834412 394.490509,363.782318 396.420471,367.068146 
	C398.272003,370.220490 400.228973,370.962494 403.500671,370.868225 
	C410.317444,370.671844 417.145020,370.737183 423.966095,370.837677 
	C429.395752,370.917664 432.576782,373.884491 432.447113,378.469696 
	C432.324371,382.811066 429.149872,385.714600 424.054810,385.793884 
	C416.734863,385.907867 409.404816,385.654572 402.095337,385.954102 
	C400.391663,386.023895 398.073456,387.267365 397.195984,388.686707 
	C391.757599,397.483368 382.878723,402.255096 373.871460,400.766083 
	C363.897522,399.117279 357.059265,392.314972 354.621613,381.293701 
M374.214355,371.189423 
	C373.061737,372.115173 371.663422,372.856354 370.802917,374.001587 
	C368.292236,377.343109 369.267120,382.158722 372.741974,384.560333 
	C376.239044,386.977295 380.899506,386.088135 383.321381,382.541931 
	C385.704865,379.051910 384.907898,374.009918 381.225433,372.073273 
	C379.457001,371.143250 377.097168,371.337860 374.214355,371.189423 
z"/>
<path fill="#E85253" opacity="1.000000" stroke="none" 
	d="
M374.609741,371.106293 
	C377.097168,371.337860 379.457001,371.143250 381.225433,372.073273 
	C384.907898,374.009918 385.704865,379.051910 383.321381,382.541931 
	C380.899506,386.088135 376.239044,386.977295 372.741974,384.560333 
	C369.267120,382.158722 368.292236,377.343109 370.802917,374.001587 
	C371.663422,372.856354 373.061737,372.115173 374.609741,371.106293 
z"/>
</svg>