<svg version="1.1" id="Layer_1" xmlns="http://www.w3.org/2000/svg" xmlns:xlink="http://www.w3.org/1999/xlink" x="0px" y="0px"
	 width="100%" viewBox="0 0 512 512" enable-background="new 0 0 512 512" xml:space="preserve">
<path fill="#FFFFFF" opacity="1.000000" stroke="none" 
	d="
M228.000000,513.000000 
	C152.367950,513.000000 76.735909,513.000000 1.051929,513.000000 
	C1.051929,342.446045 1.051929,171.892075 1.051929,1.000000 
	C72.021072,1.000000 143.042694,1.000000 214.830933,1.282388 
	C212.830185,4.719378 209.818573,7.587368 209.936554,12.424550 
	C210.158676,21.531088 209.941681,30.647404 210.019928,39.758690 
	C210.076660,46.363567 214.849609,50.971043 221.443817,51.000088 
	C224.922562,51.015408 228.401291,51.033676 231.931839,51.513458 
	C231.952225,65.968674 231.920807,79.961044 231.526215,94.139130 
	C227.644424,94.881874 224.059357,95.175621 220.619247,96.043747 
	C208.823059,99.020592 196.896255,101.651367 185.369827,105.471794 
	C175.983139,108.583008 167.098938,113.210243 157.672791,117.000984 
	C151.032654,107.851219 144.630569,98.921204 138.424973,89.856667 
	C135.341400,85.352524 128.908386,83.901451 123.895935,87.548660 
	C121.286270,89.447517 118.638100,91.293449 115.662254,93.181610 
	C110.684341,96.493027 106.076614,99.822174 101.412903,103.070976 
	C93.960655,108.262321 93.067154,113.114944 98.257004,120.758232 
	C104.164818,129.458908 110.085358,138.150940 115.695396,146.998169 
	C105.508156,158.356506 94.768349,168.937424 85.996460,180.954819 
	C77.999176,191.911011 71.942741,204.319336 65.402122,216.290451 
	C61.254673,223.881409 64.696251,229.011078 73.421074,228.993362 
	C80.901993,228.978180 88.382805,228.910538 96.335999,228.923798 
	C101.869919,228.933151 106.931496,228.884796 112.458862,228.909882 
	C122.628838,228.933640 132.333023,228.883957 142.498077,228.909973 
	C228.143997,228.990524 313.329041,228.995987 398.514099,228.993454 
	C399.674896,228.993408 400.835663,228.892380 402.456848,228.913940 
	C408.241821,228.929642 413.566376,228.869873 419.360382,228.890381 
	C427.151489,228.980331 434.473267,229.016098 441.794800,228.992157 
	C448.908600,228.968887 452.056122,224.047958 449.110168,217.461197 
	C436.983856,190.348343 420.040619,166.711761 398.128601,146.494156 
	C398.891022,145.255814 399.461487,144.295105 400.097565,143.380020 
	C405.439362,135.695236 410.681702,127.937813 416.179901,120.366348 
	C420.328827,114.652992 420.223236,107.874878 412.994202,103.441711 
	C410.247314,101.757202 407.686462,99.769302 404.888062,97.606430 
	C399.779572,93.976570 394.806335,90.685806 389.873199,87.335945 
	C385.145355,84.125511 378.894836,85.155647 375.677429,89.709442 
	C369.180908,98.904472 362.569824,108.018555 355.640625,117.089188 
	C355.110870,116.990242 354.923859,117.011749 354.785370,116.939850 
	C337.908234,108.177437 320.386810,101.225937 301.581543,97.807610 
	C295.075714,96.625031 288.605469,95.247055 282.066589,93.493454 
	C282.048431,79.034752 282.082611,65.040924 282.575195,51.026100 
	C286.012512,51.003407 289.009949,50.788551 291.966278,51.045933 
	C297.529480,51.530270 301.224884,48.955723 302.882660,43.995144 
	C303.880676,41.008884 304.157684,37.580399 303.912415,34.416222 
	C303.041260,23.176956 307.361969,11.134379 299.000000,1.000000 
	C370.300690,1.000000 441.601410,1.000000 512.951050,1.000000 
	C512.951050,171.555954 512.951050,342.111938 512.951050,513.000000 
	C437.645569,513.000000 362.290619,513.000000 286.251709,512.607056 
	C286.408508,511.812012 287.209747,511.239899 288.096130,511.033600 
	C300.411591,508.167572 313.110596,506.408722 324.962769,502.238708 
	C337.910339,497.683319 350.607697,491.810211 362.437012,484.850647 
	C374.701508,477.635010 386.445099,469.180603 397.208008,459.870850 
	C406.893738,451.492859 415.499390,441.672180 423.575409,431.675079 
	C434.319275,418.375519 443.060425,403.666565 449.615051,387.797119 
	C451.790100,382.531036 448.174072,377.168304 442.434937,377.056152 
	C434.289337,376.896851 426.136566,377.107361 417.522827,377.103302 
	C412.034668,377.085938 407.010529,377.125122 401.523987,377.088837 
	C315.877228,377.008911 230.692886,377.003845 145.508560,377.006927 
	C144.348068,377.006958 143.187592,377.110168 141.562042,377.089722 
	C131.068192,377.064331 121.039391,377.114380 110.599121,377.092529 
	C105.457161,377.065674 100.726685,377.110718 95.533173,377.080719 
	C87.581993,377.003876 80.093811,376.989349 72.605690,377.003815 
	C65.349075,377.017853 61.962234,382.171143 65.026810,388.919159 
	C67.848373,395.132050 70.434586,401.578369 74.183983,407.217377 
	C82.300606,419.424591 90.223221,431.940613 99.812080,442.947937 
	C115.089279,460.485260 133.077927,474.984863 153.599457,486.412476 
	C176.234940,499.017365 200.160461,507.269867 225.717484,511.075134 
	C226.555283,511.199860 227.242569,512.335571 228.000000,513.000000 
M161.911438,323.669800 
	C163.739197,330.067139 165.648438,336.442719 167.367218,342.869202 
	C168.597183,347.467987 171.749222,349.968384 176.165604,349.846649 
	C180.335327,349.731659 182.763351,346.527679 183.959351,342.670746 
	C185.398682,338.029083 186.632782,333.324219 188.015442,328.664429 
	C191.401779,317.251801 194.822464,305.849335 198.229324,294.442780 
	C198.928818,295.386475 198.867493,296.230621 199.055725,297.014862 
	C203.030396,313.575775 207.058456,330.123901 211.014542,346.689209 
	C212.153732,351.459320 217.145218,354.277832 222.255524,352.867950 
	C226.430908,351.716064 228.544159,347.441345 227.396713,342.780792 
	C224.562515,331.268951 221.805939,319.738068 219.003250,308.218475 
	C215.054169,291.987091 211.048630,275.769287 207.163284,259.522705 
	C206.117599,255.150116 203.280228,253.246170 199.097839,253.025665 
	C194.843781,252.801392 192.244827,255.232635 191.099167,259.017944 
	C188.280304,268.331604 185.712250,277.720825 182.988785,287.063782 
	C180.686783,294.960907 178.308228,302.835663 175.562347,312.069519 
	C170.419403,294.106628 165.688995,277.588348 160.961182,261.069336 
	C159.704376,256.678009 157.497681,253.219635 152.391144,253.024658 
	C147.183929,252.825790 144.852875,255.910812 143.741882,260.632874 
	C141.292160,271.044830 138.629761,281.406586 136.082291,291.795746 
	C132.101318,308.031189 128.123703,324.267548 124.184944,340.513306 
	C122.321114,348.200775 125.111473,352.641602 131.489502,353.073730 
	C136.498734,353.413147 138.859604,350.705963 139.939117,346.567566 
	C142.437134,336.991089 144.670425,327.345490 147.006195,317.726776 
	C148.845474,310.152435 150.677475,302.576355 152.512711,295.001038 
	C152.823029,295.032104 153.133347,295.063141 153.443680,295.094208 
	C156.110748,304.391296 158.777817,313.688416 161.911438,323.669800 
M459.445557,263.960876 
	C457.033203,262.319977 454.706024,260.533386 452.193634,259.063507 
	C441.658600,252.899948 430.039856,252.671036 418.311249,252.977325 
	C411.811188,253.147064 408.072845,256.366272 408.046967,262.869690 
	C407.938995,290.000793 407.922333,317.133057 408.087646,344.263580 
	C408.112244,348.300018 409.800690,352.680634 414.486359,352.815094 
	C423.043915,353.060699 431.915192,353.595398 440.147644,351.747101 
	C461.020447,347.060974 474.742401,330.707794 476.882446,309.579865 
	C478.664581,291.985870 473.879608,276.393677 459.445557,263.960876 
M395.993103,343.828247 
	C394.931946,338.812256 391.740540,336.861572 386.741577,336.959747 
	C378.966675,337.112396 371.186554,337.000092 363.304993,337.000092 
	C363.304993,328.093933 363.304993,319.706299 363.304993,310.999298 
	C371.409760,310.999298 379.213348,311.075500 387.014557,310.971283 
	C391.842102,310.906799 393.799927,308.820374 393.999298,304.001099 
	C394.237579,298.242401 391.334198,295.074493 385.559692,295.018066 
	C378.131012,294.945465 370.701050,295.000397 363.369629,295.000397 
	C363.369629,285.960663 363.369629,277.570679 363.369629,269.000000 
	C371.724701,269.000000 379.711090,269.012573 387.697449,268.995544 
	C392.928223,268.984406 395.994537,266.195129 395.999786,261.499695 
	C396.005646,256.262543 393.094574,253.069595 387.914154,253.027603 
	C376.919586,252.938477 365.923248,252.933136 354.928864,253.031723 
	C350.015991,253.075775 347.033600,256.146362 347.024628,261.156311 
	C346.974548,289.144135 346.965515,317.132202 347.033508,345.119934 
	C347.045593,350.096619 350.162323,352.984131 355.053833,352.993530 
	C365.882446,353.014313 376.711151,353.009186 387.539795,352.996246 
	C393.182068,352.989502 395.823120,350.366577 395.993103,343.828247 
M308.999969,287.500549 
	C308.999969,281.407745 308.999969,275.314941 308.999969,268.999969 
	C315.831055,268.999969 321.977936,269.020905 328.124603,268.993011 
	C332.614868,268.972656 336.042236,265.661835 335.998077,261.460358 
	C335.948181,256.710083 332.790710,253.055954 328.276978,253.035461 
	C310.119934,252.952957 291.962219,252.964706 273.805023,253.026978 
	C269.462006,253.041855 266.135315,256.558228 266.011536,260.882751 
	C265.879578,265.493408 269.203552,268.967468 273.853058,268.991638 
	C280.122040,269.024261 286.391266,268.999725 292.999573,268.999725 
	C292.999573,271.375916 292.999573,273.180450 292.999573,274.984985 
	C292.999664,298.139832 292.995911,321.294678 293.002594,344.449524 
	C293.004272,350.227875 295.730103,353.043884 301.229706,353.000092 
	C306.312866,352.959595 308.993805,350.037994 308.996521,344.471863 
	C309.005646,325.814728 308.999969,307.157562 308.999969,287.500549 
M40.815880,254.042374 
	C39.544098,256.541748 37.190010,259.030945 37.166393,261.542053 
	C36.903328,289.515289 36.988300,317.491943 37.013062,345.467651 
	C37.016918,349.821625 40.020748,352.958740 44.249451,352.980865 
	C55.073090,353.037445 65.897949,353.059814 76.720306,352.929138 
	C78.188011,352.911407 79.925125,352.276093 81.050987,351.340973 
	C83.983582,348.905304 84.916023,345.624908 83.486176,342.012756 
	C82.052246,338.390259 79.212967,336.905212 75.307121,336.967102 
	C68.026741,337.082428 60.743225,337.000214 53.000072,337.000214 
	C53.000072,334.758911 53.000072,332.973206 53.000072,331.187500 
	C53.000080,308.040924 53.002354,284.894379 52.998722,261.747803 
	C52.997623,254.753830 48.647804,251.743301 40.815880,254.042374 
M97.000328,295.500000 
	C97.000298,311.966309 96.985237,328.432648 97.008179,344.898926 
	C97.016502,350.873169 98.852158,352.855377 104.332535,352.999756 
	C109.535248,353.136749 112.946503,350.292480 112.960686,345.253143 
	C113.039825,317.144196 113.031502,289.034882 112.968628,260.925842 
	C112.957664,256.024780 109.597511,252.933182 104.864159,253.001358 
	C100.165451,253.069031 97.017418,256.261261 97.007553,261.068420 
	C96.984688,272.212250 97.000305,283.356140 97.000328,295.500000 
M241.000000,264.674530 
	C241.000061,291.647522 240.985825,318.620514 241.014359,345.593506 
	C241.019104,350.070007 244.192368,352.976624 248.866211,353.000000 
	C253.655792,353.023956 256.970825,350.224854 256.977478,345.838715 
	C257.020447,317.533813 257.012756,289.228790 256.985107,260.923828 
	C256.980804,256.508942 254.556747,253.786713 250.334106,253.074295 
	C246.082703,252.357010 242.857574,254.275833 241.358459,258.309204 
	C240.753891,259.935791 241.091293,261.912445 241.000000,264.674530 
z"/>
<path fill="#ED5469" opacity="1.000000" stroke="none" 
	d="
M417.986816,377.159851 
	C426.136566,377.107361 434.289337,376.896851 442.434937,377.056152 
	C448.174072,377.168304 451.790100,382.531036 449.615051,387.797119 
	C443.060425,403.666565 434.319275,418.375519 423.575409,431.675079 
	C415.499390,441.672180 406.893738,451.492859 397.208008,459.870850 
	C386.445099,469.180603 374.701508,477.635010 362.437012,484.850647 
	C350.607697,491.810211 337.910339,497.683319 324.962769,502.238708 
	C313.110596,506.408722 300.411591,508.167572 288.096130,511.033600 
	C287.209747,511.239899 286.408508,511.812012 285.783844,512.607056 
	C282.969391,513.000000 279.938812,513.000000 276.184906,512.730103 
	C273.535553,511.985626 271.633331,511.260345 269.679840,511.075012 
	C247.107727,508.933289 225.794647,502.219818 205.441116,492.611420 
	C178.665955,479.971527 155.872238,461.879425 136.365494,439.687836 
	C133.060837,435.928284 130.723602,431.318329 128.252563,427.213226 
	C142.246567,441.369019 157.719955,453.103271 175.178284,461.958740 
	C211.434052,480.348999 249.815170,486.463959 289.739197,478.694061 
	C343.472046,468.236694 384.204834,438.757904 412.034515,391.635651 
	C414.660400,387.189392 416.032593,382.002747 417.986816,377.159851 
z"/>
<path fill="#E63850" opacity="1.000000" stroke="none" 
	d="
M127.939400,427.101288 
	C130.723602,431.318329 133.060837,435.928284 136.365494,439.687836 
	C155.872238,461.879425 178.665955,479.971527 205.441116,492.611420 
	C225.794647,502.219818 247.107727,508.933289 269.679840,511.075012 
	C271.633331,511.260345 273.535553,511.985626 275.730804,512.730103 
	C260.312439,513.000000 244.624878,513.000000 228.468658,513.000000 
	C227.242569,512.335571 226.555283,511.199860 225.717484,511.075134 
	C200.160461,507.269867 176.234940,499.017365 153.599457,486.412476 
	C133.077927,474.984863 115.089279,460.485260 99.812080,442.947937 
	C90.223221,431.940613 82.300606,419.424591 74.183983,407.217377 
	C70.434586,401.578369 67.848373,395.132050 65.026810,388.919159 
	C61.962234,382.171143 65.349075,377.017853 72.605690,377.003815 
	C80.093811,376.989349 87.581993,377.003876 95.502701,377.473206 
	C96.616203,380.112061 97.012924,382.426605 98.023163,384.432098 
	C105.916718,400.102203 116.306961,414.041718 127.939400,427.101288 
z"/>
<path fill="#FFD500" opacity="1.000000" stroke="none" 
	d="
M298.531342,1.000000 
	C307.361969,11.134379 303.041260,23.176956 303.912415,34.416222 
	C304.157684,37.580399 303.880676,41.008884 302.882660,43.995144 
	C301.224884,48.955723 297.529480,51.530270 291.966278,51.045933 
	C289.009949,50.788551 286.012512,51.003407 282.099213,51.012688 
	C273.106079,51.016815 265.047363,51.013351 256.552551,51.005867 
	C254.083954,50.990250 252.051468,50.978645 249.971191,50.618599 
	C244.877762,45.480785 244.586044,39.381767 244.951630,32.988590 
	C245.196426,28.707834 244.972397,24.401552 245.004196,20.107031 
	C245.052002,13.650935 243.667801,6.805630 249.823318,1.953586 
	C250.014175,1.803146 249.946915,1.325241 250.000000,1.000000 
	C266.020905,1.000000 282.041779,1.000000 298.531342,1.000000 
z"/>
<path fill="#FBC700" opacity="1.000000" stroke="none" 
	d="
M249.531342,1.000000 
	C249.946915,1.325241 250.014175,1.803146 249.823318,1.953586 
	C243.667801,6.805630 245.052002,13.650935 245.004196,20.107031 
	C244.972397,24.401552 245.196426,28.707834 244.951630,32.988590 
	C244.586044,39.381767 244.877762,45.480785 249.501099,50.630192 
	C243.345856,51.010357 237.612946,51.030487 231.880035,51.050617 
	C228.401291,51.033676 224.922562,51.015408 221.443817,51.000088 
	C214.849609,50.971043 210.076660,46.363567 210.019928,39.758690 
	C209.941681,30.647404 210.158676,21.531088 209.936554,12.424550 
	C209.818573,7.587368 212.830185,4.719378 215.298767,1.282388 
	C226.354233,1.000000 237.708450,1.000000 249.531342,1.000000 
z"/>
<path fill="#DBEDFF" opacity="1.000000" stroke="none" 
	d="
M142.027100,377.165222 
	C143.187592,377.110168 144.348068,377.006958 145.508560,377.006927 
	C230.692886,377.003845 315.877228,377.008911 401.473480,377.431274 
	C393.045074,394.997894 381.725494,410.236389 366.975098,422.653198 
	C365.380981,420.560181 364.063599,418.655823 362.486084,416.999146 
	C359.127167,413.471649 354.103210,412.964691 351.089752,415.689514 
	C348.194275,418.307617 348.175446,423.760468 351.021729,427.419678 
	C352.417572,429.214172 353.765320,431.046173 354.935242,433.143646 
	C343.154510,439.980835 331.573364,446.535553 319.847412,452.753784 
	C318.794586,450.097107 317.969482,447.740204 316.960510,445.464813 
	C315.137665,441.354004 311.285980,439.735687 307.044678,441.179535 
	C303.593018,442.354614 301.339020,446.734161 302.417114,450.571564 
	C303.178558,453.281860 304.245789,455.906219 304.870911,458.743347 
	C291.680023,463.113953 278.487732,465.554077 264.932129,465.407837 
	C264.937012,462.639862 265.102203,460.296967 264.888153,457.989258 
	C264.415802,452.896057 261.509247,450.032837 257.057007,450.003265 
	C252.593735,449.973572 249.607162,452.809021 249.131241,457.875763 
	C248.883621,460.511810 249.082428,463.189819 248.652588,465.900208 
	C245.487579,465.645508 242.749557,465.339478 239.774033,464.765381 
	C230.296036,460.335358 221.055511,456.173370 211.834351,451.593628 
	C212.056488,441.892487 207.242722,438.691803 198.899002,442.546112 
	C198.304626,442.820740 197.642395,442.948456 196.872742,442.829712 
	C173.493912,424.921021 154.363937,403.886505 142.027100,377.165222 
z"/>
<path fill="#DBEDFF" opacity="1.000000" stroke="none" 
	d="
M401.996460,228.838470 
	C400.835663,228.892380 399.674896,228.993408 398.514099,228.993454 
	C313.329041,228.995987 228.143997,228.990524 142.647583,228.605911 
	C154.273499,203.719116 171.278183,183.365265 192.873337,166.824280 
	C194.632034,165.477158 196.969070,164.885117 199.355072,164.116013 
	C204.521683,166.548447 208.468307,165.997711 210.337280,162.094681 
	C211.482910,159.702255 211.393158,156.718307 212.198807,153.876953 
	C222.007126,149.534317 231.474823,145.314713 241.350616,141.030777 
	C244.198975,140.781189 246.639191,140.595932 249.068878,140.833328 
	C249.057327,143.585480 248.940872,145.921844 249.079239,148.243027 
	C249.368652,153.097702 252.392853,156.049332 256.923126,156.075027 
	C261.486755,156.100922 264.602814,153.197449 264.908295,148.395111 
	C265.076935,145.744080 264.927002,143.072769 265.339569,140.331253 
	C268.562286,140.499985 271.422668,140.475891 274.159882,141.044525 
	C284.502625,143.193146 294.805420,145.534210 305.044312,148.192856 
	C304.240479,150.772964 303.480164,152.952530 302.797516,155.156158 
	C301.225586,160.230392 302.510071,163.131790 307.151917,165.108261 
	C310.878723,166.695084 314.907837,165.167984 316.898804,160.951859 
	C318.076233,158.458511 318.557343,155.636353 319.699585,153.008804 
	C331.976929,160.006088 343.906219,166.956619 355.561768,174.091187 
	C353.474548,176.428696 351.254364,178.362732 349.945404,180.788483 
	C348.103760,184.201355 347.981659,187.897537 351.335754,190.721771 
	C354.858673,193.688156 358.638306,192.978485 361.745697,190.284363 
	C363.930481,188.390152 365.357117,185.621521 367.405029,183.380371 
	C381.733185,196.649277 393.444366,211.548141 401.996460,228.838470 
z"/>
<path fill="#ED5469" opacity="1.000000" stroke="none" 
	d="
M397.967072,146.792953 
	C420.040619,166.711761 436.983856,190.348343 449.110168,217.461197 
	C452.056122,224.047958 448.908600,228.968887 441.794800,228.992157 
	C434.473267,229.016098 427.151489,228.980331 419.324127,228.545410 
	C402.251984,191.949677 376.105835,164.683258 341.324463,145.760757 
	C308.518402,127.912926 273.317139,121.922066 236.292709,125.957130 
	C209.932343,128.829987 185.270126,136.943512 163.161377,151.512970 
	C151.165710,159.417999 140.336914,169.093750 128.983444,177.607010 
	C129.559723,176.087494 129.893997,174.701965 130.745697,173.811127 
	C140.486343,163.622910 149.712799,152.841919 160.224075,143.512054 
	C184.242096,122.193520 212.252914,107.936859 243.365005,100.055923 
	C253.424088,97.507866 263.774445,96.109642 274.391327,94.136551 
	C277.233734,94.044540 279.676331,94.001442 282.118958,93.958336 
	C288.605469,95.247055 295.075714,96.625031 301.581543,97.807610 
	C320.386810,101.225937 337.908234,108.177437 354.785370,116.939850 
	C354.923859,117.011749 355.110870,116.990242 355.777344,117.394913 
	C363.190857,122.120361 370.102234,126.463234 377.275452,131.028625 
	C384.347168,136.431747 391.157135,141.612350 397.967072,146.792953 
z"/>
<path fill="#F68B98" opacity="1.000000" stroke="none" 
	d="
M319.992218,453.090271 
	C331.573364,446.535553 343.154510,439.980835 355.232574,433.036713 
	C359.530975,429.416199 363.332489,426.185120 367.134003,422.954041 
	C381.725494,410.236389 393.045074,394.997894 401.935913,377.506775 
	C407.010529,377.125122 412.034668,377.085938 417.522827,377.103271 
	C416.032593,382.002747 414.660400,387.189392 412.034515,391.635651 
	C384.204834,438.757904 343.472046,468.236694 289.739197,478.694061 
	C249.815170,486.463959 211.434052,480.348999 175.178284,461.958740 
	C157.719955,453.103271 142.246567,441.369019 128.252563,427.213226 
	C116.306961,414.041718 105.916718,400.102203 98.023163,384.432098 
	C97.012924,382.426605 96.616203,380.112061 95.965729,377.548218 
	C100.726685,377.110718 105.457161,377.065674 110.759933,377.384888 
	C112.168312,378.978027 113.089905,380.157837 113.827492,381.443268 
	C122.748589,396.989929 133.243317,411.277069 147.120636,423.297119 
	C150.816055,426.447784 154.343597,429.306458 158.062073,432.439697 
	C170.159882,439.504608 182.066742,446.294922 194.213501,453.340027 
	C199.282288,455.319153 204.111160,457.043518 209.308182,458.902893 
	C219.788055,461.036377 229.899796,463.034912 240.011520,465.033417 
	C242.749557,465.339478 245.487579,465.645508 249.106964,465.972168 
	C254.965652,465.944794 259.943024,465.896820 264.920380,465.848877 
	C278.487732,465.554077 291.680023,463.113953 305.260651,458.654846 
	C310.634766,456.624756 315.313477,454.857513 319.992218,453.090271 
z"/>
<path fill="#F78B98" opacity="1.000000" stroke="none" 
	d="
M128.981766,177.970764 
	C140.336914,169.093750 151.165710,159.417999 163.161377,151.512970 
	C185.270126,136.943512 209.932343,128.829987 236.292709,125.957130 
	C273.317139,121.922066 308.518402,127.912926 341.324463,145.760757 
	C376.105835,164.683258 402.251984,191.949677 418.854675,228.465118 
	C413.566376,228.869873 408.241821,228.929642 402.456848,228.913940 
	C393.444366,211.548141 381.733185,196.649277 367.191986,183.094513 
	C363.075928,179.750137 359.455719,176.828659 355.835510,173.907166 
	C343.906219,166.956619 331.976929,160.006088 319.412048,152.755692 
	C314.225372,150.904968 309.674255,149.354111 305.123138,147.803253 
	C294.805420,145.534210 284.502625,143.193146 274.159882,141.044525 
	C271.422668,140.475891 268.562286,140.499985 264.891571,140.216583 
	C259.042938,140.257721 254.061172,140.334198 249.079422,140.410675 
	C246.639191,140.595932 244.198975,140.781189 240.925079,140.992218 
	C229.708450,143.265045 219.325485,145.512115 208.555176,147.798523 
	C203.730652,149.509384 199.293503,151.180878 194.495270,152.910156 
	C181.135132,158.293213 168.993057,165.088531 157.761200,174.116638 
	C153.955765,177.234650 150.466766,180.224060 146.682465,183.338806 
	C132.309158,196.607269 120.535278,211.496994 111.993073,228.836456 
	C106.931496,228.884796 101.869919,228.933151 96.339539,228.538361 
	C96.490692,226.234589 96.911705,224.277283 97.761551,222.528336 
	C105.786308,206.013611 116.859772,191.622086 128.981766,177.970764 
z"/>
<path fill="#ED5469" opacity="1.000000" stroke="none" 
	d="
M161.678162,323.327637 
	C158.777817,313.688416 156.110748,304.391296 153.443680,295.094208 
	C153.133347,295.063141 152.823029,295.032104 152.512711,295.001038 
	C150.677475,302.576355 148.845474,310.152435 147.006195,317.726776 
	C144.670425,327.345490 142.437134,336.991089 139.939117,346.567566 
	C138.859604,350.705963 136.498734,353.413147 131.489502,353.073730 
	C125.111473,352.641602 122.321114,348.200775 124.184944,340.513306 
	C128.123703,324.267548 132.101318,308.031189 136.082291,291.795746 
	C138.629761,281.406586 141.292160,271.044830 143.741882,260.632874 
	C144.852875,255.910812 147.183929,252.825790 152.391144,253.024658 
	C157.497681,253.219635 159.704376,256.678009 160.961182,261.069336 
	C165.688995,277.588348 170.419403,294.106628 175.562347,312.069519 
	C178.308228,302.835663 180.686783,294.960907 182.988785,287.063782 
	C185.712250,277.720825 188.280304,268.331604 191.099167,259.017944 
	C192.244827,255.232635 194.843781,252.801392 199.097839,253.025665 
	C203.280228,253.246170 206.117599,255.150116 207.163284,259.522705 
	C211.048630,275.769287 215.054169,291.987091 219.003250,308.218475 
	C221.805939,319.738068 224.562515,331.268951 227.396713,342.780792 
	C228.544159,347.441345 226.430908,351.716064 222.255524,352.867950 
	C217.145218,354.277832 212.153732,351.459320 211.014542,346.689209 
	C207.058456,330.123901 203.030396,313.575775 199.055725,297.014862 
	C198.867493,296.230621 198.928818,295.386475 198.229324,294.442780 
	C194.822464,305.849335 191.401779,317.251801 188.015442,328.664429 
	C186.632782,333.324219 185.398682,338.029083 183.959351,342.670746 
	C182.763351,346.527679 180.335327,349.731659 176.165604,349.846649 
	C171.749222,349.968384 168.597183,347.467987 167.367218,342.869202 
	C165.648438,336.442719 163.739197,330.067139 161.678162,323.327637 
z"/>
<path fill="#E63950" opacity="1.000000" stroke="none" 
	d="
M128.983444,177.607010 
	C116.859772,191.622086 105.786308,206.013611 97.761551,222.528336 
	C96.911705,224.277283 96.490692,226.234589 95.867195,228.480667 
	C88.382805,228.910538 80.901993,228.978180 73.421074,228.993362 
	C64.696251,229.011078 61.254673,223.881409 65.402122,216.290451 
	C71.942741,204.319336 77.999176,191.911011 85.996460,180.954819 
	C94.768349,168.937424 105.508156,158.356506 116.023071,146.943527 
	C123.200729,141.553101 129.745758,136.368774 136.614258,131.085022 
	C143.955795,126.378815 150.973862,121.772018 157.991913,117.165222 
	C167.098938,113.210243 175.983139,108.583008 185.369827,105.471794 
	C196.896255,101.651367 208.823059,99.020592 220.619247,96.043747 
	C224.059357,95.175621 227.644424,94.881874 231.792297,94.409958 
	C240.613831,94.001335 248.806091,93.507607 257.456024,93.081238 
	C263.272980,93.494209 268.632263,93.839828 273.991547,94.185448 
	C263.774445,96.109642 253.424088,97.507866 243.365005,100.055923 
	C212.252914,107.936859 184.242096,122.193520 160.224075,143.512054 
	C149.712799,152.841919 140.486343,163.622910 130.745697,173.811127 
	C129.893997,174.701965 129.559723,176.087494 128.983444,177.607010 
z"/>
<path fill="#ED5469" opacity="1.000000" stroke="none" 
	d="
M459.706177,264.208496 
	C473.879608,276.393677 478.664581,291.985870 476.882446,309.579865 
	C474.742401,330.707794 461.020447,347.060974 440.147644,351.747101 
	C431.915192,353.595398 423.043915,353.060699 414.486359,352.815094 
	C409.800690,352.680634 408.112244,348.300018 408.087646,344.263580 
	C407.922333,317.133057 407.938995,290.000793 408.046967,262.869690 
	C408.072845,256.366272 411.811188,253.147064 418.311249,252.977325 
	C430.039856,252.671036 441.658600,252.899948 452.193634,259.063507 
	C454.706024,260.533386 457.033203,262.319977 459.706177,264.208496 
M425.001953,271.801849 
	C425.001953,293.396973 425.001953,314.992065 425.001953,336.530212 
	C443.334290,338.575226 460.013855,324.838379 460.825684,305.026794 
	C461.705902,283.545715 447.780060,270.948883 427.713196,269.096985 
	C426.874725,269.019592 425.915527,270.250214 425.001953,271.801849 
z"/>
<path fill="#ED5469" opacity="1.000000" stroke="none" 
	d="
M395.996033,344.241791 
	C395.823120,350.366577 393.182068,352.989502 387.539795,352.996246 
	C376.711151,353.009186 365.882446,353.014313 355.053833,352.993530 
	C350.162323,352.984131 347.045593,350.096619 347.033508,345.119934 
	C346.965515,317.132202 346.974548,289.144135 347.024628,261.156311 
	C347.033600,256.146362 350.015991,253.075775 354.928864,253.031723 
	C365.923248,252.933136 376.919586,252.938477 387.914154,253.027603 
	C393.094574,253.069595 396.005646,256.262543 395.999786,261.499695 
	C395.994537,266.195129 392.928223,268.984406 387.697449,268.995544 
	C379.711090,269.012573 371.724701,269.000000 363.369629,269.000000 
	C363.369629,277.570679 363.369629,285.960663 363.369629,295.000397 
	C370.701050,295.000397 378.131012,294.945465 385.559692,295.018066 
	C391.334198,295.074493 394.237579,298.242401 393.999298,304.001099 
	C393.799927,308.820374 391.842102,310.906799 387.014557,310.971283 
	C379.213348,311.075500 371.409760,310.999298 363.304993,310.999298 
	C363.304993,319.706299 363.304993,328.093933 363.304993,337.000092 
	C371.186554,337.000092 378.966675,337.112396 386.741577,336.959747 
	C391.740540,336.861572 394.931946,338.812256 395.996033,344.241791 
z"/>
<path fill="#ED5469" opacity="1.000000" stroke="none" 
	d="
M308.999969,288.000488 
	C308.999969,307.157562 309.005646,325.814728 308.996521,344.471863 
	C308.993805,350.037994 306.312866,352.959595 301.229706,353.000092 
	C295.730103,353.043884 293.004272,350.227875 293.002594,344.449524 
	C292.995911,321.294678 292.999664,298.139832 292.999573,274.984985 
	C292.999573,273.180450 292.999573,271.375916 292.999573,268.999725 
	C286.391266,268.999725 280.122040,269.024261 273.853058,268.991638 
	C269.203552,268.967468 265.879578,265.493408 266.011536,260.882751 
	C266.135315,256.558228 269.462006,253.041855 273.805023,253.026978 
	C291.962219,252.964706 310.119934,252.952957 328.276978,253.035461 
	C332.790710,253.055954 335.948181,256.710083 335.998077,261.460358 
	C336.042236,265.661835 332.614868,268.972656 328.124603,268.993011 
	C321.977936,269.020905 315.831055,268.999969 308.999969,268.999969 
	C308.999969,275.314941 308.999969,281.407745 308.999969,288.000488 
z"/>
<path fill="#ED5469" opacity="1.000000" stroke="none" 
	d="
M41.210297,253.944870 
	C48.647804,251.743301 52.997623,254.753830 52.998722,261.747803 
	C53.002354,284.894379 53.000080,308.040924 53.000072,331.187500 
	C53.000072,332.973206 53.000072,334.758911 53.000072,337.000214 
	C60.743225,337.000214 68.026741,337.082428 75.307121,336.967102 
	C79.212967,336.905212 82.052246,338.390259 83.486176,342.012756 
	C84.916023,345.624908 83.983582,348.905304 81.050987,351.340973 
	C79.925125,352.276093 78.188011,352.911407 76.720306,352.929138 
	C65.897949,353.059814 55.073090,353.037445 44.249451,352.980865 
	C40.020748,352.958740 37.016918,349.821625 37.013062,345.467651 
	C36.988300,317.491943 36.903328,289.515289 37.166393,261.542053 
	C37.190010,259.030945 39.544098,256.541748 41.210297,253.944870 
z"/>
<path fill="#B6DCFE" opacity="1.000000" stroke="none" 
	d="
M146.952759,423.005096 
	C133.243317,411.277069 122.748589,396.989929 113.827492,381.443268 
	C113.089905,380.157837 112.168312,378.978027 111.171402,377.456787 
	C121.039391,377.114380 131.068192,377.064331 141.562042,377.089752 
	C154.363937,403.886505 173.493912,424.921021 196.880356,443.207428 
	C196.009171,446.961639 194.991379,450.023438 193.973602,453.085236 
	C182.066742,446.294922 170.159882,439.504608 158.368927,432.266602 
	C160.298264,429.916473 162.530045,428.260559 163.829498,426.055237 
	C165.910522,422.523499 166.165634,418.128723 162.642059,415.798645 
	C160.411804,414.323792 156.052856,414.128479 153.658966,415.345886 
	C150.851318,416.773743 149.139740,420.356812 146.952759,423.005096 
z"/>
<path fill="#B6DBFE" opacity="1.000000" stroke="none" 
	d="
M158.077667,173.988037 
	C168.993057,165.088531 181.135132,158.293213 194.531723,153.317719 
	C196.298615,157.092422 197.667999,160.517319 199.037369,163.942215 
	C196.969070,164.885117 194.632034,165.477158 192.873337,166.824280 
	C171.278183,183.365265 154.273499,203.719116 142.186737,228.530212 
	C132.333023,228.883957 122.628838,228.933640 112.458862,228.909882 
	C120.535278,211.496994 132.309158,196.607269 146.741287,183.661102 
	C149.315933,186.304901 151.188339,189.298599 153.876953,191.010040 
	C155.728821,192.188797 159.081985,192.425827 161.078690,191.539505 
	C162.875458,190.741959 164.505096,187.970688 164.864288,185.843063 
	C165.796021,180.324005 161.859116,177.090210 158.077667,173.988037 
z"/>
<path fill="#ED5469" opacity="1.000000" stroke="none" 
	d="
M97.000328,295.000000 
	C97.000305,283.356140 96.984688,272.212250 97.007553,261.068420 
	C97.017418,256.261261 100.165451,253.069031 104.864159,253.001358 
	C109.597511,252.933182 112.957664,256.024780 112.968628,260.925842 
	C113.031502,289.034882 113.039825,317.144196 112.960686,345.253143 
	C112.946503,350.292480 109.535248,353.136749 104.332535,352.999756 
	C98.852158,352.855377 97.016502,350.873169 97.008179,344.898926 
	C96.985237,328.432648 97.000298,311.966309 97.000328,295.000000 
z"/>
<path fill="#ED5469" opacity="1.000000" stroke="none" 
	d="
M241.000000,264.202148 
	C241.091293,261.912445 240.753891,259.935791 241.358459,258.309204 
	C242.857574,254.275833 246.082703,252.357010 250.334106,253.074295 
	C254.556747,253.786713 256.980804,256.508942 256.985107,260.923828 
	C257.012756,289.228790 257.020447,317.533813 256.977478,345.838715 
	C256.970825,350.224854 253.655792,353.023956 248.866211,353.000000 
	C244.192368,352.976624 241.019104,350.070007 241.014359,345.593506 
	C240.985825,318.620514 241.000061,291.647522 241.000000,264.202148 
z"/>
<path fill="#FFD500" opacity="1.000000" stroke="none" 
	d="
M398.128601,146.494156 
	C391.157135,141.612350 384.347168,136.431747 377.281586,130.677338 
	C381.011505,124.079536 385.000244,118.057663 388.981689,112.030975 
	C393.053528,105.867493 396.753723,99.284569 405.040833,97.919693 
	C407.686462,99.769302 410.247314,101.757202 412.994202,103.441711 
	C420.223236,107.874878 420.328827,114.652992 416.179901,120.366348 
	C410.681702,127.937813 405.439362,135.695236 400.097565,143.380020 
	C399.461487,144.295105 398.891022,145.255814 398.128601,146.494156 
z"/>
<path fill="#FFD500" opacity="1.000000" stroke="none" 
	d="
M157.672791,117.000977 
	C150.973862,121.772018 143.955795,126.378815 136.290924,130.912888 
	C130.448563,123.596947 125.321327,116.303383 120.033524,109.128143 
	C116.483170,104.310509 113.667152,99.416229 116.007317,93.163284 
	C118.638100,91.293449 121.286270,89.447517 123.895935,87.548660 
	C128.908386,83.901451 135.341400,85.352524 138.424973,89.856667 
	C144.630569,98.921204 151.032654,107.851219 157.672791,117.000977 
z"/>
<path fill="#FBC700" opacity="1.000000" stroke="none" 
	d="
M115.662254,93.181610 
	C113.667152,99.416229 116.483170,104.310509 120.033524,109.128143 
	C125.321327,116.303383 130.448563,123.596947 135.967453,131.012299 
	C129.745758,136.368774 123.200729,141.553101 116.328033,146.792084 
	C110.085358,138.150940 104.164818,129.458908 98.257004,120.758232 
	C93.067154,113.114944 93.960655,108.262321 101.412903,103.070976 
	C106.076614,99.822174 110.684341,96.493027 115.662254,93.181610 
z"/>
<path fill="#EAB900" opacity="1.000000" stroke="none" 
	d="
M256.998352,93.013870 
	C248.806091,93.507607 240.613831,94.001335 232.155487,94.224243 
	C231.920807,79.961044 231.952225,65.968674 231.931839,51.513458 
	C237.612946,51.030487 243.345856,51.010357 249.548859,50.978638 
	C252.051468,50.978645 254.083954,50.990250 256.556519,51.473404 
	C256.997192,65.634590 256.997772,79.324234 256.998352,93.013870 
z"/>
<path fill="#FBC700" opacity="1.000000" stroke="none" 
	d="
M257.456024,93.081238 
	C256.997772,79.324234 256.997192,65.634590 256.992615,51.477421 
	C265.047363,51.013351 273.106079,51.016815 281.640778,51.033688 
	C282.082611,65.040924 282.048431,79.034752 282.066589,93.493454 
	C279.676331,94.001442 277.233734,94.044540 274.391327,94.136551 
	C268.632263,93.839828 263.272980,93.494209 257.456024,93.081238 
z"/>
<path fill="#FBC700" opacity="1.000000" stroke="none" 
	d="
M404.888062,97.606430 
	C396.753723,99.284569 393.053528,105.867493 388.981689,112.030975 
	C385.000244,118.057663 381.011505,124.079536 377.019775,130.454803 
	C370.102234,126.463234 363.190857,122.120361 356.142761,117.471756 
	C362.569824,108.018555 369.180908,98.904472 375.677429,89.709442 
	C378.894836,85.155647 385.145355,84.125511 389.873199,87.335945 
	C394.806335,90.685806 399.779572,93.976570 404.888062,97.606430 
z"/>
<path fill="#8ECBFF" opacity="1.000000" stroke="none" 
	d="
M264.932129,465.407837 
	C259.943024,465.896820 254.965652,465.944794 249.533936,465.920837 
	C249.082428,463.189819 248.883621,460.511810 249.131241,457.875763 
	C249.607162,452.809021 252.593735,449.973572 257.057007,450.003265 
	C261.509247,450.032837 264.415802,452.896057 264.888153,457.989258 
	C265.102203,460.296967 264.937012,462.639862 264.932129,465.407837 
z"/>
<path fill="#8DCAFE" opacity="1.000000" stroke="none" 
	d="
M194.213501,453.340027 
	C194.991379,450.023438 196.009171,446.961639 197.019318,443.522156 
	C197.642395,442.948456 198.304626,442.820740 198.899002,442.546112 
	C207.242722,438.691803 212.056488,441.892487 211.600067,451.819916 
	C210.544312,454.565308 209.742172,456.666595 208.940033,458.767883 
	C204.111160,457.043518 199.282288,455.319153 194.213501,453.340027 
z"/>
<path fill="#8DCAFE" opacity="1.000000" stroke="none" 
	d="
M319.847412,452.753784 
	C315.313477,454.857513 310.634766,456.624756 305.566284,458.480469 
	C304.245789,455.906219 303.178558,453.281860 302.417114,450.571564 
	C301.339020,446.734161 303.593018,442.354614 307.044678,441.179535 
	C311.285980,439.735687 315.137665,441.354004 316.960510,445.464813 
	C317.969482,447.740204 318.794586,450.097107 319.847412,452.753784 
z"/>
<path fill="#8DCAFE" opacity="1.000000" stroke="none" 
	d="
M366.975098,422.653198 
	C363.332489,426.185120 359.530975,429.416199 355.432129,432.754242 
	C353.765320,431.046173 352.417572,429.214172 351.021729,427.419678 
	C348.175446,423.760468 348.194275,418.307617 351.089752,415.689514 
	C354.103210,412.964691 359.127167,413.471649 362.486084,416.999146 
	C364.063599,418.655823 365.380981,420.560181 366.975098,422.653198 
z"/>
<path fill="#B8DAFB" opacity="1.000000" stroke="none" 
	d="
M209.308197,458.902893 
	C209.742172,456.666595 210.544312,454.565308 211.580719,452.237701 
	C221.055511,456.173370 230.296036,460.335358 239.774033,464.765381 
	C229.899796,463.034912 219.788055,461.036377 209.308197,458.902893 
z"/>
<path fill="#8FCBFE" opacity="1.000000" stroke="none" 
	d="
M249.068878,140.833328 
	C254.061172,140.334198 259.042938,140.257721 264.472687,140.295929 
	C264.927002,143.072769 265.076935,145.744080 264.908295,148.395111 
	C264.602814,153.197449 261.486755,156.100922 256.923126,156.075027 
	C252.392853,156.049332 249.368652,153.097702 249.079239,148.243027 
	C248.940872,145.921844 249.057327,143.585480 249.068878,140.833328 
z"/>
<path fill="#8DCAFE" opacity="1.000000" stroke="none" 
	d="
M305.044312,148.192856 
	C309.674255,149.354111 314.225372,150.904968 319.064026,152.708939 
	C318.557343,155.636353 318.076233,158.458511 316.898804,160.951859 
	C314.907837,165.167984 310.878723,166.695084 307.151917,165.108261 
	C302.510071,163.131790 301.225586,160.230392 302.797516,155.156158 
	C303.480164,152.952530 304.240479,150.772964 305.044312,148.192856 
z"/>
<path fill="#8DCAFE" opacity="1.000000" stroke="none" 
	d="
M355.561768,174.091187 
	C359.455719,176.828659 363.075928,179.750137 366.909180,182.957489 
	C365.357117,185.621521 363.930481,188.390152 361.745697,190.284363 
	C358.638306,192.978485 354.858673,193.688156 351.335754,190.721771 
	C347.981659,187.897537 348.103760,184.201355 349.945404,180.788483 
	C351.254364,178.362732 353.474548,176.428696 355.561768,174.091187 
z"/>
<path fill="#8DCAFE" opacity="1.000000" stroke="none" 
	d="
M199.355072,164.116013 
	C197.667999,160.517319 196.298615,157.092422 194.892792,153.259949 
	C199.293503,151.180878 203.730652,149.509384 208.604858,148.169922 
	C209.980682,150.334625 210.919434,152.167313 211.858185,153.999985 
	C211.393158,156.718307 211.482910,159.702255 210.337280,162.094681 
	C208.468307,165.997711 204.521683,166.548447 199.355072,164.116013 
z"/>
<path fill="#B8DAFB" opacity="1.000000" stroke="none" 
	d="
M212.198807,153.876953 
	C210.919434,152.167313 209.980682,150.334625 208.992218,148.130554 
	C219.325485,145.512115 229.708450,143.265045 240.516953,141.056549 
	C231.474823,145.314713 222.007126,149.534317 212.198807,153.876953 
z"/>
<path fill="#8DCAFE" opacity="1.000000" stroke="none" 
	d="
M147.120636,423.297119 
	C149.139740,420.356812 150.851318,416.773743 153.658966,415.345886 
	C156.052856,414.128479 160.411804,414.323792 162.642059,415.798645 
	C166.165634,418.128723 165.910522,422.523499 163.829498,426.055237 
	C162.530045,428.260559 160.298264,429.916473 158.177979,431.992004 
	C154.343597,429.306458 150.816055,426.447784 147.120636,423.297119 
z"/>
<path fill="#8DCAFE" opacity="1.000000" stroke="none" 
	d="
M157.761200,174.116638 
	C161.859116,177.090210 165.796021,180.324005 164.864288,185.843063 
	C164.505096,187.970688 162.875458,190.741959 161.078690,191.539505 
	C159.081985,192.425827 155.728821,192.188797 153.876953,191.010040 
	C151.188339,189.298599 149.315933,186.304901 147.036606,183.535767 
	C150.466766,180.224060 153.955765,177.234650 157.761200,174.116638 
z"/>
<path fill="#FFFFFF" opacity="1.000000" stroke="none" 
	d="
M425.007263,271.336670 
	C425.915527,270.250214 426.874725,269.019592 427.713196,269.096985 
	C447.780060,270.948883 461.705902,283.545715 460.825684,305.026794 
	C460.013855,324.838379 443.334290,338.575226 425.001953,336.530212 
	C425.001953,314.992065 425.001953,293.396973 425.007263,271.336670 
z"/>
</svg>