<svg version="1.1" id="Layer_1" xmlns="http://www.w3.org/2000/svg" xmlns:xlink="http://www.w3.org/1999/xlink" x="0px" y="0px"
	 width="100%" viewBox="0 0 512 512" enable-background="new 0 0 512 512" xml:space="preserve">
<path fill="#FFFFFF" opacity="1.000000" stroke="none" 
	d="
M292.000000,513.000000 
	C194.690292,513.000000 97.880577,513.000000 1.035435,513.000000 
	C1.035435,342.398590 1.035435,171.797195 1.035435,1.097890 
	C171.559723,1.097890 342.119537,1.097890 512.839661,1.097890 
	C512.839661,171.666550 512.839661,342.333252 512.839661,513.000000 
	C439.463837,513.000000 365.981903,513.000000 292.000000,513.000000 
M241.246750,257.310913 
	C241.140137,273.186340 241.033508,289.061737 240.000381,304.993469 
	C234.174103,304.995636 228.347214,304.945160 222.521713,305.013611 
	C215.576660,305.095184 209.209457,311.582764 208.980911,318.526001 
	C208.731369,326.107727 208.650513,333.715057 207.926819,341.256561 
	C206.761856,353.396179 197.476791,364.328156 185.907394,366.796234 
	C177.819641,368.521576 169.328110,368.354248 161.004395,368.093781 
	C161.004395,363.207611 161.004395,358.321411 161.004395,353.150208 
	C149.813507,353.150208 139.432251,353.150208 128.111389,353.058044 
	C119.296684,353.039062 110.479904,353.123444 101.668335,352.947510 
	C98.387718,352.882019 96.924316,353.667358 96.934425,357.346954 
	C97.043655,397.097473 97.026558,436.848450 96.955383,476.599152 
	C96.949860,479.686371 97.695206,481.135345 101.115677,481.054779 
	C110.423859,480.835632 119.738670,480.898590 129.975204,480.955231 
	C140.156097,480.955231 150.336990,480.955231 161.016937,480.955231 
	C161.016937,475.149261 161.016937,470.058472 161.951752,464.996613 
	C210.429581,464.997742 258.907410,464.985809 307.385254,465.007446 
	C323.167725,465.014496 336.983826,451.218292 336.995667,435.553345 
	C337.012543,413.230225 336.536469,390.894287 337.151825,368.588135 
	C337.614746,351.807190 322.880402,336.020081 305.552490,336.893005 
	C294.754395,337.437042 283.903748,336.936981 273.009979,335.986023 
	C273.006653,311.279846 273.022705,286.573578 272.957184,261.867584 
	C272.952728,260.187561 272.335632,258.509216 272.455261,256.164398 
	C273.949738,256.092010 275.479370,256.201294 276.933411,255.919952 
	C298.530975,251.741013 317.739807,242.514572 333.822937,227.518127 
	C347.926208,214.367783 358.090637,198.453186 364.044250,179.998413 
	C369.489594,163.119095 370.328217,145.875656 368.015198,128.394836 
	C364.728180,103.553398 353.855316,82.301735 336.104218,64.962029 
	C328.731567,57.760223 319.781616,51.930698 310.881317,46.589672 
	C295.960297,37.635681 279.594635,32.928696 261.083679,33.010784 
	C252.999329,33.358051 244.729584,32.732243 236.864609,34.230824 
	C210.870056,39.183773 188.958328,51.427181 171.503510,71.781372 
	C156.424042,89.365631 147.344650,109.560860 145.254700,132.281189 
	C143.615494,150.101288 144.983231,167.924805 151.785110,185.142273 
	C162.370132,211.936020 180.233444,231.788940 205.517807,245.214188 
	C216.966049,251.292877 229.360825,254.410934 241.246750,257.310913 
z"/>
<path fill="#F0C8A0" opacity="1.000000" stroke="none" 
	d="
M273.076660,336.905487 
	C283.903748,336.936981 294.754395,337.437042 305.552490,336.893005 
	C322.880402,336.020081 337.614746,351.807190 337.151825,368.588135 
	C336.536469,390.894287 337.012543,413.230225 336.995667,435.553345 
	C336.983826,451.218292 323.167725,465.014496 307.385254,465.007446 
	C258.907410,464.985809 210.429581,464.997742 161.477478,464.515442 
	C161.007797,432.366913 161.012360,400.699615 161.016937,369.032288 
	C169.328110,368.354248 177.819641,368.521576 185.907394,366.796234 
	C197.476791,364.328156 206.761856,353.396179 207.926819,341.256561 
	C208.650513,333.715057 208.731369,326.107727 208.980911,318.526001 
	C209.209457,311.582764 215.576660,305.095184 222.521713,305.013611 
	C228.347214,304.945160 234.174103,304.995636 240.486511,305.435974 
	C240.983047,314.818390 241.088043,323.759735 240.953461,332.697449 
	C240.905197,335.902679 242.023544,337.104889 245.266388,337.045288 
	C254.534195,336.874908 263.806274,336.935638 273.076660,336.905487 
z"/>
<path fill="#3CC8B4" opacity="1.000000" stroke="none" 
	d="
M262.009460,33.174187 
	C279.594635,32.928696 295.960297,37.635681 310.881317,46.589672 
	C319.781616,51.930698 328.731567,57.760223 336.104218,64.962029 
	C353.855316,82.301735 364.728180,103.553398 368.015198,128.394836 
	C370.328217,145.875656 369.489594,163.119095 364.044250,179.998413 
	C358.090637,198.453186 347.926208,214.367783 333.822937,227.518127 
	C317.739807,242.514572 298.530975,251.741013 276.933411,255.919952 
	C275.479370,256.201294 273.949738,256.092010 271.779480,256.551880 
	C268.059540,256.908630 265.015411,256.877960 261.652832,256.634888 
	C232.049606,252.415741 206.996567,240.338287 187.839417,217.376587 
	C165.068909,190.083939 155.987747,158.695007 163.263809,123.861961 
	C172.715897,78.611633 200.577133,49.634151 245.040588,36.833824 
	C250.588287,35.236729 256.347992,34.376080 262.009460,33.174187 
M184.506638,178.912796 
	C200.830902,211.921158 233.261093,229.080017 269.658539,223.966782 
	C306.752106,218.755722 336.733948,184.562332 336.977386,147.059952 
	C337.145355,121.190384 327.593781,99.574898 307.563141,83.118660 
	C275.235626,56.559868 227.502502,58.592052 198.280960,90.815552 
	C175.092773,116.385841 171.016159,146.207748 184.506638,178.912796 
z"/>
<path fill="#3C3C3C" opacity="1.000000" stroke="none" 
	d="
M129.050858,480.849762 
	C119.738670,480.898590 110.423859,480.835632 101.115677,481.054779 
	C97.695206,481.135345 96.949860,479.686371 96.955383,476.599152 
	C97.026558,436.848450 97.043655,397.097473 96.934425,357.346954 
	C96.924316,353.667358 98.387718,352.882019 101.668335,352.947510 
	C110.479904,353.123444 119.296684,353.039062 128.566223,353.560486 
	C129.066711,387.467896 129.112335,420.872864 129.141449,454.666779 
	C129.137238,456.610382 129.149551,458.165100 129.116852,460.203979 
	C129.064835,467.408691 129.057846,474.129211 129.050858,480.849762 
z"/>
<path fill="#505050" opacity="1.000000" stroke="none" 
	d="
M129.157959,454.277863 
	C129.112335,420.872864 129.066711,387.467896 129.036026,353.606567 
	C139.432251,353.150208 149.813507,353.150208 161.004395,353.150208 
	C161.004395,358.321411 161.004395,363.207611 161.010666,368.563049 
	C161.012360,400.699615 161.007797,432.366913 161.010071,464.500977 
	C161.016937,470.058472 161.016937,475.149261 161.016937,480.955231 
	C150.336990,480.955231 140.156097,480.955231 129.513031,480.902496 
	C129.057846,474.129211 129.064835,467.408691 129.365967,460.451355 
	C129.906158,460.646179 130.088654,461.132965 130.407974,461.501007 
	C134.028961,465.674408 139.011887,466.153412 142.559677,462.691772 
	C145.842361,459.488770 145.775238,454.264008 142.411392,451.149872 
	C138.786087,447.793610 133.711472,448.419312 130.281662,452.659485 
	C129.869736,453.168732 129.530762,453.736969 129.157959,454.277863 
z"/>
<path fill="#1FAB97" opacity="1.000000" stroke="none" 
	d="
M261.546570,33.092487 
	C256.347992,34.376080 250.588287,35.236729 245.040588,36.833824 
	C200.577133,49.634151 172.715897,78.611633 163.263809,123.861961 
	C155.987747,158.695007 165.068909,190.083939 187.839417,217.376587 
	C206.996567,240.338287 232.049606,252.415741 261.187744,256.678406 
	C254.688599,256.890625 248.336060,256.846954 241.983521,256.803284 
	C229.360825,254.410934 216.966049,251.292877 205.517807,245.214188 
	C180.233444,231.788940 162.370132,211.936020 151.785110,185.142273 
	C144.983231,167.924805 143.615494,150.101288 145.254700,132.281189 
	C147.344650,109.560860 156.424042,89.365631 171.503510,71.781372 
	C188.958328,51.427181 210.870056,39.183773 236.864609,34.230824 
	C244.729584,32.732243 252.999329,33.358051 261.546570,33.092487 
z"/>
<path fill="#B4B4B4" opacity="1.000000" stroke="none" 
	d="
M241.615143,257.057098 
	C248.336060,256.846954 254.688599,256.890625 261.506195,256.890808 
	C265.015411,256.877960 268.059540,256.908630 271.553589,256.884705 
	C272.335632,258.509216 272.952728,260.187561 272.957184,261.867584 
	C273.022705,286.573578 273.006653,311.279846 273.043335,336.445740 
	C263.806274,336.935638 254.534195,336.874908 245.266388,337.045288 
	C242.023544,337.104889 240.905197,335.902679 240.953461,332.697449 
	C241.088043,323.759735 240.983047,314.818390 240.949768,305.407837 
	C241.033508,289.061737 241.140137,273.186340 241.615143,257.057098 
z"/>
<path fill="#008C78" opacity="1.000000" stroke="none" 
	d="
M184.337708,178.572464 
	C171.016159,146.207748 175.092773,116.385841 198.280960,90.815552 
	C227.502502,58.592052 275.235626,56.559868 307.563141,83.118660 
	C327.593781,99.574898 337.145355,121.190384 336.977386,147.059952 
	C336.733948,184.562332 306.752106,218.755722 269.658539,223.966782 
	C233.261093,229.080017 200.830902,211.921158 184.337708,178.572464 
M233.935776,158.570984 
	C227.605423,152.227325 221.275085,145.883667 215.097443,139.693039 
	C211.090363,143.555252 207.433365,147.080048 204.502426,149.905029 
	C217.051224,162.462311 229.452454,174.871933 240.988098,186.415375 
	C263.536713,163.865616 286.549194,140.851974 309.418640,117.981354 
	C306.456543,114.893219 303.020172,111.310646 299.273071,107.404114 
	C279.877747,126.822327 260.630188,146.092575 240.709854,166.036377 
	C238.400482,163.472000 236.418930,161.271652 233.935776,158.570984 
z"/>
<path fill="#F2AF04" opacity="1.000000" stroke="none" 
	d="
M129.141449,454.666779 
	C129.530762,453.736969 129.869736,453.168732 130.281662,452.659485 
	C133.711472,448.419312 138.786087,447.793610 142.411392,451.149872 
	C145.775238,454.264008 145.842361,459.488770 142.559677,462.691772 
	C139.011887,466.153412 134.028961,465.674408 130.407974,461.501007 
	C130.088654,461.132965 129.906158,460.646179 129.410980,459.967163 
	C129.149551,458.165100 129.137238,456.610382 129.141449,454.666779 
z"/>
<path fill="#EAEDED" opacity="1.000000" stroke="none" 
	d="
M234.186584,158.821136 
	C236.418930,161.271652 238.400482,163.472000 240.709854,166.036377 
	C260.630188,146.092575 279.877747,126.822327 299.273071,107.404114 
	C303.020172,111.310646 306.456543,114.893219 309.418640,117.981354 
	C286.549194,140.851974 263.536713,163.865616 240.988098,186.415375 
	C229.452454,174.871933 217.051224,162.462311 204.502426,149.905029 
	C207.433365,147.080048 211.090363,143.555252 215.097443,139.693039 
	C221.275085,145.883667 227.605423,152.227325 234.186584,158.821136 
z"/>
</svg>