<svg version="1.1" id="Layer_1" xmlns="http://www.w3.org/2000/svg" xmlns:xlink="http://www.w3.org/1999/xlink" x="0px" y="0px"
	 width="100%" viewBox="0 0 512 512" enable-background="new 0 0 512 512" xml:space="preserve">
<path fill="#FFFFFF" opacity="1.000000" stroke="none" 
	d="
M513.000000,268.000000 
	C513.000000,349.631287 513.000000,431.262573 513.000000,512.946899 
	C342.442688,512.946899 171.885361,512.946899 1.000000,512.946899 
	C1.000000,431.644958 1.000000,350.289459 1.359083,268.633972 
	C3.081492,275.118256 4.195396,281.999817 9.133583,287.766541 
	C13.063727,292.802063 17.008068,297.455444 21.088497,302.415283 
	C36.319969,316.826050 54.337105,320.367371 74.088112,317.007782 
	C85.236252,315.111511 95.178970,310.537476 103.366425,301.960022 
	C107.406410,297.002594 111.129807,292.191498 115.128166,287.195374 
	C119.618156,279.900970 122.200577,272.264374 122.902618,263.538177 
	C122.924980,258.717529 122.878639,254.357086 122.900291,249.589691 
	C121.684341,244.441452 120.400398,239.700134 119.059265,234.595123 
	C117.373512,231.142136 115.744957,228.052856 114.057907,224.611282 
	C108.028793,214.821136 100.178207,206.974228 90.236069,202.289948 
	C69.549835,192.543488 48.731956,193.015625 28.929995,205.109924 
	C20.965237,209.974487 14.136327,216.336914 9.575895,225.125443 
	C7.806467,228.511276 6.344926,231.735107 4.559792,235.152069 
	C3.157467,238.896820 2.078736,242.448410 1.000002,246.000000 
	C1.000000,164.368729 1.000000,82.737442 1.000000,1.053082 
	C171.557312,1.053082 342.114655,1.053082 513.000000,1.053082 
	C513.000000,82.355049 513.000000,163.710541 512.779907,245.511383 
	C512.559753,245.956711 512.117493,245.958862 512.067749,245.549194 
	C511.289734,242.092682 510.561493,239.045822 509.784668,235.639252 
	C507.101837,230.518921 504.467621,225.758331 501.804626,220.664307 
	C495.373077,212.591217 488.162445,205.577148 478.923218,201.567307 
	C458.499786,192.703415 438.241943,193.372833 419.035217,205.114685 
	C412.577728,209.062408 406.636963,214.024582 402.566284,221.101852 
	C399.557343,226.160294 396.862061,231.079498 394.085175,236.388519 
	C393.390900,239.852158 392.778198,242.925980 391.963562,246.377747 
	C391.563049,252.170258 391.364410,257.584808 391.095245,263.414490 
	C392.210480,271.256592 393.289276,278.718170 397.940552,285.403534 
	C402.628265,291.526611 407.261169,297.288177 412.038757,303.362732 
	C428.137177,317.398102 446.641327,320.829559 466.725342,316.543365 
	C476.320007,314.495789 485.259949,310.582428 492.416779,302.911346 
	C494.024414,301.791351 495.638855,301.045166 496.557831,299.789886 
	C500.103394,294.946686 503.426819,289.940887 506.998901,284.662689 
	C509.109894,278.886505 511.054932,273.443237 513.000000,268.000000 
M313.001068,232.218399 
	C311.351593,229.112122 309.702087,226.005844 307.776001,222.274597 
	C304.297363,218.460556 301.085266,214.355408 297.293304,210.883591 
	C282.003357,196.884521 263.708130,193.319351 243.954514,197.114594 
	C227.809937,200.216415 215.002029,208.973160 205.318253,223.232559 
	C203.839478,226.474442 202.360703,229.716324 200.241211,233.325027 
	C198.883209,238.549011 197.525192,243.773010 196.025467,249.904388 
	C196.072037,253.270142 196.118622,256.635895 196.024200,260.884277 
	C197.644623,267.604462 199.265045,274.324615 200.997314,281.786469 
	C204.602905,290.745544 209.940933,298.389771 218.185486,304.677521 
	C234.080399,317.482056 252.195786,320.779175 271.750977,316.531433 
	C280.833618,314.558533 289.325714,310.820709 296.721863,303.770020 
	C304.236908,297.674255 310.049927,290.350708 313.751251,280.671661 
	C315.112457,273.781647 316.473633,266.891663 317.971924,259.093323 
	C317.925568,255.727875 317.879181,252.362427 317.968842,248.193680 
	C316.351929,243.115204 314.734985,238.036728 313.001068,232.218399 
z"/>
<path fill="#FF7225" opacity="1.000000" stroke="none" 
	d="
M122.833900,263.998383 
	C122.200577,272.264374 119.618156,279.900970 114.601303,287.085571 
	C79.736679,287.119659 45.673897,287.076080 11.611100,287.052032 
	C10.790071,287.051453 9.968889,287.268707 9.147779,287.384369 
	C4.195396,281.999817 3.081492,275.118256 1.359083,268.166992 
	C1.000000,266.933319 1.000000,265.866669 1.468657,264.399994 
	C42.236176,263.999451 82.535042,263.998932 122.833900,263.998383 
z"/>
<path fill="#FF7225" opacity="1.000000" stroke="none" 
	d="
M513.000000,267.583344 
	C511.054932,273.443237 509.109894,278.886505 506.541473,284.663940 
	C469.907318,285.012756 433.896515,285.027374 397.885742,285.041992 
	C393.289276,278.718170 392.210480,271.256592 391.552856,263.414795 
	C432.387299,263.000000 472.693665,263.000000 513.000000,263.000000 
	C513.000000,264.388885 513.000000,265.777802 513.000000,267.583344 
z"/>
<path fill="#FF7A1C" opacity="1.000000" stroke="none" 
	d="
M513.000000,262.532410 
	C472.693665,263.000000 432.387299,263.000000 391.623352,262.999695 
	C391.364410,257.584808 391.563049,252.170258 392.421204,246.377991 
	C432.759674,245.986481 472.438568,245.972672 512.117493,245.958862 
	C512.117493,245.958862 512.559753,245.956711 512.779907,245.978363 
	C513.000000,251.354935 513.000000,256.709869 513.000000,262.532410 
z"/>
<path fill="#FF8016" opacity="1.000000" stroke="none" 
	d="
M1.000002,246.399994 
	C2.078736,242.448410 3.157467,238.896820 5.036141,235.164612 
	C43.596207,234.975616 81.356331,234.967224 119.116455,234.958832 
	C120.400398,239.700134 121.684341,244.441452 122.442810,249.590637 
	C81.611549,249.999023 41.305775,249.999512 1.000000,250.000000 
	C1.000000,248.933334 1.000000,247.866653 1.000002,246.399994 
z"/>
<path fill="#FF7A1C" opacity="1.000000" stroke="none" 
	d="
M1.000000,250.464645 
	C41.305775,249.999512 81.611549,249.999023 122.374809,249.997589 
	C122.878639,254.357086 122.924980,258.717529 122.902618,263.538177 
	C82.535042,263.998932 42.236176,263.999451 1.468657,264.000000 
	C1.000000,259.643097 1.000000,255.286194 1.000000,250.464645 
z"/>
<path fill="#FF7225" opacity="1.000000" stroke="none" 
	d="
M317.834839,260.001648 
	C316.473633,266.891663 315.112457,273.781647 312.956787,280.845001 
	C275.070038,281.027161 237.977753,281.035980 200.885468,281.044800 
	C199.265045,274.324615 197.644623,267.604462 196.552322,260.442810 
	C237.331909,260.001434 277.583374,260.001526 317.834839,260.001648 
z"/>
<path fill="#FF682F" opacity="1.000000" stroke="none" 
	d="
M200.941391,281.415649 
	C237.977753,281.035980 275.070038,281.027161 312.638489,281.031525 
	C310.049927,290.350708 304.236908,297.674255 296.022278,303.740479 
	C293.869354,303.473663 292.416412,303.032471 290.962646,303.029663 
	C268.368866,302.985992 245.774857,302.975708 223.181183,303.044434 
	C221.417847,303.049805 219.656464,303.699097 217.894165,304.049072 
	C209.940933,298.389771 204.602905,290.745544 200.941391,281.415649 
z"/>
<path fill="#FF8E07" opacity="1.000000" stroke="none" 
	d="
M9.883781,224.963425 
	C14.136327,216.336914 20.965237,209.974487 28.929995,205.109924 
	C48.731956,193.015625 69.549835,192.543488 90.236069,202.289948 
	C100.178207,206.974228 108.028793,214.821136 113.581581,224.621796 
	C78.737091,224.977554 44.310436,224.970490 9.883781,224.963425 
z"/>
<path fill="#FF8E07" opacity="1.000000" stroke="none" 
	d="
M205.948990,222.897736 
	C215.002029,208.973160 227.809937,200.216415 243.954514,197.114594 
	C263.708130,193.319351 282.003357,196.884521 297.293304,210.883591 
	C301.085266,214.355408 304.297363,218.460556 307.628235,222.900665 
	C306.675751,223.683044 305.871094,223.975449 305.066284,223.976044 
	C273.239136,223.999939 241.411942,224.009460 209.584885,223.951721 
	C208.372284,223.949524 207.160919,223.264542 205.948990,222.897736 
z"/>
<path fill="#FF8E07" opacity="1.000000" stroke="none" 
	d="
M402.879974,220.962631 
	C406.636963,214.024582 412.577728,209.062408 419.035217,205.114685 
	C438.241943,193.372833 458.499786,192.703415 478.923218,201.567307 
	C488.162445,205.577148 495.373077,212.591217 501.392517,220.677063 
	C498.224762,221.348648 495.441132,221.949417 492.655884,221.956696 
	C465.512512,222.027649 438.368774,222.029373 411.225433,221.954025 
	C408.442719,221.946304 405.661743,221.308228 402.879974,220.962631 
z"/>
<path fill="#FF8016" opacity="1.000000" stroke="none" 
	d="
M196.167206,248.997009 
	C197.525192,243.773010 198.883209,238.549011 200.984680,233.201416 
	C204.008057,233.385422 206.287476,233.956711 208.567963,233.960876 
	C240.642227,234.019348 272.716705,234.026245 304.790924,233.955368 
	C307.567352,233.949234 310.342377,233.305695 313.118073,232.958252 
	C314.734985,238.036728 316.351929,243.115204 317.443298,248.596252 
	C276.667603,248.998230 236.417404,248.997620 196.167206,248.997009 
z"/>
<path fill="#FF682F" opacity="1.000000" stroke="none" 
	d="
M397.940552,285.403534 
	C433.896515,285.027374 469.907318,285.012756 506.375549,284.996887 
	C503.426819,289.940887 500.103394,294.946686 496.557831,299.789886 
	C495.638855,301.045166 494.024414,301.791351 492.026123,302.741333 
	C489.869446,302.474213 488.416351,302.033142 486.962494,302.030457 
	C463.702179,301.987244 440.441681,301.977295 417.181458,302.045288 
	C415.418030,302.050476 413.656494,302.699829 411.894073,303.049744 
	C407.261169,297.288177 402.628265,291.526611 397.940552,285.403534 
z"/>
<path fill="#FF8510" opacity="1.000000" stroke="none" 
	d="
M402.566284,221.101852 
	C405.661743,221.308228 408.442719,221.946304 411.225433,221.954025 
	C438.368774,222.029373 465.512512,222.027649 492.655884,221.956696 
	C495.441132,221.949417 498.224762,221.348648 501.421265,221.010513 
	C504.467621,225.758331 507.101837,230.518921 509.381409,235.701874 
	C506.913116,236.416153 504.799835,236.959137 502.685699,236.962479 
	C468.955536,237.015732 435.225220,237.020721 401.495087,236.956863 
	C399.051697,236.952240 396.609497,236.332458 394.166748,235.998703 
	C396.862061,231.079498 399.557343,226.160294 402.566284,221.101852 
z"/>
<path fill="#FF682F" opacity="1.000000" stroke="none" 
	d="
M9.133583,287.766541 
	C9.968889,287.268707 10.790071,287.051453 11.611100,287.052032 
	C45.673897,287.076080 79.736679,287.119659 114.326340,287.270569 
	C111.129807,292.191498 107.406410,297.002594 103.082108,301.644653 
	C101.676872,301.318146 100.872681,301.023865 100.068192,301.023071 
	C74.906372,300.997986 49.744480,300.986145 24.582779,301.047729 
	C23.371796,301.050690 22.162489,301.739410 20.952406,302.108795 
	C17.008068,297.455444 13.063727,292.802063 9.133583,287.766541 
z"/>
<path fill="#FF7A1C" opacity="1.000000" stroke="none" 
	d="
M196.096344,249.450699 
	C236.417404,248.997620 276.667603,248.998230 317.375305,248.997910 
	C317.879181,252.362427 317.925568,255.727875 317.903381,259.547485 
	C277.583374,260.001526 237.331909,260.001434 196.622833,260.001465 
	C196.118622,256.635895 196.072037,253.270142 196.096344,249.450699 
z"/>
<path fill="#FF8510" opacity="1.000000" stroke="none" 
	d="
M9.575895,225.125443 
	C44.310436,224.970490 78.737091,224.977554 113.640076,224.974091 
	C115.744957,228.052856 117.373512,231.142136 119.059265,234.595123 
	C81.356331,234.967224 43.596207,234.975616 5.359735,234.971466 
	C6.344926,231.735107 7.806467,228.511276 9.575895,225.125443 
z"/>
<path fill="#FF8510" opacity="1.000000" stroke="none" 
	d="
M313.059570,232.588318 
	C310.342377,233.305695 307.567352,233.949234 304.790924,233.955368 
	C272.716705,234.026245 240.642227,234.019348 208.567963,233.960876 
	C206.287476,233.956711 204.008057,233.385422 201.305038,233.018005 
	C202.360703,229.716324 203.839478,226.474442 205.633621,223.065155 
	C207.160919,223.264542 208.372284,223.949524 209.584885,223.951721 
	C241.411942,224.009460 273.239136,223.999939 305.066284,223.976044 
	C305.871094,223.975449 306.675751,223.683044 307.766541,223.213150 
	C309.702087,226.005844 311.351593,229.112122 313.059570,232.588318 
z"/>
<path fill="#FF8016" opacity="1.000000" stroke="none" 
	d="
M394.085175,236.388519 
	C396.609497,236.332458 399.051697,236.952240 401.495087,236.956863 
	C435.225220,237.020721 468.955536,237.015732 502.685699,236.962479 
	C504.799835,236.959137 506.913116,236.416153 509.430023,236.061600 
	C510.561493,239.045822 511.289734,242.092682 512.067749,245.549194 
	C472.438568,245.972672 432.759674,245.986481 392.623108,246.000046 
	C392.778198,242.925980 393.390900,239.852158 394.085175,236.388519 
z"/>
<path fill="#FF6236" opacity="1.000000" stroke="none" 
	d="
M21.088493,302.415283 
	C22.162489,301.739410 23.371796,301.050690 24.582779,301.047729 
	C49.744480,300.986145 74.906372,300.997986 100.068192,301.023071 
	C100.872681,301.023865 101.676872,301.318146 102.765518,301.790985 
	C95.178970,310.537476 85.236252,315.111511 74.088112,317.007782 
	C54.337105,320.367371 36.319969,316.826050 21.088493,302.415283 
z"/>
<path fill="#FF6236" opacity="1.000000" stroke="none" 
	d="
M412.038757,303.362732 
	C413.656494,302.699829 415.418030,302.050476 417.181458,302.045288 
	C440.441681,301.977295 463.702179,301.987244 486.962494,302.030457 
	C488.416351,302.033142 489.869446,302.474213 491.713501,302.881348 
	C485.259949,310.582428 476.320007,314.495789 466.725342,316.543365 
	C446.641327,320.829559 428.137177,317.398102 412.038757,303.362732 
z"/>
<path fill="#FF6236" opacity="1.000000" stroke="none" 
	d="
M218.039825,304.363281 
	C219.656464,303.699097 221.417847,303.049805 223.181183,303.044434 
	C245.774857,302.975708 268.368866,302.985992 290.962646,303.029663 
	C292.416412,303.032471 293.869354,303.473663 295.713318,303.880829 
	C289.325714,310.820709 280.833618,314.558533 271.750977,316.531433 
	C252.195786,320.779175 234.080399,317.482056 218.039825,304.363281 
z"/>
</svg>