<svg version="1.1" id="Layer_1" xmlns="http://www.w3.org/2000/svg" xmlns:xlink="http://www.w3.org/1999/xlink" x="0px" y="0px"
	 width="100%" viewBox="0 0 512 512" enable-background="new 0 0 512 512" xml:space="preserve">
<path fill="#FFFFFF" opacity="1.000000" stroke="none" 
	d="
M1.000003,266.000000 
	C1.000000,177.702423 1.000000,89.404831 1.000000,1.053625 
	C171.561829,1.053625 342.123688,1.053625 513.000000,1.053625 
	C513.000000,99.355125 513.000000,197.710587 512.585693,296.554749 
	C511.793610,296.368195 511.145081,295.718964 511.077271,295.013916 
	C508.918945,272.575684 503.762512,250.838882 496.037445,229.679565 
	C493.092407,221.612991 488.103699,217.608932 479.685242,218.151733 
	C475.224335,218.439377 470.859558,220.217789 465.967926,221.444427 
	C465.018799,215.882660 463.979767,210.090256 463.047729,204.280701 
	C459.050507,179.365601 450.565369,156.253235 436.205414,135.324326 
	C431.463440,128.413193 425.268219,125.593193 417.476227,127.216049 
	C410.456909,128.677979 406.530731,133.707336 404.856964,140.788925 
	C402.565735,150.482941 399.031647,159.692886 393.159271,167.922653 
	C389.620728,172.881668 386.373901,178.065872 383.256012,183.303680 
	C379.407867,189.768372 375.829834,196.393860 371.757172,203.620392 
	C365.231293,196.460892 358.893372,189.937241 353.071045,182.982010 
	C348.530731,177.558228 341.261902,175.094437 334.569061,176.925583 
	C325.515747,179.402557 323.436798,186.895111 321.055969,194.374542 
	C318.820862,201.396255 316.452087,208.375397 314.012177,215.766907 
	C282.702698,161.133926 236.585007,130.968781 174.450439,126.241447 
	C174.450439,119.470688 174.450439,112.902962 174.450439,105.993439 
	C182.552689,105.993439 190.204819,106.073517 197.854691,105.976311 
	C212.530701,105.789841 222.149872,95.900665 222.482071,81.526627 
	C222.844452,65.847878 211.135544,56.408028 198.151123,56.131840 
	C176.995712,55.681850 155.822495,55.869934 134.659241,56.060936 
	C120.864189,56.185440 110.163635,67.239861 109.973930,80.690453 
	C109.768723,95.239319 121.845680,106.587341 135.401810,106.046860 
	C142.809891,105.751495 150.239410,105.994087 157.586761,105.994087 
	C157.586761,113.464722 157.586761,120.033577 157.586761,126.636574 
	C131.916168,127.867920 108.272133,134.651978 86.140366,146.926422 
	C66.223534,157.972412 49.039448,172.161728 35.235321,190.313354 
	C18.573193,212.223068 7.404539,236.569855 2.904274,263.851868 
	C2.772473,264.650879 1.656893,265.287628 1.000003,266.000000 
M492.976868,163.472321 
	C492.976654,153.483139 493.083069,143.492020 492.902771,133.506088 
	C492.856476,130.942276 492.179230,128.297272 491.310028,125.861488 
	C489.810333,121.658966 486.058929,121.667580 482.548187,122.133141 
	C479.242004,122.571571 477.085419,124.754341 477.065430,128.187561 
	C476.973297,144.003113 476.952820,159.819962 477.068085,175.635193 
	C477.098511,179.808594 479.711487,181.887833 483.810852,181.973740 
	C487.658905,182.054398 491.364410,181.551208 491.994873,176.765503 
	C492.531647,172.691147 492.665009,168.563644 492.976868,163.472321 
M455.400909,116.986885 
	C459.785583,116.636017 462.881683,114.209167 462.739014,109.945297 
	C462.651276,107.322372 460.902496,103.549492 458.804810,102.517029 
	C456.404205,101.335464 452.150757,101.650116 449.903137,103.133766 
	C448.059082,104.351059 447.068115,108.322449 447.325409,110.911400 
	C447.691833,114.598686 450.625214,116.802559 455.400909,116.986885 
M360.394012,134.012451 
	C353.306335,134.863937 350.176208,139.137070 352.504608,144.922928 
	C354.065826,148.802475 357.133331,150.356186 361.196899,149.945847 
	C365.666107,149.494522 367.457581,145.979935 367.755646,142.436646 
	C368.110229,138.222076 365.967773,134.820709 360.394012,134.012451 
z"/>
<path fill="#5C5B5B" opacity="1.000000" stroke="none" 
	d="
M1.000003,266.468658 
	C1.656893,265.287628 2.772473,264.650879 2.904274,263.851868 
	C7.404539,236.569855 18.573193,212.223068 35.235321,190.313354 
	C49.039448,172.161728 66.223534,157.972412 86.140366,146.926422 
	C108.272133,134.651978 131.916168,127.867920 157.586761,126.636574 
	C157.586761,120.033577 157.586761,113.464722 157.586761,105.994087 
	C150.239410,105.994087 142.809891,105.751495 135.401810,106.046860 
	C121.845680,106.587341 109.768723,95.239319 109.973930,80.690453 
	C110.163635,67.239861 120.864189,56.185440 134.659241,56.060936 
	C155.822495,55.869934 176.995712,55.681850 198.151123,56.131840 
	C211.135544,56.408028 222.844452,65.847878 222.482071,81.526627 
	C222.149872,95.900665 212.530701,105.789841 197.854691,105.976311 
	C190.204819,106.073517 182.552689,105.993439 174.450439,105.993439 
	C174.450439,112.902962 174.450439,119.470688 174.450439,126.241447 
	C236.585007,130.968781 282.702698,161.133926 314.012177,215.766907 
	C316.452087,208.375397 318.820862,201.396255 321.055969,194.374542 
	C323.436798,186.895111 325.515747,179.402557 334.569061,176.925583 
	C341.261902,175.094437 348.530731,177.558228 353.071045,182.982010 
	C358.893372,189.937241 365.231293,196.460892 371.757172,203.620392 
	C375.829834,196.393860 379.407867,189.768372 383.256012,183.303680 
	C386.373901,178.065872 389.620728,172.881668 393.159271,167.922653 
	C399.031647,159.692886 402.565735,150.482941 404.856964,140.788925 
	C406.530731,133.707336 410.456909,128.677979 417.476227,127.216049 
	C425.268219,125.593193 431.463440,128.413193 436.205414,135.324326 
	C450.565369,156.253235 459.050507,179.365601 463.047729,204.280701 
	C463.979767,210.090256 465.018799,215.882660 465.967926,221.444427 
	C470.859558,220.217789 475.224335,218.439377 479.685242,218.151733 
	C488.103699,217.608932 493.092407,221.612991 496.037445,229.679565 
	C503.762512,250.838882 508.918945,272.575684 511.077271,295.013916 
	C511.145081,295.718964 511.793610,296.368195 512.585693,297.021729 
	C513.000000,319.354218 513.000000,341.708466 512.602905,364.479401 
	C511.836487,365.398834 511.232117,365.858734 511.131561,366.410461 
	C506.336945,392.713196 493.246521,414.304413 472.498474,430.734131 
	C440.571259,456.016144 403.930023,463.396637 364.616241,454.507385 
	C330.007477,446.682007 303.895996,426.512604 286.960876,394.623840 
	C284.186798,386.770264 281.410370,379.290283 278.574768,371.392242 
	C277.504395,365.646454 276.493134,360.318756 275.315948,354.116699 
	C252.813538,390.361206 221.258484,412.151886 179.287643,416.413879 
	C137.106491,420.697144 101.017860,406.703522 72.726875,375.034729 
	C23.847818,320.319794 32.369793,236.221161 91.080101,192.050674 
	C120.440910,169.961182 153.831543,161.830368 189.750061,169.266266 
	C242.930603,180.275742 275.083618,214.166611 289.484100,266.662781 
	C291.607208,262.264435 293.332886,258.689514 295.322449,254.888153 
	C298.237671,249.663834 301.246033,244.812378 303.382355,239.603271 
	C304.377441,237.177017 304.622620,233.647171 303.606537,231.315231 
	C293.429199,207.957901 278.117249,188.486221 257.907166,172.973892 
	C242.573486,161.204498 225.763535,152.278320 206.783569,147.638672 
	C206.706619,147.642166 206.712601,147.796112 206.494995,147.546951 
	C205.847885,147.236633 205.418396,147.175461 204.638672,146.959473 
	C186.080276,141.668457 167.565872,140.822571 148.849503,142.869843 
	C66.196594,151.910751 5.890084,229.237381 17.239765,311.616730 
	C25.914185,374.578217 71.446960,424.593842 133.381577,438.625580 
	C157.286835,444.041504 181.268143,443.892395 205.295273,436.971863 
	C206.154373,436.755707 206.704117,436.512268 207.192200,436.264282 
	C207.130524,436.259735 207.124680,436.383301 207.522736,436.355621 
	C226.752838,431.185028 243.643021,422.226807 258.993042,410.268768 
	C265.948822,404.850037 266.728363,404.741699 274.034973,409.279266 
	C275.900299,413.618134 275.443970,417.078644 271.765045,419.716034 
	C264.139984,425.182434 256.930664,431.412720 248.771057,435.917145 
	C216.186462,453.905060 181.506195,461.408600 144.218018,456.159515 
	C122.538551,453.107697 102.271233,446.583130 83.300507,435.711884 
	C63.681820,424.469299 46.837864,409.883240 33.512684,391.810883 
	C17.774128,370.465332 7.108228,346.598358 2.904603,320.136261 
	C2.778642,319.343323 1.657277,318.708527 1.000001,318.000000 
	C1.000000,300.979095 1.000000,283.958221 1.000003,266.468658 
M187.752899,90.664047 
	C191.716049,90.541718 195.760178,90.872459 199.621796,90.182182 
	C204.429184,89.322838 207.306885,84.928307 206.912094,80.339920 
	C206.519867,75.781502 202.866394,72.223427 197.932266,71.972977 
	C194.292892,71.788254 190.633514,71.997574 186.053848,71.912727 
	C169.088547,71.888390 152.122742,71.781479 135.158234,71.886063 
	C129.483047,71.921051 125.961823,75.539551 125.797310,80.798889 
	C125.628746,86.187477 128.891357,90.259804 134.461349,90.334404 
	C151.913193,90.568161 169.369934,90.436539 187.752899,90.664047 
M420.767395,439.071411 
	C426.915649,437.048096 433.331787,435.604065 439.167664,432.905304 
	C471.332581,418.030609 492.510223,393.756470 496.642029,358.073547 
	C500.992737,320.500153 496.556030,283.295990 485.481567,247.021744 
	C484.054291,242.346756 482.259827,237.783844 480.476105,232.716171 
	C475.124573,235.388046 470.542786,237.675629 465.205414,240.052475 
	C456.898529,243.673630 453.933929,242.611313 451.086060,234.058701 
	C449.018677,200.989517 441.517029,169.701202 421.243439,141.102051 
	C418.947479,148.328201 417.101746,154.137436 414.896484,160.586334 
	C411.565826,166.525726 408.241699,172.468796 404.903198,178.403763 
	C397.246002,192.016220 389.368439,205.510620 382.002258,219.278656 
	C377.740662,227.243942 372.879089,228.205276 366.670380,221.395264 
	C358.705200,212.658615 350.803040,203.864517 342.838745,195.127029 
	C341.686340,193.862762 340.339294,192.775909 338.740509,191.289062 
	C338.038483,192.936340 337.551483,193.800705 337.291992,194.728683 
	C330.622955,218.576248 320.590454,241.010941 308.422302,262.492401 
	C293.495605,288.843628 286.417175,316.491364 289.801514,347.169861 
	C292.950897,375.718079 303.165436,400.070068 325.572723,418.258942 
	C353.391235,440.840332 385.243835,446.879944 420.767395,439.071411 
M258.160583,295.003265 
	C258.100647,293.000732 258.040710,290.998230 258.501465,288.501373 
	C262.819611,281.717407 270.258087,286.219086 276.153778,283.782074 
	C274.192352,259.554169 265.331970,238.402359 248.737488,218.905380 
	C245.632706,222.456604 242.803207,225.692993 239.246033,229.011017 
	C236.357712,228.372620 232.855194,228.536850 230.725525,226.907089 
	C227.558563,224.483551 228.530716,220.650757 230.745789,216.985733 
	C233.397018,214.551376 236.048248,212.117020 239.097992,209.316742 
	C224.962677,197.307358 210.076370,189.185333 192.196579,185.026978 
	C186.256592,183.961151 180.316620,182.895325 173.863571,181.737427 
	C173.863571,184.243561 173.864532,185.718918 173.863327,187.194260 
	C173.861969,188.859482 173.915665,190.527130 173.845596,192.189499 
	C173.624893,197.425400 170.439301,200.884506 166.043488,200.723801 
	C161.746506,200.566727 158.987808,197.336166 158.876831,192.200760 
	C158.806259,188.934158 158.863647,185.664795 158.863647,182.415939 
	C137.993622,182.245514 104.241585,196.526215 94.001137,210.018127 
	C96.394005,212.145660 99.033356,214.199707 101.317787,216.592560 
	C104.677979,220.112289 104.739822,224.202087 101.812271,227.289703 
	C98.761887,230.506912 94.383873,230.519470 90.726120,227.043610 
	C88.253395,224.693848 86.078453,222.030716 83.527428,219.242249 
	C67.211914,238.569504 58.233192,259.639557 56.432270,284.558197 
	C59.099094,284.558197 61.205940,284.553162 63.312752,284.559082 
	C71.361496,284.581696 75.052803,287.009521 74.937645,292.199982 
	C74.825111,297.272797 71.300034,299.548187 63.520966,299.564728 
	C61.267174,299.569550 59.013367,299.565460 56.406246,299.565460 
	C58.334129,324.601471 67.257530,345.716949 83.810593,365.130737 
	C86.412445,362.084686 88.473061,359.243347 90.968254,356.856262 
	C94.324944,353.644989 98.789001,353.760071 101.698524,356.718658 
	C104.708458,359.779358 104.732094,363.880768 101.422981,367.412842 
	C99.063049,369.931763 96.350723,372.120514 93.473984,374.750702 
	C112.776100,391.206116 134.054626,400.029297 158.862106,401.965912 
	C158.862106,398.368713 158.814316,395.238129 158.872681,392.109467 
	C158.974030,386.676758 161.850876,383.358185 166.338577,383.400055 
	C170.760132,383.441315 173.705460,386.848816 173.844620,392.218750 
	C173.925385,395.335449 173.859314,398.455902 173.859314,402.497559 
	C180.699997,401.169495 186.837936,399.977875 193.739975,398.810059 
	C210.404068,394.380890 225.353500,386.782867 238.436966,375.185455 
	C235.410461,372.113098 232.765442,369.428009 229.892807,366.002319 
	C227.012283,357.761597 230.954803,353.506348 240.301376,355.701965 
	C243.276108,358.519318 246.250839,361.336639 249.428925,364.346558 
	C265.420135,345.545898 274.286682,324.370392 276.018677,300.082520 
	C269.816742,298.474365 262.934601,301.854401 258.160583,295.003265 
z"/>
<path fill="#FFFFFF" opacity="1.000000" stroke="none" 
	d="
M286.958496,394.997437 
	C303.895996,426.512604 330.007477,446.682007 364.616241,454.507385 
	C403.930023,463.396637 440.571259,456.016144 472.498474,430.734131 
	C493.246521,414.304413 506.336945,392.713196 511.131561,366.410461 
	C511.232117,365.858734 511.836487,365.398834 512.602905,364.948059 
	C513.000000,414.308075 513.000000,463.616119 513.000000,512.962097 
	C342.445984,512.962097 171.891953,512.962097 1.000000,512.962097 
	C1.000000,448.312836 1.000000,383.625061 1.000001,318.468658 
	C1.657277,318.708527 2.778642,319.343323 2.904603,320.136261 
	C7.108228,346.598358 17.774128,370.465332 33.512684,391.810883 
	C46.837864,409.883240 63.681820,424.469299 83.300507,435.711884 
	C102.271233,446.583130 122.538551,453.107697 144.218018,456.159515 
	C181.506195,461.408600 216.186462,453.905060 248.771057,435.917145 
	C256.930664,431.412720 264.139984,425.182434 271.765045,419.716034 
	C275.443970,417.078644 275.900299,413.618134 274.183228,408.980408 
	C278.454956,403.865479 282.706726,399.431458 286.958496,394.997437 
z"/>
<path fill="#5B5A5A" opacity="1.000000" stroke="none" 
	d="
M492.976868,163.965988 
	C492.665009,168.563644 492.531647,172.691147 491.994873,176.765503 
	C491.364410,181.551208 487.658905,182.054398 483.810852,181.973740 
	C479.711487,181.887833 477.098511,179.808594 477.068085,175.635193 
	C476.952820,159.819962 476.973297,144.003113 477.065430,128.187561 
	C477.085419,124.754341 479.242004,122.571571 482.548187,122.133141 
	C486.058929,121.667580 489.810333,121.658966 491.310028,125.861488 
	C492.179230,128.297272 492.856476,130.942276 492.902771,133.506088 
	C493.083069,143.492020 492.976654,153.483139 492.976868,163.965988 
z"/>
<path fill="#5B5A5A" opacity="1.000000" stroke="none" 
	d="
M455.002869,116.986870 
	C450.625214,116.802559 447.691833,114.598686 447.325409,110.911400 
	C447.068115,108.322449 448.059082,104.351059 449.903137,103.133766 
	C452.150757,101.650116 456.404205,101.335464 458.804810,102.517029 
	C460.902496,103.549492 462.651276,107.322372 462.739014,109.945297 
	C462.881683,114.209167 459.785583,116.636017 455.002869,116.986870 
z"/>
<path fill="#5B5A5A" opacity="1.000000" stroke="none" 
	d="
M360.797241,134.021881 
	C365.967773,134.820709 368.110229,138.222076 367.755646,142.436646 
	C367.457581,145.979935 365.666107,149.494522 361.196899,149.945847 
	C357.133331,150.356186 354.065826,148.802475 352.504608,144.922928 
	C350.176208,139.137070 353.306335,134.863937 360.797241,134.021881 
z"/>
<path fill="#F3F6F7" opacity="1.000000" stroke="none" 
	d="
M239.949783,355.147644 
	C230.954803,353.506348 227.012283,357.761597 229.908295,366.719360 
	C229.539246,368.160461 229.287079,369.006042 228.750488,369.590485 
	C219.443756,379.727570 209.514252,389.100128 197.127441,395.500671 
	C195.588562,396.295837 194.352356,397.676788 192.975891,398.786255 
	C186.837936,399.977875 180.699997,401.169495 173.859314,402.497559 
	C173.859314,398.455902 173.925385,395.335449 173.844620,392.218750 
	C173.705460,386.848816 170.760132,383.441315 166.338577,383.400055 
	C161.850876,383.358185 158.974030,386.676758 158.872681,392.109467 
	C158.814316,395.238129 158.862106,398.368713 158.862106,401.965912 
	C134.054626,400.029297 112.776100,391.206116 93.473984,374.750702 
	C96.350723,372.120514 99.063049,369.931763 101.422981,367.412842 
	C104.732094,363.880768 104.708458,359.779358 101.698524,356.718658 
	C98.789001,353.760071 94.324944,353.644989 90.968254,356.856262 
	C88.473061,359.243347 86.412445,362.084686 83.810593,365.130737 
	C67.257530,345.716949 58.334129,324.601471 56.406246,299.565460 
	C59.013367,299.565460 61.267174,299.569550 63.520966,299.564728 
	C71.300034,299.548187 74.825111,297.272797 74.937645,292.199982 
	C75.052803,287.009521 71.361496,284.581696 63.312752,284.559082 
	C61.205940,284.553162 59.099094,284.558197 56.432270,284.558197 
	C58.233192,259.639557 67.211914,238.569504 83.527428,219.242249 
	C86.078453,222.030716 88.253395,224.693848 90.726120,227.043610 
	C94.383873,230.519470 98.761887,230.506912 101.812271,227.289703 
	C104.739822,224.202087 104.677979,220.112289 101.317787,216.592560 
	C99.033356,214.199707 96.394005,212.145660 94.001137,210.018127 
	C104.241585,196.526215 137.993622,182.245514 158.863647,182.415939 
	C158.863647,185.664795 158.806259,188.934158 158.876831,192.200760 
	C158.987808,197.336166 161.746506,200.566727 166.043488,200.723801 
	C170.439301,200.884506 173.624893,197.425400 173.845596,192.189499 
	C173.915665,190.527130 173.861969,188.859482 173.863327,187.194260 
	C173.864532,185.718918 173.863571,184.243561 173.863571,181.737427 
	C180.316620,182.895325 186.256592,183.961151 192.724976,185.445740 
	C200.195236,190.592224 207.577988,194.799606 213.950668,200.199127 
	C219.906235,205.245224 224.789978,211.556335 230.145447,217.310699 
	C228.530716,220.650757 227.558563,224.483551 230.725525,226.907089 
	C232.855194,228.536850 236.357712,228.372620 239.764114,229.288773 
	C247.215683,242.480942 253.186295,255.771744 255.553207,270.376556 
	C256.554016,276.551880 257.182861,282.787476 257.980774,288.995697 
	C258.040710,290.998230 258.100647,293.000732 258.015961,295.765167 
	C257.426270,300.296478 256.980347,304.065765 256.536224,307.835297 
	C254.532578,324.841949 248.002228,340.261566 239.949783,355.147644 
M162.816406,292.001892 
	C169.631546,294.084473 173.809875,291.082764 173.840393,283.794769 
	C173.919250,264.963898 173.901215,246.132370 173.845093,227.301331 
	C173.828217,221.640823 170.679214,218.059998 166.132523,218.170929 
	C161.708115,218.278885 158.893845,221.647003 158.870895,227.122879 
	C158.819901,239.287964 158.863495,251.453430 158.834854,263.618652 
	C158.832031,264.816650 158.596115,266.014160 158.392639,267.922241 
	C154.122849,264.019196 150.493896,260.607605 146.759888,257.315186 
	C143.004486,254.003860 138.545425,253.921722 135.596863,256.960907 
	C132.441483,260.213287 132.760544,264.736023 136.690887,268.382935 
	C145.117722,276.202118 153.653717,283.903717 162.816406,292.001892 
z"/>
<path fill="#FDE87D" opacity="1.000000" stroke="none" 
	d="
M450.978088,234.954300 
	C453.933929,242.611313 456.898529,243.673630 465.733154,240.349838 
	C466.651337,241.744720 467.091522,242.827393 467.424896,243.941986 
	C473.499725,264.249786 478.078064,284.877899 478.985168,306.103333 
	C479.680817,322.380890 480.898071,338.798950 479.572235,354.964996 
	C477.070007,385.475708 462.478851,409.869202 437.654541,427.887207 
	C432.021332,431.975922 425.870819,435.351959 419.958435,439.055969 
	C385.243835,446.879944 353.391235,440.840332 325.572723,418.258942 
	C303.165436,400.070068 292.950897,375.718079 289.801514,347.169861 
	C286.417175,316.491364 293.495605,288.843628 308.422302,262.492401 
	C320.590454,241.010941 330.622955,218.576248 337.291992,194.728683 
	C337.551483,193.800705 338.038483,192.936340 338.740509,191.289062 
	C340.339294,192.775909 341.686340,193.862762 342.838745,195.127029 
	C350.803040,203.864517 358.705200,212.658615 366.670380,221.395264 
	C372.879089,228.205276 377.740662,227.243942 382.002258,219.278656 
	C389.368439,205.510620 397.246002,192.016220 404.903198,178.403763 
	C408.241699,172.468796 411.565826,166.525726 415.316650,160.501617 
	C416.827545,162.457367 418.115631,164.418106 418.977661,166.551025 
	C425.621582,182.990128 429.959656,200.027466 432.098816,217.633759 
	C434.108337,234.173111 435.092926,235.040588 450.978088,234.954300 
M443.672638,363.103333 
	C443.413788,356.743774 443.154938,350.384216 443.536957,343.701721 
	C448.247375,342.088531 449.875793,338.722534 449.191498,333.948425 
	C448.082367,326.209869 447.679871,318.304535 445.828735,310.751526 
	C442.035431,295.273926 438.099518,279.775757 433.047577,264.679169 
	C428.736145,251.795410 411.952911,249.355179 404.221008,260.043732 
	C395.751221,271.752228 387.700043,283.767426 379.631775,295.760193 
	C377.061066,299.581329 375.018799,303.757965 372.648956,307.922668 
	C370.965363,306.796875 369.586578,305.874664 368.207550,304.952881 
	C366.685577,303.935516 365.188324,302.878693 363.636719,301.908752 
	C358.631348,298.779785 354.912964,299.419800 351.749878,304.335693 
	C340.247589,322.212036 331.557495,341.372131 330.600647,362.820435 
	C329.424194,389.193176 339.119934,411.249146 362.610596,424.597595 
	C401.585785,446.745117 448.886322,417.908630 450.876190,372.684723 
	C451.096588,367.675873 448.247192,365.063690 443.672638,363.103333 
z"/>
<path fill="#D8B0ED" opacity="1.000000" stroke="none" 
	d="
M204.985931,436.944611 
	C181.268143,443.892395 157.286835,444.041504 133.381577,438.625580 
	C71.446960,424.593842 25.914185,374.578217 17.239765,311.616730 
	C5.890084,229.237381 66.196594,151.910751 148.849503,142.869843 
	C167.565872,140.822571 186.080276,141.668457 204.909332,147.111237 
	C205.924347,147.543915 206.318466,147.670013 206.712601,147.796112 
	C206.712601,147.796112 206.706619,147.642166 207.025391,147.922424 
	C209.058289,149.212509 210.727386,150.309814 212.493271,151.219116 
	C243.211899,167.036957 266.688110,190.201492 281.914917,221.206207 
	C287.238556,232.046143 290.730255,243.785797 295.058533,255.114563 
	C293.332886,258.689514 291.607208,262.264435 289.484100,266.662781 
	C275.083618,214.166611 242.930603,180.275742 189.750061,169.266266 
	C153.831543,161.830368 120.440910,169.961182 91.080101,192.050674 
	C32.369793,236.221161 23.847818,320.319794 72.726875,375.034729 
	C101.017860,406.703522 137.106491,420.697144 179.287643,416.413879 
	C221.258484,412.151886 252.813538,390.361206 275.315948,354.116699 
	C276.493134,360.318756 277.504395,365.646454 278.242004,371.570801 
	C277.118347,373.162537 276.137573,374.073822 275.437469,375.165131 
	C261.239532,397.296600 243.272125,415.511475 220.260773,428.536407 
	C215.823273,431.048157 211.500412,433.762451 207.124680,436.383301 
	C207.124680,436.383301 207.130524,436.259735 206.886688,436.260010 
	C206.090546,436.488403 205.538239,436.716492 204.985931,436.944611 
z"/>
<path fill="#FCE35A" opacity="1.000000" stroke="none" 
	d="
M420.362915,439.063721 
	C425.870819,435.351959 432.021332,431.975922 437.654541,427.887207 
	C462.478851,409.869202 477.070007,385.475708 479.572235,354.964996 
	C480.898071,338.798950 479.680817,322.380890 478.985168,306.103333 
	C478.078064,284.877899 473.499725,264.249786 467.424896,243.941986 
	C467.091522,242.827393 466.651337,241.744720 466.110901,240.305206 
	C470.542786,237.675629 475.124573,235.388046 480.476105,232.716171 
	C482.259827,237.783844 484.054291,242.346756 485.481567,247.021744 
	C496.556030,283.295990 500.992737,320.500153 496.642029,358.073547 
	C492.510223,393.756470 471.332581,418.030609 439.167664,432.905304 
	C433.331787,435.604065 426.915649,437.048096 420.362915,439.063721 
z"/>
<path fill="#FCE35A" opacity="1.000000" stroke="none" 
	d="
M451.032074,234.506500 
	C435.092926,235.040588 434.108337,234.173111 432.098816,217.633759 
	C429.959656,200.027466 425.621582,182.990128 418.977661,166.551025 
	C418.115631,164.418106 416.827545,162.457367 415.496399,160.181778 
	C417.101746,154.137436 418.947479,148.328201 421.243439,141.102051 
	C441.517029,169.701202 449.018677,200.989517 451.032074,234.506500 
z"/>
<path fill="#CA96E5" opacity="1.000000" stroke="none" 
	d="
M295.322449,254.888153 
	C290.730255,243.785797 287.238556,232.046143 281.914917,221.206207 
	C266.688110,190.201492 243.211899,167.036957 212.493271,151.219116 
	C210.727386,150.309814 209.058289,149.212509 207.102325,147.918945 
	C225.763535,152.278320 242.573486,161.204498 257.907166,172.973892 
	C278.117249,188.486221 293.429199,207.957901 303.606537,231.315231 
	C304.622620,233.647171 304.377441,237.177017 303.382355,239.603271 
	C301.246033,244.812378 298.237671,249.663834 295.322449,254.888153 
z"/>
<path fill="#A79BA7" opacity="1.000000" stroke="none" 
	d="
M186.824768,90.446472 
	C169.369934,90.436539 151.913193,90.568161 134.461349,90.334404 
	C128.891357,90.259804 125.628746,86.187477 125.797310,80.798889 
	C125.961823,75.539551 129.483047,71.921051 135.158234,71.886063 
	C152.122742,71.781479 169.088547,71.888390 186.613251,72.343773 
	C189.899445,78.721336 189.575974,84.607803 186.824768,90.446472 
z"/>
<path fill="#E4E9EE" opacity="1.000000" stroke="none" 
	d="
M258.241119,288.748535 
	C257.182861,282.787476 256.554016,276.551880 255.553207,270.376556 
	C253.186295,255.771744 247.215683,242.480942 240.127945,229.247955 
	C242.803207,225.692993 245.632706,222.456604 248.737488,218.905380 
	C265.331970,238.402359 274.192352,259.554169 276.153778,283.782074 
	C270.258087,286.219086 262.819611,281.717407 258.241119,288.748535 
z"/>
<path fill="#E6EBF0" opacity="1.000000" stroke="none" 
	d="
M240.125580,355.424805 
	C248.002228,340.261566 254.532578,324.841949 256.536224,307.835297 
	C256.980347,304.065765 257.426270,300.296478 258.123322,296.183594 
	C262.934601,301.854401 269.816742,298.474365 276.018677,300.082520 
	C274.286682,324.370392 265.420135,345.545898 249.428925,364.346558 
	C246.250839,361.336639 243.276108,358.519318 240.125580,355.424805 
z"/>
<path fill="#CA97E6" opacity="1.000000" stroke="none" 
	d="
M207.522736,436.355621 
	C211.500412,433.762451 215.823273,431.048157 220.260773,428.536407 
	C243.272125,415.511475 261.239532,397.296600 275.437469,375.165131 
	C276.137573,374.073822 277.118347,373.162537 278.301147,371.988861 
	C281.410370,379.290283 284.186798,386.770264 286.960876,394.623840 
	C282.706726,399.431458 278.454956,403.865479 274.054962,408.598328 
	C266.728363,404.741699 265.948822,404.850037 258.993042,410.268768 
	C243.643021,422.226807 226.752838,431.185028 207.522736,436.355621 
z"/>
<path fill="#E4E9EE" opacity="1.000000" stroke="none" 
	d="
M230.445618,217.148224 
	C224.789978,211.556335 219.906235,205.245224 213.950668,200.199127 
	C207.577988,194.799606 200.195236,190.592224 193.111542,185.571396 
	C210.076370,189.185333 224.962677,197.307358 239.097992,209.316742 
	C236.048248,212.117020 233.397018,214.551376 230.445618,217.148224 
z"/>
<path fill="#E4E9EE" opacity="1.000000" stroke="none" 
	d="
M193.357941,398.798157 
	C194.352356,397.676788 195.588562,396.295837 197.127441,395.500671 
	C209.514252,389.100128 219.443756,379.727570 228.750488,369.590485 
	C229.287079,369.006042 229.539246,368.160461 230.022095,367.089661 
	C232.765442,369.428009 235.410461,372.113098 238.436966,375.185455 
	C225.353500,386.782867 210.404068,394.380890 193.357941,398.798157 
z"/>
<path fill="#8F828F" opacity="1.000000" stroke="none" 
	d="
M187.288834,90.555260 
	C189.575974,84.607803 189.899445,78.721336 187.077850,72.403076 
	C190.633514,71.997574 194.292892,71.788254 197.932266,71.972977 
	C202.866394,72.223427 206.519867,75.781502 206.912094,80.339920 
	C207.306885,84.928307 204.429184,89.322838 199.621796,90.182182 
	C195.760178,90.872459 191.716049,90.541718 187.288834,90.555260 
z"/>
<path fill="#CA97E6" opacity="1.000000" stroke="none" 
	d="
M205.295273,436.971863 
	C205.538239,436.716492 206.090546,436.488403 206.948364,436.264587 
	C206.704117,436.512268 206.154373,436.755707 205.295273,436.971863 
z"/>
<path fill="#CA96E5" opacity="1.000000" stroke="none" 
	d="
M206.494995,147.546951 
	C206.318466,147.670013 205.924347,147.543915 205.259552,147.266052 
	C205.418396,147.175461 205.847885,147.236633 206.494995,147.546951 
z"/>
<path fill="#5E5D5D" opacity="1.000000" stroke="none" 
	d="
M162.480713,291.827667 
	C153.653717,283.903717 145.117722,276.202118 136.690887,268.382935 
	C132.760544,264.736023 132.441483,260.213287 135.596863,256.960907 
	C138.545425,253.921722 143.004486,254.003860 146.759888,257.315186 
	C150.493896,260.607605 154.122849,264.019196 158.392639,267.922241 
	C158.596115,266.014160 158.832031,264.816650 158.834854,263.618652 
	C158.863495,251.453430 158.819901,239.287964 158.870895,227.122879 
	C158.893845,221.647003 161.708115,218.278885 166.132523,218.170929 
	C170.679214,218.059998 173.828217,221.640823 173.845093,227.301331 
	C173.901215,246.132370 173.919250,264.963898 173.840393,283.794769 
	C173.809875,291.082764 169.631546,294.084473 162.480713,291.827667 
z"/>
<path fill="#5E5C5B" opacity="1.000000" stroke="none" 
	d="
M443.672211,363.937622 
	C448.247192,365.063690 451.096588,367.675873 450.876190,372.684723 
	C448.886322,417.908630 401.585785,446.745117 362.610596,424.597595 
	C339.119934,411.249146 329.424194,389.193176 330.600647,362.820435 
	C331.557495,341.372131 340.247589,322.212036 351.749878,304.335693 
	C354.912964,299.419800 358.631348,298.779785 363.636719,301.908752 
	C365.188324,302.878693 366.685577,303.935516 368.207550,304.952881 
	C369.586578,305.874664 370.965363,306.796875 372.648956,307.922668 
	C375.018799,303.757965 377.061066,299.581329 379.631775,295.760193 
	C387.700043,283.767426 395.751221,271.752228 404.221008,260.043732 
	C411.952911,249.355179 428.736145,251.795410 433.047577,264.679169 
	C438.099518,279.775757 442.035431,295.273926 445.828735,310.751526 
	C447.679871,318.304535 448.082367,326.209869 449.191498,333.948425 
	C449.875793,338.722534 448.247375,342.088531 442.857422,343.795532 
	C435.973724,342.311218 434.823273,340.692657 434.023773,333.235291 
	C431.781281,312.318665 427.313721,291.899750 419.987854,272.153229 
	C419.529449,270.917633 418.289368,269.972015 417.412994,268.891418 
	C416.510376,269.775421 415.423523,270.536407 414.737091,271.564697 
	C411.788055,275.982605 408.956726,280.479065 405.802734,285.143921 
	C398.128387,297.153351 390.521454,308.839996 383.426697,320.829773 
	C379.744781,327.052002 376.184448,328.405426 370.097900,324.441345 
	C367.092926,322.484253 364.129028,320.464111 360.849579,318.274170 
	C353.831421,330.222137 349.147003,342.217010 346.556396,355.050415 
	C344.849091,363.508057 344.940155,371.893341 347.045135,380.284119 
	C352.832764,403.354279 371.427643,418.172943 393.402954,416.870178 
	C416.787811,414.706329 433.757050,397.337921 435.724518,373.605133 
	C436.173798,368.185364 438.117462,364.778229 443.672211,363.937622 
z"/>
<path fill="#FD646F" opacity="1.000000" stroke="none" 
	d="
M443.672424,363.520477 
	C438.117462,364.778229 436.173798,368.185364 435.724518,373.605133 
	C433.757050,397.337921 416.787811,414.706329 393.614990,416.623108 
	C410.585205,403.537354 419.144379,386.544647 417.947083,365.053711 
	C417.161469,350.952789 416.655487,336.767548 414.618958,322.825348 
	C412.753754,310.055969 409.002594,297.562134 406.082489,284.946869 
	C408.956726,280.479065 411.788055,275.982605 414.737091,271.564697 
	C415.423523,270.536407 416.510376,269.775421 417.412994,268.891418 
	C418.289368,269.972015 419.529449,270.917633 419.987854,272.153229 
	C427.313721,291.899750 431.781281,312.318665 434.023773,333.235291 
	C434.823273,340.692657 435.973724,342.311218 442.536987,343.957001 
	C443.154938,350.384216 443.413788,356.743774 443.672424,363.520477 
z"/>
<path fill="#FC8087" opacity="1.000000" stroke="none" 
	d="
M405.802734,285.143921 
	C409.002594,297.562134 412.753754,310.055969 414.618958,322.825348 
	C416.655487,336.767548 417.161469,350.952789 417.947083,365.053711 
	C419.144379,386.544647 410.585205,403.537354 393.206573,416.575684 
	C371.427643,418.172943 352.832764,403.354279 347.045135,380.284119 
	C344.940155,371.893341 344.849091,363.508057 346.556396,355.050415 
	C349.147003,342.217010 353.831421,330.222137 360.849579,318.274170 
	C364.129028,320.464111 367.092926,322.484253 370.097900,324.441345 
	C376.184448,328.405426 379.744781,327.052002 383.426697,320.829773 
	C390.521454,308.839996 398.128387,297.153351 405.802734,285.143921 
z"/>
</svg>