<svg version="1.1" id="Layer_1" xmlns="http://www.w3.org/2000/svg" xmlns:xlink="http://www.w3.org/1999/xlink" x="0px" y="0px"
	 width="100%" viewBox="0 0 512 512" enable-background="new 0 0 512 512" xml:space="preserve">
<path fill="#FFFFFF" opacity="1.000000" stroke="none" 
	d="
M1.000000,184.000000 
	C1.000000,122.666664 1.000000,61.833332 1.000000,1.000000 
	C171.666672,1.000000 342.333344,1.000000 513.000000,1.000000 
	C513.000000,171.666672 513.000000,342.333344 513.000000,513.000000 
	C342.333344,513.000000 171.666672,513.000000 1.000000,513.000000 
	C1.000000,403.500000 1.000000,294.000000 1.000000,184.000000 
M448.986694,236.054550 
	C448.966431,227.042358 448.946198,218.030167 449.828552,209.007050 
	C456.990906,208.967514 456.997040,208.967514 456.997314,202.072937 
	C456.999054,156.755966 457.004639,111.438988 456.990997,66.122009 
	C456.988800,58.852531 455.131958,57.018097 447.818909,57.008400 
	C432.157928,56.987629 416.496857,57.001854 400.835846,57.001766 
	C377.844147,57.001640 354.852142,56.942680 331.861084,57.064682 
	C328.401489,57.083038 326.347015,56.215618 325.218903,52.686111 
	C323.704651,47.948540 321.618042,43.394623 319.794800,38.754925 
	C314.473297,25.213064 303.633942,17.635830 291.066223,16.851894 
	C274.822540,15.838671 263.425476,25.594601 258.254364,38.652992 
	C256.602905,42.823410 254.703583,46.926895 253.455841,51.217514 
	C252.110077,55.845238 249.505722,57.139149 244.754623,57.113758 
	C207.102615,56.912510 169.449066,57.000744 131.795990,57.002502 
	C122.271400,57.002945 121.002411,58.299191 121.002243,68.018097 
	C121.001259,125.164131 121.035072,182.310242 120.891716,239.455933 
	C120.885330,242.002197 119.982224,245.257782 118.275948,246.957184 
	C112.760468,252.450455 106.650070,257.343353 100.813667,262.518066 
	C89.266670,272.755981 77.438667,282.705383 66.341888,293.411560 
	C60.114159,299.420105 56.978756,307.427856 56.992615,316.380981 
	C57.023304,336.207123 57.121178,356.034943 56.858685,375.857635 
	C56.823753,378.495605 55.495701,381.724701 53.670387,383.629883 
	C43.529675,394.214081 33.045559,404.469147 22.693193,414.851013 
	C21.433950,416.113861 20.260220,417.461945 18.908175,418.920105 
	C21.128538,421.494659 23.061642,423.736145 24.998402,426.918365 
	C24.998402,447.513672 24.998402,468.109009 24.998402,489.000671 
	C26.330883,489.000671 27.133076,489.000641 27.935270,489.000641 
	C68.249359,489.000793 108.563446,489.004089 148.877533,488.987244 
	C150.200073,488.986694 151.522522,488.781647 153.131699,489.324463 
	C154.801193,491.351166 156.470703,493.377838 158.405945,495.727142 
	C160.549377,493.727509 161.894119,492.544067 163.159607,491.281189 
	C173.294952,481.166779 183.509445,471.128693 193.479767,460.853851 
	C196.271362,457.976990 199.158569,456.912750 203.123444,456.923096 
	C248.410339,457.041443 293.697906,456.925507 338.984406,457.103516 
	C343.847443,457.122620 345.753754,455.693329 345.015350,450.920349 
	C344.914856,450.270844 345.012421,449.590698 345.947357,448.986816 
	C350.958679,448.964691 355.970032,448.942596 360.995514,449.867706 
	C360.999268,463.945007 361.091980,478.023285 360.944550,492.098999 
	C360.907410,495.644653 361.833801,497.327393 365.670654,497.047363 
	C369.461151,496.770752 373.283997,496.937195 378.017639,496.988190 
	C412.314148,496.961945 446.610687,496.935699 481.852539,496.955475 
	C484.684509,496.968445 487.516479,496.993469 490.348450,496.991943 
	C496.979797,496.988281 496.991974,496.983154 496.992432,490.536102 
	C496.995972,442.390320 496.749695,394.242676 497.120331,346.099762 
	C497.259369,328.039398 494.395782,310.748047 488.109375,293.916992 
	C479.802429,271.676086 466.496399,252.880859 448.986694,236.054550 
z"/>
<path fill="#321C1B" opacity="1.000000" stroke="none" 
	d="
M345.018250,448.924744 
	C345.012421,449.590698 344.914856,450.270844 345.015350,450.920349 
	C345.753754,455.693329 343.847443,457.122620 338.984406,457.103516 
	C293.697906,456.925507 248.410339,457.041443 203.123444,456.923096 
	C199.158569,456.912750 196.271362,457.976990 193.479767,460.853851 
	C183.509445,471.128693 173.294952,481.166779 163.159607,491.281189 
	C161.894119,492.544067 160.549377,493.727509 158.405945,495.727142 
	C156.470703,493.377838 154.801193,491.351166 152.742432,488.804413 
	C150.442551,487.001251 148.531921,485.718140 145.510651,483.689148 
	C155.522217,473.883179 163.982819,465.596313 172.759644,456.999725 
	C158.593201,456.999725 144.801819,457.025482 131.010590,456.989136 
	C123.820915,456.970215 121.050522,454.191193 121.008987,447.027344 
	C120.968880,440.109406 121.000305,433.191040 121.000305,425.980042 
	C116.322678,428.372955 112.145744,430.509735 107.629700,432.820007 
	C105.766670,427.193115 104.176804,422.391266 102.582527,417.576111 
	C115.928314,411.673553 121.678604,401.758789 121.017075,387.936371 
	C120.897766,385.443451 121.193260,382.921631 120.958611,380.445251 
	C120.513504,375.747681 122.245651,372.251038 125.609909,368.958008 
	C138.465408,356.374603 151.143066,343.608429 163.809631,330.833649 
	C170.366501,324.220795 170.701584,315.487183 164.834778,309.447510 
	C158.831528,303.267426 149.875931,303.549011 143.107712,310.258881 
	C133.170975,320.109863 123.262001,329.989868 113.438103,339.953064 
	C109.949638,343.490997 106.744156,347.307953 103.928688,350.423065 
	C99.320984,346.160065 95.588112,342.706451 91.581017,338.999115 
	C100.416603,330.193909 109.051888,321.419861 117.908005,312.874695 
	C120.284470,310.581665 121.111534,308.237976 121.064468,305.020752 
	C120.898758,293.696106 121.010880,282.367462 120.983665,271.040436 
	C120.980843,269.866852 120.751747,268.693817 120.576729,267.039276 
	C107.626663,278.353333 95.287422,289.288361 82.766396,300.011139 
	C75.963692,305.836853 72.850548,312.953735 72.938187,321.912262 
	C73.135353,342.065918 72.923157,362.223328 73.063095,382.377960 
	C73.091896,386.525452 71.805275,389.656372 68.860535,392.553833 
	C56.987411,404.236298 45.269302,416.076233 33.476276,427.840271 
	C32.581577,428.732788 31.548662,429.486786 30.770647,430.144104 
	C28.631804,428.601227 26.813278,427.289429 24.994749,425.977631 
	C23.061642,423.736145 21.128538,421.494659 18.908175,418.920105 
	C20.260220,417.461945 21.433950,416.113861 22.693193,414.851013 
	C33.045559,404.469147 43.529675,394.214081 53.670387,383.629883 
	C55.495701,381.724701 56.823753,378.495605 56.858685,375.857635 
	C57.121178,356.034943 57.023304,336.207123 56.992615,316.380981 
	C56.978756,307.427856 60.114159,299.420105 66.341888,293.411560 
	C77.438667,282.705383 89.266670,272.755981 100.813667,262.518066 
	C106.650070,257.343353 112.760468,252.450455 118.275948,246.957184 
	C119.982224,245.257782 120.885330,242.002197 120.891716,239.455933 
	C121.035072,182.310242 121.001259,125.164131 121.002243,68.018097 
	C121.002411,58.299191 122.271400,57.002945 131.795990,57.002502 
	C169.449066,57.000744 207.102615,56.912510 244.754623,57.113758 
	C249.505722,57.139149 252.110077,55.845238 253.455841,51.217514 
	C254.703583,46.926895 256.602905,42.823410 258.254364,38.652992 
	C263.425476,25.594601 274.822540,15.838671 291.066223,16.851894 
	C303.633942,17.635830 314.473297,25.213064 319.794800,38.754925 
	C321.618042,43.394623 323.704651,47.948540 325.218903,52.686111 
	C326.347015,56.215618 328.401489,57.083038 331.861084,57.064682 
	C354.852142,56.942680 377.844147,57.001640 400.835846,57.001766 
	C416.496857,57.001854 432.157928,56.987629 447.818909,57.008400 
	C455.131958,57.018097 456.988800,58.852531 456.990997,66.122009 
	C457.004639,111.438988 456.999054,156.755966 456.997314,202.072937 
	C456.997040,208.967514 456.990906,208.967514 448.931824,209.005890 
	C445.792694,209.004745 443.550232,209.004745 440.718964,209.004745 
	C440.718964,163.208817 440.718964,118.216553 440.718964,73.004036 
	C421.813141,73.004036 403.510620,72.969902 385.208954,73.080513 
	C383.983368,73.087914 382.128387,73.876068 381.651398,74.838783 
	C379.471588,79.238533 377.679108,83.830193 375.471375,88.999405 
	C378.242920,88.999405 380.050018,88.999359 381.857117,88.999413 
	C393.008453,88.999771 404.159973,88.960403 415.311066,89.015266 
	C422.134369,89.048836 424.932526,91.906792 424.989197,98.795860 
	C425.039825,104.953651 425.000275,111.112190 425.000366,117.270393 
	C425.000458,123.709122 425.000397,130.147842 425.000397,136.771423 
	C421.911896,136.920334 419.447723,137.039139 416.532959,137.087448 
	C413.812195,137.016937 411.542053,137.016937 408.861816,137.016937 
	C408.861816,126.067497 408.861816,115.661011 408.861816,105.001472 
	C395.955261,105.001472 383.486359,104.931961 371.021118,105.112610 
	C369.819580,105.130028 368.100220,106.440826 367.544861,107.595474 
	C365.170868,112.531197 363.057190,117.599007 361.015686,122.685722 
	C359.248505,127.088943 356.218811,129.052231 351.416382,129.043518 
	C309.772522,128.967957 268.128387,128.969833 226.484497,129.040802 
	C221.664886,129.049011 218.692780,127.008324 216.953995,122.597939 
	C215.066254,117.809746 212.793945,113.170990 210.971069,108.360306 
	C210.005966,105.813324 208.714615,104.796814 205.882584,104.924805 
	C200.230530,105.180244 194.558838,105.000420 188.895248,105.000404 
	C182.308701,105.000381 175.722168,105.000404 169.252304,105.000404 
	C169.107513,106.012306 169.020844,106.335236 169.020798,106.658188 
	C169.010010,167.624939 168.981689,228.591751 169.124893,289.558136 
	C169.128845,291.236420 170.594025,293.416962 172.028656,294.505524 
	C182.667694,302.578156 187.709656,315.135681 183.681549,327.574188 
	C181.911057,333.041351 178.370285,338.349976 174.401917,342.573669 
	C170.452026,346.777679 168.742249,350.783264 168.873444,356.521912 
	C169.238861,372.504852 168.994049,388.501617 169.011307,404.492920 
	C169.012863,405.926849 169.167267,407.360596 169.272034,409.161316 
	C228.009323,409.161316 286.402802,409.161316 345.158905,409.161316 
	C345.158905,412.029480 345.158905,414.506897 345.100159,417.432190 
	C345.041412,420.134064 345.041412,422.388092 345.041412,424.669373 
	C343.629547,424.835876 342.983917,424.978577 342.338257,424.978729 
	C282.212799,424.992432 222.087326,425.013977 161.961899,424.969971 
	C155.909470,424.965546 153.040115,421.820465 153.017014,415.468323 
	C152.962463,400.478760 152.998520,385.488922 152.997955,370.499176 
	C152.997894,368.915344 152.997940,367.331512 152.997940,365.747650 
	C152.504120,365.443909 152.010284,365.140167 151.516464,364.836426 
	C147.619370,369.072540 143.525482,373.149872 139.919159,377.620544 
	C138.412949,379.487732 137.158981,382.180298 137.127380,384.515717 
	C136.895340,401.667511 136.996368,418.823853 137.011703,435.978790 
	C137.013123,437.567108 137.148575,439.155334 137.239990,441.138306 
	C206.718994,441.138306 275.610382,441.138306 345.018280,441.138306 
	C345.018280,444.006287 345.018280,446.465515 345.018250,448.924744 
M355.785278,94.292320 
	C358.687378,87.371162 361.589447,80.450005 364.595001,73.282082 
	C313.797791,73.282082 263.914459,73.282082 213.582260,73.282082 
	C214.200745,75.042274 214.606537,76.445396 215.176056,77.778564 
	C219.617752,88.175858 224.216019,98.508804 228.476944,108.979218 
	C229.729843,112.057983 231.263138,113.106674 234.655853,113.090477 
	C266.637299,112.937752 298.619812,112.999725 330.601990,112.999741 
	C336.255798,112.999748 341.909576,112.999741 347.695587,112.999741 
	C350.326416,106.869675 352.880005,100.919540 355.785278,94.292320 
M152.998474,174.500000 
	C152.998688,149.336121 152.981384,124.172226 153.010193,99.008385 
	C153.018433,91.815437 155.807358,89.052345 162.988693,89.007866 
	C169.654373,88.966583 176.320496,88.998604 182.986435,88.998489 
	C189.222839,88.998390 195.459244,88.998474 202.465027,88.998474 
	C200.504410,84.333809 198.686569,80.609909 197.381668,76.714188 
	C196.336365,73.593529 194.486588,72.911179 191.423660,72.936470 
	C174.759949,73.074066 158.094513,72.993301 141.429718,73.017982 
	C140.013626,73.020081 138.597870,73.244507 137.353363,73.350990 
	C137.353363,147.102539 137.353363,220.305435 137.353363,293.357300 
	C142.606995,291.607605 147.585602,289.949524 152.998474,288.146790 
	C152.998474,250.778870 152.998474,213.139435 152.998474,174.500000 
M282.515076,57.005119 
	C291.212158,57.005119 299.909271,57.005119 309.218323,57.005119 
	C306.908173,51.355694 305.220428,46.309624 302.847321,41.609589 
	C297.332397,30.686989 282.081940,29.892281 275.961731,40.345936 
	C273.012604,45.383163 271.238556,51.108337 268.726593,57.005119 
	C273.563293,57.005119 277.542908,57.005119 282.515076,57.005119 
z"/>
<path fill="#331C1C" opacity="1.000000" stroke="none" 
	d="
M377.092651,496.909332 
	C373.283997,496.937195 369.461151,496.770752 365.670654,497.047363 
	C361.833801,497.327393 360.907410,495.644653 360.944550,492.098999 
	C361.091980,478.023285 360.999268,463.945007 360.993164,448.930664 
	C360.940155,437.657257 360.889496,427.320862 360.909821,416.518951 
	C360.986267,400.056610 361.030884,384.059601 360.939453,368.063354 
	C360.929840,366.376709 360.649506,364.185974 359.597626,363.090790 
	C350.970215,354.108398 342.130127,345.330353 333.445099,336.581451 
	C316.711121,347.544159 308.855591,347.761627 290.936005,337.694489 
	C286.367645,342.609497 281.661621,347.672668 276.631348,353.084656 
	C280.759155,353.084656 284.793427,353.084656 288.666656,353.084656 
	C288.666656,358.703094 288.666656,363.771423 288.666656,368.660492 
	C277.916931,368.660492 267.505890,368.660492 256.706635,368.660492 
	C256.706635,365.274994 256.706635,362.230896 256.706635,358.866821 
	C251.221985,360.717834 246.203873,362.411377 241.002518,364.166779 
	C241.002518,367.945618 241.036255,371.602905 240.995255,375.259338 
	C240.918549,382.103912 238.100876,384.954376 231.256821,384.990082 
	C221.758850,385.039642 212.260223,385.038696 202.762238,384.990417 
	C195.896591,384.955566 193.046219,382.121521 193.010117,375.287292 
	C192.959976,365.789307 192.963013,356.290741 193.008911,346.792725 
	C193.042236,339.894409 195.849075,337.057556 202.671631,337.009247 
	C209.981857,336.957520 217.292740,336.997559 224.610733,336.997559 
	C226.372055,331.533752 228.011597,326.447662 229.767227,321.001495 
	C220.047256,321.001495 211.054733,321.067657 202.063766,320.978119 
	C196.131180,320.919006 193.083466,317.941772 193.025864,312.088165 
	C192.927490,302.091003 192.938507,292.091675 193.021088,282.094208 
	C193.070297,276.136688 196.024857,273.085968 201.869644,273.026978 
	C211.866776,272.926147 221.866150,272.938629 231.863617,273.020447 
	C238.008682,273.070740 240.912125,276.080017 240.986282,282.338257 
	C241.058273,288.415039 241.001892,294.493378 241.001892,300.913239 
	C246.852936,297.113678 249.774597,292.808350 249.153442,285.908112 
	C248.468964,278.304504 249.009766,270.591675 248.995163,262.926453 
	C248.973831,251.731628 252.785248,242.045258 260.646271,234.086166 
	C272.238617,222.349213 283.904022,210.683411 295.629028,199.078964 
	C303.053436,191.730911 311.886292,186.609985 322.356995,185.763885 
	C332.787842,184.921005 343.316132,185.346832 353.786926,184.883530 
	C355.987244,184.786163 358.599274,183.753601 360.204285,182.268585 
	C366.192841,176.727814 372.019958,170.985794 377.580048,165.014267 
	C388.759186,153.007797 401.700653,149.777100 417.100098,156.638901 
	C424.785858,161.330841 429.870575,167.626007 432.006012,176.124786 
	C435.361603,189.479752 430.026703,200.020050 421.790283,207.883499 
	C431.104828,217.861725 440.032959,227.425980 448.961060,236.990219 
	C466.496399,252.880859 479.802429,271.676086 488.109375,293.916992 
	C494.395782,310.748047 497.259369,328.039398 497.120331,346.099762 
	C496.749695,394.242676 496.995972,442.390320 496.992432,490.536102 
	C496.991974,496.983154 496.979797,496.988281 490.348450,496.991943 
	C487.516479,496.993469 484.684509,496.968445 481.416626,496.472137 
	C480.980713,461.773682 480.980713,427.558594 480.980713,393.325378 
	C446.022919,393.325378 411.674286,393.325378 377.092651,393.325378 
	C377.092651,428.067352 377.092651,462.488342 377.092651,496.909332 
M341.523315,266.714020 
	C338.524017,268.753723 335.158173,270.414673 332.590118,272.899963 
	C322.536438,282.629730 312.718781,292.603943 302.844635,302.518433 
	C295.692291,309.700043 295.082367,318.345978 301.220856,324.602325 
	C307.466339,330.967743 316.264679,330.343018 323.669891,322.973206 
	C331.344452,315.335358 338.926575,307.603149 346.679260,300.045746 
	C351.251923,295.588257 356.183929,295.879120 359.869080,300.949127 
	C370.211639,315.178528 384.197815,321.560822 401.612732,321.021484 
	C406.695312,320.864075 411.786926,320.997284 416.784058,320.997284 
	C416.784058,326.671448 416.784058,331.615997 416.784058,337.899139 
	C404.953888,336.894501 393.289093,336.743225 381.962402,334.709198 
	C370.318115,332.618134 360.665192,325.852600 353.001892,317.852417 
	C349.997101,320.357574 347.251892,322.646332 344.282867,325.121643 
	C354.233276,335.008087 363.854736,344.233459 373.004089,353.905396 
	C375.154968,356.179169 376.383850,359.864746 376.840790,363.071228 
	C377.481537,367.567780 377.002563,372.223877 377.002563,376.634369 
	C412.073914,376.634369 446.456360,376.634369 480.989319,376.634369 
	C480.989319,365.619415 481.111511,354.965149 480.966309,344.314545 
	C480.536652,312.800507 470.344604,284.768890 449.316681,261.296997 
	C436.777039,247.299973 422.920654,234.482468 409.637604,221.153259 
	C409.450104,220.965134 409.020721,221.018082 409.541534,221.116089 
	C400.074371,230.579666 390.954285,239.696320 381.652496,248.994598 
	C390.546906,248.994598 399.585297,248.994598 408.725159,248.994598 
	C408.725159,254.553345 408.725159,259.613434 408.725159,265.002777 
	C389.824158,265.002777 371.198334,264.934875 352.573822,265.063904 
	C349.125458,265.087769 345.682587,265.906219 341.523315,266.714020 
M326.927521,238.427505 
	C302.125977,263.227661 277.324432,288.027802 253.398987,311.951874 
	C260.616730,319.138245 267.276886,325.769409 274.385376,332.846985 
	C276.019073,331.043793 278.365967,328.859497 280.175751,326.296021 
	C281.181824,324.871002 281.997772,322.680786 281.693146,321.062469 
	C279.503479,309.430298 282.851074,299.730896 291.150024,291.497589 
	C300.494171,282.227417 309.956146,273.065552 319.024658,263.531036 
	C328.548859,253.517395 339.840912,248.339783 353.743286,248.931595 
	C355.432831,249.003525 357.565399,248.678802 358.795258,247.679535 
	C362.628387,244.565155 366.126465,241.038422 369.210266,238.176575 
	C361.804443,230.712387 355.181274,224.037018 348.256805,217.057999 
	C341.511017,223.816803 334.469238,230.872131 326.927521,238.427505 
M321.088440,221.588440 
	C327.692505,214.977554 334.296570,208.366684 341.366028,201.289917 
	C320.832672,199.947311 315.358856,201.993210 301.672180,215.677658 
	C292.956482,224.391968 284.718689,233.661285 275.404541,241.680389 
	C264.070190,251.438751 264.292389,263.669769 265.402069,277.349030 
	C284.151520,258.574585 302.370148,240.331680 321.088440,221.588440 
M389.416321,175.925919 
	C387.493927,177.220627 385.571564,178.515320 384.135101,179.482773 
	C392.056519,187.393112 398.711884,194.039169 405.209106,200.527298 
	C407.902008,198.044632 411.353119,195.582092 413.883759,192.389877 
	C420.471436,184.080048 416.141388,172.053436 405.827209,169.465790 
	C399.228821,167.810379 394.199188,170.684769 389.416321,175.925919 
M364.397125,200.941711 
	C363.179535,202.245300 361.961945,203.548874 361.072052,204.501617 
	C367.987701,211.412323 374.639160,218.059006 380.754333,224.169830 
	C384.710175,220.620239 388.966431,216.801071 392.612701,213.529282 
	C385.785614,206.684784 379.144409,200.026688 371.758270,192.621704 
	C369.703583,194.965820 367.305725,197.701431 364.397125,200.941711 
M215.549271,289.004120 
	C213.452835,289.004120 211.356415,289.004120 209.373322,289.004120 
	C209.373322,294.717102 209.373322,299.779999 209.373322,304.756622 
	C214.687317,304.756622 219.629761,304.756622 224.709732,304.756622 
	C224.709732,299.455475 224.709732,294.397583 224.709732,289.004120 
	C221.791611,289.004120 219.155563,289.004120 215.549271,289.004120 
M257.274414,341.662750 
	C253.200806,337.132141 249.127197,332.601562 244.542953,327.503052 
	C242.071716,335.081635 240.020355,341.372559 237.739777,348.366455 
	C244.680313,346.024872 250.622879,344.019989 257.274414,341.662750 
M220.109421,367.218170 
	C214.807693,363.113861 217.919693,358.025513 218.880661,353.310730 
	C215.404831,353.310730 212.341202,353.310730 209.313553,353.310730 
	C209.313553,358.660034 209.313553,363.695404 209.313553,368.987244 
	C213.075882,368.987244 216.528793,369.012421 219.979172,368.931396 
	C220.212784,368.925903 220.427628,368.120667 220.109421,367.218170 
z"/>
<path fill="#FECDB6" opacity="1.000000" stroke="none" 
	d="
M24.996578,426.447998 
	C26.813278,427.289429 28.631804,428.601227 30.770647,430.144104 
	C31.548662,429.486786 32.581577,428.732788 33.476276,427.840271 
	C45.269302,416.076233 56.987411,404.236298 68.860535,392.553833 
	C71.805275,389.656372 73.091896,386.525452 73.063095,382.377960 
	C72.923157,362.223328 73.135353,342.065918 72.938187,321.912262 
	C72.850548,312.953735 75.963692,305.836853 82.766396,300.011139 
	C95.287422,289.288361 107.626663,278.353333 120.576729,267.039276 
	C120.751747,268.693817 120.980843,269.866852 120.983665,271.040436 
	C121.010880,282.367462 120.898758,293.696106 121.064468,305.020752 
	C121.111534,308.237976 120.284470,310.581665 117.908005,312.874695 
	C109.051888,321.419861 100.416603,330.193909 91.581017,338.999115 
	C95.588112,342.706451 99.320984,346.160065 103.928688,350.423065 
	C106.744156,347.307953 109.949638,343.490997 113.438103,339.953064 
	C123.262001,329.989868 133.170975,320.109863 143.107712,310.258881 
	C149.875931,303.549011 158.831528,303.267426 164.834778,309.447510 
	C170.701584,315.487183 170.366501,324.220795 163.809631,330.833649 
	C151.143066,343.608429 138.465408,356.374603 125.609909,368.958008 
	C122.245651,372.251038 120.513504,375.747681 120.958611,380.445251 
	C121.193260,382.921631 120.897766,385.443451 121.017075,387.936371 
	C121.678604,401.758789 115.928314,411.673553 102.582527,417.576111 
	C104.176804,422.391266 105.766670,427.193115 107.629700,432.820007 
	C112.145744,430.509735 116.322678,428.372955 121.000305,425.980042 
	C121.000305,433.191040 120.968880,440.109406 121.008987,447.027344 
	C121.050522,454.191193 123.820915,456.970215 131.010590,456.989136 
	C144.801819,457.025482 158.593201,456.999725 172.759644,456.999725 
	C163.982819,465.596313 155.522217,473.883179 145.510651,483.689148 
	C148.531921,485.718140 150.442551,487.001251 152.599091,488.478149 
	C151.522522,488.781647 150.200073,488.986694 148.877533,488.987244 
	C108.563446,489.004089 68.249359,489.000793 27.935270,489.000641 
	C27.133076,489.000641 26.330883,489.000671 24.998402,489.000671 
	C24.998402,468.109009 24.998402,447.513672 24.996578,426.447998 
z"/>
<path fill="#548AFF" opacity="1.000000" stroke="none" 
	d="
M377.555145,496.948761 
	C377.092651,462.488342 377.092651,428.067352 377.092651,393.325378 
	C411.674286,393.325378 446.022919,393.325378 480.980713,393.325378 
	C480.980713,427.558594 480.980713,461.773682 480.943970,496.449127 
	C446.610687,496.935699 412.314148,496.961945 377.555145,496.948761 
z"/>
<path fill="#C78640" opacity="1.000000" stroke="none" 
	d="
M360.838867,416.984497 
	C360.889496,427.320862 360.940155,437.657257 360.986084,448.457062 
	C355.970032,448.942596 350.958679,448.964691 345.482819,448.955780 
	C345.018280,446.465515 345.018280,444.006287 345.018280,441.138306 
	C275.610382,441.138306 206.718994,441.138306 137.239990,441.138306 
	C137.148575,439.155334 137.013123,437.567108 137.011703,435.978790 
	C136.996368,418.823853 136.895340,401.667511 137.127380,384.515717 
	C137.158981,382.180298 138.412949,379.487732 139.919159,377.620544 
	C143.525482,373.149872 147.619370,369.072540 151.516464,364.836426 
	C152.010284,365.140167 152.504120,365.443909 152.997940,365.747650 
	C152.997940,367.331512 152.997894,368.915344 152.997955,370.499176 
	C152.998520,385.488922 152.962463,400.478760 153.017014,415.468323 
	C153.040115,421.820465 155.909470,424.965546 161.961899,424.969971 
	C222.087326,425.013977 282.212799,424.992432 342.338257,424.978729 
	C342.983917,424.978577 343.629547,424.835876 345.041412,424.669373 
	C345.041412,422.388092 345.041412,420.134064 345.555145,417.438110 
	C350.992218,416.992310 355.915527,416.988403 360.838867,416.984497 
z"/>
<path fill="#C78640" opacity="1.000000" stroke="none" 
	d="
M448.973877,236.522385 
	C440.032959,227.425980 431.104828,217.861725 421.790283,207.883499 
	C430.026703,200.020050 435.361603,189.479752 432.006012,176.124786 
	C429.870575,167.626007 424.785858,161.330841 417.147827,156.144608 
	C416.980377,149.326202 416.981964,143.242081 416.983551,137.157959 
	C419.447723,137.039139 421.911896,136.920334 425.000397,136.771423 
	C425.000397,130.147842 425.000458,123.709122 425.000366,117.270393 
	C425.000275,111.112190 425.039825,104.953651 424.989197,98.795860 
	C424.932526,91.906792 422.134369,89.048836 415.311066,89.015266 
	C404.159973,88.960403 393.008453,88.999771 381.857117,88.999413 
	C380.050018,88.999359 378.242920,88.999405 375.471375,88.999405 
	C377.679108,83.830193 379.471588,79.238533 381.651398,74.838783 
	C382.128387,73.876068 383.983368,73.087914 385.208954,73.080513 
	C403.510620,72.969902 421.813141,73.004036 440.718964,73.004036 
	C440.718964,118.216553 440.718964,163.208817 440.718964,209.004745 
	C443.550232,209.004745 445.792694,209.004745 448.480530,209.011353 
	C448.946198,218.030167 448.966431,227.042358 448.973877,236.522385 
z"/>
<path fill="#E0EDFF" opacity="1.000000" stroke="none" 
	d="
M416.532959,137.087448 
	C416.981964,143.242081 416.980377,149.326202 416.931000,155.904617 
	C401.700653,149.777100 388.759186,153.007797 377.580048,165.014267 
	C372.019958,170.985794 366.192841,176.727814 360.204285,182.268585 
	C358.599274,183.753601 355.987244,184.786163 353.786926,184.883530 
	C343.316132,185.346832 332.787842,184.921005 322.356995,185.763885 
	C311.886292,186.609985 303.053436,191.730911 295.629028,199.078964 
	C283.904022,210.683411 272.238617,222.349213 260.646271,234.086166 
	C252.785248,242.045258 248.973831,251.731628 248.995163,262.926453 
	C249.009766,270.591675 248.468964,278.304504 249.153442,285.908112 
	C249.774597,292.808350 246.852936,297.113678 241.001892,300.913239 
	C241.001892,294.493378 241.058273,288.415039 240.986282,282.338257 
	C240.912125,276.080017 238.008682,273.070740 231.863617,273.020447 
	C221.866150,272.938629 211.866776,272.926147 201.869644,273.026978 
	C196.024857,273.085968 193.070297,276.136688 193.021088,282.094208 
	C192.938507,292.091675 192.927490,302.091003 193.025864,312.088165 
	C193.083466,317.941772 196.131180,320.919006 202.063766,320.978119 
	C211.054733,321.067657 220.047256,321.001495 229.767227,321.001495 
	C228.011597,326.447662 226.372055,331.533752 224.610733,336.997559 
	C217.292740,336.997559 209.981857,336.957520 202.671631,337.009247 
	C195.849075,337.057556 193.042236,339.894409 193.008911,346.792725 
	C192.963013,356.290741 192.959976,365.789307 193.010117,375.287292 
	C193.046219,382.121521 195.896591,384.955566 202.762238,384.990417 
	C212.260223,385.038696 221.758850,385.039642 231.256821,384.990082 
	C238.100876,384.954376 240.918549,382.103912 240.995255,375.259338 
	C241.036255,371.602905 241.002518,367.945618 241.002518,364.166779 
	C246.203873,362.411377 251.221985,360.717834 256.706635,358.866821 
	C256.706635,362.230896 256.706635,365.274994 256.706635,368.660492 
	C267.505890,368.660492 277.916931,368.660492 288.666656,368.660492 
	C288.666656,363.771423 288.666656,358.703094 288.666656,353.084656 
	C284.793427,353.084656 280.759155,353.084656 276.631348,353.084656 
	C281.661621,347.672668 286.367645,342.609497 290.936005,337.694489 
	C308.855591,347.761627 316.711121,347.544159 333.445099,336.581451 
	C342.130127,345.330353 350.970215,354.108398 359.597626,363.090790 
	C360.649506,364.185974 360.929840,366.376709 360.939453,368.063354 
	C361.030884,384.059601 360.986267,400.056610 360.909851,416.518951 
	C355.915527,416.988403 350.992218,416.992310 345.613892,416.990265 
	C345.158905,414.506897 345.158905,412.029480 345.158905,409.161316 
	C286.402802,409.161316 228.009323,409.161316 169.272034,409.161316 
	C169.167267,407.360596 169.012863,405.926849 169.011307,404.492920 
	C168.994049,388.501617 169.238861,372.504852 168.873444,356.521912 
	C168.742249,350.783264 170.452026,346.777679 174.401917,342.573669 
	C178.370285,338.349976 181.911057,333.041351 183.681549,327.574188 
	C187.709656,315.135681 182.667694,302.578156 172.028656,294.505524 
	C170.594025,293.416962 169.128845,291.236420 169.124893,289.558136 
	C168.981689,228.591751 169.010010,167.624939 169.020798,106.658188 
	C169.020844,106.335236 169.107513,106.012306 169.252304,105.000404 
	C175.722168,105.000404 182.308701,105.000381 188.895248,105.000404 
	C194.558838,105.000420 200.230530,105.180244 205.882584,104.924805 
	C208.714615,104.796814 210.005966,105.813324 210.971069,108.360306 
	C212.793945,113.170990 215.066254,117.809746 216.953995,122.597939 
	C218.692780,127.008324 221.664886,129.049011 226.484497,129.040802 
	C268.128387,128.969833 309.772522,128.967957 351.416382,129.043518 
	C356.218811,129.052231 359.248505,127.088943 361.015686,122.685722 
	C363.057190,117.599007 365.170868,112.531197 367.544861,107.595474 
	C368.100220,106.440826 369.819580,105.130028 371.021118,105.112610 
	C383.486359,104.931961 395.955261,105.001472 408.861816,105.001472 
	C408.861816,115.661011 408.861816,126.067497 408.861816,137.016937 
	C411.542053,137.016937 413.812195,137.016937 416.532959,137.087448 
M230.241928,257.001648 
	C238.492950,256.876373 240.981812,254.417633 240.997559,246.305664 
	C241.015320,237.157623 241.034424,228.009338 240.990799,218.861450 
	C240.957886,211.958389 238.147339,209.052017 231.414520,209.013031 
	C221.767761,208.957169 212.120132,208.953735 202.473450,209.014648 
	C195.958847,209.055786 193.057053,211.953232 193.015060,218.463623 
	C192.952850,228.110306 192.956894,237.757919 193.013153,247.404678 
	C193.052490,254.148285 195.952438,256.956482 202.852356,256.990845 
	C211.667572,257.034760 220.483185,257.001587 230.241928,257.001648 
M228.355637,193.001678 
	C239.166214,192.994614 241.001495,191.137970 241.001404,180.202713 
	C241.001343,171.388336 241.081451,162.572891 240.967743,153.759964 
	C240.895599,148.167465 237.864761,145.096817 232.309998,145.034836 
	C222.166397,144.921677 212.019958,144.929306 201.876083,145.027863 
	C196.041473,145.084534 193.074326,148.133911 193.022751,154.061554 
	C192.937393,163.873062 192.954666,173.686096 193.014618,183.497971 
	C193.054428,190.015900 195.956741,192.932861 202.444901,192.984863 
	C210.759842,193.051483 219.075684,193.001450 228.355637,193.001678 
M296.566101,176.999298 
	C309.970032,176.999298 323.373962,176.999298 336.679688,176.999298 
	C336.679688,171.320419 336.679688,166.260162 336.679688,161.310577 
	C320.645569,161.310577 304.932922,161.310577 289.323517,161.310577 
	C289.323517,166.685150 289.323517,171.745255 289.323517,176.999298 
	C291.624786,176.999298 293.604492,176.999298 296.566101,176.999298 
M326.474915,353.000671 
	C319.393158,353.000671 312.311371,353.000671 305.309113,353.000671 
	C305.309113,358.664001 305.309113,363.720337 305.309113,368.697876 
	C316.001587,368.697876 326.383057,368.697876 336.689270,368.697876 
	C336.689270,363.334686 336.689270,358.277435 336.689270,353.000671 
	C333.410034,353.000671 330.436737,353.000671 326.474915,353.000671 
M272.914612,161.770966 
	C267.757172,161.414932 262.599701,161.058899 257.221985,160.687653 
	C257.221985,166.491348 257.221985,171.544571 257.221985,176.774994 
	C262.497620,176.774994 267.550873,176.774994 272.990753,176.774994 
	C272.990753,171.951599 272.990753,167.341553 272.914612,161.770966 
z"/>
<path fill="#FFC431" opacity="1.000000" stroke="none" 
	d="
M355.609436,94.630859 
	C352.880005,100.919540 350.326416,106.869675 347.695587,112.999741 
	C341.909576,112.999741 336.255798,112.999748 330.601990,112.999741 
	C298.619812,112.999725 266.637299,112.937752 234.655853,113.090477 
	C231.263138,113.106674 229.729843,112.057983 228.476944,108.979218 
	C224.216019,98.508804 219.617752,88.175858 215.176056,77.778564 
	C214.606537,76.445396 214.200745,75.042274 213.582260,73.282082 
	C263.914459,73.282082 313.797791,73.282082 364.595001,73.282082 
	C361.589447,80.450005 358.687378,87.371162 355.609436,94.630859 
z"/>
<path fill="#C78640" opacity="1.000000" stroke="none" 
	d="
M152.998474,175.000000 
	C152.998474,213.139435 152.998474,250.778870 152.998474,288.146790 
	C147.585602,289.949524 142.606995,291.607605 137.353363,293.357300 
	C137.353363,220.305435 137.353363,147.102539 137.353363,73.350990 
	C138.597870,73.244507 140.013626,73.020081 141.429718,73.017982 
	C158.094513,72.993301 174.759949,73.074066 191.423660,72.936470 
	C194.486588,72.911179 196.336365,73.593529 197.381668,76.714188 
	C198.686569,80.609909 200.504410,84.333809 202.465027,88.998474 
	C195.459244,88.998474 189.222839,88.998390 182.986435,88.998489 
	C176.320496,88.998604 169.654373,88.966583 162.988693,89.007866 
	C155.807358,89.052345 153.018433,91.815437 153.010193,99.008385 
	C152.981384,124.172226 152.998688,149.336121 152.998474,175.000000 
z"/>
<path fill="#FCB201" opacity="1.000000" stroke="none" 
	d="
M282.018799,57.005119 
	C277.542908,57.005119 273.563293,57.005119 268.726593,57.005119 
	C271.238556,51.108337 273.012604,45.383163 275.961731,40.345936 
	C282.081940,29.892281 297.332397,30.686989 302.847321,41.609589 
	C305.220428,46.309624 306.908173,51.355694 309.218323,57.005119 
	C299.909271,57.005119 291.212158,57.005119 282.018799,57.005119 
z"/>
<path fill="#FECEB6" opacity="1.000000" stroke="none" 
	d="
M341.880249,266.535980 
	C345.682587,265.906219 349.125458,265.087769 352.573822,265.063904 
	C371.198334,264.934875 389.824158,265.002777 408.725159,265.002777 
	C408.725159,259.613434 408.725159,254.553345 408.725159,248.994598 
	C399.585297,248.994598 390.546906,248.994598 381.652496,248.994598 
	C390.954285,239.696320 400.074371,230.579666 409.541534,221.116089 
	C409.020721,221.018082 409.450104,220.965134 409.637604,221.153259 
	C422.920654,234.482468 436.777039,247.299973 449.316681,261.296997 
	C470.344604,284.768890 480.536652,312.800507 480.966309,344.314545 
	C481.111511,354.965149 480.989319,365.619415 480.989319,376.634369 
	C446.456360,376.634369 412.073914,376.634369 377.002563,376.634369 
	C377.002563,372.223877 377.481537,367.567780 376.840790,363.071228 
	C376.383850,359.864746 375.154968,356.179169 373.004089,353.905396 
	C363.854736,344.233459 354.233276,335.008087 344.282867,325.121643 
	C347.251892,322.646332 349.997101,320.357574 353.001892,317.852417 
	C360.665192,325.852600 370.318115,332.618134 381.962402,334.709198 
	C393.289093,336.743225 404.953888,336.894501 416.784058,337.899139 
	C416.784058,331.615997 416.784058,326.671448 416.784058,320.997284 
	C411.786926,320.997284 406.695312,320.864075 401.612732,321.021484 
	C384.197815,321.560822 370.211639,315.178528 359.869080,300.949127 
	C356.183929,295.879120 351.251923,295.588257 346.679260,300.045746 
	C338.926575,307.603149 331.344452,315.335358 323.669891,322.973206 
	C316.264679,330.343018 307.466339,330.967743 301.220856,324.602325 
	C295.082367,318.345978 295.692291,309.700043 302.844635,302.518433 
	C312.718781,292.603943 322.536438,282.629730 332.590118,272.899963 
	C335.158173,270.414673 338.524017,268.753723 341.880249,266.535980 
z"/>
<path fill="#EE5E3B" opacity="1.000000" stroke="none" 
	d="
M327.177490,238.177490 
	C334.469238,230.872131 341.511017,223.816803 348.256805,217.057999 
	C355.181274,224.037018 361.804443,230.712387 369.210266,238.176575 
	C366.126465,241.038422 362.628387,244.565155 358.795258,247.679535 
	C357.565399,248.678802 355.432831,249.003525 353.743286,248.931595 
	C339.840912,248.339783 328.548859,253.517395 319.024658,263.531036 
	C309.956146,273.065552 300.494171,282.227417 291.150024,291.497589 
	C282.851074,299.730896 279.503479,309.430298 281.693146,321.062469 
	C281.997772,322.680786 281.181824,324.871002 280.175751,326.296021 
	C278.365967,328.859497 276.019073,331.043793 274.385376,332.846985 
	C267.276886,325.769409 260.616730,319.138245 253.398987,311.951874 
	C277.324432,288.027802 302.125977,263.227661 327.177490,238.177490 
z"/>
<path fill="#FECDB5" opacity="1.000000" stroke="none" 
	d="
M320.838623,221.838593 
	C302.370148,240.331680 284.151520,258.574585 265.402069,277.349030 
	C264.292389,263.669769 264.070190,251.438751 275.404541,241.680389 
	C284.718689,233.661285 292.956482,224.391968 301.672180,215.677658 
	C315.358856,201.993210 320.832672,199.947311 341.366028,201.289917 
	C334.296570,208.366684 327.692505,214.977554 320.838623,221.838593 
z"/>
<path fill="#FDC231" opacity="1.000000" stroke="none" 
	d="
M389.671204,175.671188 
	C394.199188,170.684769 399.228821,167.810379 405.827209,169.465790 
	C416.141388,172.053436 420.471436,184.080048 413.883759,192.389877 
	C411.353119,195.582092 407.902008,198.044632 405.209106,200.527298 
	C398.711884,194.039169 392.056519,187.393112 384.135101,179.482773 
	C385.571564,178.515320 387.493927,177.220627 389.671204,175.671188 
z"/>
<path fill="#FEB301" opacity="1.000000" stroke="none" 
	d="
M364.652496,200.689377 
	C367.305725,197.701431 369.703583,194.965820 371.758270,192.621704 
	C379.144409,200.026688 385.785614,206.684784 392.612701,213.529282 
	C388.966431,216.801071 384.710175,220.620239 380.754333,224.169830 
	C374.639160,218.059006 367.987701,211.412323 361.072052,204.501617 
	C361.961945,203.548874 363.179535,202.245300 364.652496,200.689377 
z"/>
<path fill="#AEC1E8" opacity="1.000000" stroke="none" 
	d="
M216.034393,289.004120 
	C219.155563,289.004120 221.791611,289.004120 224.709732,289.004120 
	C224.709732,294.397583 224.709732,299.455475 224.709732,304.756622 
	C219.629761,304.756622 214.687317,304.756622 209.373322,304.756622 
	C209.373322,299.779999 209.373322,294.717102 209.373322,289.004120 
	C211.356415,289.004120 213.452835,289.004120 216.034393,289.004120 
z"/>
<path fill="#FACAB2" opacity="1.000000" stroke="none" 
	d="
M256.919922,341.838928 
	C250.622879,344.019989 244.680313,346.024872 237.739777,348.366455 
	C240.020355,341.372559 242.071716,335.081635 244.542953,327.503052 
	C249.127197,332.601562 253.200806,337.132141 256.919922,341.838928 
z"/>
<path fill="#ADC0E7" opacity="1.000000" stroke="none" 
	d="
M220.380310,367.452789 
	C220.427628,368.120667 220.212784,368.925903 219.979172,368.931396 
	C216.528793,369.012421 213.075882,368.987244 209.313553,368.987244 
	C209.313553,363.695404 209.313553,358.660034 209.313553,353.310730 
	C212.341202,353.310730 215.404831,353.310730 218.880661,353.310730 
	C217.919693,358.025513 214.807693,363.113861 220.380310,367.452789 
z"/>
<path fill="#321C1C" opacity="1.000000" stroke="none" 
	d="
M229.770264,257.001648 
	C220.483185,257.001587 211.667572,257.034760 202.852356,256.990845 
	C195.952438,256.956482 193.052490,254.148285 193.013153,247.404678 
	C192.956894,237.757919 192.952850,228.110306 193.015060,218.463623 
	C193.057053,211.953232 195.958847,209.055786 202.473450,209.014648 
	C212.120132,208.953735 221.767761,208.957169 231.414520,209.013031 
	C238.147339,209.052017 240.957886,211.958389 240.990799,218.861450 
	C241.034424,228.009338 241.015320,237.157623 240.997559,246.305664 
	C240.981812,254.417633 238.492950,256.876373 229.770264,257.001648 
M209.002914,235.407928 
	C209.002914,237.164459 209.002914,238.920990 209.002914,240.702850 
	C214.619766,240.702850 219.649673,240.702850 224.700027,240.702850 
	C224.700027,235.372711 224.700027,230.343033 224.700027,225.302795 
	C219.366943,225.302795 214.337387,225.302795 209.002914,225.302795 
	C209.002914,228.548721 209.002914,231.498154 209.002914,235.407928 
z"/>
<path fill="#321C1C" opacity="1.000000" stroke="none" 
	d="
M227.873383,193.001678 
	C219.075684,193.001450 210.759842,193.051483 202.444901,192.984863 
	C195.956741,192.932861 193.054428,190.015900 193.014618,183.497971 
	C192.954666,173.686096 192.937393,163.873062 193.022751,154.061554 
	C193.074326,148.133911 196.041473,145.084534 201.876083,145.027863 
	C212.019958,144.929306 222.166397,144.921677 232.309998,145.034836 
	C237.864761,145.096817 240.895599,148.167465 240.967743,153.759964 
	C241.081451,162.572891 241.001343,171.388336 241.001404,180.202713 
	C241.001495,191.137970 239.166214,192.994614 227.873383,193.001678 
M221.327606,161.003235 
	C217.274139,161.003235 213.220673,161.003235 209.371124,161.003235 
	C209.371124,166.774658 209.371124,171.809601 209.371124,176.625977 
	C214.780655,176.625977 219.815964,176.625977 224.995132,176.625977 
	C224.995132,172.129944 225.169937,167.991486 224.871475,163.887421 
	C224.797440,162.869415 223.190338,161.962921 221.327606,161.003235 
z"/>
<path fill="#311B1B" opacity="1.000000" stroke="none" 
	d="
M296.075134,176.999298 
	C293.604492,176.999298 291.624786,176.999298 289.323517,176.999298 
	C289.323517,171.745255 289.323517,166.685150 289.323517,161.310577 
	C304.932922,161.310577 320.645569,161.310577 336.679688,161.310577 
	C336.679688,166.260162 336.679688,171.320419 336.679688,176.999298 
	C323.373962,176.999298 309.970032,176.999298 296.075134,176.999298 
z"/>
<path fill="#311B1B" opacity="1.000000" stroke="none" 
	d="
M326.969177,353.000671 
	C330.436737,353.000671 333.410034,353.000671 336.689270,353.000671 
	C336.689270,358.277435 336.689270,363.334686 336.689270,368.697876 
	C326.383057,368.697876 316.001587,368.697876 305.309113,368.697876 
	C305.309113,363.720337 305.309113,358.664001 305.309113,353.000671 
	C312.311371,353.000671 319.393158,353.000671 326.969177,353.000671 
z"/>
<path fill="#311B1B" opacity="1.000000" stroke="none" 
	d="
M272.952698,162.251236 
	C272.990753,167.341553 272.990753,171.951599 272.990753,176.774994 
	C267.550873,176.774994 262.497620,176.774994 257.221985,176.774994 
	C257.221985,171.544571 257.221985,166.491348 257.221985,160.687653 
	C262.599701,161.058899 267.757172,161.414932 272.952698,162.251236 
z"/>
<path fill="#AEC1E8" opacity="1.000000" stroke="none" 
	d="
M209.002914,234.927765 
	C209.002914,231.498154 209.002914,228.548721 209.002914,225.302795 
	C214.337387,225.302795 219.366943,225.302795 224.700027,225.302795 
	C224.700027,230.343033 224.700027,235.372711 224.700027,240.702850 
	C219.649673,240.702850 214.619766,240.702850 209.002914,240.702850 
	C209.002914,238.920990 209.002914,237.164459 209.002914,234.927765 
z"/>
<path fill="#AEC1E8" opacity="1.000000" stroke="none" 
	d="
M221.807770,161.004196 
	C223.190338,161.962921 224.797440,162.869415 224.871475,163.887421 
	C225.169937,167.991486 224.995132,172.129944 224.995132,176.625977 
	C219.815964,176.625977 214.780655,176.625977 209.371124,176.625977 
	C209.371124,171.809601 209.371124,166.774658 209.371124,161.003235 
	C213.220673,161.003235 217.274139,161.003235 221.807770,161.004196 
z"/>
</svg>