<svg version="1.1" id="Layer_1" xmlns="http://www.w3.org/2000/svg" xmlns:xlink="http://www.w3.org/1999/xlink" x="0px" y="0px"
	 width="100%" viewBox="0 0 512 512" enable-background="new 0 0 512 512" xml:space="preserve">
<path fill="#FFFFFF" opacity="1.000000" stroke="none" 
	d="
M1.000001,247.000000 
	C1.000000,165.071365 1.000000,83.142738 1.000000,1.000000 
	C86.354111,1.000000 171.708389,1.000000 257.870575,1.334538 
	C257.837769,6.048054 256.997070,10.427032 256.197479,14.591944 
	C251.065399,15.055286 245.810135,15.342315 240.609177,16.036310 
	C227.721649,17.755966 214.707367,18.949602 202.020020,21.650927 
	C180.177353,26.301550 159.584854,34.562698 140.015350,45.425457 
	C123.016006,54.861546 107.318398,66.055527 93.220665,79.396797 
	C86.502022,85.754936 80.326012,92.695869 74.031273,99.490532 
	C62.499382,111.938286 53.278641,126.070068 45.105293,140.833771 
	C35.632313,157.945023 28.247919,176.036484 23.622431,195.039337 
	C20.681379,207.122025 19.163834,219.551208 16.694370,231.968292 
	C14.397507,234.429550 12.588021,236.930435 10.388412,239.020798 
	C7.415893,241.845688 4.143649,244.355194 1.000001,247.000000 
z"/>
<path fill="#FFFFFF" opacity="1.000000" stroke="none" 
	d="
M247.000000,513.000000 
	C165.071365,513.000000 83.142731,513.000000 1.000000,513.000000 
	C1.000000,427.645905 1.000000,342.291595 1.331413,256.129425 
	C6.074177,255.901276 10.485528,256.481018 14.942387,257.500916 
	C15.324739,260.859894 15.946493,263.778168 15.952383,266.697693 
	C15.991818,286.244812 19.608097,305.164642 24.854658,323.942444 
	C31.038767,346.075775 40.385471,366.681152 52.555584,386.087433 
	C63.898098,404.174072 77.289474,420.583893 93.314301,434.700745 
	C101.382439,441.808228 109.797211,448.565155 118.422623,454.987122 
	C131.689117,464.864502 146.181747,472.621796 161.394058,479.182037 
	C176.705872,485.785126 192.472549,490.737366 208.788391,493.957031 
	C216.723129,495.522827 224.751511,496.614136 232.899353,498.233032 
	C235.041443,500.203613 237.206848,501.687927 238.959778,503.558746 
	C241.782944,506.571747 244.333984,509.839752 247.000000,513.000000 
z"/>
<path fill="#FFFFFF" opacity="1.000000" stroke="none" 
	d="
M267.000000,0.999999 
	C348.928619,1.000000 430.857269,1.000000 513.000000,1.000000 
	C513.000000,86.354111 513.000000,171.708389 512.657593,257.853699 
	C507.930725,257.811096 503.546295,256.977478 500.174774,256.336456 
	C498.443420,241.993301 496.944000,227.823181 494.982330,213.717346 
	C491.784912,190.725769 483.930664,169.103485 473.645782,148.499710 
	C464.252197,129.681396 452.425659,112.378799 438.305725,96.572319 
	C426.060577,82.864578 412.629669,70.677147 397.762024,59.980919 
	C379.887573,47.121494 360.515015,36.977890 339.860901,29.526136 
	C321.515411,22.907316 302.715576,17.767139 283.018707,16.965771 
	C283.010773,16.990467 283.060303,16.977467 282.960876,16.679089 
	C282.269379,16.223236 281.677338,16.065760 280.950409,15.597490 
	C278.849792,13.662562 276.692444,12.218151 274.961884,10.373407 
	C272.160522,7.387215 269.639435,4.138097 267.000000,0.999999 
z"/>
<path fill="#FFFFFF" opacity="1.000000" stroke="none" 
	d="
M513.000000,267.000000 
	C513.000000,348.928619 513.000000,430.857269 513.000000,513.000000 
	C427.645905,513.000000 342.291595,513.000000 256.220459,512.619751 
	C256.252380,507.969543 257.001129,503.699677 257.564270,500.488220 
	C275.029297,497.982391 292.425354,495.909149 309.661591,492.915924 
	C336.518463,488.251984 361.024414,477.101593 384.131378,463.144135 
	C407.633087,448.948242 428.517670,431.301697 445.017548,409.221497 
	C455.127594,395.692108 464.790283,381.600952 472.701385,366.723785 
	C479.745422,353.477142 485.133331,339.103180 489.353149,324.671448 
	C493.485870,310.537628 495.221375,295.702850 498.320099,281.029480 
	C500.619385,278.559296 502.438934,276.058777 504.639557,273.957214 
	C507.255371,271.459076 510.198608,269.303833 513.000000,267.000000 
z"/>
<path fill="#FFBA57" opacity="1.000000" stroke="none" 
	d="
M513.000000,266.550018 
	C510.198608,269.303833 507.255371,271.459076 504.639557,273.957214 
	C502.438934,276.058777 500.619385,278.559296 498.043396,281.072632 
	C496.922333,281.776459 496.389038,282.290833 495.575714,282.986633 
	C487.000885,291.772827 478.739899,300.410583 470.402374,308.973816 
	C460.804504,318.831451 460.538574,318.701324 451.781097,307.722321 
	C445.699860,300.098450 439.302094,292.727020 432.730286,285.077667 
	C431.094849,283.263367 429.763153,281.623413 428.457245,279.963196 
	C424.749329,275.249146 420.709198,270.749756 417.451691,265.741882 
	C414.493164,261.193695 417.146393,257.075714 422.567780,257.009888 
	C426.644318,256.960388 430.721954,257.000122 435.163940,257.000122 
	C435.163940,252.570206 435.163940,248.776520 435.380432,244.634720 
	C435.405914,237.506516 435.350739,230.719376 434.999115,223.947617 
	C433.817657,201.195023 427.494904,179.769302 417.637543,159.371948 
	C407.602325,138.606506 393.728790,120.637833 376.644745,105.184425 
	C363.245697,93.064293 348.495789,82.908676 331.803345,75.816101 
	C322.945068,72.052238 313.946228,68.619202 305.162506,64.735512 
	C307.702484,62.396111 310.059174,60.319489 312.485962,58.328293 
	C316.963593,54.654327 317.246277,51.689461 313.116394,47.658298 
	C304.213318,38.968113 295.174683,30.416660 286.287170,21.710814 
	C284.937744,20.388973 284.100677,18.544058 283.026642,16.941078 
	C302.715576,17.767139 321.515411,22.907316 339.860901,29.526136 
	C360.515015,36.977890 379.887573,47.121494 397.762024,59.980919 
	C412.629669,70.677147 426.060577,82.864578 438.305725,96.572319 
	C452.425659,112.378799 464.252197,129.681396 473.645782,148.499710 
	C483.930664,169.103485 491.784912,190.725769 494.982330,213.717346 
	C496.944000,227.823181 498.443420,241.993301 500.174774,256.336456 
	C503.546295,256.977478 507.930725,257.811096 512.657593,258.322327 
	C513.000000,260.700012 513.000000,263.400024 513.000000,266.550018 
z"/>
<path fill="#8BCAFF" opacity="1.000000" stroke="none" 
	d="
M14.896878,257.060791 
	C10.485528,256.481018 6.074177,255.901276 1.331413,255.660767 
	C1.000000,253.299988 1.000000,250.599976 1.000001,247.449982 
	C4.143649,244.355194 7.415893,241.845688 10.388412,239.020798 
	C12.588021,236.930435 14.397507,234.429550 17.020048,231.920013 
	C27.506392,221.601028 37.337975,211.458435 47.207283,201.352676 
	C51.927479,196.519424 54.300331,196.630356 58.532299,201.762314 
	C65.294304,209.962418 72.045319,218.171585 78.910873,226.670532 
	C79.958908,227.782364 80.897049,228.600571 82.068420,229.655777 
	C87.011963,235.906403 91.867126,241.815979 96.319359,248.014954 
	C97.295830,249.374542 97.611809,252.202927 96.839287,253.565033 
	C95.934258,255.160782 93.594597,256.624939 91.721703,256.849579 
	C87.657219,257.337158 83.493797,256.999939 78.495728,256.999939 
	C79.361290,264.800140 80.287239,272.063202 80.949547,279.350250 
	C82.130768,292.346680 85.421150,304.768860 89.887314,317.024170 
	C100.358040,345.756195 116.828445,370.196594 139.823303,390.446655 
	C158.851486,407.203552 180.344788,419.355164 204.435440,426.916290 
	C212.405792,429.417877 220.656082,431.027527 228.666168,433.342773 
	C219.671234,440.903625 210.747620,448.117462 201.920883,455.447906 
	C196.489777,459.958374 196.525787,461.994324 201.643967,467.105408 
	C203.876907,469.335205 206.045685,471.629242 207.826920,473.904724 
	C203.045746,472.901886 198.650757,472.003601 194.321548,470.856842 
	C157.451263,461.090546 124.858391,443.222412 96.539925,417.857727 
	C78.384209,401.595764 62.709248,383.125763 50.228336,361.970093 
	C32.906151,332.608215 21.642780,301.313599 17.860903,267.359680 
	C17.471107,263.860077 15.912918,260.490631 14.896878,257.060791 
z"/>
<path fill="#FFE27A" opacity="1.000000" stroke="none" 
	d="
M78.800987,226.376923 
	C72.045319,218.171585 65.294304,209.962418 58.532299,201.762314 
	C54.300331,196.630356 51.927479,196.519424 47.207283,201.352676 
	C37.337975,211.458435 27.506392,221.601028 17.333630,231.776733 
	C19.163834,219.551208 20.681379,207.122025 23.622431,195.039337 
	C28.247919,176.036484 35.632313,157.945023 45.105293,140.833771 
	C53.278641,126.070068 62.499382,111.938286 74.031273,99.490532 
	C80.326012,92.695869 86.502022,85.754936 93.220665,79.396797 
	C107.318398,66.055527 123.016006,54.861546 140.015350,45.425457 
	C159.584854,34.562698 180.177353,26.301550 202.020020,21.650927 
	C214.707367,18.949602 227.721649,17.755966 240.609177,16.036310 
	C245.810135,15.342315 251.065399,15.055286 256.197479,14.591944 
	C256.997070,10.427032 257.837769,6.048054 258.339233,1.334538 
	C260.700012,1.000000 263.400024,1.000000 266.550018,0.999999 
	C269.639435,4.138097 272.160522,7.387215 274.961884,10.373407 
	C276.692444,12.218151 278.849792,13.662562 281.111694,15.847603 
	C281.958679,16.598164 282.509491,16.787815 283.060303,16.977467 
	C283.060303,16.977467 283.010773,16.990467 283.018707,16.965775 
	C284.100677,18.544058 284.937744,20.388973 286.287170,21.710814 
	C295.174683,30.416660 304.213318,38.968113 313.116394,47.658298 
	C317.246277,51.689461 316.963593,54.654327 312.485962,58.328293 
	C310.059174,60.319489 307.702484,62.396111 304.804077,64.749023 
	C303.578644,65.107483 302.863342,65.151108 301.755737,65.079117 
	C278.259979,58.863270 254.824020,57.598869 231.280319,61.250706 
	C186.604202,68.180351 149.354080,88.879028 120.212601,123.469055 
	C95.209091,153.147430 82.115471,187.852539 78.800987,226.376923 
z"/>
<path fill="#82D361" opacity="1.000000" stroke="none" 
	d="
M495.855743,282.805237 
	C496.389038,282.290833 496.922333,281.776459 497.732361,281.218933 
	C495.221375,295.702850 493.485870,310.537628 489.353149,324.671448 
	C485.133331,339.103180 479.745422,353.477142 472.701385,366.723785 
	C464.790283,381.600952 455.127594,395.692108 445.017548,409.221497 
	C428.517670,431.301697 407.633087,448.948242 384.131378,463.144135 
	C361.024414,477.101593 336.518463,488.251984 309.661591,492.915924 
	C292.425354,495.909149 275.029297,497.982391 257.564270,500.488220 
	C257.001129,503.699677 256.252380,507.969543 255.751801,512.619751 
	C253.299988,513.000000 250.599976,513.000000 247.449982,513.000000 
	C244.333984,509.839752 241.782944,506.571747 238.959778,503.558746 
	C237.206848,501.687927 235.041443,500.203613 232.812286,497.928375 
	C225.726120,490.490112 218.888870,483.669281 212.297729,476.675171 
	C213.162277,476.640900 213.850555,476.649445 214.389099,476.937714 
	C239.035217,490.130737 265.106232,492.385559 292.310059,487.773926 
	C320.650452,482.969574 347.310638,473.815887 372.247162,459.440430 
	C400.266785,443.287628 423.975616,422.264069 443.979370,396.981293 
	C458.502808,378.625122 470.302155,358.629517 479.491913,337.082520 
	C486.954376,319.585510 492.631561,301.570190 495.855743,282.805237 
z"/>
<path fill="#6CC4FF" opacity="1.000000" stroke="none" 
	d="
M212.051620,476.848480 
	C218.888870,483.669281 225.726120,490.490112 232.650436,497.615540 
	C224.751511,496.614136 216.723129,495.522827 208.788391,493.957031 
	C192.472549,490.737366 176.705872,485.785126 161.394058,479.182037 
	C146.181747,472.621796 131.689117,464.864502 118.422623,454.987122 
	C109.797211,448.565155 101.382439,441.808228 93.314301,434.700745 
	C77.289474,420.583893 63.898098,404.174072 52.555584,386.087433 
	C40.385471,366.681152 31.038767,346.075775 24.854658,323.942444 
	C19.608097,305.164642 15.991818,286.244812 15.952383,266.697693 
	C15.946493,263.778168 15.324739,260.859894 14.942385,257.500916 
	C15.912918,260.490631 17.471107,263.860077 17.860903,267.359680 
	C21.642780,301.313599 32.906151,332.608215 50.228336,361.970093 
	C62.709248,383.125763 78.384209,401.595764 96.539925,417.857727 
	C124.858391,443.222412 157.451263,461.090546 194.321548,470.856842 
	C198.650757,472.003601 203.045746,472.901886 208.087280,474.057892 
	C209.860077,475.083130 210.955856,475.965790 212.051620,476.848480 
z"/>
<path fill="#FFBA57" opacity="1.000000" stroke="none" 
	d="
M282.960876,16.679089 
	C282.509491,16.787815 281.958679,16.598164 281.246582,16.158398 
	C281.677338,16.065760 282.269379,16.223236 282.960876,16.679089 
z"/>
<path fill="#FFFFFF" opacity="1.000000" stroke="none" 
	d="
M228.778381,433.044983 
	C220.656082,431.027527 212.405792,429.417877 204.435440,426.916290 
	C180.344788,419.355164 158.851486,407.203552 139.823303,390.446655 
	C116.828445,370.196594 100.358040,345.756195 89.887314,317.024170 
	C85.421150,304.768860 82.130768,292.346680 80.949547,279.350250 
	C80.287239,272.063202 79.361290,264.800140 78.495728,256.999939 
	C83.493797,256.999939 87.657219,257.337158 91.721703,256.849579 
	C93.594597,256.624939 95.934258,255.160782 96.839287,253.565033 
	C97.611809,252.202927 97.295830,249.374542 96.319359,248.014954 
	C91.867126,241.815979 87.011963,235.906403 82.140793,229.205902 
	C82.992310,223.439697 83.451248,218.169434 85.124832,213.318192 
	C89.476784,200.703186 93.246811,187.693588 99.349113,175.930908 
	C105.424088,164.220901 113.524887,153.423599 121.682877,142.963486 
	C135.331772,125.462975 152.493484,111.818314 171.861008,101.066200 
	C188.064621,92.070580 205.329819,85.634834 223.565399,82.325890 
	C234.425003,80.355354 245.495270,79.545746 257.000549,78.149963 
	C257.000549,83.416283 256.966675,87.375504 257.008759,91.333931 
	C257.067596,96.863014 261.229065,99.679260 265.673126,96.561317 
	C272.433594,91.818214 278.642120,86.288475 285.489624,81.066765 
	C286.636719,81.351318 287.354980,81.841759 288.125488,81.946022 
	C303.660217,84.048035 318.256561,89.171379 332.360809,95.792648 
	C346.696075,102.522385 359.859558,110.988083 371.983795,121.301811 
	C388.398468,135.265305 402.002472,151.442719 412.534576,170.141769 
	C425.616058,193.366974 432.715546,218.494949 435.163940,244.982834 
	C435.163940,248.776520 435.163940,252.570206 435.163940,257.000122 
	C430.721954,257.000122 426.644318,256.960388 422.567780,257.009888 
	C417.146393,257.075714 414.493164,261.193695 417.451691,265.741882 
	C420.709198,270.749756 424.749329,275.249146 428.457245,279.963196 
	C429.763153,281.623413 431.094849,283.263367 432.707489,285.470642 
	C431.043488,293.871521 429.414581,301.813904 427.068634,309.538483 
	C420.080353,332.548737 408.708038,353.141418 393.103363,371.544037 
	C377.504913,389.939301 359.130829,404.634064 337.753357,415.673462 
	C322.958649,423.313477 307.320404,428.731323 291.026917,431.794708 
	C280.005707,433.866791 268.710632,434.482117 258.311615,435.661316 
	C257.309784,434.375244 257.125977,434.249359 257.124207,434.120972 
	C257.071625,430.291809 257.055939,426.462067 256.995148,422.633057 
	C256.907745,417.125946 252.723648,414.345398 248.247025,417.491638 
	C241.464172,422.258759 235.239960,427.820740 228.778381,433.044983 
M174.448853,315.010254 
	C172.122009,318.344482 169.913284,321.769379 167.440140,324.991333 
	C163.885620,329.622070 163.983124,333.351379 168.135483,337.615814 
	C170.807861,340.360352 173.539490,343.047272 176.250839,345.753693 
	C180.349915,349.845367 184.040482,350.311066 188.771957,347.028809 
	C193.856628,343.501526 198.804489,339.777008 202.731232,336.923828 
	C214.923660,341.966309 226.519348,346.761993 239.325897,352.058441 
	C240.043060,356.755737 241.104446,363.161530 241.974228,369.593231 
	C242.570862,374.004974 245.252228,376.844025 249.669815,376.967346 
	C254.497482,377.102203 259.336853,377.135101 264.161713,376.957275 
	C268.341553,376.803192 271.286835,374.899017 272.028412,370.395294 
	C273.135529,363.671631 274.332703,356.962799 275.478027,350.326172 
	C287.207428,348.569214 297.700531,343.859955 307.610718,337.784302 
	C309.905731,336.377289 311.475067,336.287079 313.571747,337.997223 
	C317.618225,341.297791 321.726044,344.563477 326.077118,347.436676 
	C329.193115,349.494293 332.802612,350.294739 336.069794,347.451874 
	C339.669495,344.319580 343.510284,341.357330 346.586243,337.757263 
	C350.449768,333.235443 350.155426,329.033020 346.612274,324.165802 
	C343.828949,320.342377 341.245697,316.335236 338.116333,312.816284 
	C336.286255,310.758362 336.823090,309.655090 337.838898,307.492859 
	C342.091644,298.440918 346.642334,289.417816 349.595398,279.921295 
	C350.769135,276.146698 352.144257,274.639740 355.310974,274.090607 
	C358.695221,273.503693 362.180054,273.509033 365.574036,272.963623 
	C373.491791,271.691223 377.869690,270.983643 377.049988,260.852631 
	C376.741974,257.045715 376.981384,253.192917 377.004578,249.361237 
	C377.031036,244.991577 374.469727,242.792877 370.559174,242.035995 
	C364.821655,240.925491 359.010712,240.182587 353.295624,238.977020 
	C352.059357,238.716232 350.375427,237.316818 350.120911,236.170288 
	C347.741180,225.451141 343.973511,215.337448 337.713745,206.264221 
	C336.411102,204.376099 336.396057,203.258148 337.968048,201.334824 
	C341.462830,197.058990 344.473907,192.386383 347.658081,187.858566 
	C349.944000,184.608093 350.229156,181.244781 347.589630,178.119720 
	C344.510284,174.473831 341.485870,170.702927 337.933228,167.555664 
	C333.695007,163.801086 329.990051,163.973892 325.104065,167.397278 
	C321.232208,170.110123 317.393433,172.887772 313.719604,175.858826 
	C311.696289,177.495102 310.124969,177.818237 307.768982,176.345581 
	C297.774078,170.098068 287.117310,165.409958 275.211151,163.637848 
	C274.458710,157.882187 273.764160,152.215729 272.967438,146.563660 
	C271.957825,139.401352 269.137512,137.007721 261.871277,137.000763 
	C258.039459,136.997101 254.206757,136.948746 250.376022,137.013046 
	C245.258408,137.098938 242.611099,139.742798 241.960388,144.697540 
	C241.118042,151.111679 239.985489,157.487717 239.292526,161.883987 
	C226.261841,167.289276 214.689606,172.089584 202.718674,177.055267 
	C198.188812,173.764679 192.949982,169.567108 187.305786,166.013367 
	C184.169418,164.038620 180.483932,163.918655 177.448761,167.039871 
	C174.198517,170.382248 170.789734,173.571930 167.577362,176.949280 
	C164.180740,180.520325 164.065247,184.642975 166.990662,188.470245 
	C170.159637,192.616180 173.431229,196.696350 176.344055,201.016891 
	C177.113174,202.157715 177.425522,204.524506 176.759125,205.572861 
	C170.231186,215.842453 166.234207,227.086899 163.500885,239.059479 
	C158.366852,239.728485 153.298218,240.114960 148.353104,241.113220 
	C143.744446,242.043549 137.884430,242.064316 137.293442,248.567459 
	C136.784180,254.171158 136.812653,259.894836 137.336685,265.496826 
	C137.697952,269.358673 140.328384,271.617218 144.630508,272.092072 
	C150.276764,272.715271 155.872086,273.890045 161.437469,275.071747 
	C162.427170,275.281860 163.529556,276.527191 163.961533,277.554504 
	C168.034790,287.241608 171.667816,297.128204 176.113739,306.636566 
	C177.719528,310.070801 177.738235,312.211517 174.448853,315.010254 
z"/>
<path fill="#98DB7C" opacity="1.000000" stroke="none" 
	d="
M228.666168,433.342773 
	C235.239960,427.820740 241.464172,422.258759 248.247025,417.491638 
	C252.723648,414.345398 256.907745,417.125946 256.995148,422.633057 
	C257.055939,426.462067 257.071625,430.291809 257.124207,434.120972 
	C257.125977,434.249359 257.309784,434.375244 258.311615,435.661316 
	C268.710632,434.482117 280.005707,433.866791 291.026917,431.794708 
	C307.320404,428.731323 322.958649,423.313477 337.753357,415.673462 
	C359.130829,404.634064 377.504913,389.939301 393.103363,371.544037 
	C408.708038,353.141418 420.080353,332.548737 427.068634,309.538483 
	C429.414581,301.813904 431.043488,293.871521 433.022949,285.635742 
	C439.302094,292.727020 445.699860,300.098450 451.781097,307.722321 
	C460.538574,318.701324 460.804504,318.831451 470.402374,308.973816 
	C478.739899,300.410583 487.000885,291.772827 495.575714,282.986633 
	C492.631561,301.570190 486.954376,319.585510 479.491913,337.082520 
	C470.302155,358.629517 458.502808,378.625122 443.979370,396.981293 
	C423.975616,422.264069 400.266785,443.287628 372.247162,459.440430 
	C347.310638,473.815887 320.650452,482.969574 292.310059,487.773926 
	C265.106232,492.385559 239.035217,490.130737 214.389099,476.937714 
	C213.850555,476.649445 213.162277,476.640900 212.297729,476.675171 
	C210.955856,475.965790 209.860077,475.083130 208.503952,474.047272 
	C206.045685,471.629242 203.876907,469.335205 201.643967,467.105408 
	C196.525787,461.994324 196.489777,459.958374 201.920883,455.447906 
	C210.747620,448.117462 219.671234,440.903625 228.666168,433.342773 
z"/>
<path fill="#FFAC3E" opacity="1.000000" stroke="none" 
	d="
M435.380432,244.634720 
	C432.715546,218.494949 425.616058,193.366974 412.534576,170.141769 
	C402.002472,151.442719 388.398468,135.265305 371.983795,121.301811 
	C359.859558,110.988083 346.696075,102.522385 332.360809,95.792648 
	C318.256561,89.171379 303.660217,84.048035 288.125488,81.946022 
	C287.354980,81.841759 286.636719,81.351318 285.632202,80.766769 
	C285.972687,79.956551 286.581177,79.426918 287.176575,78.882896 
	C292.168396,74.321671 297.157837,69.757805 302.148010,65.194733 
	C302.863342,65.151108 303.578644,65.107483 304.652405,65.050339 
	C313.946228,68.619202 322.945068,72.052238 331.803345,75.816101 
	C348.495789,82.908676 363.245697,93.064293 376.644745,105.184425 
	C393.728790,120.637833 407.602325,138.606506 417.637543,159.371948 
	C427.494904,179.769302 433.817657,201.195023 434.999115,223.947617 
	C435.350739,230.719376 435.405914,237.506516 435.380432,244.634720 
z"/>
<path fill="#F9CF58" opacity="1.000000" stroke="none" 
	d="
M301.755737,65.079117 
	C297.157837,69.757805 292.168396,74.321671 287.176575,78.882896 
	C286.581177,79.426918 285.972687,79.956551 285.227661,80.792847 
	C278.642120,86.288475 272.433594,91.818214 265.673126,96.561317 
	C261.229065,99.679260 257.067596,96.863014 257.008759,91.333931 
	C256.966675,87.375504 257.000549,83.416283 257.000549,78.149963 
	C245.495270,79.545746 234.425003,80.355354 223.565399,82.325890 
	C205.329819,85.634834 188.064621,92.070580 171.861008,101.066200 
	C152.493484,111.818314 135.331772,125.462975 121.682877,142.963486 
	C113.524887,153.423599 105.424088,164.220901 99.349113,175.930908 
	C93.246811,187.693588 89.476784,200.703186 85.124832,213.318192 
	C83.451248,218.169434 82.992310,223.439697 81.907562,228.968903 
	C80.897049,228.600571 79.958908,227.782364 78.910873,226.670532 
	C82.115471,187.852539 95.209091,153.147430 120.212601,123.469055 
	C149.354080,88.879028 186.604202,68.180351 231.280319,61.250706 
	C254.824020,57.598869 278.259979,58.863270 301.755737,65.079117 
z"/>
<path fill="#FF4755" opacity="1.000000" stroke="none" 
	d="
M174.718521,314.760620 
	C177.738235,312.211517 177.719528,310.070801 176.113739,306.636566 
	C171.667816,297.128204 168.034790,287.241608 163.961533,277.554504 
	C163.529556,276.527191 162.427170,275.281860 161.437469,275.071747 
	C155.872086,273.890045 150.276764,272.715271 144.630508,272.092072 
	C140.328384,271.617218 137.697952,269.358673 137.336685,265.496826 
	C136.812653,259.894836 136.784180,254.171158 137.293442,248.567459 
	C137.884430,242.064316 143.744446,242.043549 148.353104,241.113220 
	C153.298218,240.114960 158.366852,239.728485 163.500885,239.059479 
	C166.234207,227.086899 170.231186,215.842453 176.759125,205.572861 
	C177.425522,204.524506 177.113174,202.157715 176.344055,201.016891 
	C173.431229,196.696350 170.159637,192.616180 166.990662,188.470245 
	C164.065247,184.642975 164.180740,180.520325 167.577362,176.949280 
	C170.789734,173.571930 174.198517,170.382248 177.448761,167.039871 
	C180.483932,163.918655 184.169418,164.038620 187.305786,166.013367 
	C192.949982,169.567108 198.188812,173.764679 202.718674,177.055267 
	C214.689606,172.089584 226.261841,167.289276 239.292526,161.883987 
	C239.985489,157.487717 241.118042,151.111679 241.960388,144.697540 
	C242.611099,139.742798 245.258408,137.098938 250.376022,137.013046 
	C254.206757,136.948746 258.039459,136.997101 261.871277,137.000763 
	C269.137512,137.007721 271.957825,139.401352 272.967438,146.563660 
	C273.764160,152.215729 274.458710,157.882187 275.211151,163.637848 
	C287.117310,165.409958 297.774078,170.098068 307.768982,176.345581 
	C310.124969,177.818237 311.696289,177.495102 313.719604,175.858826 
	C317.393433,172.887772 321.232208,170.110123 325.104065,167.397278 
	C329.990051,163.973892 333.695007,163.801086 337.933228,167.555664 
	C341.485870,170.702927 344.510284,174.473831 347.589630,178.119720 
	C350.229156,181.244781 349.944000,184.608093 347.658081,187.858566 
	C344.473907,192.386383 341.462830,197.058990 337.968048,201.334824 
	C336.396057,203.258148 336.411102,204.376099 337.713745,206.264221 
	C343.973511,215.337448 347.741180,225.451141 350.120911,236.170288 
	C350.375427,237.316818 352.059357,238.716232 353.295624,238.977020 
	C359.010712,240.182587 364.821655,240.925491 370.559174,242.035995 
	C374.469727,242.792877 377.031036,244.991577 377.004578,249.361237 
	C376.981384,253.192917 376.741974,257.045715 377.049988,260.852631 
	C377.869690,270.983643 373.491791,271.691223 365.574036,272.963623 
	C362.180054,273.509033 358.695221,273.503693 355.310974,274.090607 
	C352.144257,274.639740 350.769135,276.146698 349.595398,279.921295 
	C346.642334,289.417816 342.091644,298.440918 337.838898,307.492859 
	C336.823090,309.655090 336.286255,310.758362 338.116333,312.816284 
	C341.245697,316.335236 343.828949,320.342377 346.612274,324.165802 
	C350.155426,329.033020 350.449768,333.235443 346.586243,337.757263 
	C343.510284,341.357330 339.669495,344.319580 336.069794,347.451874 
	C332.802612,350.294739 329.193115,349.494293 326.077118,347.436676 
	C321.726044,344.563477 317.618225,341.297791 313.571747,337.997223 
	C311.475067,336.287079 309.905731,336.377289 307.610718,337.784302 
	C297.700531,343.859955 287.207428,348.569214 275.478027,350.326172 
	C274.332703,356.962799 273.135529,363.671631 272.028412,370.395294 
	C271.286835,374.899017 268.341553,376.803192 264.161713,376.957275 
	C259.336853,377.135101 254.497482,377.102203 249.669815,376.967346 
	C245.252228,376.844025 242.570862,374.004974 241.974228,369.593231 
	C241.104446,363.161530 240.043060,356.755737 239.325897,352.058441 
	C226.519348,346.761993 214.923660,341.966309 202.731232,336.923828 
	C198.804489,339.777008 193.856628,343.501526 188.771957,347.028809 
	C184.040482,350.311066 180.349915,349.845367 176.250839,345.753693 
	C173.539490,343.047272 170.807861,340.360352 168.135483,337.615814 
	C163.983124,333.351379 163.885620,329.622070 167.440140,324.991333 
	C169.913284,321.769379 172.122009,318.344482 174.718521,314.760620 
M303.991089,266.013458 
	C305.059784,253.284225 303.637604,241.309097 295.970764,230.341721 
	C274.599823,199.770767 230.926849,204.881165 215.110443,235.649170 
	C210.007111,245.576767 208.848343,256.116180 210.397354,267.730957 
	C210.441071,273.843292 209.459579,280.173523 210.704605,286.030518 
	C216.333115,312.509216 241.040344,328.175476 267.779938,322.818634 
	C292.122925,317.941925 309.970490,290.340790 303.991089,266.013458 
z"/>
<path fill="#FFFFFF" opacity="1.000000" stroke="none" 
	d="
M210.840652,267.046692 
	C208.848343,256.116180 210.007111,245.576767 215.110443,235.649170 
	C230.926849,204.881165 274.599823,199.770767 295.970764,230.341721 
	C303.637604,241.309097 305.059784,253.284225 303.640625,266.648438 
	C300.980530,277.747437 295.480988,286.233673 287.367310,293.135712 
	C273.466736,304.960449 255.110474,307.258759 239.171677,300.548798 
	C224.181351,294.238159 215.118683,282.583679 210.840652,267.046692 
z"/>
<path fill="#FC2B3A" opacity="1.000000" stroke="none" 
	d="
M210.619003,267.388824 
	C215.118683,282.583679 224.181351,294.238159 239.171677,300.548798 
	C255.110474,307.258759 273.466736,304.960449 287.367310,293.135712 
	C295.480988,286.233673 300.980530,277.747437 303.615173,267.090210 
	C309.970490,290.340790 292.122925,317.941925 267.779938,322.818634 
	C241.040344,328.175476 216.333115,312.509216 210.704605,286.030518 
	C209.459579,280.173523 210.441071,273.843292 210.619003,267.388824 
z"/>
</svg>