<?xml version="1.0" standalone="no"?>
<!DOCTYPE svg PUBLIC "-//W3C//DTD SVG 20010904//EN"
 "http://www.w3.org/TR/2001/REC-SVG-20010904/DTD/svg10.dtd">
<svg version="1.0" xmlns="http://www.w3.org/2000/svg"
 width="1024.000000pt" height="1024.000000pt" viewBox="0 0 1024.000000 1024.000000"
 preserveAspectRatio="xMidYMid meet">
<metadata>
Created by potrace 1.14, written by Peter Selinger 2001-2017
</metadata>
<g transform="translate(0.000000,1024.000000) scale(0.100000,-0.100000)"
fill="#000000" stroke="none">
<path d="M0 5120 l0 -5120 5120 0 5120 0 0 5120 0 5120 -5120 0 -5120 0 0
-5120z m6650 3693 c108 -30 183 -66 259 -122 158 -118 264 -271 313 -450 19
-70 21 -110 26 -533 l4 -457 717 -4 c801 -4 785 -3 938 -76 251 -120 420 -349
453 -613 14 -114 14 -4882 0 -4996 -13 -97 -53 -217 -101 -299 -44 -75 -207
-238 -282 -282 -82 -48 -202 -88 -299 -101 -115 -14 -7001 -14 -7116 0 -97 13
-217 53 -299 101 -75 44 -238 207 -282 282 -48 82 -88 202 -101 299 -7 55 -10
895 -10 2503 0 2647 -3 2522 59 2681 87 224 297 409 540 477 73 20 100 21 797
25 l722 3 5 452 c5 513 8 532 81 682 57 115 101 172 206 263 122 105 252 163
408 182 37 4 702 7 1477 6 1407 -1 1410 -1 1485 -23z"/>
<path d="M4060 7510 l0 -260 1060 0 1060 0 0 260 0 260 -1060 0 -1060 0 0
-260z"/>
<path d="M4671 5637 c-19 -7 -44 -25 -55 -40 -21 -28 -21 -39 -24 -518 l-3
-489 -472 -1 c-338 0 -482 -4 -507 -12 -19 -7 -44 -27 -57 -46 l-23 -34 0
-434 c0 -358 3 -440 15 -469 26 -64 28 -64 564 -64 l480 0 3 -492 c2 -388 6
-498 16 -516 29 -50 49 -52 514 -52 392 0 436 2 468 18 57 28 58 42 59 570 l1
472 480 0 c538 0 539 0 565 64 12 29 15 111 15 469 l0 434 -23 34 c-13 19 -38
39 -57 46 -25 8 -169 12 -507 12 l-473 1 -1 473 c0 509 -2 523 -52 561 -28 20
-39 21 -460 23 -318 2 -441 -1 -466 -10z"/>
</g>
</svg>
