<svg version="1.1" id="Layer_1" xmlns="http://www.w3.org/2000/svg" xmlns:xlink="http://www.w3.org/1999/xlink" x="0px" y="0px"
	 width="100%" viewBox="0 0 512 512" enable-background="new 0 0 512 512" xml:space="preserve">
<path fill="#FFFFFF" opacity="1.000000" stroke="none" 
	d="
M1.000000,298.000000 
	C1.000000,199.080856 1.000000,100.161720 1.000000,1.000000 
	C80.354065,1.000000 159.708374,1.000000 239.442535,1.350576 
	C238.212982,2.420850 236.654785,3.300787 234.985870,3.834322 
	C223.886826,7.382599 213.954803,13.015667 205.542587,21.031746 
	C189.499298,36.319580 182.203140,55.398083 182.014893,77.357231 
	C181.933472,86.854721 182.193710,96.358261 181.958389,105.850609 
	C181.557434,122.024704 192.028900,136.477615 206.229156,140.327560 
	C208.042877,140.819290 209.820435,142.544266 210.977936,144.155411 
	C214.822556,149.506821 218.158997,155.230316 222.110764,160.495544 
	C225.259476,164.690750 224.777176,168.039398 219.980835,169.845871 
	C213.599625,172.249268 207.180740,174.552399 200.787399,176.923859 
	C194.706726,179.179321 188.474747,181.111023 182.594742,183.807541 
	C164.660492,192.032074 157.360825,206.966110 157.033936,225.925369 
	C156.852982,236.420242 157.000854,246.920792 157.001373,257.418793 
	C157.001801,265.996735 157.002365,265.998383 165.340851,265.998505 
	C208.999176,265.999084 252.657501,265.998840 296.315826,265.998749 
	C314.645660,265.998718 332.975647,265.959198 351.305176,266.033112 
	C354.726471,266.046875 357.171173,265.627045 357.037720,261.270020 
	C356.600006,246.979767 356.680054,232.666443 355.935455,218.394638 
	C355.021454,200.876907 345.090851,189.543518 329.411285,183.053253 
	C317.892456,178.285233 306.080048,174.230911 294.455322,169.712311 
	C288.919617,167.560577 288.578918,164.591232 292.369415,160.010910 
	C295.838928,155.818390 299.394104,151.476196 301.720856,146.628464 
	C303.575806,142.763794 305.893707,140.817337 309.786560,139.474960 
	C319.453400,136.141525 326.287720,129.462387 329.447327,119.742111 
	C331.011108,114.931259 331.909119,109.664299 331.862335,104.615257 
	C331.729950,90.340759 332.481628,75.813423 330.117096,61.854580 
	C325.009491,31.702110 306.176453,12.726707 277.398560,3.237776 
	C276.154938,2.827724 275.127930,1.760891 274.000000,1.000003 
	C353.608856,1.000000 433.217682,1.000000 513.000000,1.000000 
	C513.000000,122.020836 513.000000,243.041763 512.579529,364.533020 
	C504.513275,363.269775 496.867523,361.536163 488.854950,359.719421 
	C492.826294,352.811462 496.069031,346.814819 499.680145,341.048920 
	C501.334290,338.407776 501.099945,336.565125 498.995087,334.470520 
	C485.882965,321.422119 472.783813,308.360107 459.778137,295.205963 
	C457.856506,293.262360 456.510498,293.308960 454.270081,294.741943 
	C449.372284,297.874634 444.085510,300.403229 439.217987,303.577850 
	C435.923706,305.726379 434.811188,304.434143 434.048676,301.381256 
	C432.760010,296.221558 431.290436,291.102386 430.166351,285.907867 
	C429.365875,282.208679 427.579193,280.856873 423.639252,280.906281 
	C406.143524,281.125671 388.642609,281.094025 371.145691,280.929169 
	C367.301392,280.892914 365.531036,282.028656 364.701813,285.968597 
	C363.354492,292.369995 361.273926,298.617096 359.263672,305.781891 
	C353.479889,302.302979 348.469360,299.446533 343.627472,296.328217 
	C339.580322,293.721741 336.526825,293.599640 332.800934,297.506683 
	C321.647949,309.201965 310.039276,320.462677 298.609253,331.893768 
	C292.792755,337.710815 292.855591,337.673615 297.266235,344.893707 
	C300.061310,349.469238 302.637909,354.178192 305.658661,359.429016 
	C298.374054,361.422638 292.209198,363.440369 285.894623,364.718353 
	C281.878235,365.531250 280.901001,367.443939 280.934326,371.223206 
	C281.088684,388.720306 281.123993,406.221008 280.910431,423.716858 
	C280.861786,427.701416 282.293701,429.244507 286.014343,430.086731 
	C292.539429,431.563751 298.946198,433.563354 305.786896,435.450104 
	C301.310455,443.137238 297.232971,450.139282 293.242432,456.992004 
	C293.521057,457.567383 293.598145,457.930664 293.818176,458.151733 
	C307.453674,471.852722 321.122864,485.520233 334.726715,499.252502 
	C337.173889,501.722778 339.432434,500.958221 341.895050,499.455841 
	C347.533142,496.016113 353.200684,492.624695 359.841492,488.619415 
	C361.667297,497.248810 363.333649,505.124390 365.000000,513.000000 
	C299.312439,513.000000 233.624878,513.000000 167.466980,512.531372 
	C166.996124,442.904205 166.996475,373.745697 166.993790,304.587219 
	C166.993530,298.016174 166.984772,298.006866 160.481140,298.006348 
	C107.320763,298.002106 54.160381,298.001617 1.000000,298.000000 
M125.977928,81.523933 
	C125.035767,82.466080 124.093132,83.407753 123.151520,84.350449 
	C118.002808,89.505089 117.922073,89.589355 123.298210,94.751656 
	C127.443565,98.732140 131.824707,102.467079 136.364090,106.547668 
	C134.711334,107.614174 134.454117,107.925056 134.195740,107.926041 
	C123.204453,107.967972 112.213066,107.983734 101.221687,107.999695 
	C85.486511,108.022537 75.005066,118.526749 75.002686,134.313507 
	C74.995781,180.113647 75.000275,225.913788 75.000305,271.713928 
	C75.000313,282.013397 75.000313,282.013428 85.300583,282.000000 
	C91.993446,281.991302 91.998840,281.991272 91.999092,275.107727 
	C92.000786,229.307602 91.999672,183.507462 92.001404,137.707336 
	C92.001457,136.208572 91.849838,134.684479 92.065628,133.215790 
	C92.719360,128.766205 95.387726,125.376640 99.736969,125.226318 
	C111.802002,124.809296 123.890869,125.081741 137.379028,125.081741 
	C130.560379,131.929504 124.676872,137.838135 118.069695,144.473526 
	C121.381760,147.443222 124.294975,149.697952 126.762131,152.365280 
	C129.365997,155.180405 131.298157,155.372177 134.112976,152.489166 
	C144.699875,141.645767 155.411209,130.919724 166.265274,120.344032 
	C169.250198,117.435669 169.195465,115.518517 166.242264,112.635529 
	C155.040695,101.700340 144.055054,90.544075 132.966705,79.492516 
	C132.193619,78.721992 131.241623,78.130974 129.569290,76.832672 
	C128.452637,78.345566 127.461174,79.688820 125.977928,81.523933 
M388.859650,125.035408 
	C395.056244,126.963287 396.988129,129.453415 396.991760,135.798096 
	C397.009735,167.274017 397.002716,198.749939 396.989990,230.225861 
	C396.989471,231.483566 396.841827,232.741211 396.709808,234.840790 
	C394.943390,233.234238 393.728485,232.205338 392.599976,231.089096 
	C388.811157,227.341415 385.198639,223.394989 381.184143,219.909973 
	C380.140289,219.003799 377.296143,218.728043 376.279480,219.492813 
	C372.587708,222.269958 369.320709,225.611710 366.682404,228.020325 
	C380.511139,241.846832 393.627350,254.960922 405.971252,267.302826 
	C418.307343,254.959457 431.181732,242.077499 443.747833,229.503998 
	C440.490784,226.216354 436.678589,222.368378 432.515533,218.166199 
	C426.730774,223.825150 420.783600,229.642990 414.000000,236.279053 
	C414.000000,233.042114 414.000000,231.229797 414.000000,229.417465 
	C413.999969,197.108841 414.015228,164.800217 413.992645,132.491608 
	C413.983124,118.900764 403.174408,108.046295 389.651672,108.006195 
	C379.326324,107.975571 369.000824,108.000015 358.675385,108.000000 
	C346.823517,107.999985 346.968445,108.000618 346.917664,119.907806 
	C346.901154,123.780518 347.977173,125.161720 352.003937,125.083649 
	C363.990173,124.851273 375.983948,125.004478 388.859650,125.035408 
M210.000809,382.499329 
	C214.068344,378.422424 218.135880,374.345551 221.803253,370.669739 
	C217.445053,366.221680 213.653381,362.351837 209.805313,358.424469 
	C209.654617,358.470276 209.247742,358.470398 209.042740,358.673889 
	C196.869507,370.758942 184.727905,382.875946 172.541824,394.948029 
	C170.145538,397.321991 171.441010,398.985809 173.271622,400.800751 
	C180.250198,407.719543 187.201019,414.666687 194.122574,421.642548 
	C199.135910,426.695221 204.086731,431.809875 209.926453,437.776672 
	C212.707291,434.538788 214.860840,431.783142 217.272705,429.276001 
	C221.920349,424.444672 222.049438,424.432007 217.365738,419.906616 
	C213.002380,415.690643 208.471924,411.647614 204.015030,407.528473 
	C204.361710,407.018982 204.708389,406.509491 205.055069,406.000000 
	C206.657013,406.000000 208.258957,406.000000 209.860901,406.000000 
	C224.684860,406.000000 239.508820,406.000000 254.332779,406.000000 
	C266.179047,406.000000 266.031281,405.999359 266.083679,394.081329 
	C266.100769,390.189606 264.989349,388.873047 260.984802,388.918152 
	C243.831146,389.111450 226.674072,389.007080 209.518265,388.988312 
	C207.973694,388.986603 206.429291,388.820831 204.884811,388.731232 
	C204.548904,388.195465 204.213013,387.659698 203.877121,387.123932 
	C205.752014,385.748749 207.626907,384.373566 210.000809,382.499329 
z"/>
<path fill="#0B0A0A" opacity="1.000000" stroke="none" 
	d="
M273.531342,1.000003 
	C275.127930,1.760891 276.154938,2.827724 277.398560,3.237776 
	C306.176453,12.726707 325.009491,31.702110 330.117096,61.854580 
	C332.481628,75.813423 331.729950,90.340759 331.862335,104.615257 
	C331.909119,109.664299 331.011108,114.931259 329.447327,119.742111 
	C326.287720,129.462387 319.453400,136.141525 309.786560,139.474960 
	C305.893707,140.817337 303.575806,142.763794 301.720856,146.628464 
	C299.394104,151.476196 295.838928,155.818390 292.369415,160.010910 
	C288.578918,164.591232 288.919617,167.560577 294.455322,169.712311 
	C306.080048,174.230911 317.892456,178.285233 329.411285,183.053253 
	C345.090851,189.543518 355.021454,200.876907 355.935455,218.394638 
	C356.680054,232.666443 356.600006,246.979767 357.037720,261.270020 
	C357.171173,265.627045 354.726471,266.046875 351.305176,266.033112 
	C332.975647,265.959198 314.645660,265.998718 296.315826,265.998749 
	C252.657501,265.998840 208.999176,265.999084 165.340851,265.998505 
	C157.002365,265.998383 157.001801,265.996735 157.001373,257.418793 
	C157.000854,246.920792 156.852982,236.420242 157.033936,225.925369 
	C157.360825,206.966110 164.660492,192.032074 182.594742,183.807541 
	C188.474747,181.111023 194.706726,179.179321 200.787399,176.923859 
	C207.180740,174.552399 213.599625,172.249268 219.980835,169.845871 
	C224.777176,168.039398 225.259476,164.690750 222.110764,160.495544 
	C218.158997,155.230316 214.822556,149.506821 210.977936,144.155411 
	C209.820435,142.544266 208.042877,140.819290 206.229156,140.327560 
	C192.028900,136.477615 181.557434,122.024704 181.958389,105.850609 
	C182.193710,96.358261 181.933472,86.854721 182.014893,77.357231 
	C182.203140,55.398083 189.499298,36.319580 205.542587,21.031746 
	C213.954803,13.015667 223.886826,7.382599 234.985870,3.834322 
	C236.654785,3.300787 238.212982,2.420850 239.911194,1.350576 
	C251.020889,1.000000 262.041779,1.000000 273.531342,1.000003 
M339.666443,223.822815 
	C339.383423,206.519669 329.076447,198.973465 311.182129,194.982803 
	C305.768311,211.116562 300.341492,227.289108 294.808838,243.777023 
	C283.698578,238.242737 273.008789,233.204437 262.624786,227.599594 
	C258.658386,225.458694 255.631866,225.401733 251.672424,227.510986 
	C241.134369,233.124802 230.343201,238.263489 219.194519,243.819427 
	C213.616653,227.184464 208.187332,210.992523 202.561539,194.214630 
	C196.947540,196.537659 191.573563,198.333405 186.615005,200.924194 
	C180.750626,203.988266 176.104355,209.150879 175.563950,215.589020 
	C174.654160,226.427811 175.314682,237.398438 175.314682,248.484772 
	C229.718216,248.484772 284.428986,248.484772 339.668152,248.484772 
	C339.668152,240.352982 339.668152,232.555786 339.666443,223.822815 
M313.489288,63.195625 
	C305.548096,30.601494 274.259827,11.202660 242.825699,19.323896 
	C210.261444,27.737110 196.471451,59.475353 199.825089,78.317749 
	C205.652542,77.276451 211.447540,75.530106 217.293396,75.338959 
	C231.000702,74.890770 242.485199,69.938393 252.095367,60.312687 
	C253.682739,58.722744 255.313721,57.176353 257.545410,55.006088 
	C259.372620,57.203743 260.648834,58.974522 262.159332,60.515682 
	C269.604675,68.112068 278.569336,73.000198 289.078400,74.654228 
	C297.500641,75.979820 305.999207,76.820625 315.080719,77.953529 
	C314.675659,73.802574 314.198120,68.909187 313.489288,63.195625 
M250.789001,82.357414 
	C242.092743,85.795021 233.396469,89.232620 224.004745,92.945137 
	C224.004745,102.994965 223.853745,114.299141 224.040192,125.597740 
	C224.318558,142.467010 237.349731,156.234924 254.269638,157.828293 
	C270.432159,159.350342 286.716125,148.260941 288.816101,131.934052 
	C290.533905,118.578598 289.165863,104.826256 289.165863,91.158356 
	C277.444031,89.835480 266.663269,85.399376 257.044342,78.226746 
	C254.984192,79.598816 253.195114,80.790359 250.789001,82.357414 
M244.856247,211.614090 
	C239.517563,202.677246 234.178879,193.740402 228.716324,184.596207 
	C225.019089,185.980850 221.681015,187.230972 218.098358,188.572708 
	C221.722412,199.379501 225.217545,209.801865 228.860138,220.663956 
	C234.585205,217.675552 239.690338,215.010727 244.856247,211.614090 
M287.954620,212.473251 
	C290.568298,204.531860 293.181976,196.590469 295.835419,188.528229 
	C292.096619,187.119293 288.885681,185.909271 285.320282,184.565689 
	C279.717987,193.919952 274.253845,203.043518 268.664642,212.375900 
	C274.517944,215.228088 279.769714,217.787170 285.194336,220.430450 
	C286.199188,217.581604 286.966125,215.407333 287.954620,212.473251 
M243.827728,177.653870 
	C248.117142,184.805481 252.406540,191.957108 257.023071,199.654160 
	C262.760376,190.073654 268.012573,181.303116 273.938019,171.408401 
	C262.336578,175.223099 251.761566,175.018845 240.226288,171.610779 
	C241.640991,174.021744 242.525482,175.529114 243.827728,177.653870 
M314.791962,106.855064 
	C313.897003,101.854568 312.043243,97.491272 306.875702,94.754089 
	C306.875702,104.063721 306.875702,112.913300 306.875702,121.974274 
	C312.599274,118.180649 314.320496,115.010483 314.791962,106.855064 
M207.432068,96.445755 
	C206.666794,96.224167 205.598145,95.560089 205.180923,95.846138 
	C196.368164,101.888306 197.419174,116.429070 207.445770,121.824684 
	C207.445770,113.481323 207.445770,105.381401 207.432068,96.445755 
z"/>
<path fill="#0C0A0A" opacity="1.000000" stroke="none" 
	d="
M365.468658,513.000000 
	C363.333649,505.124390 361.667297,497.248810 359.841492,488.619415 
	C353.200684,492.624695 347.533142,496.016113 341.895050,499.455841 
	C339.432434,500.958221 337.173889,501.722778 334.726715,499.252502 
	C321.122864,485.520233 307.453674,471.852722 293.818176,458.151733 
	C293.598145,457.930664 293.521057,457.567383 293.242432,456.992004 
	C297.232971,450.139282 301.310455,443.137238 305.786896,435.450104 
	C298.946198,433.563354 292.539429,431.563751 286.014343,430.086731 
	C282.293701,429.244507 280.861786,427.701416 280.910431,423.716858 
	C281.123993,406.221008 281.088684,388.720306 280.934326,371.223206 
	C280.901001,367.443939 281.878235,365.531250 285.894623,364.718353 
	C292.209198,363.440369 298.374054,361.422638 305.658661,359.429016 
	C302.637909,354.178192 300.061310,349.469238 297.266235,344.893707 
	C292.855591,337.673615 292.792755,337.710815 298.609253,331.893768 
	C310.039276,320.462677 321.647949,309.201965 332.800934,297.506683 
	C336.526825,293.599640 339.580322,293.721741 343.627472,296.328217 
	C348.469360,299.446533 353.479889,302.302979 359.263672,305.781891 
	C361.273926,298.617096 363.354492,292.369995 364.701813,285.968597 
	C365.531036,282.028656 367.301392,280.892914 371.145691,280.929169 
	C388.642609,281.094025 406.143524,281.125671 423.639252,280.906281 
	C427.579193,280.856873 429.365875,282.208679 430.166351,285.907867 
	C431.290436,291.102386 432.760010,296.221558 434.048676,301.381256 
	C434.811188,304.434143 435.923706,305.726379 439.217987,303.577850 
	C444.085510,300.403229 449.372284,297.874634 454.270081,294.741943 
	C456.510498,293.308960 457.856506,293.262360 459.778137,295.205963 
	C472.783813,308.360107 485.882965,321.422119 498.995087,334.470520 
	C501.099945,336.565125 501.334290,338.407776 499.680145,341.048920 
	C496.069031,346.814819 492.826294,352.811462 488.854950,359.719421 
	C496.867523,361.536163 504.513275,363.269775 512.579529,365.001678 
	C513.000000,386.020905 513.000000,407.041779 512.616028,428.587921 
	C504.724213,431.123657 497.216370,433.134186 489.022247,435.328461 
	C492.596405,441.469818 495.647217,447.165100 499.154541,452.563904 
	C501.172638,455.670410 500.947327,457.699615 498.295624,460.303925 
	C485.572815,472.799072 472.952820,485.401642 460.471283,498.137543 
	C457.717682,500.947296 455.618835,501.185303 452.339569,499.002899 
	C447.028015,495.467957 441.356598,492.473724 435.348083,488.965668 
	C433.065369,497.608246 431.032684,505.304138 429.000000,513.000000 
	C407.979095,513.000000 386.958221,513.000000 365.468658,513.000000 
M347.110962,318.353302 
	C344.845123,317.065125 342.579285,315.776947 341.450836,315.135406 
	C332.324066,324.197174 323.758606,332.701660 315.030334,341.367798 
	C315.556488,342.294617 316.156799,343.931366 317.231079,345.150482 
	C324.272552,353.141571 325.506226,361.586456 319.275848,370.548004 
	C318.091919,372.250916 316.444550,374.168640 314.608917,374.779938 
	C309.289764,376.551361 303.765991,377.708344 298.373352,379.093384 
	C298.373352,391.477081 298.373352,403.446411 298.373352,415.567902 
	C300.054962,416.064880 301.602264,416.802795 303.203827,416.950012 
	C313.716888,417.916351 321.326721,422.338440 323.156097,433.584869 
	C323.487488,435.622101 323.705627,438.079071 322.879852,439.823273 
	C320.894897,444.015594 318.151215,447.842224 315.961243,451.948486 
	C315.404144,452.993073 315.177704,455.106018 315.805481,455.755463 
	C323.868927,464.096832 332.115082,472.261597 340.290985,480.447144 
	C345.684296,477.251221 350.488953,474.266785 355.446594,471.562866 
	C356.686005,470.886871 358.623627,470.550201 359.892029,471.012756 
	C373.715576,476.053619 373.697021,476.105255 377.372375,490.174438 
	C377.624359,491.138977 377.961884,492.092926 378.096313,493.074158 
	C378.457642,495.710999 379.861328,496.539673 382.524628,496.494415 
	C391.685974,496.338776 400.861664,496.180328 410.011139,496.544708 
	C414.470245,496.722351 416.824829,495.631897 417.168915,490.907745 
	C417.912292,480.701569 422.533691,473.597076 433.275330,471.689392 
	C433.586334,471.634186 433.869324,471.239471 434.154694,471.251709 
	C435.956879,471.329010 438.038544,470.934662 439.505035,471.699097 
	C444.608612,474.359497 449.498718,477.429443 453.954498,480.041504 
	C462.877686,471.132324 471.347473,462.675842 480.058411,453.978577 
	C479.345825,452.728210 478.683472,450.952942 477.516602,449.618988 
	C470.534698,441.637054 469.268311,433.203583 475.431854,424.249664 
	C476.600098,422.552490 478.308350,420.713867 480.154694,420.094055 
	C485.452057,418.315735 490.948120,417.129242 496.491852,415.677216 
	C496.491852,405.269897 496.232422,395.271179 496.604645,385.296051 
	C496.782593,380.527985 495.711914,377.791443 490.554230,377.441559 
	C480.481354,376.758270 473.585754,372.154510 471.730652,361.616821 
	C471.675873,361.305634 471.283508,361.025482 471.290375,360.736542 
	C471.333099,358.929810 470.876160,356.827667 471.636230,355.372742 
	C474.306671,350.261017 477.403534,345.372040 479.756958,341.384033 
	C470.741730,332.302368 462.236847,323.734833 453.560333,314.994385 
	C452.580872,315.540192 450.925446,316.113892 449.719574,317.190857 
	C441.563629,324.475006 432.931793,325.239075 423.871521,319.132965 
	C422.294403,318.070129 420.638550,316.412689 420.077515,314.685974 
	C418.344482,309.352142 417.123108,303.852020 415.683990,298.343567 
	C403.396545,298.343567 391.426941,298.343567 379.093811,298.343567 
	C377.882507,302.959930 376.305756,307.539398 375.552307,312.250519 
	C374.826752,316.787170 372.145721,318.369751 368.362213,320.469635 
	C360.693787,324.725677 354.184845,324.466309 347.110962,318.353302 
z"/>
<path fill="#0D0C0C" opacity="1.000000" stroke="none" 
	d="
M1.000000,298.468658 
	C54.160381,298.001617 107.320763,298.002106 160.481140,298.006348 
	C166.984772,298.006866 166.993530,298.016174 166.993790,304.587219 
	C166.996475,373.745697 166.996124,442.904205 166.998322,512.531372 
	C111.730263,513.000000 56.460522,513.000000 1.000000,513.000000 
	C1.000000,441.645874 1.000000,370.291595 1.000000,298.468658 
M17.545282,460.499695 
	C17.545282,472.407349 17.545282,484.315002 17.545282,496.226257 
	C61.953484,496.226257 105.551346,496.226257 149.431732,496.226257 
	C149.431732,435.791687 149.431732,375.585327 149.431732,315.243469 
	C105.395981,315.243469 61.552452,315.243469 17.545246,315.243469 
	C17.545246,363.566284 17.545246,411.532990 17.545282,460.499695 
z"/>
<path fill="#FFFFFF" opacity="1.000000" stroke="none" 
	d="
M429.468689,513.000000 
	C431.032684,505.304138 433.065369,497.608246 435.348083,488.965668 
	C441.356598,492.473724 447.028015,495.467957 452.339569,499.002899 
	C455.618835,501.185303 457.717682,500.947296 460.471283,498.137543 
	C472.952820,485.401642 485.572815,472.799072 498.295624,460.303925 
	C500.947327,457.699615 501.172638,455.670410 499.154541,452.563904 
	C495.647217,447.165100 492.596405,441.469818 489.022247,435.328461 
	C497.216370,433.134186 504.724213,431.123657 512.616028,429.056580 
	C513.000000,456.926910 513.000000,484.853790 513.000000,513.000000 
	C485.312836,513.000000 457.625061,513.000000 429.468689,513.000000 
z"/>
<path fill="#0A0909" opacity="1.000000" stroke="none" 
	d="
M126.223816,81.278008 
	C127.461174,79.688820 128.452637,78.345566 129.569290,76.832672 
	C131.241623,78.130974 132.193619,78.721992 132.966705,79.492516 
	C144.055054,90.544075 155.040695,101.700340 166.242264,112.635529 
	C169.195465,115.518517 169.250198,117.435669 166.265274,120.344032 
	C155.411209,130.919724 144.699875,141.645767 134.112976,152.489166 
	C131.298157,155.372177 129.365997,155.180405 126.762131,152.365280 
	C124.294975,149.697952 121.381760,147.443222 118.069695,144.473526 
	C124.676872,137.838135 130.560379,131.929504 137.379028,125.081741 
	C123.890869,125.081741 111.802002,124.809296 99.736969,125.226318 
	C95.387726,125.376640 92.719360,128.766205 92.065628,133.215790 
	C91.849838,134.684479 92.001457,136.208572 92.001404,137.707336 
	C91.999672,183.507462 92.000786,229.307602 91.999092,275.107727 
	C91.998840,281.991272 91.993446,281.991302 85.300583,282.000000 
	C75.000313,282.013428 75.000313,282.013397 75.000305,271.713928 
	C75.000275,225.913788 74.995781,180.113647 75.002686,134.313507 
	C75.005066,118.526749 85.486511,108.022537 101.221687,107.999695 
	C112.213066,107.983734 123.204453,107.967972 134.195740,107.926041 
	C134.454117,107.925056 134.711334,107.614174 136.364090,106.547668 
	C131.824707,102.467079 127.443565,98.732140 123.298210,94.751656 
	C117.922073,89.589355 118.002808,89.505089 123.151520,84.350449 
	C124.093132,83.407753 125.035767,82.466080 126.223816,81.278008 
z"/>
<path fill="#0A0909" opacity="1.000000" stroke="none" 
	d="
M388.417206,125.021210 
	C375.983948,125.004478 363.990173,124.851273 352.003937,125.083649 
	C347.977173,125.161720 346.901154,123.780518 346.917664,119.907806 
	C346.968445,108.000618 346.823517,107.999985 358.675385,108.000000 
	C369.000824,108.000015 379.326324,107.975571 389.651672,108.006195 
	C403.174408,108.046295 413.983124,118.900764 413.992645,132.491608 
	C414.015228,164.800217 413.999969,197.108841 414.000000,229.417465 
	C414.000000,231.229797 414.000000,233.042114 414.000000,236.279053 
	C420.783600,229.642990 426.730774,223.825150 432.515533,218.166199 
	C436.678589,222.368378 440.490784,226.216354 443.747833,229.503998 
	C431.181732,242.077499 418.307343,254.959457 405.971252,267.302826 
	C393.627350,254.960922 380.511139,241.846832 366.682404,228.020325 
	C369.320709,225.611710 372.587708,222.269958 376.279480,219.492813 
	C377.296143,218.728043 380.140289,219.003799 381.184143,219.909973 
	C385.198639,223.394989 388.811157,227.341415 392.599976,231.089096 
	C393.728485,232.205338 394.943390,233.234238 396.709808,234.840790 
	C396.841827,232.741211 396.989471,231.483566 396.989990,230.225861 
	C397.002716,198.749939 397.009735,167.274017 396.991760,135.798096 
	C396.988129,129.453415 395.056244,126.963287 388.417206,125.021210 
z"/>
<path fill="#0A0909" opacity="1.000000" stroke="none" 
	d="
M209.751297,382.748871 
	C207.626907,384.373566 205.752014,385.748749 203.877121,387.123932 
	C204.213013,387.659698 204.548904,388.195465 204.884811,388.731232 
	C206.429291,388.820831 207.973694,388.986603 209.518265,388.988312 
	C226.674072,389.007080 243.831146,389.111450 260.984802,388.918152 
	C264.989349,388.873047 266.100769,390.189606 266.083679,394.081329 
	C266.031281,405.999359 266.179047,406.000000 254.332779,406.000000 
	C239.508820,406.000000 224.684860,406.000000 209.860901,406.000000 
	C208.258957,406.000000 206.657013,406.000000 205.055069,406.000000 
	C204.708389,406.509491 204.361710,407.018982 204.015030,407.528473 
	C208.471924,411.647614 213.002380,415.690643 217.365738,419.906616 
	C222.049438,424.432007 221.920349,424.444672 217.272705,429.276001 
	C214.860840,431.783142 212.707291,434.538788 209.926453,437.776672 
	C204.086731,431.809875 199.135910,426.695221 194.122574,421.642548 
	C187.201019,414.666687 180.250198,407.719543 173.271622,400.800751 
	C171.441010,398.985809 170.145538,397.321991 172.541824,394.948029 
	C184.727905,382.875946 196.869507,370.758942 209.042740,358.673889 
	C209.247742,358.470398 209.654617,358.470276 209.805313,358.424469 
	C213.653381,362.351837 217.445053,366.221680 221.803253,370.669739 
	C218.135880,374.345551 214.068344,378.422424 209.751297,382.748871 
z"/>
<path fill="#47CBAA" opacity="1.000000" stroke="none" 
	d="
M339.667297,224.290710 
	C339.668152,232.555786 339.668152,240.352982 339.668152,248.484772 
	C284.428986,248.484772 229.718216,248.484772 175.314682,248.484772 
	C175.314682,237.398438 174.654160,226.427811 175.563950,215.589020 
	C176.104355,209.150879 180.750626,203.988266 186.615005,200.924194 
	C191.573563,198.333405 196.947540,196.537659 202.561539,194.214630 
	C208.187332,210.992523 213.616653,227.184464 219.194519,243.819427 
	C230.343201,238.263489 241.134369,233.124802 251.672424,227.510986 
	C255.631866,225.401733 258.658386,225.458694 262.624786,227.599594 
	C273.008789,233.204437 283.698578,238.242737 294.808838,243.777023 
	C300.341492,227.289108 305.768311,211.116562 311.182129,194.982803 
	C329.076447,198.973465 339.383423,206.519669 339.667297,224.290710 
z"/>
<path fill="#B17845" opacity="1.000000" stroke="none" 
	d="
M313.604950,63.605709 
	C314.198120,68.909187 314.675659,73.802574 315.080719,77.953529 
	C305.999207,76.820625 297.500641,75.979820 289.078400,74.654228 
	C278.569336,73.000198 269.604675,68.112068 262.159332,60.515682 
	C260.648834,58.974522 259.372620,57.203743 257.545410,55.006088 
	C255.313721,57.176353 253.682739,58.722744 252.095367,60.312687 
	C242.485199,69.938393 231.000702,74.890770 217.293396,75.338959 
	C211.447540,75.530106 205.652542,77.276451 199.825089,78.317749 
	C196.471451,59.475353 210.261444,27.737110 242.825699,19.323896 
	C274.259827,11.202660 305.548096,30.601494 313.604950,63.605709 
z"/>
<path fill="#EFCFB3" opacity="1.000000" stroke="none" 
	d="
M251.097504,82.169655 
	C253.195114,80.790359 254.984192,79.598816 257.044342,78.226746 
	C266.663269,85.399376 277.444031,89.835480 289.165863,91.158356 
	C289.165863,104.826256 290.533905,118.578598 288.816101,131.934052 
	C286.716125,148.260941 270.432159,159.350342 254.269638,157.828293 
	C237.349731,156.234924 224.318558,142.467010 224.040192,125.597740 
	C223.853745,114.299141 224.004745,102.994965 224.004745,92.945137 
	C233.396469,89.232620 242.092743,85.795021 251.097504,82.169655 
z"/>
<path fill="#E0E3E7" opacity="1.000000" stroke="none" 
	d="
M244.825851,211.980011 
	C239.690338,215.010727 234.585205,217.675552 228.860138,220.663956 
	C225.217545,209.801865 221.722412,199.379501 218.098358,188.572708 
	C221.681015,187.230972 225.019089,185.980850 228.716324,184.596207 
	C234.178879,193.740402 239.517563,202.677246 244.825851,211.980011 
z"/>
<path fill="#E0E3E7" opacity="1.000000" stroke="none" 
	d="
M287.843842,212.853149 
	C286.966125,215.407333 286.199188,217.581604 285.194336,220.430450 
	C279.769714,217.787170 274.517944,215.228088 268.664642,212.375900 
	C274.253845,203.043518 279.717987,193.919952 285.320282,184.565689 
	C288.885681,185.909271 292.096619,187.119293 295.835419,188.528229 
	C293.181976,196.590469 290.568298,204.531860 287.843842,212.853149 
z"/>
<path fill="#E8C9AE" opacity="1.000000" stroke="none" 
	d="
M243.618851,177.345184 
	C242.525482,175.529114 241.640991,174.021744 240.226288,171.610779 
	C251.761566,175.018845 262.336578,175.223099 273.938019,171.408401 
	C268.012573,181.303116 262.760376,190.073654 257.023071,199.654160 
	C252.406540,191.957108 248.117142,184.805481 243.618851,177.345184 
z"/>
<path fill="#E8C9AE" opacity="1.000000" stroke="none" 
	d="
M314.819550,107.264824 
	C314.320496,115.010483 312.599274,118.180649 306.875702,121.974274 
	C306.875702,112.913300 306.875702,104.063721 306.875702,94.754089 
	C312.043243,97.491272 313.897003,101.854568 314.819550,107.264824 
z"/>
<path fill="#E8C9AE" opacity="1.000000" stroke="none" 
	d="
M207.438919,96.863617 
	C207.445770,105.381401 207.445770,113.481323 207.445770,121.824684 
	C197.419174,116.429070 196.368164,101.888306 205.180923,95.846138 
	C205.598145,95.560089 206.666794,96.224167 207.438919,96.863617 
z"/>
<path fill="#F9D56F" opacity="1.000000" stroke="none" 
	d="
M347.413879,318.564178 
	C354.184845,324.466309 360.693787,324.725677 368.362213,320.469635 
	C372.145721,318.369751 374.826752,316.787170 375.552307,312.250519 
	C376.305756,307.539398 377.882507,302.959930 379.093811,298.343567 
	C391.426941,298.343567 403.396545,298.343567 415.683990,298.343567 
	C417.123108,303.852020 418.344482,309.352142 420.077515,314.685974 
	C420.638550,316.412689 422.294403,318.070129 423.871521,319.132965 
	C432.931793,325.239075 441.563629,324.475006 449.719574,317.190857 
	C450.925446,316.113892 452.580872,315.540192 453.560333,314.994385 
	C462.236847,323.734833 470.741730,332.302368 479.756958,341.384033 
	C477.403534,345.372040 474.306671,350.261017 471.636230,355.372742 
	C470.876160,356.827667 471.333099,358.929810 471.290375,360.736542 
	C471.283508,361.025482 471.675873,361.305634 471.730652,361.616821 
	C473.585754,372.154510 480.481354,376.758270 490.554230,377.441559 
	C495.711914,377.791443 496.782593,380.527985 496.604645,385.296051 
	C496.232422,395.271179 496.491852,405.269897 496.491852,415.677216 
	C490.948120,417.129242 485.452057,418.315735 480.154694,420.094055 
	C478.308350,420.713867 476.600098,422.552490 475.431854,424.249664 
	C469.268311,433.203583 470.534698,441.637054 477.516602,449.618988 
	C478.683472,450.952942 479.345825,452.728210 480.058411,453.978577 
	C471.347473,462.675842 462.877686,471.132324 453.954498,480.041504 
	C449.498718,477.429443 444.608612,474.359497 439.505035,471.699097 
	C438.038544,470.934662 435.956879,471.329010 434.154694,471.251709 
	C433.869324,471.239471 433.586334,471.634186 433.275330,471.689392 
	C422.533691,473.597076 417.912292,480.701569 417.168915,490.907745 
	C416.824829,495.631897 414.470245,496.722351 410.011139,496.544708 
	C400.861664,496.180328 391.685974,496.338776 382.524628,496.494415 
	C379.861328,496.539673 378.457642,495.710999 378.096313,493.074158 
	C377.961884,492.092926 377.624359,491.138977 377.372375,490.174438 
	C373.697021,476.105255 373.715576,476.053619 359.892029,471.012756 
	C358.623627,470.550201 356.686005,470.886871 355.446594,471.562866 
	C350.488953,474.266785 345.684296,477.251221 340.290985,480.447144 
	C332.115082,472.261597 323.868927,464.096832 315.805481,455.755463 
	C315.177704,455.106018 315.404144,452.993073 315.961243,451.948486 
	C318.151215,447.842224 320.894897,444.015594 322.879852,439.823273 
	C323.705627,438.079071 323.487488,435.622101 323.156097,433.584869 
	C321.326721,422.338440 313.716888,417.916351 303.203827,416.950012 
	C301.602264,416.802795 300.054962,416.064880 298.373352,415.567902 
	C298.373352,403.446411 298.373352,391.477081 298.373352,379.093384 
	C303.765991,377.708344 309.289764,376.551361 314.608917,374.779938 
	C316.444550,374.168640 318.091919,372.250916 319.275848,370.548004 
	C325.506226,361.586456 324.272552,353.141571 317.231079,345.150482 
	C316.156799,343.931366 315.556488,342.294617 315.030334,341.367798 
	C323.758606,332.701660 332.324066,324.197174 341.450836,315.135406 
	C342.579285,315.776947 344.845123,317.065125 347.413879,318.564178 
M392.083984,331.580017 
	C391.422485,331.657715 390.762054,331.746063 390.099365,331.811646 
	C353.228485,335.459869 327.243256,369.179352 332.030548,407.166351 
	C336.463593,442.342285 371.716461,468.419617 407.209137,462.777466 
	C442.835236,457.114136 466.795410,425.397919 462.942261,389.003204 
	C459.357849,355.146820 428.017517,329.374359 392.083984,331.580017 
z"/>
<path fill="#E5E8EC" opacity="1.000000" stroke="none" 
	d="
M17.545265,459.999695 
	C17.545246,411.532990 17.545246,363.566284 17.545246,315.243469 
	C61.552452,315.243469 105.395981,315.243469 149.431732,315.243469 
	C149.431732,375.585327 149.431732,435.791687 149.431732,496.226257 
	C105.551346,496.226257 61.953484,496.226257 17.545282,496.226257 
	C17.545282,484.315002 17.545282,472.407349 17.545265,459.999695 
M133.088577,442.394531 
	C133.088577,438.471893 133.088577,434.549255 133.088577,430.697235 
	C99.658913,430.697235 66.935333,430.697235 34.342255,430.697235 
	C34.342255,436.310638 34.342255,441.556946 34.342255,446.979309 
	C66.496979,446.979309 98.311371,446.936035 130.125214,447.047852 
	C133.226837,447.058746 133.259933,445.516388 133.088577,442.394531 
M133.088654,337.585480 
	C133.088654,335.629883 133.088654,333.674316 133.088654,331.567078 
	C99.830162,331.567078 67.020767,331.567078 34.317322,331.567078 
	C34.317322,337.163818 34.317322,342.406830 34.317322,347.668274 
	C67.319595,347.668274 100.005318,347.668274 133.088654,347.668274 
	C133.088654,344.464813 133.088654,341.507843 133.088654,337.585480 
M124.425529,397.294373 
	C94.349236,397.294373 64.272949,397.294373 34.354820,397.294373 
	C34.354820,403.304169 34.354820,408.549988 34.354820,413.616730 
	C67.449234,413.616730 100.189278,413.616730 132.711136,413.616730 
	C132.711136,408.028961 132.711136,402.794281 132.711136,397.294373 
	C130.026718,397.294373 127.712547,397.294373 124.425529,397.294373 
M131.255142,380.933167 
	C131.819336,380.673859 132.870697,380.423615 132.875687,380.153961 
	C132.972824,374.920074 132.947754,369.683899 132.947754,364.505615 
	C110.673813,364.505615 89.077095,364.505615 67.420761,364.505615 
	C67.420761,370.121979 67.420761,375.480743 67.420761,380.940125 
	C88.645164,380.940125 109.469124,380.940125 131.255142,380.933167 
M65.500000,479.998627 
	C76.930214,479.998627 88.360435,479.998627 99.760757,479.998627 
	C99.760757,474.211639 99.760757,468.982147 99.760757,463.693970 
	C77.719475,463.693970 55.986149,463.693970 34.299133,463.693970 
	C34.299133,469.252960 34.299133,474.500427 34.299133,479.998627 
	C44.563515,479.998627 54.531757,479.998627 65.500000,479.998627 
M39.633278,364.236237 
	C37.858654,364.236237 36.084030,364.236237 34.254822,364.236237 
	C34.254822,370.095276 34.254822,375.344147 34.254822,380.659058 
	C39.750568,380.659058 44.976151,380.659058 50.302559,380.659058 
	C50.302559,375.118896 50.302559,369.880768 50.302559,364.236237 
	C46.848217,364.236237 43.713730,364.236237 39.633278,364.236237 
M133.088654,471.533356 
	C133.088654,468.948151 133.088654,466.362915 133.088654,463.750031 
	C127.329285,463.750031 122.154053,463.750031 116.940033,463.750031 
	C116.940033,469.332825 116.940033,474.549438 116.940033,479.694916 
	C122.438690,479.694916 127.653442,479.694916 133.088654,479.694916 
	C133.088654,477.095520 133.088654,474.798187 133.088654,471.533356 
z"/>
<path fill="#0E0C0B" opacity="1.000000" stroke="none" 
	d="
M392.528503,331.522308 
	C428.017517,329.374359 459.357849,355.146820 462.942261,389.003204 
	C466.795410,425.397919 442.835236,457.114136 407.209137,462.777466 
	C371.716461,468.419617 336.463593,442.342285 332.030548,407.166351 
	C327.243256,369.179352 353.228485,335.459869 390.099365,331.811646 
	C390.762054,331.746063 391.422485,331.657715 392.528503,331.522308 
M408.872223,445.549957 
	C434.802216,438.637421 450.467773,415.304779 446.065613,389.314453 
	C442.708344,369.493073 430.951508,356.112030 411.908600,350.180817 
	C393.216675,344.358948 376.097046,348.690308 362.323059,362.618408 
	C348.251923,376.846954 344.413330,394.203064 350.564850,413.269470 
	C357.964722,436.205048 382.579132,451.396057 408.872223,445.549957 
z"/>
<path fill="#100F0F" opacity="1.000000" stroke="none" 
	d="
M133.088394,442.877777 
	C133.259933,445.516388 133.226837,447.058746 130.125214,447.047852 
	C98.311371,446.936035 66.496979,446.979309 34.342255,446.979309 
	C34.342255,441.556946 34.342255,436.310638 34.342255,430.697235 
	C66.935333,430.697235 99.658913,430.697235 133.088577,430.697235 
	C133.088577,434.549255 133.088577,438.471893 133.088394,442.877777 
z"/>
<path fill="#100F0F" opacity="1.000000" stroke="none" 
	d="
M133.088654,338.068176 
	C133.088654,341.507843 133.088654,344.464813 133.088654,347.668274 
	C100.005318,347.668274 67.319595,347.668274 34.317322,347.668274 
	C34.317322,342.406830 34.317322,337.163818 34.317322,331.567078 
	C67.020767,331.567078 99.830162,331.567078 133.088654,331.567078 
	C133.088654,333.674316 133.088654,335.629883 133.088654,338.068176 
z"/>
<path fill="#100F0F" opacity="1.000000" stroke="none" 
	d="
M124.911957,397.294373 
	C127.712547,397.294373 130.026718,397.294373 132.711136,397.294373 
	C132.711136,402.794281 132.711136,408.028961 132.711136,413.616730 
	C100.189278,413.616730 67.449234,413.616730 34.354820,413.616730 
	C34.354820,408.549988 34.354820,403.304169 34.354820,397.294373 
	C64.272949,397.294373 94.349236,397.294373 124.911957,397.294373 
z"/>
<path fill="#100F0F" opacity="1.000000" stroke="none" 
	d="
M130.774109,380.936646 
	C109.469124,380.940125 88.645164,380.940125 67.420761,380.940125 
	C67.420761,375.480743 67.420761,370.121979 67.420761,364.505615 
	C89.077095,364.505615 110.673813,364.505615 132.947754,364.505615 
	C132.947754,369.683899 132.972824,374.920074 132.875687,380.153961 
	C132.870697,380.423615 131.819336,380.673859 130.774109,380.936646 
z"/>
<path fill="#100F0F" opacity="1.000000" stroke="none" 
	d="
M65.000000,479.998627 
	C54.531757,479.998627 44.563515,479.998627 34.299133,479.998627 
	C34.299133,474.500427 34.299133,469.252960 34.299133,463.693970 
	C55.986149,463.693970 77.719475,463.693970 99.760757,463.693970 
	C99.760757,468.982147 99.760757,474.211639 99.760757,479.998627 
	C88.360435,479.998627 76.930214,479.998627 65.000000,479.998627 
z"/>
<path fill="#151515" opacity="1.000000" stroke="none" 
	d="
M40.106262,364.236237 
	C43.713730,364.236237 46.848217,364.236237 50.302559,364.236237 
	C50.302559,369.880768 50.302559,375.118896 50.302559,380.659058 
	C44.976151,380.659058 39.750568,380.659058 34.254822,380.659058 
	C34.254822,375.344147 34.254822,370.095276 34.254822,364.236237 
	C36.084030,364.236237 37.858654,364.236237 40.106262,364.236237 
z"/>
<path fill="#100F0F" opacity="1.000000" stroke="none" 
	d="
M133.088654,472.017090 
	C133.088654,474.798187 133.088654,477.095520 133.088654,479.694916 
	C127.653442,479.694916 122.438690,479.694916 116.940033,479.694916 
	C116.940033,474.549438 116.940033,469.332825 116.940033,463.750031 
	C122.154053,463.750031 127.329285,463.750031 133.088654,463.750031 
	C133.088654,466.362915 133.088654,468.948151 133.088654,472.017090 
z"/>
<path fill="#FBE7A5" opacity="1.000000" stroke="none" 
	d="
M408.470062,445.676697 
	C382.579132,451.396057 357.964722,436.205048 350.564850,413.269470 
	C344.413330,394.203064 348.251923,376.846954 362.323059,362.618408 
	C376.097046,348.690308 393.216675,344.358948 411.908600,350.180817 
	C430.951508,356.112030 442.708344,369.493073 446.065613,389.314453 
	C450.467773,415.304779 434.802216,438.637421 408.470062,445.676697 
M430.018707,402.064362 
	C430.116608,400.569916 430.289124,399.076019 430.300720,397.580902 
	C430.407867,383.761902 422.108643,371.577026 409.245422,366.620605 
	C396.362427,361.656555 382.192261,365.078613 372.822662,375.416687 
	C363.666748,385.519043 361.773285,400.409271 368.095581,412.590973 
	C374.560486,425.047455 387.723267,431.758057 402.249359,430.003113 
	C415.804504,428.365448 426.175720,418.233917 430.018707,402.064362 
z"/>
<path fill="#0C0B0A" opacity="1.000000" stroke="none" 
	d="
M429.979675,402.508026 
	C426.175720,418.233917 415.804504,428.365448 402.249359,430.003113 
	C387.723267,431.758057 374.560486,425.047455 368.095581,412.590973 
	C361.773285,400.409271 363.666748,385.519043 372.822662,375.416687 
	C382.192261,365.078613 396.362427,361.656555 409.245422,366.620605 
	C422.108643,371.577026 430.407867,383.761902 430.300720,397.580902 
	C430.289124,399.076019 430.116608,400.569916 429.979675,402.508026 
M409.011932,408.487305 
	C412.859314,404.803375 413.309235,400.119110 413.006439,395.173126 
	C412.539612,387.547211 403.882599,380.184540 396.411987,381.120575 
	C387.488464,382.238647 379.856781,391.132202 381.169312,398.883606 
	C383.443054,412.311768 397.708679,417.602142 409.011932,408.487305 
z"/>
<path fill="#000000" opacity="1.000000" stroke="none" 
	d="
M408.748657,408.750549 
	C397.708679,417.602142 383.443054,412.311768 381.169312,398.883606 
	C379.856781,391.132202 387.488464,382.238647 396.411987,381.120575 
	C403.882599,380.184540 412.539612,387.547211 413.006439,395.173126 
	C413.309235,400.119110 412.859314,404.803375 408.748657,408.750549 
z"/>
</svg>