<svg version="1.1" id="Layer_1" xmlns="http://www.w3.org/2000/svg" xmlns:xlink="http://www.w3.org/1999/xlink" x="0px" y="0px"
	 width="100%" viewBox="0 0 512 512" enable-background="new 0 0 512 512" xml:space="preserve">
<path fill="#FFFFFF" opacity="1.000000" stroke="none" 
	d="
M513.000000,69.000000 
	C513.000000,216.928650 513.000000,364.857300 513.000000,513.000000 
	C365.309326,513.000000 217.618546,513.000000 69.146141,512.742981 
	C72.903358,508.176361 77.544586,503.968872 81.962837,499.539001 
	C98.737091,482.720703 115.439240,465.830505 132.526550,448.982025 
	C133.610809,449.342041 134.398178,449.597412 135.054001,450.045380 
	C155.984879,464.342041 179.109650,468.378448 203.908829,465.031677 
	C224.030777,462.316132 241.117554,453.291687 255.723404,439.655701 
	C267.508148,428.653442 278.669220,416.977905 289.990021,405.485901 
	C296.989105,398.380981 296.770782,388.256775 289.736969,381.190308 
	C286.460876,377.898987 283.210449,374.582153 280.258484,371.105377 
	C294.798370,356.702911 309.048431,342.492126 323.249542,328.232544 
	C330.401703,321.050873 334.435364,312.742828 334.121063,302.188721 
	C333.725861,288.920654 327.465851,279.249664 316.087524,273.876129 
	C303.675690,268.014496 290.541229,268.944336 280.247833,278.542633 
	C264.208130,293.499268 249.152283,309.511017 233.424957,324.878296 
	C227.115829,318.608795 221.095352,312.501923 214.975235,306.496613 
	C213.873611,305.415649 212.361694,304.752869 211.019226,303.550415 
	C209.993118,301.962830 209.074371,300.637085 207.966446,299.494873 
	C201.684723,293.018646 195.357712,286.586334 189.360077,280.000366 
	C204.612244,264.915771 219.546707,249.966110 234.489929,235.025223 
	C244.846024,224.670792 245.868851,207.226440 239.695053,196.621826 
	C228.566589,177.506683 204.306168,173.727570 188.341995,188.432251 
	C172.583786,202.947220 157.985245,218.721146 142.560333,233.855011 
	C139.191711,230.705353 136.145096,227.639084 133.088882,224.582413 
	C125.461411,216.953766 115.693626,216.855896 108.112778,224.400497 
	C96.900345,235.559341 85.666183,246.697815 74.585617,257.986664 
	C71.750984,260.874573 69.439926,264.279999 66.920654,267.473175 
	C57.871681,278.942780 52.051563,291.950684 49.430779,306.244690 
	C47.045322,319.255157 47.129120,332.338562 49.720982,345.403107 
	C52.303185,358.418915 57.780857,370.103088 65.026718,381.308350 
	C45.288589,401.219788 25.696281,420.825043 6.081003,440.407349 
	C4.467303,442.018341 2.697351,443.472809 0.999997,445.000000 
	C1.000000,297.071350 1.000000,149.142700 1.000000,1.000000 
	C148.690674,1.000000 296.381470,1.000000 444.862762,1.250681 
	C441.937714,4.999080 438.144348,8.418269 434.519684,12.007818 
	C416.652100,29.702360 398.829224,47.442036 380.664490,65.015808 
	C359.037781,49.892170 335.387482,45.497833 309.888184,48.967670 
	C290.137085,51.655312 273.312561,60.518082 258.912292,73.772659 
	C246.677948,85.033638 235.178223,97.103851 223.550385,109.008354 
	C216.927643,115.788681 217.318771,125.796394 224.046097,132.528488 
	C244.045517,152.542007 264.038757,172.561737 284.065125,192.548279 
	C290.290375,198.761185 296.613617,204.875946 303.021637,211.351257 
	C329.456238,237.985687 355.750275,264.315430 382.074951,290.614502 
	C387.655670,296.189819 396.873657,296.681702 403.217896,291.908875 
	C403.738495,291.645050 403.965454,291.332367 404.407837,290.969513 
	C404.901855,290.747345 405.035706,290.497711 405.287292,290.059631 
	C405.745026,289.632721 405.940216,289.316650 406.069946,289.001648 
	C406.004486,289.002686 406.006958,289.133575 406.276306,289.040283 
	C406.742371,288.632812 406.939056,288.318604 407.071167,288.004517 
	C407.006592,288.004608 407.007355,288.133759 407.276611,288.040344 
	C407.742523,287.632782 407.939178,287.318634 408.071289,287.004578 
	C408.006714,287.004730 408.007599,287.133850 408.276794,287.040344 
	C408.742615,286.632751 408.939240,286.318604 409.071289,286.004639 
	C409.006683,286.004822 409.007660,286.133972 409.276825,286.040405 
	C409.742615,285.632721 409.939209,285.318573 410.071259,285.004639 
	C410.006683,285.004822 410.007690,285.134003 410.276855,285.040405 
	C410.742615,284.632721 410.939240,284.318573 411.071259,284.004639 
	C411.006683,284.004822 411.007690,284.134003 411.276855,284.040405 
	C411.742615,283.632690 411.939209,283.318573 412.071228,283.004639 
	C412.006683,283.004822 412.007690,283.134003 412.276855,283.040405 
	C412.742645,282.632721 412.939240,282.318604 413.071259,282.004639 
	C413.006683,282.004822 413.007690,282.133972 413.276855,282.040405 
	C413.742584,281.632721 413.939209,281.318542 414.071228,281.004578 
	C414.006622,281.004761 414.007660,281.133911 414.276855,281.040375 
	C414.742615,280.632629 414.939148,280.318451 415.071106,280.004425 
	C415.006500,280.004608 415.007507,280.133789 415.276764,280.040344 
	C415.742523,279.632629 415.939056,279.318390 416.070984,279.004333 
	C416.006409,279.004517 416.007355,279.133698 416.276886,279.040100 
	C416.741516,278.631317 416.936615,278.316071 417.067444,278.002319 
	C417.003204,278.003754 417.006531,278.132233 417.276459,278.039734 
	C417.737793,277.630890 417.929230,277.314545 418.059723,277.000366 
	C417.998810,277.002594 418.003662,277.124390 418.274689,277.036316 
	C418.735443,276.631927 418.925140,276.315643 419.057556,275.999939 
	C419.000244,276.000519 419.001587,276.115112 419.273651,276.031219 
	C419.735382,275.631439 419.925049,275.315521 420.057556,275.000092 
	C420.000397,275.000580 420.001556,275.114868 420.273621,275.031097 
	C420.735291,274.631439 420.924896,274.315552 421.057495,274.000061 
	C421.000488,274.000427 421.001587,274.114471 421.273682,274.030884 
	C421.735321,273.631439 421.924896,273.315582 422.057495,273.000031 
	C422.000519,273.000336 422.001495,273.114288 422.273621,273.030792 
	C422.735321,272.631439 422.924896,272.315582 423.057556,272.000061 
	C423.000580,272.000397 423.001495,272.114288 423.273621,272.030762 
	C423.735382,271.631409 423.924957,271.315552 424.057556,271.000031 
	C424.000519,271.000366 424.001495,271.114410 424.273621,271.030823 
	C424.735443,270.631409 424.925079,270.315552 425.057617,270.000061 
	C425.000488,270.000488 425.001495,270.114685 425.273621,270.031006 
	C425.735565,269.631470 425.925354,269.315582 426.057800,269.000031 
	C426.000488,269.000366 426.001526,269.114990 426.273621,269.031158 
	C426.735626,268.631439 426.925476,268.315552 427.057922,268.000000 
	C427.000519,268.000336 427.001556,268.115143 427.273651,268.031250 
	C427.735657,267.631439 427.925537,267.315582 428.057983,267.000061 
	C428.000549,267.000458 428.001556,267.115295 428.273682,267.031311 
	C428.735687,266.631470 428.925598,266.315582 429.058044,266.000061 
	C429.000610,266.000458 429.001587,266.115295 429.273682,266.031342 
	C429.735657,265.631500 429.925568,265.315582 430.058014,265.000031 
	C430.000549,265.000366 430.001556,265.115326 430.273682,265.031372 
	C430.735687,264.631500 430.925598,264.315582 431.058044,264.000061 
	C431.000580,264.000427 431.001556,264.115326 431.273651,264.031372 
	C431.735657,263.631470 431.925568,263.315582 432.058044,263.000061 
	C432.000580,263.000427 432.001556,263.115326 432.273682,263.031372 
	C432.735687,262.631500 432.925598,262.315582 433.058044,262.000000 
	C433.000549,262.000366 433.001556,262.115295 433.273651,262.031342 
	C433.735657,261.631500 433.925568,261.315582 434.058014,261.000031 
	C434.000549,261.000397 434.001587,261.115295 434.273682,261.031311 
	C434.735596,260.631470 434.925415,260.315552 435.057861,260.000000 
	C435.000488,260.000366 435.001587,260.115112 435.273621,260.031189 
	C435.735260,259.631409 435.924896,259.315521 436.057465,259.000061 
	C436.000397,259.000458 436.001587,259.114624 436.273560,259.030884 
	C436.734863,258.631317 436.924164,258.315460 437.056915,258.000153 
	C437.000366,258.000702 437.001648,258.113770 437.273438,258.030365 
	C437.733246,257.631073 437.921204,257.315216 438.054321,256.998871 
	C437.999512,256.998413 437.998230,257.108063 438.271149,257.026855 
	C438.750671,256.636932 438.957306,256.328278 439.427551,255.935059 
	C440.137421,255.283203 440.583710,254.715897 441.325684,254.009735 
	C441.799683,253.255066 441.977966,252.639221 442.468445,251.899490 
	C453.612457,239.365616 460.890930,225.313522 464.153229,208.988434 
	C468.115509,189.160248 466.420868,170.024719 458.729584,151.465225 
	C455.976929,144.822922 452.253448,138.582947 449.292358,132.033142 
	C469.274933,112.256607 488.933685,92.601830 508.610840,72.965446 
	C510.004791,71.574371 511.533783,70.318657 513.000000,69.000000 
M101.293610,111.962692 
	C111.729393,110.131660 116.409866,95.762123 109.060654,87.337624 
	C104.503700,82.113914 99.501648,77.136833 94.056770,72.868874 
	C88.509903,68.520973 79.723206,69.658043 74.898239,74.699379 
	C70.479019,79.316765 67.776817,87.434578 72.761543,93.839676 
	C77.496292,99.923569 83.173256,105.492004 89.280502,110.188896 
	C91.937981,112.232689 96.706894,111.531052 101.293610,111.962692 
M36.996243,187.489227 
	C40.726204,188.992111 44.346699,191.254547 48.212948,191.811768 
	C53.420456,192.562271 58.817600,192.033035 64.132874,191.991486 
	C72.752716,191.924118 79.760735,185.123611 79.945244,176.703171 
	C80.122330,168.621002 72.822296,161.208435 64.379150,161.022949 
	C59.564190,160.917145 54.744236,160.945221 49.927982,161.014191 
	C43.429031,161.107239 37.567451,162.922501 34.630314,169.218842 
	C31.798553,175.289276 31.915863,181.451202 36.996243,187.489227 
M161.000000,51.660614 
	C161.000137,55.488747 161.117615,59.321182 160.977615,63.144180 
	C160.609329,73.201836 168.562881,79.680588 176.583557,79.807487 
	C186.405594,79.962891 192.897202,70.705505 192.102798,63.199337 
	C191.562790,58.096657 192.092209,52.888630 191.969757,47.731834 
	C191.833939,42.011600 189.491226,37.487709 184.299255,34.678490 
	C172.871033,28.495033 161.176086,36.541477 161.000000,51.660614 
M332.421631,480.607056 
	C344.522736,482.115204 352.042725,477.163330 352.866913,466.657318 
	C353.320374,460.877411 353.284973,455.007080 352.859222,449.222443 
	C352.219971,440.537140 344.983643,433.816895 337.191254,434.077911 
	C328.502014,434.368958 322.039246,441.352814 322.003479,450.514801 
	C321.984680,455.334106 322.045837,460.154083 321.989929,464.972809 
	C321.906158,472.193573 324.866394,477.447632 332.421631,480.607056 
M469.416107,352.331909 
	C478.634338,349.023071 482.545685,342.609222 480.869232,333.550995 
	C479.563171,326.494110 473.244049,322.036957 464.459900,322.003693 
	C459.475616,321.984833 454.490570,321.951630 449.506989,322.012817 
	C441.536987,322.110626 435.352264,327.877441 434.187408,336.208252 
	C433.276886,342.720398 438.722717,351.015625 445.848297,351.971588 
	C453.331116,352.975525 461.018158,352.456665 469.416107,352.331909 
M407.175537,404.524292 
	C401.365143,410.142517 399.341461,419.629059 403.688751,424.781433 
	C408.582581,430.581543 414.009430,436.028046 419.764496,440.977081 
	C425.021423,445.497711 435.088074,443.971191 439.718628,438.727203 
	C444.711853,433.072479 444.714569,423.554108 439.751617,418.247070 
	C437.371429,415.701874 434.988464,413.156189 432.694763,410.533722 
	C424.492340,401.155426 417.504639,399.336914 407.175537,404.524292 
z"/>
<path fill="#60C7FF" opacity="1.000000" stroke="none" 
	d="
M0.999997,445.466125 
	C2.697351,443.472809 4.467303,442.018341 6.081003,440.407349 
	C25.696281,420.825043 45.288589,401.219788 65.318512,381.458740 
	C76.527054,392.532410 87.303940,403.767792 99.289299,416.263092 
	C100.942184,413.827850 101.838127,411.936188 103.230789,410.539948 
	C136.370193,377.313416 169.549377,344.126495 202.772537,310.983704 
	C205.334747,308.427673 208.274780,306.250336 211.039200,303.897003 
	C212.361694,304.752869 213.873611,305.415649 214.975235,306.496613 
	C221.095352,312.501923 227.115829,318.608795 233.543549,325.201996 
	C234.406265,326.389435 234.819275,327.132172 235.396652,327.710938 
	C249.154358,341.501953 262.920044,355.285095 276.723755,369.029999 
	C277.637939,369.940338 278.866211,370.535248 279.948425,371.276855 
	C283.210449,374.582153 286.460876,377.898987 289.736969,381.190308 
	C296.770782,388.256775 296.989105,398.380981 289.990021,405.485901 
	C278.669220,416.977905 267.508148,428.653442 255.723404,439.655701 
	C241.117554,453.291687 224.030777,462.316132 203.908829,465.031677 
	C179.109650,468.378448 155.984879,464.342041 135.054001,450.045380 
	C134.398178,449.597412 133.610809,449.342041 132.448288,448.647583 
	C122.213173,438.627289 112.280586,429.086426 102.691101,419.212311 
	C99.481476,415.907440 97.566277,415.945923 94.339394,419.213654 
	C73.421547,440.396149 52.301491,461.378845 31.265846,482.445160 
	C30.099236,483.613495 29.094307,484.943237 27.702671,486.047363 
	C20.042763,478.551147 12.706501,471.193115 5.334976,463.870544 
	C3.962581,462.507294 2.448604,461.286560 0.999994,460.000000 
	C1.000000,455.310760 1.000000,450.621490 0.999997,445.466125 
z"/>
<path fill="#2686FD" opacity="1.000000" stroke="none" 
	d="
M513.000000,68.533882 
	C511.533783,70.318657 510.004791,71.574371 508.610840,72.965446 
	C488.933685,92.601830 469.274933,112.256607 448.956909,131.958710 
	C441.676819,125.257774 435.117645,118.438393 428.401794,111.776993 
	C424.288086,107.696594 419.934021,103.858551 415.651550,99.643761 
	C415.542328,99.023102 415.469452,98.670364 415.666931,98.061661 
	C438.340485,75.384506 460.740540,52.960194 483.158112,30.553322 
	C484.088287,29.623602 485.182037,28.857500 486.499542,28.134701 
	C494.071747,35.524017 501.332642,42.805305 508.626373,50.053513 
	C510.017609,51.436062 511.538788,52.687874 513.000000,54.000000 
	C513.000000,58.689255 513.000000,63.378510 513.000000,68.533882 
z"/>
<path fill="#2686FD" opacity="1.000000" stroke="none" 
	d="
M28.014126,486.197845 
	C29.094307,484.943237 30.099236,483.613495 31.265846,482.445160 
	C52.301491,461.378845 73.421547,440.396149 94.339394,419.213654 
	C97.566277,415.945923 99.481476,415.907440 102.691101,419.212311 
	C112.280586,429.086426 122.213173,438.627289 132.090057,448.632751 
	C115.439240,465.830505 98.737091,482.720703 81.962837,499.539001 
	C77.544586,503.968872 72.903358,508.176361 68.682259,512.742981 
	C64.310745,513.000000 59.621487,513.000000 54.783924,512.742920 
	C45.761787,503.723175 36.887959,494.960510 28.014126,486.197845 
z"/>
<path fill="#60C7FF" opacity="1.000000" stroke="none" 
	d="
M486.199615,28.015190 
	C485.182037,28.857500 484.088287,29.623602 483.158112,30.553322 
	C460.740540,52.960194 438.340485,75.384506 415.403168,97.903000 
	C403.576202,87.055473 392.283386,76.110634 380.990540,65.165787 
	C398.829224,47.442036 416.652100,29.702360 434.519684,12.007818 
	C438.144348,8.418269 441.937714,4.999080 445.326660,1.250681 
	C449.689240,1.000000 454.378510,1.000000 459.207275,1.250693 
	C468.297729,10.339321 477.248688,19.177256 486.199615,28.015190 
z"/>
<path fill="#000000" opacity="1.000000" stroke="none" 
	d="
M27.702675,486.047363 
	C36.887959,494.960510 45.761787,503.723175 54.317810,512.742920 
	C36.406567,513.000000 18.813131,513.000000 1.000000,513.000000 
	C1.000000,495.646393 1.000000,478.291840 0.999994,460.468658 
	C2.448604,461.286560 3.962581,462.507294 5.334976,463.870544 
	C12.706501,471.193115 20.042763,478.551147 27.702675,486.047363 
z"/>
<path fill="#000000" opacity="1.000000" stroke="none" 
	d="
M486.499542,28.134705 
	C477.248688,19.177256 468.297729,10.339321 459.673401,1.250693 
	C477.593445,1.000000 495.186890,1.000000 513.000000,1.000000 
	C513.000000,18.353611 513.000000,35.708145 513.000000,53.531342 
	C511.538788,52.687874 510.017609,51.436062 508.626373,50.053513 
	C501.332642,42.805305 494.071747,35.524017 486.499542,28.134705 
z"/>
<path fill="#B4EBFF" opacity="1.000000" stroke="none" 
	d="
M380.664490,65.015808 
	C392.283386,76.110634 403.576202,87.055473 415.132812,98.158974 
	C415.469452,98.670364 415.542328,99.023102 415.328613,99.671135 
	C413.410400,101.361282 411.678741,102.655647 410.161804,104.165726 
	C374.391205,139.774948 338.643707,175.407440 302.891998,211.035645 
	C296.613617,204.875946 290.290375,198.761185 284.065125,192.548279 
	C264.038757,172.561737 244.045517,152.542007 224.046097,132.528488 
	C217.318771,125.796394 216.927643,115.788681 223.550385,109.008354 
	C235.178223,97.103851 246.677948,85.033638 258.912292,73.772659 
	C273.312561,60.518082 290.137085,51.655312 309.888184,48.967670 
	C335.387482,45.497833 359.037781,49.892170 380.664490,65.015808 
z"/>
<path fill="#60C7FF" opacity="1.000000" stroke="none" 
	d="
M303.021637,211.351257 
	C338.643707,175.407440 374.391205,139.774948 410.161804,104.165726 
	C411.678741,102.655647 413.410400,101.361282 415.364960,99.939056 
	C419.934021,103.858551 424.288086,107.696594 428.401794,111.776993 
	C435.117645,118.438393 441.676819,125.257774 448.637573,132.084930 
	C452.253448,138.582947 455.976929,144.822922 458.729584,151.465225 
	C466.420868,170.024719 468.115509,189.160248 464.153229,208.988434 
	C460.890930,225.313522 453.612457,239.365616 442.231262,252.103592 
	C441.464569,253.003906 441.247253,253.576248 441.029968,254.148590 
	C440.583710,254.715897 440.137421,255.283203 439.197296,256.075623 
	C438.468384,256.569824 438.233307,256.838959 437.998230,257.108063 
	C437.998230,257.108063 437.999512,256.998413 437.835419,257.148376 
	C437.448090,257.570160 437.224884,257.841980 437.001648,258.113770 
	C437.001648,258.113770 437.000366,258.000702 436.837219,258.149719 
	C436.449951,258.570709 436.225769,258.842682 436.001587,259.114624 
	C436.001587,259.114624 436.000397,259.000458 435.837616,259.149689 
	C435.450409,259.570984 435.225983,259.843048 435.001587,260.115112 
	C435.001587,260.115112 435.000488,260.000366 434.837860,260.149658 
	C434.450684,260.571075 434.226135,260.843201 434.001587,261.115295 
	C434.001587,261.115295 434.000549,261.000397 433.837952,261.149719 
	C433.450775,261.571136 433.226166,261.843201 433.001556,262.115295 
	C433.001556,262.115295 433.000549,262.000366 432.837982,262.149689 
	C432.450806,262.571136 432.226196,262.843231 432.001556,263.115326 
	C432.001556,263.115326 432.000580,263.000427 431.838013,263.149719 
	C431.450775,263.571106 431.226166,263.843201 431.001556,264.115326 
	C431.001556,264.115326 431.000580,264.000427 430.838013,264.149719 
	C430.450806,264.571136 430.226196,264.843231 430.001556,265.115326 
	C430.001556,265.115326 430.000549,265.000366 429.837982,265.149658 
	C429.450806,265.571075 429.226196,265.843170 429.001587,266.115295 
	C429.001587,266.115295 429.000610,266.000458 428.838013,266.149719 
	C428.450836,266.571106 428.226196,266.843201 428.001556,267.115295 
	C428.001556,267.115295 428.000549,267.000458 427.837952,267.149719 
	C427.450775,267.571014 427.226166,267.843079 427.001556,268.115143 
	C427.001556,268.115143 427.000519,268.000336 426.837891,268.149597 
	C426.450684,268.570923 426.226105,268.842957 426.001526,269.114990 
	C426.001526,269.114990 426.000488,269.000366 425.837799,269.149597 
	C425.450592,269.570770 425.226044,269.842743 425.001495,270.114685 
	C425.001495,270.114685 425.000488,270.000488 424.837738,270.149628 
	C424.450470,270.570648 424.225983,270.842529 424.001495,271.114410 
	C424.001495,271.114410 424.000519,271.000366 423.837708,271.149536 
	C423.450409,271.570587 423.225952,271.842438 423.001526,272.114288 
	C423.001495,272.114288 423.000580,272.000397 422.837646,272.149536 
	C422.450348,272.570557 422.225922,272.842438 422.001495,273.114288 
	C422.001495,273.114288 422.000519,273.000336 421.837585,273.149506 
	C421.450317,273.570618 421.225952,273.842529 421.001587,274.114471 
	C421.001587,274.114471 421.000488,274.000427 420.837646,274.149597 
	C420.450378,274.570831 420.225983,274.842834 420.001556,275.114868 
	C420.001556,275.114868 420.000397,275.000580 419.837708,275.149780 
	C419.450531,275.571014 419.226044,275.843079 419.001587,276.115112 
	C419.001587,276.115112 419.000244,276.000519 418.837402,276.150757 
	C418.450958,276.575470 418.227295,276.849915 418.003662,277.124390 
	C418.003662,277.124390 417.998810,277.002594 417.840759,277.154846 
	C417.457306,277.582153 417.231934,277.857178 417.006531,278.132233 
	C417.006531,278.132233 417.003204,278.003754 416.847656,278.157593 
	C416.463898,278.585541 416.235626,278.859619 416.007355,279.133698 
	C416.007355,279.133698 416.006409,279.004517 415.850250,279.158630 
	C415.465240,279.586456 415.236389,279.860138 415.007507,280.133789 
	C415.007507,280.133789 415.006500,280.004608 414.850433,280.158813 
	C414.465454,280.586639 414.236572,280.860291 414.007660,281.133911 
	C414.007660,281.133911 414.006622,281.004761 413.850586,281.158966 
	C413.465576,281.586792 413.236633,281.860382 413.007690,282.133972 
	C413.007690,282.133972 413.006683,282.004822 412.850586,282.158997 
	C412.465576,282.586792 412.236633,282.860413 412.007690,283.134003 
	C412.007690,283.134003 412.006683,283.004822 411.850586,283.158997 
	C411.465576,283.586792 411.236633,283.860382 411.007690,284.134003 
	C411.007690,284.134003 411.006683,284.004822 410.850586,284.158997 
	C410.465576,284.586792 410.236633,284.860382 410.007690,285.134003 
	C410.007690,285.134003 410.006683,285.004822 409.850616,285.158997 
	C409.465576,285.586792 409.236633,285.860382 409.007690,286.133972 
	C409.007660,286.133972 409.006683,286.004822 408.850616,286.158997 
	C408.465576,286.586761 408.236603,286.860321 408.007629,287.133850 
	C408.007599,287.133850 408.006714,287.004730 407.850586,287.158905 
	C407.465393,287.586639 407.236389,287.860199 407.007385,288.133759 
	C407.007355,288.133759 407.006592,288.004608 406.850342,288.158691 
	C406.465027,288.586395 406.235992,288.859985 406.006958,289.133575 
	C406.006958,289.133575 406.004486,289.002686 405.849182,289.161743 
	C405.470856,289.604034 405.247803,289.887238 405.024780,290.170471 
	C405.035706,290.497711 404.901855,290.747345 404.169434,291.067078 
	C403.451843,291.429840 403.188080,291.644928 402.924316,291.859985 
	C396.873657,296.681702 387.655670,296.189819 382.074951,290.614502 
	C355.750275,264.315430 329.456238,237.985687 303.021637,211.351257 
z"/>
<path fill="#B4EBFF" opacity="1.000000" stroke="none" 
	d="
M211.019226,303.550415 
	C208.274780,306.250336 205.334747,308.427673 202.772537,310.983704 
	C169.549377,344.126495 136.370193,377.313416 103.230789,410.539948 
	C101.838127,411.936188 100.942184,413.827850 99.289299,416.263092 
	C87.303940,403.767792 76.527054,392.532410 65.458382,381.146606 
	C57.780857,370.103088 52.303185,358.418915 49.720982,345.403107 
	C47.129120,332.338562 47.045322,319.255157 49.430779,306.244690 
	C52.051563,291.950684 57.871681,278.942780 66.920654,267.473175 
	C69.439926,264.279999 71.750984,260.874573 74.585617,257.986664 
	C85.666183,246.697815 96.900345,235.559341 108.112778,224.400497 
	C115.693626,216.855896 125.461411,216.953766 133.088882,224.582413 
	C136.145096,227.639084 139.191711,230.705353 142.645691,234.191833 
	C143.580154,235.439926 143.985260,236.389313 144.661743,237.068375 
	C158.321854,250.780655 172.000534,264.474579 185.727234,278.120148 
	C186.620148,279.007782 187.930130,279.475861 189.046112,280.139099 
	C195.357712,286.586334 201.684723,293.018646 207.966446,299.494873 
	C209.074371,300.637085 209.993118,301.962830 211.019226,303.550415 
z"/>
<path fill="#E1EEFF" opacity="1.000000" stroke="none" 
	d="
M280.258484,371.105377 
	C278.866211,370.535248 277.637939,369.940338 276.723755,369.029999 
	C262.920044,355.285095 249.154358,341.501953 235.396652,327.710938 
	C234.819275,327.132172 234.406265,326.389435 233.798111,325.399353 
	C249.152283,309.511017 264.208130,293.499268 280.247833,278.542633 
	C290.541229,268.944336 303.675690,268.014496 316.087524,273.876129 
	C327.465851,279.249664 333.725861,288.920654 334.121063,302.188721 
	C334.435364,312.742828 330.401703,321.050873 323.249542,328.232544 
	C309.048431,342.492126 294.798370,356.702911 280.258484,371.105377 
z"/>
<path fill="#F3F9FF" opacity="1.000000" stroke="none" 
	d="
M189.360077,280.000366 
	C187.930130,279.475861 186.620148,279.007782 185.727234,278.120148 
	C172.000534,264.474579 158.321854,250.780655 144.661743,237.068375 
	C143.985260,236.389313 143.580154,235.439926 142.963318,234.279587 
	C157.985245,218.721146 172.583786,202.947220 188.341995,188.432251 
	C204.306168,173.727570 228.566589,177.506683 239.695053,196.621826 
	C245.868851,207.226440 244.846024,224.670792 234.489929,235.025223 
	C219.546707,249.966110 204.612244,264.915771 189.360077,280.000366 
z"/>
<path fill="#142D3F" opacity="1.000000" stroke="none" 
	d="
M100.905228,112.019501 
	C96.706894,111.531052 91.937981,112.232689 89.280502,110.188896 
	C83.173256,105.492004 77.496292,99.923569 72.761543,93.839676 
	C67.776817,87.434578 70.479019,79.316765 74.898239,74.699379 
	C79.723206,69.658043 88.509903,68.520973 94.056770,72.868874 
	C99.501648,77.136833 104.503700,82.113914 109.060654,87.337624 
	C116.409866,95.762123 111.729393,110.131660 100.905228,112.019501 
z"/>
<path fill="#142D3F" opacity="1.000000" stroke="none" 
	d="
M36.732857,187.220520 
	C31.915863,181.451202 31.798553,175.289276 34.630314,169.218842 
	C37.567451,162.922501 43.429031,161.107239 49.927982,161.014191 
	C54.744236,160.945221 59.564190,160.917145 64.379150,161.022949 
	C72.822296,161.208435 80.122330,168.621002 79.945244,176.703171 
	C79.760735,185.123611 72.752716,191.924118 64.132874,191.991486 
	C58.817600,192.033035 53.420456,192.562271 48.212948,191.811768 
	C44.346699,191.254547 40.726204,188.992111 36.732857,187.220520 
z"/>
<path fill="#142D3F" opacity="1.000000" stroke="none" 
	d="
M161.000000,51.188156 
	C161.176086,36.541477 172.871033,28.495033 184.299255,34.678490 
	C189.491226,37.487709 191.833939,42.011600 191.969757,47.731834 
	C192.092209,52.888630 191.562790,58.096657 192.102798,63.199337 
	C192.897202,70.705505 186.405594,79.962891 176.583557,79.807487 
	C168.562881,79.680588 160.609329,73.201836 160.977615,63.144180 
	C161.117615,59.321182 161.000137,55.488747 161.000000,51.188156 
z"/>
<path fill="#070F15" opacity="1.000000" stroke="none" 
	d="
M332.045807,480.451477 
	C324.866394,477.447632 321.906158,472.193573 321.989929,464.972809 
	C322.045837,460.154083 321.984680,455.334106 322.003479,450.514801 
	C322.039246,441.352814 328.502014,434.368958 337.191254,434.077911 
	C344.983643,433.816895 352.219971,440.537140 352.859222,449.222443 
	C353.284973,455.007080 353.320374,460.877411 352.866913,466.657318 
	C352.042725,477.163330 344.522736,482.115204 332.045807,480.451477 
z"/>
<path fill="#070F15" opacity="1.000000" stroke="none" 
	d="
M469.016052,352.467590 
	C461.018158,352.456665 453.331116,352.975525 445.848297,351.971588 
	C438.722717,351.015625 433.276886,342.720398 434.187408,336.208252 
	C435.352264,327.877441 441.536987,322.110626 449.506989,322.012817 
	C454.490570,321.951630 459.475616,321.984833 464.459900,322.003693 
	C473.244049,322.036957 479.563171,326.494110 480.869232,333.550995 
	C482.545685,342.609222 478.634338,349.023071 469.016052,352.467590 
z"/>
<path fill="#070F15" opacity="1.000000" stroke="none" 
	d="
M407.494324,404.325317 
	C417.504639,399.336914 424.492340,401.155426 432.694763,410.533722 
	C434.988464,413.156189 437.371429,415.701874 439.751617,418.247070 
	C444.714569,423.554108 444.711853,433.072479 439.718628,438.727203 
	C435.088074,443.971191 425.021423,445.497711 419.764496,440.977081 
	C414.009430,436.028046 408.582581,430.581543 403.688751,424.781433 
	C399.341461,419.629059 401.365143,410.142517 407.494324,404.325317 
z"/>
<path fill="#7ED0FF" opacity="1.000000" stroke="none" 
	d="
M441.325684,254.009735 
	C441.247253,253.576248 441.464569,253.003906 441.919067,252.227478 
	C441.977966,252.639221 441.799683,253.255066 441.325684,254.009735 
z"/>
<path fill="#7ED0FF" opacity="1.000000" stroke="none" 
	d="
M417.276459,278.039734 
	C417.231934,277.857178 417.457306,277.582153 417.901672,277.152649 
	C417.929230,277.314545 417.737793,277.630890 417.276459,278.039734 
z"/>
<path fill="#7ED0FF" opacity="1.000000" stroke="none" 
	d="
M419.273651,276.031219 
	C419.226044,275.843079 419.450531,275.571014 419.894867,275.149292 
	C419.925049,275.315521 419.735382,275.631439 419.273651,276.031219 
z"/>
<path fill="#7ED0FF" opacity="1.000000" stroke="none" 
	d="
M416.276886,279.040100 
	C416.235626,278.859619 416.463898,278.585541 416.911926,278.156128 
	C416.936615,278.316071 416.741516,278.631317 416.276886,279.040100 
z"/>
<path fill="#7ED0FF" opacity="1.000000" stroke="none" 
	d="
M415.276764,280.040344 
	C415.236389,279.860138 415.465240,279.586456 415.914825,279.158447 
	C415.939056,279.318390 415.742523,279.632629 415.276764,280.040344 
z"/>
<path fill="#7ED0FF" opacity="1.000000" stroke="none" 
	d="
M414.276855,281.040375 
	C414.236572,280.860291 414.465454,280.586639 414.915039,280.158630 
	C414.939148,280.318451 414.742615,280.632629 414.276855,281.040375 
z"/>
<path fill="#7ED0FF" opacity="1.000000" stroke="none" 
	d="
M413.276855,282.040405 
	C413.236633,281.860382 413.465576,281.586792 413.915161,281.158783 
	C413.939209,281.318542 413.742584,281.632721 413.276855,282.040405 
z"/>
<path fill="#7ED0FF" opacity="1.000000" stroke="none" 
	d="
M412.276855,283.040405 
	C412.236633,282.860413 412.465576,282.586792 412.915161,282.158813 
	C412.939240,282.318604 412.742645,282.632721 412.276855,283.040405 
z"/>
<path fill="#7ED0FF" opacity="1.000000" stroke="none" 
	d="
M411.276855,284.040405 
	C411.236633,283.860382 411.465576,283.586792 411.915161,283.158813 
	C411.939209,283.318573 411.742615,283.632690 411.276855,284.040405 
z"/>
<path fill="#7ED0FF" opacity="1.000000" stroke="none" 
	d="
M410.276855,285.040405 
	C410.236633,284.860382 410.465576,284.586792 410.915161,284.158813 
	C410.939240,284.318573 410.742615,284.632721 410.276855,285.040405 
z"/>
<path fill="#7ED0FF" opacity="1.000000" stroke="none" 
	d="
M409.276855,286.040405 
	C409.236633,285.860382 409.465576,285.586792 409.915192,285.158813 
	C409.939209,285.318573 409.742615,285.632721 409.276855,286.040405 
z"/>
<path fill="#7ED0FF" opacity="1.000000" stroke="none" 
	d="
M408.276794,287.040375 
	C408.236603,286.860321 408.465576,286.586761 408.915222,286.158813 
	C408.939240,286.318604 408.742615,286.632751 408.276794,287.040375 
z"/>
<path fill="#7ED0FF" opacity="1.000000" stroke="none" 
	d="
M407.276611,288.040344 
	C407.236389,287.860199 407.465393,287.586639 407.915131,287.158752 
	C407.939178,287.318634 407.742523,287.632782 407.276611,288.040344 
z"/>
<path fill="#7ED0FF" opacity="1.000000" stroke="none" 
	d="
M406.276306,289.040283 
	C406.235992,288.859985 406.465027,288.586395 406.914917,288.158600 
	C406.939056,288.318604 406.742371,288.632812 406.276306,289.040283 
z"/>
<path fill="#7ED0FF" opacity="1.000000" stroke="none" 
	d="
M405.287292,290.059631 
	C405.247803,289.887238 405.470856,289.604034 405.914642,289.160706 
	C405.940216,289.316650 405.745026,289.632721 405.287292,290.059631 
z"/>
<path fill="#7ED0FF" opacity="1.000000" stroke="none" 
	d="
M403.217896,291.908875 
	C403.188080,291.644928 403.451843,291.429840 403.954010,291.117249 
	C403.965454,291.332367 403.738495,291.645050 403.217896,291.908875 
z"/>
<path fill="#7ED0FF" opacity="1.000000" stroke="none" 
	d="
M429.273682,266.031342 
	C429.226196,265.843170 429.450806,265.571075 429.895447,265.149353 
	C429.925568,265.315582 429.735657,265.631500 429.273682,266.031342 
z"/>
<path fill="#7ED0FF" opacity="1.000000" stroke="none" 
	d="
M438.271149,257.026855 
	C438.233307,256.838959 438.468384,256.569824 438.933716,256.160156 
	C438.957306,256.328278 438.750671,256.636932 438.271149,257.026855 
z"/>
<path fill="#7ED0FF" opacity="1.000000" stroke="none" 
	d="
M437.273438,258.030365 
	C437.224884,257.841980 437.448090,257.570160 437.890259,257.148865 
	C437.921204,257.315216 437.733246,257.631073 437.273438,258.030365 
z"/>
<path fill="#7ED0FF" opacity="1.000000" stroke="none" 
	d="
M436.273560,259.030884 
	C436.225769,258.842682 436.449951,258.570709 436.893799,258.149170 
	C436.924164,258.315460 436.734863,258.631317 436.273560,259.030884 
z"/>
<path fill="#7ED0FF" opacity="1.000000" stroke="none" 
	d="
M435.273621,260.031189 
	C435.225983,259.843048 435.450409,259.570984 435.894684,259.149292 
	C435.924896,259.315521 435.735260,259.631409 435.273621,260.031189 
z"/>
<path fill="#7ED0FF" opacity="1.000000" stroke="none" 
	d="
M434.273682,261.031311 
	C434.226135,260.843201 434.450684,260.571075 434.895233,260.149292 
	C434.925415,260.315552 434.735596,260.631470 434.273682,261.031311 
z"/>
<path fill="#7ED0FF" opacity="1.000000" stroke="none" 
	d="
M433.273651,262.031342 
	C433.226166,261.843201 433.450775,261.571136 433.895447,261.149353 
	C433.925568,261.315582 433.735657,261.631500 433.273651,262.031342 
z"/>
<path fill="#7ED0FF" opacity="1.000000" stroke="none" 
	d="
M432.273682,263.031372 
	C432.226196,262.843231 432.450806,262.571136 432.895447,262.149353 
	C432.925598,262.315582 432.735687,262.631500 432.273682,263.031372 
z"/>
<path fill="#7ED0FF" opacity="1.000000" stroke="none" 
	d="
M431.273651,264.031372 
	C431.226166,263.843201 431.450775,263.571106 431.895447,263.149353 
	C431.925568,263.315582 431.735657,263.631470 431.273651,264.031372 
z"/>
<path fill="#7ED0FF" opacity="1.000000" stroke="none" 
	d="
M430.273682,265.031372 
	C430.226196,264.843231 430.450806,264.571136 430.895447,264.149353 
	C430.925598,264.315582 430.735687,264.631500 430.273682,265.031372 
z"/>
<path fill="#7ED0FF" opacity="1.000000" stroke="none" 
	d="
M418.274689,277.036316 
	C418.227295,276.849915 418.450958,276.575470 418.894714,276.150177 
	C418.925140,276.315643 418.735443,276.631927 418.274689,277.036316 
z"/>
<path fill="#7ED0FF" opacity="1.000000" stroke="none" 
	d="
M428.273682,267.031311 
	C428.226196,266.843201 428.450836,266.571106 428.895477,266.149353 
	C428.925598,266.315582 428.735687,266.631470 428.273682,267.031311 
z"/>
<path fill="#7ED0FF" opacity="1.000000" stroke="none" 
	d="
M427.273651,268.031250 
	C427.226166,267.843079 427.450775,267.571014 427.895386,267.149323 
	C427.925537,267.315582 427.735657,267.631439 427.273651,268.031250 
z"/>
<path fill="#7ED0FF" opacity="1.000000" stroke="none" 
	d="
M426.273621,269.031158 
	C426.226105,268.842957 426.450684,268.570923 426.895294,268.149292 
	C426.925476,268.315552 426.735626,268.631439 426.273621,269.031158 
z"/>
<path fill="#7ED0FF" opacity="1.000000" stroke="none" 
	d="
M425.273621,270.031006 
	C425.226044,269.842743 425.450592,269.570770 425.895142,269.149231 
	C425.925354,269.315582 425.735565,269.631470 425.273621,270.031006 
z"/>
<path fill="#7ED0FF" opacity="1.000000" stroke="none" 
	d="
M424.273621,271.030823 
	C424.225983,270.842529 424.450470,270.570648 424.894836,270.149231 
	C424.925079,270.315552 424.735443,270.631409 424.273621,271.030823 
z"/>
<path fill="#7ED0FF" opacity="1.000000" stroke="none" 
	d="
M423.273651,272.030762 
	C423.225952,271.842438 423.450409,271.570587 423.894714,271.149200 
	C423.924957,271.315552 423.735382,271.631409 423.273651,272.030762 
z"/>
<path fill="#7ED0FF" opacity="1.000000" stroke="none" 
	d="
M422.273621,273.030792 
	C422.225922,272.842438 422.450348,272.570557 422.894623,272.149200 
	C422.924896,272.315582 422.735321,272.631439 422.273621,273.030792 
z"/>
<path fill="#7ED0FF" opacity="1.000000" stroke="none" 
	d="
M421.273682,274.030884 
	C421.225952,273.842529 421.450317,273.570618 421.894592,273.149200 
	C421.924896,273.315582 421.735321,273.631439 421.273682,274.030884 
z"/>
<path fill="#7ED0FF" opacity="1.000000" stroke="none" 
	d="
M420.273621,275.031097 
	C420.225983,274.842834 420.450378,274.570831 420.894653,274.149231 
	C420.924896,274.315552 420.735291,274.631439 420.273621,275.031097 
z"/>
</svg>