<svg version="1.1" id="Layer_1" xmlns="http://www.w3.org/2000/svg" xmlns:xlink="http://www.w3.org/1999/xlink" x="0px" y="0px"
	 width="100%" viewBox="0 0 512 512" enable-background="new 0 0 512 512" xml:space="preserve">
<path fill="#FFFFFF" opacity="1.000000" stroke="none" 
	d="
M1.000000,193.000000 
	C1.000000,128.666672 1.000000,64.833336 1.000000,1.000000 
	C171.666672,1.000000 342.333344,1.000000 513.000000,1.000000 
	C513.000000,171.666672 513.000000,342.333344 513.000000,513.000000 
	C342.333344,513.000000 171.666672,513.000000 1.000000,513.000000 
	C1.000000,406.500000 1.000000,300.000000 1.000000,193.000000 
M25.026997,230.178329 
	C25.329790,231.809586 25.720736,233.430038 25.922195,235.073715 
	C29.080877,260.844940 40.021931,283.180603 57.047619,302.365997 
	C79.309372,327.451660 107.755890,341.083801 140.939499,344.882782 
	C144.323059,345.270142 145.096115,346.559418 145.040588,349.559326 
	C144.914185,356.389496 145.460281,363.261353 144.901489,370.047760 
	C143.955795,381.533234 156.215149,393.400024 168.011398,393.179565 
	C197.664230,392.625397 227.334366,392.996216 256.997559,392.996979 
	C264.732117,392.997162 264.732880,392.998352 265.876923,400.514404 
	C265.926941,400.843079 265.925140,401.179535 265.972473,401.508759 
	C270.582336,433.588623 285.356506,459.921936 310.929779,479.896301 
	C337.893921,500.957001 368.573364,508.441650 402.354980,504.056976 
	C427.421112,500.803497 448.965363,490.027496 467.331879,473.028198 
	C483.901642,457.691956 495.253082,438.918274 501.090271,417.033661 
	C507.605286,392.607788 507.261353,368.118439 498.498291,344.440613 
	C486.860168,312.994385 465.854187,289.496490 434.982941,275.578339 
	C423.468353,270.387024 411.596069,265.768494 398.791840,265.155548 
	C394.205414,264.936005 392.873260,263.712158 392.903809,259.152191 
	C393.090240,231.323349 393.144592,203.491150 392.862549,175.663925 
	C392.810883,170.568710 394.521881,168.752426 399.265869,167.936859 
	C412.924866,165.588608 424.760742,159.224594 434.672485,149.710129 
	C450.807892,134.221451 458.284607,115.263046 457.085876,92.698570 
	C455.925140,70.849442 446.559845,53.450817 429.800873,39.951836 
	C415.439301,28.383894 398.778503,23.977579 380.383850,24.928297 
	C359.300354,26.017990 342.438660,35.110149 329.093781,50.996540 
	C320.940125,60.703049 315.464935,71.841049 313.655487,84.557648 
	C313.178070,87.912842 311.549652,89.232422 307.961273,89.091217 
	C300.473724,88.796562 292.964935,88.909927 285.468201,89.043297 
	C282.381531,89.098221 281.237366,88.159332 280.888153,84.843933 
	C279.547852,72.119080 272.508514,63.362095 260.679657,58.858150 
	C250.725891,55.068176 240.833618,56.306263 231.438644,61.262402 
	C227.161301,52.479187 221.296280,45.661083 212.072449,42.585285 
	C203.100479,39.593464 194.165451,40.218391 184.833206,44.669052 
	C185.737213,35.457016 184.023865,27.729965 178.561722,21.016642 
	C173.075989,14.274309 166.274048,9.899949 157.576462,9.060798 
	C147.981674,8.135084 139.104370,9.827037 131.560822,16.580309 
	C123.315620,23.961716 120.118660,33.230309 120.854996,43.146572 
	C114.351440,42.393463 108.361122,41.187828 102.355263,41.104771 
	C87.163147,40.894676 73.053841,55.235554 73.012329,70.484322 
	C72.973312,84.815872 73.010025,99.147614 72.993805,113.479256 
	C72.992073,115.006805 72.859055,116.534218 72.746956,118.908592 
	C60.930702,108.465034 48.201435,104.073708 33.425442,104.907799 
	C21.127062,105.602043 9.367273,117.206093 8.936393,129.561874 
	C8.697453,136.413666 9.605828,142.821045 13.333216,148.675827 
	C22.987005,163.839539 26.188213,180.436966 25.116215,198.247101 
	C24.496572,208.541809 25.007301,218.904541 25.026997,230.178329 
z"/>
<path fill="#2E2424" opacity="1.000000" stroke="none" 
	d="
M25.018143,229.707489 
	C25.007301,218.904541 24.496572,208.541809 25.116215,198.247101 
	C26.188213,180.436966 22.987005,163.839539 13.333216,148.675827 
	C9.605828,142.821045 8.697453,136.413666 8.936393,129.561874 
	C9.367273,117.206093 21.127062,105.602043 33.425442,104.907799 
	C48.201435,104.073708 60.930702,108.465034 72.746956,118.908592 
	C72.859055,116.534218 72.992073,115.006805 72.993805,113.479256 
	C73.010025,99.147614 72.973312,84.815872 73.012329,70.484322 
	C73.053841,55.235554 87.163147,40.894676 102.355263,41.104771 
	C108.361122,41.187828 114.351440,42.393463 120.854996,43.146572 
	C120.118660,33.230309 123.315620,23.961716 131.560822,16.580309 
	C139.104370,9.827037 147.981674,8.135084 157.576462,9.060798 
	C166.274048,9.899949 173.075989,14.274309 178.561722,21.016642 
	C184.023865,27.729965 185.737213,35.457016 184.833206,44.669052 
	C194.165451,40.218391 203.100479,39.593464 212.072449,42.585285 
	C221.296280,45.661083 227.161301,52.479187 231.438644,61.262402 
	C240.833618,56.306263 250.725891,55.068176 260.679657,58.858150 
	C272.508514,63.362095 279.547852,72.119080 280.888153,84.843933 
	C281.237366,88.159332 282.381531,89.098221 285.468201,89.043297 
	C292.964935,88.909927 300.473724,88.796562 307.961273,89.091217 
	C311.549652,89.232422 313.178070,87.912842 313.655487,84.557648 
	C315.464935,71.841049 320.940125,60.703049 329.093781,50.996540 
	C342.438660,35.110149 359.300354,26.017990 380.383850,24.928297 
	C398.778503,23.977579 415.439301,28.383894 429.800873,39.951836 
	C446.559845,53.450817 455.925140,70.849442 457.085876,92.698570 
	C458.284607,115.263046 450.807892,134.221451 434.672485,149.710129 
	C424.760742,159.224594 412.924866,165.588608 399.265869,167.936859 
	C394.521881,168.752426 392.810883,170.568710 392.862549,175.663925 
	C393.144592,203.491150 393.090240,231.323349 392.903809,259.152191 
	C392.873260,263.712158 394.205414,264.936005 398.791840,265.155548 
	C411.596069,265.768494 423.468353,270.387024 434.982941,275.578339 
	C465.854187,289.496490 486.860168,312.994385 498.498291,344.440613 
	C507.261353,368.118439 507.605286,392.607788 501.090271,417.033661 
	C495.253082,438.918274 483.901642,457.691956 467.331879,473.028198 
	C448.965363,490.027496 427.421112,500.803497 402.354980,504.056976 
	C368.573364,508.441650 337.893921,500.957001 310.929779,479.896301 
	C285.356506,459.921936 270.582336,433.588623 265.972473,401.508759 
	C265.925140,401.179535 265.926941,400.843079 265.876923,400.514404 
	C264.732880,392.998352 264.732117,392.997162 256.997559,392.996979 
	C227.334366,392.996216 197.664230,392.625397 168.011398,393.179565 
	C156.215149,393.400024 143.955795,381.533234 144.901489,370.047760 
	C145.460281,363.261353 144.914185,356.389496 145.040588,349.559326 
	C145.096115,346.559418 144.323059,345.270142 140.939499,344.882782 
	C107.755890,341.083801 79.309372,327.451660 57.047619,302.365997 
	C40.021931,283.180603 29.080877,260.844940 25.922195,235.073715 
	C25.720736,233.430038 25.329790,231.809586 25.018143,229.707489 
M89.000641,100.500000 
	C89.000641,132.989349 89.466583,165.489075 88.744255,197.962357 
	C88.496292,209.109970 91.007271,217.377319 99.748901,224.723343 
	C112.034523,235.047531 114.351700,249.368683 112.661911,264.690552 
	C107.395706,264.690552 102.336823,264.690552 96.999352,264.690552 
	C96.999352,262.243805 96.869560,260.090607 97.021790,257.957520 
	C97.684563,248.670654 94.473175,241.072113 87.570908,234.825027 
	C83.499710,231.140305 79.550743,227.268951 75.973351,223.114243 
	C74.426918,221.318237 73.152412,218.603790 73.125862,216.290802 
	C72.898262,196.466660 73.177589,176.636414 72.923241,156.812912 
	C72.674034,137.389847 56.543816,121.263527 37.634197,121.035728 
	C27.832016,120.917648 22.360107,129.185165 26.492502,138.044907 
	C28.951982,143.317963 31.574284,148.520798 34.289387,153.667633 
	C38.972572,162.545273 41.178356,171.933731 41.042015,181.987045 
	C40.874851,194.313873 40.889252,206.646423 41.042561,218.973801 
	C41.766254,277.164673 88.716110,325.911835 146.815445,328.881012 
	C210.955490,332.158875 264.605011,281.638031 264.953613,217.335999 
	C265.183044,175.017975 265.015045,132.697693 264.986572,90.378456 
	C264.979767,80.254166 258.237030,73.010948 248.998260,73.008423 
	C239.715302,73.005890 233.040588,80.202774 233.011765,90.372765 
	C232.970200,105.034439 233.000717,119.696320 233.000641,134.358109 
	C233.000549,151.173141 233.000626,167.988174 233.000626,185.175949 
	C241.156784,186.464493 248.552338,189.102097 254.133041,195.032333 
	C250.407486,198.910538 246.884705,202.577637 243.224014,206.388290 
	C238.172028,201.892273 232.324112,200.906555 225.932114,200.936234 
	C195.109711,201.079315 164.286240,201.013397 133.463181,200.992004 
	C125.356293,200.986374 117.058464,199.981705 111.208588,206.056137 
	C107.045258,202.174225 103.429832,198.803177 99.686028,195.312424 
	C105.491814,188.962448 113.003403,186.555984 120.975548,185.089203 
	C120.975548,147.204666 121.073639,109.723801 120.901688,72.244164 
	C120.862198,63.636490 113.353661,56.942665 104.862679,57.008411 
	C96.342758,57.074387 89.274963,63.813614 89.062279,72.510284 
	C88.842377,81.501976 89.005226,90.503036 89.000641,100.500000 
M232.451614,317.979034 
	C212.337448,333.543457 189.496658,342.201416 164.326614,345.157562 
	C163.093018,345.302460 161.266098,347.482666 161.156326,348.832367 
	C160.765884,353.632111 160.985504,358.482666 160.999725,363.313934 
	C161.030334,373.712982 164.311386,376.992554 174.772217,376.998199 
	C202.094055,377.012970 229.415894,377.003479 256.737732,377.003082 
	C264.997742,377.002960 264.954071,376.996826 265.959351,368.756104 
	C269.174652,342.399139 280.598419,319.914978 298.763916,300.854462 
	C309.416534,289.676941 321.898071,280.607788 336.325165,275.088623 
	C347.415558,270.845886 359.035492,267.724762 370.668335,265.293213 
	C375.253784,264.334778 377.171173,263.930389 377.123627,258.748047 
	C376.868530,230.928757 376.843689,203.104141 377.148315,175.285843 
	C377.203979,170.203094 375.240356,168.705246 370.854370,167.976807 
	C356.782776,165.639725 344.825226,158.916595 334.717621,149.104843 
	C323.717499,138.426712 316.245514,125.637161 313.885101,110.251122 
	C313.279419,106.303001 311.595093,104.627678 307.302155,104.889961 
	C300.663055,105.295593 293.960327,105.318581 287.323761,104.892784 
	C282.216125,104.565086 280.857056,106.273712 280.884888,111.331245 
	C281.091370,148.814346 281.349792,186.304596 280.766022,223.779739 
	C280.605530,234.082916 278.695709,244.653351 275.764069,254.561295 
	C268.253845,279.943420 253.651321,300.874115 232.451614,317.979034 
M427.187500,60.326965 
	C413.356354,45.224800 396.366211,38.756474 376.010986,41.869637 
	C347.783630,46.186779 327.570648,71.531982 329.105164,100.498940 
	C330.590851,128.544235 354.306610,152.107712 382.456940,152.845459 
	C405.902435,153.459869 423.939270,143.273499 434.604767,122.456818 
	C445.683502,100.833679 442.701660,79.954086 427.187500,60.326965 
M451.346069,439.199310 
	C454.451385,444.673004 457.556732,450.146729 460.622009,455.549866 
	C480.043976,437.026123 493.296753,403.116272 487.766052,368.774414 
	C483.931427,344.964020 465.736664,312.958282 453.408356,308.289703 
	C457.785126,320.561584 457.951324,332.917755 454.823853,345.460480 
	C454.312775,347.510223 454.443787,350.059570 455.192688,352.030457 
	C461.303986,368.114288 450.253998,384.630402 432.966309,384.987671 
	C430.357147,385.041595 427.745941,384.995178 425.172089,384.995178 
	C424.255127,395.003021 419.842133,402.126312 411.283844,406.600586 
	C410.324493,407.102142 409.773285,408.384399 409.032806,409.304596 
	C410.074097,409.934204 411.039764,410.811676 412.168091,411.156067 
	C428.132660,416.028442 441.115875,425.079254 451.346069,439.199310 
M281.868103,397.668274 
	C284.635162,420.134064 293.935394,439.472534 309.538208,456.298248 
	C319.009918,433.161102 335.046814,417.931335 358.668030,410.959442 
	C359.557800,410.696838 360.510406,409.751495 360.849152,408.893555 
	C361.019867,408.461090 360.031219,407.191742 359.305908,406.842224 
	C350.246887,402.476685 345.729309,395.062744 344.773438,384.995667 
	C342.119659,384.995667 339.640594,385.035248 337.163116,384.989288 
	C319.617737,384.663818 308.621582,368.076904 314.921570,351.677673 
	C315.620453,349.858429 315.372620,347.602661 315.275482,345.563080 
	C314.859619,336.830139 314.074890,328.105316 313.975739,319.371277 
	C313.934357,315.727814 315.267883,312.068695 315.976227,308.416718 
	C289.933807,332.308136 278.165619,361.598053 281.868103,397.668274 
M159.697540,26.493404 
	C146.935883,22.159145 137.015518,29.312466 137.009430,42.929329 
	C136.988953,88.726868 136.999634,134.524429 137.010101,180.321976 
	C137.010437,181.767258 137.138931,183.212509 137.209290,184.691711 
	C147.936264,184.691711 158.323578,184.691711 168.816559,184.691711 
	C168.891464,183.751678 168.987625,183.107529 168.987732,182.463379 
	C168.995560,135.500076 168.996399,88.536781 168.995911,41.573479 
	C168.995850,34.988518 166.054932,30.122047 159.697540,26.493404 
M415.634064,286.748779 
	C412.037598,285.512817 408.499146,283.453186 404.833862,283.195160 
	C393.786682,282.417480 382.636017,281.482452 371.624664,282.177032 
	C351.446503,283.449829 335.388611,297.581604 330.490845,317.221710 
	C328.808380,323.968414 327.869263,330.853088 330.358734,337.568176 
	C335.405884,337.234222 339.977905,336.931702 345.040741,336.596710 
	C345.040741,334.389801 344.915131,332.579224 345.061310,330.790863 
	C345.958282,319.818970 356.328705,311.010406 366.935577,313.397552 
	C371.780701,314.487946 376.707214,317.697876 380.337921,321.237701 
	C391.200592,331.828400 403.889343,337.113159 418.963837,337.006134 
	C425.746185,336.958008 432.529144,336.997986 439.530304,336.997986 
	C446.057861,322.289642 434.979767,298.032349 415.634064,286.748779 
M215.142151,65.645287 
	C210.213989,58.255161 203.723022,55.483829 196.542938,57.704319 
	C188.990540,60.039948 185.010071,65.926796 185.006744,74.902473 
	C184.993759,110.035118 185.001328,145.167755 185.001251,180.300400 
	C185.001251,181.743164 185.001251,183.185928 185.001251,184.702026 
	C195.918335,184.702026 206.304108,184.702026 216.808411,184.702026 
	C216.886169,183.776001 216.987045,183.134323 216.987198,182.492630 
	C216.995758,146.194458 217.024200,109.896210 216.933517,73.598267 
	C216.927460,71.173752 216.012146,68.751503 215.142151,65.645287 
M393.087738,488.746979 
	C411.529205,487.053192 428.419525,481.075012 443.783722,470.678955 
	C446.404144,468.905853 447.181519,467.320465 446.092621,464.191528 
	C443.201172,455.883179 439.139801,448.318237 432.879669,442.117462 
	C429.684479,438.952515 426.054413,436.226562 421.766327,432.574341 
	C419.276794,449.680420 417.002441,465.308075 414.497437,482.520813 
	C403.942444,471.881439 394.489960,462.353394 383.873566,451.652161 
	C374.207306,461.382080 364.699554,470.952362 355.185791,480.528748 
	C352.944794,465.035980 350.691528,449.458466 348.329376,433.128235 
	C335.970032,440.841736 328.452972,451.132690 323.971313,463.948761 
	C322.824432,467.228394 323.596741,468.945160 326.425415,470.833679 
	C346.363586,484.145142 368.231110,490.185394 393.087738,488.746979 
M371.764130,393.000000 
	C381.259949,392.998444 390.756836,393.080261 400.251221,392.963684 
	C405.838623,392.895111 408.812439,389.839630 408.973999,384.250702 
	C409.084625,380.422211 408.999298,376.588013 408.999756,372.756378 
	C409.000580,365.995941 409.000000,359.235504 409.000000,352.501801 
	C392.474121,350.244232 379.334534,343.013458 368.248199,331.709747 
	C367.027191,330.464783 364.933289,330.075897 363.244263,329.289978 
	C362.496246,331.151947 361.119141,333.007172 361.099030,334.876984 
	C360.926666,350.868103 360.980042,366.861908 361.009308,382.854828 
	C361.022552,390.100159 363.545380,392.654144 371.764130,393.000000 
M330.627563,356.242004 
	C328.534424,359.289520 328.321075,362.459320 330.477814,365.481812 
	C334.177551,370.666626 339.591583,368.678101 344.635071,368.931030 
	C344.635071,363.428741 344.635071,358.269623 344.635071,351.747437 
	C339.664459,353.174042 335.393646,354.399780 330.627563,356.242004 
M424.991699,359.552521 
	C424.991699,362.643982 424.991699,365.735413 424.991699,369.119476 
	C430.752502,368.552948 436.901611,370.900970 439.788361,364.648926 
	C440.825470,362.402679 440.553436,358.478668 439.204529,356.414642 
	C435.793762,351.195587 430.208038,353.190643 424.991699,353.246429 
	C424.991699,355.304443 424.991699,356.948608 424.991699,359.552521 
M386.685974,424.089233 
	C389.044128,419.332489 394.578003,415.820587 392.637909,409.224487 
	C387.413208,409.224487 382.352203,409.224487 377.192352,409.224487 
	C375.921204,416.655518 381.562744,420.627197 384.781067,425.714691 
	C385.272522,425.359558 385.763977,425.004456 386.685974,424.089233 
M366.150482,427.169159 
	C365.404938,427.342529 363.998138,427.593323 364.008087,427.678223 
	C364.760529,434.104340 365.624664,440.517426 366.540771,447.386719 
	C375.244659,440.684906 375.245300,440.684479 369.907684,432.696716 
	C368.806976,431.049500 367.699371,429.406860 366.150482,427.169159 
M405.820221,431.419861 
	C405.820221,429.731049 405.820221,428.042236 405.820221,426.353455 
	C401.842194,430.193481 398.966400,434.368713 396.277832,438.661285 
	C395.917542,439.236542 396.228668,440.600891 396.701294,441.262238 
	C398.315308,443.520691 400.140289,445.628418 401.884796,447.793671 
	C402.398987,447.475403 402.913208,447.157135 403.427429,446.838898 
	C404.179321,441.980743 404.931244,437.122589 405.820221,431.419861 
z"/>
<path fill="#EFCFB4" opacity="1.000000" stroke="none" 
	d="
M89.000641,100.000000 
	C89.005226,90.503036 88.842377,81.501976 89.062279,72.510284 
	C89.274963,63.813614 96.342758,57.074387 104.862679,57.008411 
	C113.353661,56.942665 120.862198,63.636490 120.901688,72.244164 
	C121.073639,109.723801 120.975548,147.204666 120.975548,185.089203 
	C113.003403,186.555984 105.491814,188.962448 99.686028,195.312424 
	C103.429832,198.803177 107.045258,202.174225 111.208588,206.056137 
	C117.058464,199.981705 125.356293,200.986374 133.463181,200.992004 
	C164.286240,201.013397 195.109711,201.079315 225.932114,200.936234 
	C232.324112,200.906555 238.172028,201.892273 243.224014,206.388290 
	C246.884705,202.577637 250.407486,198.910538 254.133041,195.032333 
	C248.552338,189.102097 241.156784,186.464493 233.000626,185.175949 
	C233.000626,167.988174 233.000549,151.173141 233.000641,134.358109 
	C233.000717,119.696320 232.970200,105.034439 233.011765,90.372765 
	C233.040588,80.202774 239.715302,73.005890 248.998260,73.008423 
	C258.237030,73.010948 264.979767,80.254166 264.986572,90.378456 
	C265.015045,132.697693 265.183044,175.017975 264.953613,217.335999 
	C264.605011,281.638031 210.955490,332.158875 146.815445,328.881012 
	C88.716110,325.911835 41.766254,277.164673 41.042561,218.973801 
	C40.889252,206.646423 40.874851,194.313873 41.042015,181.987045 
	C41.178356,171.933731 38.972572,162.545273 34.289387,153.667633 
	C31.574284,148.520798 28.951982,143.317963 26.492502,138.044907 
	C22.360107,129.185165 27.832016,120.917648 37.634197,121.035728 
	C56.543816,121.263527 72.674034,137.389847 72.923241,156.812912 
	C73.177589,176.636414 72.898262,196.466660 73.125862,216.290802 
	C73.152412,218.603790 74.426918,221.318237 75.973351,223.114243 
	C79.550743,227.268951 83.499710,231.140305 87.570908,234.825027 
	C94.473175,241.072113 97.684563,248.670654 97.021790,257.957520 
	C96.869560,260.090607 96.999352,262.243805 96.999352,264.690552 
	C102.336823,264.690552 107.395706,264.690552 112.661911,264.690552 
	C114.351700,249.368683 112.034523,235.047531 99.748901,224.723343 
	C91.007271,217.377319 88.496292,209.109970 88.744255,197.962357 
	C89.466583,165.489075 89.000641,132.989349 89.000641,100.000000 
z"/>
<path fill="#FFFFFF" opacity="1.000000" stroke="none" 
	d="
M232.715912,317.737732 
	C253.651321,300.874115 268.253845,279.943420 275.764069,254.561295 
	C278.695709,244.653351 280.605530,234.082916 280.766022,223.779739 
	C281.349792,186.304596 281.091370,148.814346 280.884888,111.331245 
	C280.857056,106.273712 282.216125,104.565086 287.323761,104.892784 
	C293.960327,105.318581 300.663055,105.295593 307.302155,104.889961 
	C311.595093,104.627678 313.279419,106.303001 313.885101,110.251122 
	C316.245514,125.637161 323.717499,138.426712 334.717621,149.104843 
	C344.825226,158.916595 356.782776,165.639725 370.854370,167.976807 
	C375.240356,168.705246 377.203979,170.203094 377.148315,175.285843 
	C376.843689,203.104141 376.868530,230.928757 377.123627,258.748047 
	C377.171173,263.930389 375.253784,264.334778 370.668335,265.293213 
	C359.035492,267.724762 347.415558,270.845886 336.325165,275.088623 
	C321.898071,280.607788 309.416534,289.676941 298.763916,300.854462 
	C280.598419,319.914978 269.174652,342.399139 265.959351,368.756104 
	C264.954071,376.996826 264.997742,377.002960 256.737732,377.003082 
	C229.415894,377.003479 202.094055,377.012970 174.772217,376.998199 
	C164.311386,376.992554 161.030334,373.712982 160.999725,363.313934 
	C160.985504,358.482666 160.765884,353.632111 161.156326,348.832367 
	C161.266098,347.482666 163.093018,345.302460 164.326614,345.157562 
	C189.496658,342.201416 212.337448,333.543457 232.715912,317.737732 
z"/>
<path fill="#ED7284" opacity="1.000000" stroke="none" 
	d="
M427.426025,60.587898 
	C442.701660,79.954086 445.683502,100.833679 434.604767,122.456818 
	C423.939270,143.273499 405.902435,153.459869 382.456940,152.845459 
	C354.306610,152.107712 330.590851,128.544235 329.105164,100.498940 
	C327.570648,71.531982 347.783630,46.186779 376.010986,41.869637 
	C396.366211,38.756474 413.356354,45.224800 427.426025,60.587898 
M380.950073,81.588280 
	C376.317169,76.852547 371.684235,72.116821 367.749207,68.094460 
	C363.372406,71.967796 359.575958,75.327522 354.852936,79.507256 
	C361.287262,85.385124 367.396973,90.966446 374.525208,97.478180 
	C367.818878,103.758842 361.692535,109.496346 355.842346,114.975227 
	C359.664764,119.027672 363.063568,122.631004 367.557922,127.395821 
	C373.364502,120.866364 378.958466,114.576027 385.308350,107.435638 
	C391.678497,114.352806 397.295227,120.451836 402.469818,126.070747 
	C406.729858,122.205437 410.485382,118.797867 415.070068,114.637985 
	C408.653748,108.793716 402.533417,103.219063 395.711029,97.004944 
	C402.407654,90.520302 408.443665,84.675392 414.476135,78.833878 
	C410.560211,74.858444 407.078552,71.323845 402.641266,66.819099 
	C396.882812,73.239052 391.258820,79.509087 385.532074,85.893684 
	C383.614441,84.103020 382.535889,83.095886 380.950073,81.588280 
z"/>
<path fill="#E4E7EB" opacity="1.000000" stroke="none" 
	d="
M451.146667,438.900116 
	C441.115875,425.079254 428.132660,416.028442 412.168091,411.156067 
	C411.039764,410.811676 410.074097,409.934204 409.032806,409.304596 
	C409.773285,408.384399 410.324493,407.102142 411.283844,406.600586 
	C419.842133,402.126312 424.255127,395.003021 425.172089,384.995178 
	C427.745941,384.995178 430.357147,385.041595 432.966309,384.987671 
	C450.253998,384.630402 461.303986,368.114288 455.192688,352.030457 
	C454.443787,350.059570 454.312775,347.510223 454.823853,345.460480 
	C457.951324,332.917755 457.785126,320.561584 453.408356,308.289703 
	C465.736664,312.958282 483.931427,344.964020 487.766052,368.774414 
	C493.296753,403.116272 480.043976,437.026123 460.622009,455.549866 
	C457.556732,450.146729 454.451385,444.673004 451.146667,438.900116 
z"/>
<path fill="#E5E7EB" opacity="1.000000" stroke="none" 
	d="
M281.815491,397.222046 
	C278.165619,361.598053 289.933807,332.308136 315.976227,308.416718 
	C315.267883,312.068695 313.934357,315.727814 313.975739,319.371277 
	C314.074890,328.105316 314.859619,336.830139 315.275482,345.563080 
	C315.372620,347.602661 315.620453,349.858429 314.921570,351.677673 
	C308.621582,368.076904 319.617737,384.663818 337.163116,384.989288 
	C339.640594,385.035248 342.119659,384.995667 344.773438,384.995667 
	C345.729309,395.062744 350.246887,402.476685 359.305908,406.842224 
	C360.031219,407.191742 361.019867,408.461090 360.849152,408.893555 
	C360.510406,409.751495 359.557800,410.696838 358.668030,410.959442 
	C335.046814,417.931335 319.009918,433.161102 309.538208,456.298248 
	C293.935394,439.472534 284.635162,420.134064 281.815491,397.222046 
z"/>
<path fill="#F0D0B4" opacity="1.000000" stroke="none" 
	d="
M160.035675,26.678970 
	C166.054932,30.122047 168.995850,34.988518 168.995911,41.573479 
	C168.996399,88.536781 168.995560,135.500076 168.987732,182.463379 
	C168.987625,183.107529 168.891464,183.751678 168.816559,184.691711 
	C158.323578,184.691711 147.936264,184.691711 137.209290,184.691711 
	C137.138931,183.212509 137.010437,181.767258 137.010101,180.321976 
	C136.999634,134.524429 136.988953,88.726868 137.009430,42.929329 
	C137.015518,29.312466 146.935883,22.159145 160.035675,26.678970 
z"/>
<path fill="#656D77" opacity="1.000000" stroke="none" 
	d="
M415.967896,286.914673 
	C434.979767,298.032349 446.057861,322.289642 439.530304,336.997986 
	C432.529144,336.997986 425.746185,336.958008 418.963837,337.006134 
	C403.889343,337.113159 391.200592,331.828400 380.337921,321.237701 
	C376.707214,317.697876 371.780701,314.487946 366.935577,313.397552 
	C356.328705,311.010406 345.958282,319.818970 345.061310,330.790863 
	C344.915131,332.579224 345.040741,334.389801 345.040741,336.596710 
	C339.977905,336.931702 335.405884,337.234222 330.358734,337.568176 
	C327.869263,330.853088 328.808380,323.968414 330.490845,317.221710 
	C335.388611,297.581604 351.446503,283.449829 371.624664,282.177032 
	C382.636017,281.482452 393.786682,282.417480 404.833862,283.195160 
	C408.499146,283.453186 412.037598,285.512817 415.967896,286.914673 
z"/>
<path fill="#F0D0B4" opacity="1.000000" stroke="none" 
	d="
M215.330963,65.986740 
	C216.012146,68.751503 216.927460,71.173752 216.933517,73.598267 
	C217.024200,109.896210 216.995758,146.194458 216.987198,182.492630 
	C216.987045,183.134323 216.886169,183.776001 216.808411,184.702026 
	C206.304108,184.702026 195.918335,184.702026 185.001251,184.702026 
	C185.001251,183.185928 185.001251,181.743164 185.001251,180.300400 
	C185.001328,145.167755 184.993759,110.035118 185.006744,74.902473 
	C185.010071,65.926796 188.990540,60.039948 196.542938,57.704319 
	C203.723022,55.483829 210.213989,58.255161 215.330963,65.986740 
z"/>
<path fill="#4FBFE6" opacity="1.000000" stroke="none" 
	d="
M392.621887,488.780273 
	C368.231110,490.185394 346.363586,484.145142 326.425415,470.833679 
	C323.596741,468.945160 322.824432,467.228394 323.971313,463.948761 
	C328.452972,451.132690 335.970032,440.841736 348.329376,433.128235 
	C350.691528,449.458466 352.944794,465.035980 355.185791,480.528748 
	C364.699554,470.952362 374.207306,461.382080 383.873566,451.652161 
	C394.489960,462.353394 403.942444,471.881439 414.497437,482.520813 
	C417.002441,465.308075 419.276794,449.680420 421.766327,432.574341 
	C426.054413,436.226562 429.684479,438.952515 432.879669,442.117462 
	C439.139801,448.318237 443.201172,455.883179 446.092621,464.191528 
	C447.181519,467.320465 446.404144,468.905853 443.783722,470.678955 
	C428.419525,481.075012 411.529205,487.053192 392.621887,488.780273 
z"/>
<path fill="#EFCFB3" opacity="1.000000" stroke="none" 
	d="
M371.304199,392.999878 
	C363.545380,392.654144 361.022552,390.100159 361.009308,382.854828 
	C360.980042,366.861908 360.926666,350.868103 361.099030,334.876984 
	C361.119141,333.007172 362.496246,331.151947 363.244263,329.289978 
	C364.933289,330.075897 367.027191,330.464783 368.248199,331.709747 
	C379.334534,343.013458 392.474121,350.244232 409.000000,352.501801 
	C409.000000,359.235504 409.000580,365.995941 408.999756,372.756378 
	C408.999298,376.588013 409.084625,380.422211 408.973999,384.250702 
	C408.812439,389.839630 405.838623,392.895111 400.251221,392.963684 
	C390.756836,393.080261 381.259949,392.998444 371.304199,392.999878 
z"/>
<path fill="#ECCCB1" opacity="1.000000" stroke="none" 
	d="
M330.875183,355.933777 
	C335.393646,354.399780 339.664459,353.174042 344.635071,351.747437 
	C344.635071,358.269623 344.635071,363.428741 344.635071,368.931030 
	C339.591583,368.678101 334.177551,370.666626 330.477814,365.481812 
	C328.321075,362.459320 328.534424,359.289520 330.875183,355.933777 
z"/>
<path fill="#ECCCB1" opacity="1.000000" stroke="none" 
	d="
M424.991699,359.072632 
	C424.991699,356.948608 424.991699,355.304443 424.991699,353.246429 
	C430.208038,353.190643 435.793762,351.195587 439.204529,356.414642 
	C440.553436,358.478668 440.825470,362.402679 439.788361,364.648926 
	C436.901611,370.900970 430.752502,368.552948 424.991699,369.119476 
	C424.991699,365.735413 424.991699,362.643982 424.991699,359.072632 
z"/>
<path fill="#EDCDB2" opacity="1.000000" stroke="none" 
	d="
M386.470703,424.369293 
	C385.763977,425.004456 385.272522,425.359558 384.781067,425.714722 
	C381.562744,420.627197 375.921204,416.655518 377.192352,409.224487 
	C382.352203,409.224487 387.413208,409.224487 392.637909,409.224487 
	C394.578003,415.820587 389.044128,419.332489 386.470703,424.369293 
z"/>
<path fill="#3AA9D2" opacity="1.000000" stroke="none" 
	d="
M366.372711,427.465637 
	C367.699371,429.406860 368.806976,431.049500 369.907684,432.696716 
	C375.245300,440.684479 375.244659,440.684906 366.540771,447.386719 
	C365.624664,440.517426 364.760529,434.104340 364.008087,427.678223 
	C363.998138,427.593323 365.404938,427.342529 366.372711,427.465637 
z"/>
<path fill="#3AA9D2" opacity="1.000000" stroke="none" 
	d="
M405.751709,431.842163 
	C404.931244,437.122589 404.179321,441.980743 403.427429,446.838898 
	C402.913208,447.157135 402.398987,447.475403 401.884796,447.793671 
	C400.140289,445.628418 398.315308,443.520691 396.701294,441.262238 
	C396.228668,440.600891 395.917542,439.236542 396.277832,438.661285 
	C398.966400,434.368713 401.842194,430.193481 405.820221,426.353455 
	C405.820221,428.042236 405.820221,429.731049 405.751709,431.842163 
z"/>
<path fill="#322525" opacity="1.000000" stroke="none" 
	d="
M381.203705,81.838516 
	C382.535889,83.095886 383.614441,84.103020 385.532074,85.893684 
	C391.258820,79.509087 396.882812,73.239052 402.641266,66.819099 
	C407.078552,71.323845 410.560211,74.858444 414.476135,78.833878 
	C408.443665,84.675392 402.407654,90.520302 395.711029,97.004944 
	C402.533417,103.219063 408.653748,108.793716 415.070068,114.637985 
	C410.485382,118.797867 406.729858,122.205437 402.469818,126.070747 
	C397.295227,120.451836 391.678497,114.352806 385.308350,107.435638 
	C378.958466,114.576027 373.364502,120.866364 367.557922,127.395821 
	C363.063568,122.631004 359.664764,119.027672 355.842346,114.975227 
	C361.692535,109.496346 367.818878,103.758842 374.525208,97.478180 
	C367.396973,90.966446 361.287262,85.385124 354.852936,79.507256 
	C359.575958,75.327522 363.372406,71.967796 367.749207,68.094460 
	C371.684235,72.116821 376.317169,76.852547 381.203705,81.838516 
z"/>
</svg>