<svg version="1.1" id="Layer_1" xmlns="http://www.w3.org/2000/svg" xmlns:xlink="http://www.w3.org/1999/xlink" x="0px" y="0px"
	 width="100%" viewBox="0 0 512 512" enable-background="new 0 0 512 512" xml:space="preserve">
<path fill="#FFFFFF" opacity="1.000000" stroke="none" 
	d="
M247.000000,1.000001 
	C335.622772,1.000000 424.245575,1.000000 512.934204,1.000000 
	C512.934204,171.666656 512.934204,342.333344 512.934204,513.000000 
	C477.902649,513.000000 442.919983,513.000000 407.298431,512.660217 
	C412.629089,508.468658 416.407928,503.250519 416.915710,495.496429 
	C416.977814,417.292969 416.988525,339.552826 416.991211,261.812714 
	C416.991241,260.816864 416.888733,259.821014 417.008209,258.536072 
	C425.500427,247.838715 433.818542,237.430466 442.447174,226.888275 
	C452.007812,215.171570 461.225098,203.562347 470.517639,192.013687 
	C479.196533,181.227615 477.562286,165.095947 466.200195,156.874252 
	C454.335052,148.288544 440.252319,151.319168 431.129547,162.536728 
	C426.430389,168.314911 421.821838,174.166748 417.115845,179.520645 
	C417.047211,146.577576 417.050964,114.099144 417.014130,81.620750 
	C417.001678,70.644760 410.196442,62.254509 400.937256,62.037373 
	C393.617950,61.865734 386.289337,62.091160 378.499023,62.114456 
	C356.387848,62.083431 334.742493,62.078194 313.056641,61.642422 
	C313.519653,51.216057 305.624084,40.595387 296.622437,39.044586 
	C289.098022,37.748272 281.379822,37.461079 273.730194,37.042500 
	C267.287140,36.689941 262.737457,33.219456 262.056519,26.902550 
	C260.933258,16.482862 257.522583,7.631117 247.386993,2.733427 
	C247.056061,2.573516 247.120087,1.596257 247.000000,1.000001 
z"/>
<path fill="#0E80AC" opacity="1.000000" stroke="none" 
	d="
M369.000000,513.000000 
	C261.978577,513.000000 154.957138,513.000000 47.743587,512.707886 
	C42.071316,508.138641 37.974548,503.163788 37.976292,495.657898 
	C38.008522,356.772339 37.996216,217.886749 38.010612,79.001175 
	C38.011360,71.781792 42.715176,64.307755 49.753029,63.222179 
	C58.177055,61.922775 66.881088,62.438667 75.421646,62.626511 
	C75.356720,63.917179 75.314102,64.749695 75.314079,65.582207 
	C75.310898,196.041473 75.308403,326.500763 75.332878,456.960022 
	C75.333252,458.944092 75.405899,460.996277 75.899467,462.898743 
	C77.154633,467.736694 80.358353,470.593842 85.396057,471.109619 
	C87.377335,471.312439 89.389656,471.241425 91.387917,471.244720 
	C127.873398,471.304779 164.358887,471.357147 200.814102,471.781677 
	C199.412506,478.371277 200.891663,482.802795 205.283051,485.631531 
	C209.369324,488.263733 215.208572,487.446808 219.918137,483.695587 
	C225.214722,479.476746 230.570496,475.332214 236.374786,471.182098 
	C279.845642,471.221039 322.842438,471.169830 365.838531,471.320862 
	C371.607697,471.341125 375.802460,469.379456 378.782501,465.002106 
	C378.898560,472.964325 378.688751,480.443817 379.077240,487.892120 
	C379.581421,497.558441 378.976074,506.564636 369.379028,512.099854 
	C369.154388,512.229431 369.122040,512.692505 369.000000,513.000000 
z"/>
<path fill="#FFFFFF" opacity="1.000000" stroke="none" 
	d="
M75.463852,62.168358 
	C66.881088,62.438667 58.177055,61.922775 49.753029,63.222179 
	C42.715176,64.307755 38.011360,71.781792 38.010612,79.001175 
	C37.996216,217.886749 38.008522,356.772339 37.976292,495.657898 
	C37.974548,503.163788 42.071316,508.138641 47.275734,512.707886 
	C31.675438,513.000000 16.350878,513.000000 1.019737,513.000000 
	C1.013158,342.439728 1.013158,171.879486 1.013158,1.000000 
	C69.687233,1.000000 138.374954,1.000000 207.869095,1.244482 
	C208.229523,1.955433 207.865509,2.573201 207.325363,2.865867 
	C198.044434,7.894422 193.266022,15.624866 192.973038,26.212229 
	C192.813034,31.994150 187.714111,36.855061 181.834106,36.981529 
	C177.512711,37.074471 173.187729,36.999432 168.864334,37.000332 
	C152.995712,37.003628 143.002472,45.953182 140.620773,61.970131 
	C118.590492,62.099384 97.027168,62.133873 75.463852,62.168358 
z"/>
<path fill="#077296" opacity="1.000000" stroke="none" 
	d="
M369.468689,513.000000 
	C369.122040,512.692505 369.154388,512.229431 369.379028,512.099854 
	C378.976074,506.564636 379.581421,497.558441 379.077240,487.892120 
	C378.688751,480.443817 378.898560,472.964325 378.835938,464.568054 
	C378.974060,461.317535 379.243561,458.997742 379.244720,456.677795 
	C379.269165,407.944397 379.265808,359.211029 379.252411,310.477631 
	C379.251953,308.821442 379.090973,307.165314 379.180786,305.249268 
	C391.523651,289.852722 403.690491,274.716095 415.886169,260.074951 
	C415.943695,263.231506 415.997467,265.892578 415.997620,268.553619 
	C416.002167,341.911224 415.992920,415.268799 416.037537,488.626373 
	C416.039001,491.071014 416.576202,493.515320 416.863678,495.959778 
	C416.407928,503.250519 412.629089,508.468658 406.829773,512.660217 
	C394.645782,513.000000 382.291534,513.000000 369.468689,513.000000 
z"/>
<path fill="#FD7E42" opacity="1.000000" stroke="none" 
	d="
M141.087738,61.875370 
	C143.002472,45.953182 152.995712,37.003628 168.864334,37.000332 
	C173.187729,36.999432 177.512711,37.074471 181.834106,36.981529 
	C187.714111,36.855061 192.813034,31.994150 192.973038,26.212229 
	C193.266022,15.624866 198.044434,7.894422 207.325363,2.865867 
	C207.865509,2.573201 208.229523,1.955433 208.337753,1.244482 
	C213.022095,1.000000 218.044189,1.000000 223.533264,1.468657 
	C224.001038,13.244941 223.952713,24.552847 224.017410,35.860107 
	C224.074036,45.755154 228.710983,50.552841 238.625916,50.939407 
	C243.109161,51.114201 247.605850,51.063076 252.093719,50.975433 
	C261.864655,50.784615 268.283722,55.935734 272.953064,63.908882 
	C277.172455,71.113701 275.748535,79.092621 275.554871,86.899712 
	C235.269073,86.974785 195.449478,87.003479 155.629913,86.984604 
	C146.292587,86.980171 142.061539,82.568291 141.877106,73.155304 
	C141.803360,69.391609 141.361847,65.635132 141.087738,61.875370 
z"/>
<path fill="#FA6931" opacity="1.000000" stroke="none" 
	d="
M276.021057,86.835976 
	C275.748535,79.092621 277.172455,71.113701 272.953064,63.908882 
	C268.283722,55.935734 261.864655,50.784615 252.093719,50.975433 
	C247.605850,51.063076 243.109161,51.114201 238.625916,50.939407 
	C228.710983,50.552841 224.074036,45.755154 224.017410,35.860107 
	C223.952713,24.552847 224.001038,13.244941 224.000122,1.468657 
	C231.354248,1.000000 238.708496,1.000000 246.531372,1.000001 
	C247.120087,1.596257 247.056061,2.573516 247.386993,2.733427 
	C257.522583,7.631117 260.933258,16.482862 262.056519,26.902550 
	C262.737457,33.219456 267.287140,36.689941 273.730194,37.042500 
	C281.379822,37.461079 289.098022,37.748272 296.622437,39.044586 
	C305.624084,40.595387 313.519653,51.216057 313.027100,62.104481 
	C313.014496,67.292442 313.149841,71.595970 312.929718,75.881233 
	C312.609924,82.106934 307.923065,86.846474 301.784637,86.943207 
	C293.199463,87.078476 284.609161,86.887421 276.021057,86.835976 
z"/>
<path fill="#F6EFEF" opacity="1.000000" stroke="none" 
	d="
M275.554871,86.899712 
	C284.609161,86.887421 293.199463,87.078476 301.784637,86.943207 
	C307.923065,86.846474 312.609924,82.106934 312.929718,75.881233 
	C313.149841,71.595970 313.014496,67.292442 313.067627,62.535015 
	C334.742493,62.078194 356.387848,62.083431 378.588867,62.565948 
	C379.183289,65.370110 379.254517,67.696960 379.256012,70.023865 
	C379.289764,122.747818 379.315887,175.471771 379.188477,228.502228 
	C378.336060,229.738663 377.663910,230.688873 376.937561,231.595703 
	C327.818787,292.922028 278.695618,354.244873 229.391205,415.791138 
	C220.820557,432.832550 212.448700,449.659363 204.016876,466.456116 
	C203.141769,468.199371 201.910416,469.763763 200.844376,471.411163 
	C164.358887,471.357147 127.873398,471.304779 91.387917,471.244720 
	C89.389656,471.241425 87.377335,471.312439 85.396057,471.109619 
	C80.358353,470.593842 77.154633,467.736694 75.899467,462.898743 
	C75.405899,460.996277 75.333252,458.944092 75.332878,456.960022 
	C75.308403,326.500763 75.310898,196.041473 75.314079,65.582207 
	C75.314102,64.749695 75.356720,63.917179 75.421646,62.626511 
	C97.027168,62.133873 118.590492,62.099384 140.620789,61.970131 
	C141.361847,65.635132 141.803360,69.391609 141.877106,73.155304 
	C142.061539,82.568291 146.292587,86.980171 155.629913,86.984604 
	C195.449478,87.003479 235.269073,86.974785 275.554871,86.899712 
M297.500000,173.105133 
	C272.533325,173.107162 247.566544,173.071289 222.600052,173.140182 
	C216.978058,173.155685 213.474487,176.300903 213.437912,180.895187 
	C213.401367,185.483719 216.900391,188.530060 222.507828,188.763199 
	C223.671036,188.811584 224.837753,188.777954 226.002853,188.777954 
	C259.125336,188.778381 292.247803,188.778336 325.370270,188.777847 
	C326.535370,188.777832 327.701813,188.807693 328.865356,188.763382 
	C334.584473,188.545532 337.971741,185.649292 337.994202,180.984070 
	C338.016724,176.306763 334.610535,173.201904 328.959045,173.141922 
	C318.807037,173.034195 308.653107,173.107498 297.500000,173.105133 
M323.405457,264.839203 
	C325.735504,264.818268 328.081970,264.965698 330.392181,264.740967 
	C335.032501,264.289551 337.983337,261.181763 337.994080,257.011108 
	C338.004822,252.843628 335.043396,249.762634 330.421875,249.242691 
	C329.104950,249.094528 327.761536,249.164001 326.430267,249.163864 
	C292.637329,249.160416 258.844360,249.160324 225.051422,249.163498 
	C223.720184,249.163620 222.377151,249.095627 221.059830,249.241669 
	C216.482559,249.749146 213.431961,252.892990 213.434113,256.993896 
	C213.436264,261.096558 216.484039,264.252533 221.054871,264.753357 
	C222.537079,264.915771 224.047806,264.836304 225.545486,264.836456 
	C257.840210,264.840027 290.134949,264.839142 323.405457,264.839203 
M337.983032,146.507965 
	C337.437561,141.273056 334.374237,138.932663 329.274811,138.932541 
	C293.657837,138.931671 258.040833,138.909973 222.423935,138.951157 
	C216.774124,138.957687 213.403198,142.064575 213.521606,146.788788 
	C213.635483,151.332748 216.842667,154.201859 222.314819,154.209259 
	C257.931732,154.257507 293.548706,154.220413 329.165680,154.249207 
	C334.015411,154.253128 337.085632,152.210648 337.983032,146.507965 
M146.034164,396.461609 
	C144.690872,395.775635 143.158829,395.312683 142.037903,394.364014 
	C137.845963,390.816193 133.888367,386.988251 129.650940,383.498383 
	C125.897293,380.406982 121.299080,380.817444 118.505669,384.144165 
	C115.913666,387.231018 116.125175,391.840851 119.440491,394.924042 
	C125.167786,400.250427 130.951096,405.541382 137.013290,410.475677 
	C142.754669,415.148865 151.554230,414.701294 155.917297,408.872070 
	C165.283615,396.358337 174.109131,383.432587 182.912628,370.509674 
	C185.311340,366.988525 184.010651,362.599213 180.593567,360.426300 
	C177.002884,358.143005 173.603195,358.650543 170.659454,361.662994 
	C169.623077,362.723541 168.820862,364.021210 167.962708,365.246277 
	C160.802032,375.468719 153.653275,385.699493 146.034164,396.461609 
M150.921204,165.394073 
	C149.144943,167.904114 147.368668,170.414154 145.423294,173.163132 
	C140.124588,168.477783 135.317459,164.127518 130.398605,159.907486 
	C126.043495,156.171097 121.632492,156.255035 118.532860,159.945023 
	C115.693222,163.325500 116.257584,167.853455 120.149605,171.409424 
	C125.065651,175.901016 130.065216,180.302261 135.071747,184.693466 
	C143.059769,191.699722 151.991486,190.686310 158.170959,181.965363 
	C165.965134,170.965652 173.666092,159.899536 181.354813,148.825638 
	C185.099274,143.432587 184.769714,139.013992 180.570663,136.190460 
	C176.588882,133.513031 172.384949,134.769958 168.791565,139.852463 
	C162.930573,148.142303 157.135666,156.478912 150.921204,165.394073 
M175.113312,270.624298 
	C176.835648,268.173187 178.566177,265.727814 180.278793,263.269958 
	C185.061066,256.406677 185.120590,252.050644 180.484924,249.012283 
	C176.155289,246.174530 172.195038,247.839722 167.570206,254.442230 
	C160.258682,264.880249 152.947006,275.318146 145.445297,286.027496 
	C140.205688,281.404297 135.387161,277.069000 130.474594,272.843048 
	C126.129997,269.105682 121.734169,269.127075 118.599663,272.740387 
	C115.585709,276.214722 116.255615,280.770782 120.436699,284.549042 
	C125.254013,288.902313 130.110870,293.212402 134.987625,297.499084 
	C143.028336,304.566864 151.909012,303.615723 158.101028,294.939545 
	C163.708496,287.082428 169.187576,279.133698 175.113312,270.624298 
M218.529190,298.553009 
	C237.827972,298.691620 257.127045,298.935577 276.425323,298.885834 
	C280.616089,298.875031 283.372467,295.241852 283.280945,291.142761 
	C283.181030,286.665955 280.214020,283.765930 275.024750,283.734497 
	C257.372925,283.627563 239.720078,283.694885 222.067627,283.687653 
	C218.212738,283.686066 215.132156,285.031891 213.935410,288.939056 
	C212.701950,292.966034 214.085953,296.113007 218.529190,298.553009 
z"/>
<path fill="#FA6A32" opacity="1.000000" stroke="none" 
	d="
M229.572815,415.567993 
	C278.695618,354.244873 327.818787,292.922028 376.937561,231.595703 
	C377.663910,230.688873 378.336060,229.738663 379.427490,228.277649 
	C388.214691,217.480957 396.607880,207.215317 405.265564,197.155075 
	C417.732269,207.247726 429.934448,217.134964 442.136658,227.022202 
	C433.818542,237.430466 425.500427,247.838715 416.794250,258.587708 
	C416.109406,259.049469 415.926453,259.266510 415.857361,259.579468 
	C403.690491,274.716095 391.523651,289.852722 378.892822,305.463531 
	C373.420166,312.154114 368.401489,318.362518 363.404266,324.588165 
	C331.131500,364.794464 298.863403,405.004517 266.368286,444.918884 
	C253.952805,434.938965 241.762802,425.253479 229.572815,415.567993 
z"/>
<path fill="#087396" opacity="1.000000" stroke="none" 
	d="
M405.001038,196.949661 
	C396.607880,207.215317 388.214691,217.480957 379.582458,227.971161 
	C379.315887,175.471771 379.289764,122.747818 379.256012,70.023865 
	C379.254517,67.696960 379.183289,65.370110 379.054688,62.591743 
	C386.289337,62.091160 393.617950,61.865734 400.937256,62.037373 
	C410.196442,62.254509 417.001678,70.644760 417.014130,81.620750 
	C417.050964,114.099144 417.047211,146.577576 417.016693,179.864410 
	C412.983032,186.098450 408.992035,191.524048 405.001038,196.949661 
z"/>
<path fill="#FFC3AB" opacity="1.000000" stroke="none" 
	d="
M405.265564,197.155075 
	C408.992035,191.524048 412.983032,186.098450 417.073181,180.329071 
	C421.821838,174.166748 426.430389,168.314911 431.129547,162.536728 
	C440.252319,151.319168 454.335052,148.288544 466.200195,156.874252 
	C477.562286,165.095947 479.196533,181.227615 470.517639,192.013687 
	C461.225098,203.562347 452.007812,215.171570 442.447144,226.888275 
	C429.934448,217.134964 417.732269,207.247726 405.265564,197.155075 
z"/>
<path fill="#0E769F" opacity="1.000000" stroke="none" 
	d="
M415.886169,260.074951 
	C415.926453,259.266510 416.109406,259.049469 416.620117,258.876770 
	C416.888733,259.821014 416.991241,260.816864 416.991211,261.812714 
	C416.988525,339.552826 416.977814,417.292969 416.915710,495.496429 
	C416.576202,493.515320 416.039001,491.071014 416.037537,488.626373 
	C415.992920,415.268799 416.002167,341.911224 415.997620,268.553619 
	C415.997467,265.892578 415.943695,263.231506 415.886169,260.074951 
z"/>
<path fill="#F7F0F0" opacity="1.000000" stroke="none" 
	d="
M266.593750,445.213318 
	C298.863403,405.004517 331.131500,364.794464 363.404266,324.588165 
	C368.401489,318.362518 373.420166,312.154114 378.716858,305.723450 
	C379.090973,307.165314 379.251953,308.821442 379.252411,310.477631 
	C379.265808,359.211029 379.269165,407.944397 379.244720,456.677795 
	C379.243561,458.997742 378.974060,461.317535 378.776062,464.071472 
	C375.802460,469.379456 371.607697,471.341125 365.838531,471.320862 
	C322.842438,471.169830 279.845642,471.221039 236.506042,470.859497 
	C246.306610,462.077881 256.450165,453.645630 266.593750,445.213318 
z"/>
<path fill="#587E87" opacity="1.000000" stroke="none" 
	d="
M266.368286,444.918884 
	C256.450165,453.645630 246.306610,462.077881 236.031784,470.832764 
	C230.570496,475.332214 225.214722,479.476746 219.918137,483.695587 
	C215.208572,487.446808 209.369324,488.263733 205.283051,485.631531 
	C200.891663,482.802795 199.412506,478.371277 200.814102,471.781677 
	C201.910416,469.763763 203.141769,468.199371 204.016876,466.456116 
	C212.448700,449.659363 220.820557,432.832550 229.391190,415.791138 
	C241.762802,425.253479 253.952805,434.938965 266.368286,444.918884 
z"/>
<path fill="#7C727D" opacity="1.000000" stroke="none" 
	d="
M298.000000,173.105148 
	C308.653107,173.107498 318.807037,173.034195 328.959045,173.141922 
	C334.610535,173.201904 338.016724,176.306763 337.994202,180.984070 
	C337.971741,185.649292 334.584473,188.545532 328.865356,188.763382 
	C327.701813,188.807693 326.535370,188.777832 325.370270,188.777847 
	C292.247803,188.778336 259.125336,188.778381 226.002853,188.777954 
	C224.837753,188.777954 223.671036,188.811584 222.507828,188.763199 
	C216.900391,188.530060 213.401367,185.483719 213.437912,180.895187 
	C213.474487,176.300903 216.978058,173.155685 222.600052,173.140182 
	C247.566544,173.071289 272.533325,173.107162 298.000000,173.105148 
z"/>
<path fill="#7C727D" opacity="1.000000" stroke="none" 
	d="
M322.917572,264.839172 
	C290.134949,264.839142 257.840210,264.840027 225.545486,264.836456 
	C224.047806,264.836304 222.537079,264.915771 221.054871,264.753357 
	C216.484039,264.252533 213.436264,261.096558 213.434113,256.993896 
	C213.431961,252.892990 216.482559,249.749146 221.059830,249.241669 
	C222.377151,249.095627 223.720184,249.163620 225.051422,249.163498 
	C258.844360,249.160324 292.637329,249.160416 326.430267,249.163864 
	C327.761536,249.164001 329.104950,249.094528 330.421875,249.242691 
	C335.043396,249.762634 338.004822,252.843628 337.994080,257.011108 
	C337.983337,261.181763 335.032501,264.289551 330.392181,264.740967 
	C328.081970,264.965698 325.735504,264.818268 322.917572,264.839172 
z"/>
<path fill="#786E79" opacity="1.000000" stroke="none" 
	d="
M337.976318,146.901855 
	C337.085632,152.210648 334.015411,154.253128 329.165680,154.249207 
	C293.548706,154.220413 257.931732,154.257507 222.314819,154.209259 
	C216.842667,154.201859 213.635483,151.332748 213.521606,146.788788 
	C213.403198,142.064575 216.774124,138.957687 222.423935,138.951157 
	C258.040833,138.909973 293.657837,138.931671 329.274811,138.932541 
	C334.374237,138.932663 337.437561,141.273056 337.976318,146.901855 
z"/>
<path fill="#FBA719" opacity="1.000000" stroke="none" 
	d="
M146.267548,396.194702 
	C153.653275,385.699493 160.802032,375.468719 167.962708,365.246277 
	C168.820862,364.021210 169.623077,362.723541 170.659454,361.662994 
	C173.603195,358.650543 177.002884,358.143005 180.593567,360.426300 
	C184.010651,362.599213 185.311340,366.988525 182.912628,370.509674 
	C174.109131,383.432587 165.283615,396.358337 155.917297,408.872070 
	C151.554230,414.701294 142.754669,415.148865 137.013290,410.475677 
	C130.951096,405.541382 125.167786,400.250427 119.440491,394.924042 
	C116.125175,391.840851 115.913666,387.231018 118.505669,384.144165 
	C121.299080,380.817444 125.897293,380.406982 129.650940,383.498383 
	C133.888367,386.988251 137.845963,390.816193 142.037903,394.364014 
	C143.158829,395.312683 144.690872,395.775635 146.267548,396.194702 
z"/>
<path fill="#FBA718" opacity="1.000000" stroke="none" 
	d="
M151.117035,165.094925 
	C157.135666,156.478912 162.930573,148.142303 168.791565,139.852463 
	C172.384949,134.769958 176.588882,133.513031 180.570663,136.190460 
	C184.769714,139.013992 185.099274,143.432587 181.354813,148.825638 
	C173.666092,159.899536 165.965134,170.965652 158.170959,181.965363 
	C151.991486,190.686310 143.059769,191.699722 135.071747,184.693466 
	C130.065216,180.302261 125.065651,175.901016 120.149605,171.409424 
	C116.257584,167.853455 115.693222,163.325500 118.532860,159.945023 
	C121.632492,156.255035 126.043495,156.171097 130.398605,159.907486 
	C135.317459,164.127518 140.124588,168.477783 145.423294,173.163132 
	C147.368668,170.414154 149.144943,167.904114 151.117035,165.094925 
z"/>
<path fill="#FBA718" opacity="1.000000" stroke="none" 
	d="
M174.918289,270.924835 
	C169.187576,279.133698 163.708496,287.082428 158.101028,294.939545 
	C151.909012,303.615723 143.028336,304.566864 134.987625,297.499084 
	C130.110870,293.212402 125.254013,288.902313 120.436699,284.549042 
	C116.255615,280.770782 115.585709,276.214722 118.599663,272.740387 
	C121.734169,269.127075 126.129997,269.105682 130.474594,272.843048 
	C135.387161,277.069000 140.205688,281.404297 145.445297,286.027496 
	C152.947006,275.318146 160.258682,264.880249 167.570206,254.442230 
	C172.195038,247.839722 176.155289,246.174530 180.484924,249.012283 
	C185.120590,252.050644 185.061066,256.406677 180.278793,263.269958 
	C178.566177,265.727814 176.835648,268.173187 174.918289,270.924835 
z"/>
<path fill="#796F7A" opacity="1.000000" stroke="none" 
	d="
M218.161819,298.368652 
	C214.085953,296.113007 212.701950,292.966034 213.935410,288.939056 
	C215.132156,285.031891 218.212738,283.686066 222.067627,283.687653 
	C239.720078,283.694885 257.372925,283.627563 275.024750,283.734497 
	C280.214020,283.765930 283.181030,286.665955 283.280945,291.142761 
	C283.372467,295.241852 280.616089,298.875031 276.425323,298.885834 
	C257.127045,298.935577 237.827972,298.691620 218.161819,298.368652 
z"/>
</svg>