<svg version="1.1" id="Layer_1" xmlns="http://www.w3.org/2000/svg" xmlns:xlink="http://www.w3.org/1999/xlink" x="0px" y="0px"
	 width="100%" viewBox="0 0 512 512" enable-background="new 0 0 512 512" xml:space="preserve">
<path fill="#FFFFFF" opacity="1.000000" stroke="none" 
	d="
M424.000000,0.999999 
	C453.649902,1.000000 483.299805,1.000000 512.974854,1.000000 
	C512.974854,171.553421 512.974854,342.106842 512.974854,513.000000 
	C455.646210,513.000000 398.291779,513.000000 340.540222,512.642822 
	C344.597412,510.620361 349.072266,509.007690 353.502472,507.280548 
	C372.391693,499.916412 387.086853,487.458099 397.840424,470.357605 
	C407.986511,454.223175 411.929596,436.534637 411.059082,417.557953 
	C410.505463,405.489990 412.857056,407.295868 400.392975,406.935577 
	C396.291748,406.817047 394.802795,408.130920 394.928040,412.319397 
	C395.136719,419.299774 395.571716,426.406036 394.574738,433.264984 
	C391.590210,453.796936 381.320251,470.237488 364.759796,482.692383 
	C347.623260,495.580627 328.213837,499.665833 307.357880,496.174866 
	C284.306732,492.316406 267.280853,479.250763 255.374573,459.476959 
	C250.017303,450.579681 246.458649,440.847778 246.162155,430.323181 
	C246.105804,428.322998 247.623886,425.595276 249.278320,424.344116 
	C258.139832,417.642578 267.360718,411.418915 276.297943,404.814270 
	C298.125793,388.683411 318.976410,371.434326 335.642700,349.772797 
	C354.373718,325.427795 364.933105,298.493073 359.965851,267.175415 
	C356.360352,244.443085 345.146057,226.331696 324.141541,216.296509 
	C299.275665,204.416519 275.354706,208.249939 253.235458,224.308365 
	C250.660339,226.177872 248.194122,228.197418 244.998184,230.673721 
	C244.998184,227.680481 244.998199,225.696915 244.998199,223.713348 
	C244.997971,178.066971 245.206985,132.419220 244.906097,86.774811 
	C244.763260,65.103691 236.237503,46.430222 221.871933,30.431305 
	C209.904861,17.103571 195.094299,8.254876 177.857071,3.391876 
	C176.457825,2.997113 175.280472,1.815813 174.000000,0.999999 
	C243.354233,1.000000 312.708466,1.000000 382.466187,1.367570 
	C382.030212,2.161223 381.217072,2.652412 380.347351,3.003513 
	C369.297272,7.464443 357.058533,10.152835 347.393372,16.663679 
	C311.352875,40.942047 293.988464,75.044098 299.021149,118.936874 
	C303.898071,161.470978 333.622345,195.937637 374.211914,207.173813 
	C378.224823,208.284683 380.235352,210.025772 380.157898,214.723282 
	C380.007660,223.835266 382.223053,232.509796 390.642731,237.551636 
	C394.341125,239.766312 395.075745,242.202072 395.066772,245.980362 
	C394.979492,282.813416 395.011444,319.646790 395.017426,356.480042 
	C395.018463,362.976654 395.035614,362.976898 401.670898,362.994415 
	C402.504211,362.996613 403.337555,362.996185 404.170868,362.994537 
	C410.980072,362.980957 410.991302,362.980774 410.992065,356.146393 
	C410.996216,319.313141 410.961243,282.479736 411.082825,245.646881 
	C411.089600,243.597000 411.764526,240.460449 413.162628,239.678314 
	C423.289795,234.012909 427.226654,225.486359 425.970795,214.266159 
	C425.502686,210.084244 427.391205,208.605927 431.347626,207.603958 
	C447.090851,203.616989 461.255890,196.121414 473.124207,185.173798 
	C501.691681,158.822540 514.071838,126.198570 506.973419,87.663673 
	C499.156738,45.229450 473.545929,17.907198 432.622620,4.686782 
	C429.660553,3.729873 426.870178,2.241357 424.000000,0.999999 
M407.212769,377.012268 
	C404.218292,377.019653 401.223022,377.074402 398.229584,377.021545 
	C395.003052,376.964630 394.571991,379.251892 395.102936,381.403107 
	C396.045349,385.221558 392.260345,390.079681 397.574371,392.910156 
	C397.709198,392.981934 397.903015,392.936798 398.067261,392.960358 
	C409.929810,394.659821 411.556793,393.193665 410.989441,381.299652 
	C410.949951,380.471588 411.149689,379.421204 410.724335,378.872559 
	C410.105591,378.074432 409.019501,377.638580 407.212769,377.012268 
z"/>
<path fill="#FFFFFF" opacity="1.000000" stroke="none" 
	d="
M301.000000,513.000000 
	C229.645767,513.000000 158.291550,513.000000 86.516853,512.646118 
	C87.203636,511.636383 88.240654,510.788788 89.428757,510.353760 
	C104.748146,504.744446 116.208855,494.416473 124.094452,480.467285 
	C140.162979,452.042938 142.339249,422.270233 130.703873,391.748779 
	C125.733589,378.710907 118.441307,367.018494 106.974464,358.552185 
	C103.138672,355.720154 101.337685,352.492615 101.920166,347.666504 
	C102.316635,344.381500 102.079712,341.006439 101.972206,337.676636 
	C101.643066,327.481720 94.056076,317.412964 85.112816,316.149109 
	C80.293892,315.468140 78.891342,313.562683 78.900772,308.775024 
	C79.041878,237.111206 78.968567,165.446976 79.063660,93.783012 
	C79.070221,88.837914 79.688019,83.836182 80.568405,78.959511 
	C84.639580,56.408276 96.798332,39.439106 116.171974,27.290289 
	C131.239975,17.841446 147.679565,15.053246 164.865219,17.348444 
	C185.783676,20.142170 202.400650,30.816084 215.054825,47.641315 
	C223.368378,58.695168 228.705734,71.227638 228.834579,84.964294 
	C229.272263,131.625214 229.010132,178.292709 228.993301,224.957703 
	C228.992798,226.312347 228.746353,227.666916 228.570374,229.475754 
	C225.739624,227.298294 223.577591,225.505219 221.287659,223.893967 
	C199.679276,208.689789 176.238052,204.387466 152.044861,215.740326 
	C119.493645,231.015274 110.589867,263.593445 114.537720,295.106171 
	C116.945877,314.328674 125.372002,331.252777 136.874344,346.646820 
	C141.396622,352.699158 146.377213,358.409058 151.278610,364.434082 
	C153.796249,362.526306 155.488663,361.243835 157.462540,360.119141 
	C160.784775,363.249603 163.825577,366.222290 166.719849,369.469299 
	C165.197784,371.324707 163.822220,372.905731 162.019852,374.977356 
	C169.074188,381.139313 175.467422,387.421326 182.561569,392.774506 
	C197.089081,403.736847 212.051620,414.121521 226.661499,424.977570 
	C228.339142,426.224121 229.680069,428.883514 229.880035,431.009796 
	C231.762466,451.025452 239.451996,468.380951 252.820801,483.353088 
	C265.025818,497.021851 280.144684,505.795410 297.635406,510.797211 
	C298.866272,511.149170 299.883453,512.248291 301.000000,513.000000 
z"/>
<path fill="#3D2D2D" opacity="1.000000" stroke="none" 
	d="
M157.181091,359.961365 
	C155.488663,361.243835 153.796249,362.526306 151.278610,364.434082 
	C146.377213,358.409058 141.396622,352.699158 136.874344,346.646820 
	C125.372002,331.252777 116.945877,314.328674 114.537720,295.106171 
	C110.589867,263.593445 119.493645,231.015274 152.044861,215.740326 
	C176.238052,204.387466 199.679276,208.689789 221.287659,223.893967 
	C223.577591,225.505219 225.739624,227.298294 228.570374,229.475754 
	C228.746353,227.666916 228.992798,226.312347 228.993301,224.957703 
	C229.010132,178.292709 229.272263,131.625214 228.834579,84.964294 
	C228.705734,71.227638 223.368378,58.695168 215.054825,47.641315 
	C202.400650,30.816084 185.783676,20.142170 164.865219,17.348444 
	C147.679565,15.053246 131.239975,17.841446 116.171974,27.290289 
	C96.798332,39.439106 84.639580,56.408276 80.568405,78.959511 
	C79.688019,83.836182 79.070221,88.837914 79.063660,93.783012 
	C78.968567,165.446976 79.041878,237.111206 78.900772,308.775024 
	C78.891342,313.562683 80.293892,315.468140 85.112816,316.149109 
	C94.056076,317.412964 101.643066,327.481720 101.972206,337.676636 
	C102.079712,341.006439 102.316635,344.381500 101.920166,347.666504 
	C101.337685,352.492615 103.138672,355.720154 106.974464,358.552185 
	C118.441307,367.018494 125.733589,378.710907 130.703873,391.748779 
	C142.339249,422.270233 140.162979,452.042938 124.094452,480.467285 
	C116.208855,494.416473 104.748146,504.744446 89.428757,510.353760 
	C88.240654,510.788788 87.203636,511.636383 86.048195,512.646118 
	C76.645767,513.000000 67.291542,513.000000 57.420425,512.645996 
	C55.950081,511.701752 55.065426,510.919128 54.032936,510.549835 
	C36.342796,504.222321 24.122572,491.799500 15.837123,475.425201 
	C5.122869,454.250946 2.354664,431.793030 7.165344,408.599030 
	C11.389695,388.231903 20.085909,370.228363 37.238865,357.424347 
	C40.152332,355.249603 41.260662,353.006836 41.061310,349.517822 
	C40.814697,345.201691 40.892357,340.856445 41.037033,336.530731 
	C41.338661,327.512054 48.238182,318.080139 56.974056,316.450439 
	C62.339554,315.449493 63.070927,313.022797 63.084782,308.407593 
	C63.309662,233.491302 63.435211,158.573120 64.158493,83.660927 
	C64.351646,63.656708 73.070847,46.438545 86.082413,31.451139 
	C98.448471,17.207283 114.014122,8.090032 132.115280,3.088067 
	C133.187317,2.791824 134.043411,1.714076 135.000000,0.999998 
	C147.687561,1.000000 160.375122,1.000000 173.531342,0.999999 
	C175.280472,1.815813 176.457825,2.997113 177.857071,3.391876 
	C195.094299,8.254876 209.904861,17.103571 221.871933,30.431305 
	C236.237503,46.430222 244.763260,65.103691 244.906097,86.774811 
	C245.206985,132.419220 244.997971,178.066971 244.998199,223.713348 
	C244.998199,225.696915 244.998184,227.680481 244.998184,230.673721 
	C248.194122,228.197418 250.660339,226.177872 253.235458,224.308365 
	C275.354706,208.249939 299.275665,204.416519 324.141541,216.296509 
	C345.146057,226.331696 356.360352,244.443085 359.965851,267.175415 
	C364.933105,298.493073 354.373718,325.427795 335.642700,349.772797 
	C318.976410,371.434326 298.125793,388.683411 276.297943,404.814270 
	C267.360718,411.418915 258.139832,417.642578 249.278320,424.344116 
	C247.623886,425.595276 246.105804,428.322998 246.162155,430.323181 
	C246.458649,440.847778 250.017303,450.579681 255.374573,459.476959 
	C267.280853,479.250763 284.306732,492.316406 307.357880,496.174866 
	C328.213837,499.665833 347.623260,495.580627 364.759796,482.692383 
	C381.320251,470.237488 391.590210,453.796936 394.574738,433.264984 
	C395.571716,426.406036 395.136719,419.299774 394.928040,412.319397 
	C394.802795,408.130920 396.291748,406.817047 400.392975,406.935577 
	C412.857056,407.295868 410.505463,405.489990 411.059082,417.557953 
	C411.929596,436.534637 407.986511,454.223175 397.840424,470.357605 
	C387.086853,487.458099 372.391693,499.916412 353.502472,507.280548 
	C349.072266,509.007690 344.597412,510.620361 340.071533,512.642822 
	C327.312439,513.000000 314.624878,513.000000 301.468658,513.000000 
	C299.883453,512.248291 298.866272,511.149170 297.635406,510.797211 
	C280.144684,505.795410 265.025818,497.021851 252.820801,483.353088 
	C239.451996,468.380951 231.762466,451.025452 229.880035,431.009796 
	C229.680069,428.883514 228.339142,426.224121 226.661499,424.977570 
	C212.051620,414.121521 197.089081,403.736847 182.561569,392.774506 
	C175.467422,387.421326 169.074188,381.139313 162.019852,374.977356 
	C163.822220,372.905731 165.197784,371.324707 167.078491,369.391327 
	C169.494736,367.528320 171.405823,366.017700 173.320663,364.504059 
	C174.082809,365.019806 174.649017,365.361206 175.169952,365.761505 
	C194.641663,380.722839 214.144150,395.644562 233.541412,410.701843 
	C236.623672,413.094482 239.042221,413.301605 241.772705,410.036255 
	C257.953430,398.131287 274.169556,386.735504 289.624023,374.386505 
	C306.068848,361.246246 320.778778,346.251740 331.724518,328.036682 
	C343.336426,308.712982 349.094604,288.099762 343.938416,265.508148 
	C337.475006,237.189224 312.058289,220.138397 285.074097,226.143372 
	C269.970734,229.504410 258.381561,238.587082 248.808548,250.351242 
	C244.833954,255.235580 241.367920,260.533752 237.362152,266.070038 
	C235.145065,262.857178 233.095139,259.885895 231.044540,256.915070 
	C223.059341,245.346466 213.313217,235.726562 200.380051,229.798233 
	C191.114578,225.551117 181.483337,223.468414 170.874298,225.961487 
	C161.119278,227.440186 152.981750,231.500290 146.319778,238.125381 
	C129.914108,254.440140 126.558846,274.509796 130.543488,296.318237 
	C134.319794,316.986572 145.438660,333.877167 158.975586,349.398926 
	C160.134476,350.727783 161.257095,352.088257 162.321121,353.344910 
	C160.381744,355.841339 158.781418,357.901367 157.181091,359.961365 
M65.503265,361.348328 
	C53.638626,363.106110 44.563515,369.569336 37.308834,378.670898 
	C23.855797,395.548798 19.608250,415.183350 20.955990,436.289459 
	C22.057598,453.541016 27.603333,469.196899 39.138512,482.261993 
	C46.569973,490.679169 55.575836,496.733582 68.135597,497.719818 
	C79.019363,498.856628 88.493011,495.341003 96.859756,488.666595 
	C129.611847,462.539276 130.916504,399.546967 99.267921,372.034515 
	C89.833237,363.832886 79.151405,359.147125 65.503265,361.348328 
M68.664917,345.947723 
	C74.259872,346.282990 79.854828,346.618225 85.678291,346.967163 
	C85.806488,346.540894 86.131706,345.931915 86.150238,345.313782 
	C86.219894,342.990417 86.314186,340.656281 86.170761,338.340363 
	C85.870705,333.495056 83.513237,331.110687 78.598534,330.934753 
	C73.786644,330.762512 68.962822,330.841644 64.145897,330.916809 
	C60.161407,330.979004 57.288864,332.940186 56.725571,336.912140 
	C56.250572,340.261475 56.627789,343.731628 56.627789,347.453339 
	C60.566174,346.926544 64.148773,346.447327 68.664917,345.947723 
z"/>
<path fill="#FFFFFF" opacity="1.000000" stroke="none" 
	d="
M134.531342,0.999998 
	C134.043411,1.714076 133.187317,2.791824 132.115280,3.088067 
	C114.014122,8.090032 98.448471,17.207283 86.082413,31.451139 
	C73.070847,46.438545 64.351646,63.656708 64.158493,83.660927 
	C63.435211,158.573120 63.309662,233.491302 63.084782,308.407593 
	C63.070927,313.022797 62.339554,315.449493 56.974056,316.450439 
	C48.238182,318.080139 41.338661,327.512054 41.037033,336.530731 
	C40.892357,340.856445 40.814697,345.201691 41.061310,349.517822 
	C41.260662,353.006836 40.152332,355.249603 37.238865,357.424347 
	C20.085909,370.228363 11.389695,388.231903 7.165344,408.599030 
	C2.354664,431.793030 5.122869,454.250946 15.837123,475.425201 
	C24.122572,491.799500 36.342796,504.222321 54.032936,510.549835 
	C55.065426,510.919128 55.950081,511.701752 56.951767,512.645996 
	C38.344971,513.000000 19.689943,513.000000 1.017457,513.000000 
	C1.017457,342.451385 1.017457,171.902756 1.017457,1.000000 
	C45.353600,1.000000 89.708138,1.000000 134.531342,0.999998 
z"/>
<path fill="#3E2E2E" opacity="1.000000" stroke="none" 
	d="
M423.531342,0.999999 
	C426.870178,2.241357 429.660553,3.729873 432.622620,4.686782 
	C473.545929,17.907198 499.156738,45.229450 506.973419,87.663673 
	C514.071838,126.198570 501.691681,158.822540 473.124207,185.173798 
	C461.255890,196.121414 447.090851,203.616989 431.347626,207.603958 
	C427.391205,208.605927 425.502686,210.084244 425.970795,214.266159 
	C427.226654,225.486359 423.289795,234.012909 413.162628,239.678314 
	C411.764526,240.460449 411.089600,243.597000 411.082825,245.646881 
	C410.961243,282.479736 410.996216,319.313141 410.992065,356.146393 
	C410.991302,362.980774 410.980072,362.980957 404.170868,362.994537 
	C403.337555,362.996185 402.504211,362.996613 401.670898,362.994415 
	C395.035614,362.976898 395.018463,362.976654 395.017426,356.480042 
	C395.011444,319.646790 394.979492,282.813416 395.066772,245.980362 
	C395.075745,242.202072 394.341125,239.766312 390.642731,237.551636 
	C382.223053,232.509796 380.007660,223.835266 380.157898,214.723282 
	C380.235352,210.025772 378.224823,208.284683 374.211914,207.173813 
	C333.622345,195.937637 303.898071,161.470978 299.021149,118.936874 
	C293.988464,75.044098 311.352875,40.942047 347.393372,16.663679 
	C357.058533,10.152835 369.297272,7.464443 380.347351,3.003513 
	C381.217072,2.652412 382.030212,2.161223 382.934814,1.367570 
	C396.354218,1.000000 409.708466,1.000000 423.531342,0.999999 
M390.855835,47.805725 
	C390.855835,47.805725 390.895172,47.679401 390.073273,47.656231 
	C357.570312,54.521778 336.811584,88.555458 345.348999,120.981071 
	C351.187622,143.156616 370.389862,161.417908 390.869843,164.181198 
	C390.869843,164.181198 390.742645,164.230225 391.041809,164.662064 
	C391.382050,164.690735 391.722260,164.719421 392.878815,164.976776 
	C416.901703,169.121552 440.811066,158.758774 453.735382,138.600266 
	C466.829010,118.177643 466.536987,92.142372 452.991516,72.279480 
	C439.434540,52.399689 415.581573,42.597794 391.546051,47.170116 
	C391.274780,47.366226 391.003510,47.562340 390.855835,47.805725 
M385.824402,33.117710 
	C389.064270,32.496624 392.304138,31.875540 395.685425,31.227343 
	C395.685425,26.241169 395.685425,21.502729 395.685425,16.751898 
	C349.482758,19.033928 314.118744,62.054722 314.635712,98.341660 
	C319.253754,98.341660 323.872406,98.341660 328.431549,98.341660 
	C337.738220,60.754978 354.034821,42.073627 385.824402,33.117710 
M365.115906,187.387177 
	C374.793945,191.858276 384.824677,194.920395 395.624390,195.453003 
	C395.624390,190.285385 395.624390,185.558762 395.624390,180.968842 
	C357.512756,174.021591 335.295990,151.682098 328.453400,113.851479 
	C323.762848,113.851479 319.012238,113.851479 313.602234,113.851479 
	C317.987152,147.407074 334.607666,171.780746 365.115906,187.387177 
M444.555389,25.942612 
	C434.099396,20.730181 423.201813,17.185240 410.962097,16.531055 
	C410.962097,20.620739 411.107758,24.098627 410.917206,27.558001 
	C410.757477,30.458672 411.787476,31.608221 414.754333,32.025005 
	C429.689087,34.123035 442.720490,40.451912 453.818817,50.607906 
	C466.524078,62.234398 474.369019,76.568069 477.359222,93.588173 
	C477.671326,95.364449 479.046570,98.170876 480.250336,98.351189 
	C484.272095,98.953644 488.440125,98.579552 493.245117,98.579552 
	C489.204193,65.839325 473.346924,42.003483 444.555389,25.942612 
M412.486389,195.388306 
	C461.919769,190.894058 492.384247,146.864777 492.349792,113.696884 
	C487.749512,113.696884 483.148926,113.696884 478.515533,113.696884 
	C478.222595,114.564217 477.935699,115.170006 477.814575,115.807327 
	C470.996368,151.674561 449.965302,173.388016 413.869995,180.231903 
	C412.783722,180.437881 411.154419,181.955780 411.134827,182.890472 
	C411.048981,186.983536 411.463501,191.087112 412.486389,195.388306 
M400.484833,225.244949 
	C404.065033,226.758911 407.692657,226.035706 409.173889,222.778992 
	C410.582550,219.681808 410.317688,215.793793 410.555023,212.237915 
	C410.579651,211.868896 409.031616,211.065018 408.187714,211.026703 
	C405.030823,210.883316 401.854309,210.843796 398.705414,211.060257 
	C397.807587,211.121994 396.280304,212.130234 396.230682,212.793335 
	C395.899750,217.219299 394.983368,221.943878 400.484833,225.244949 
z"/>
<path fill="#3D2D2D" opacity="1.000000" stroke="none" 
	d="
M407.672729,377.030273 
	C409.019501,377.638580 410.105591,378.074432 410.724335,378.872559 
	C411.149689,379.421204 410.949951,380.471588 410.989441,381.299652 
	C411.556793,393.193665 409.929810,394.659821 398.067261,392.960358 
	C397.903015,392.936798 397.709198,392.981934 397.574371,392.910156 
	C392.260345,390.079681 396.045349,385.221558 395.102936,381.403107 
	C394.571991,379.251892 395.003052,376.964630 398.229584,377.021545 
	C401.223022,377.074402 404.218292,377.019653 407.672729,377.030273 
z"/>
<path fill="#D9390F" opacity="1.000000" stroke="none" 
	d="
M241.472961,410.126068 
	C239.042221,413.301605 236.623672,413.094482 233.541412,410.701843 
	C214.144150,395.644562 194.641663,380.722839 175.169952,365.761505 
	C174.649017,365.361206 174.082809,365.019806 173.320663,364.504059 
	C171.405823,366.017700 169.494736,367.528320 167.225006,369.116943 
	C163.825577,366.222290 160.784775,363.249603 157.462540,360.119141 
	C158.781418,357.901367 160.381744,355.841339 162.321121,353.344910 
	C161.257095,352.088257 160.134476,350.727783 158.975586,349.398926 
	C145.438660,333.877167 134.319794,316.986572 130.543488,296.318237 
	C126.558846,274.509796 129.914108,254.440140 146.319778,238.125381 
	C152.981750,231.500290 161.119278,227.440186 170.656311,226.244049 
	C150.813431,241.495682 142.906540,262.021027 144.193466,286.313385 
	C145.244415,306.151184 152.952545,323.779358 164.377243,339.792419 
	C178.436417,359.498016 196.285324,375.445953 215.282089,390.188538 
	C223.949677,396.915161 232.738907,403.485077 241.472961,410.126068 
z"/>
<path fill="#E36A4A" opacity="1.000000" stroke="none" 
	d="
M241.772705,410.036255 
	C232.738907,403.485077 223.949677,396.915161 215.282089,390.188538 
	C196.285324,375.445953 178.436417,359.498016 164.377243,339.792419 
	C152.952545,323.779358 145.244415,306.151184 144.193466,286.313385 
	C142.906540,262.021027 150.813431,241.495682 171.073669,226.271729 
	C181.483337,223.468414 191.114578,225.551117 200.380051,229.798233 
	C213.313217,235.726562 223.059341,245.346466 231.044540,256.915070 
	C233.095139,259.885895 235.145065,262.857178 237.362152,266.070038 
	C241.367920,260.533752 244.833954,255.235580 248.808548,250.351242 
	C258.381561,238.587082 269.970734,229.504410 285.074097,226.143372 
	C312.058289,220.138397 337.475006,237.189224 343.938416,265.508148 
	C349.094604,288.099762 343.336426,308.712982 331.724518,328.036682 
	C320.778778,346.251740 306.068848,361.246246 289.624023,374.386505 
	C274.169556,386.735504 257.953430,398.131287 241.772705,410.036255 
M233.112854,325.388306 
	C239.818985,331.498749 246.525116,337.609222 253.292587,343.775574 
	C259.636169,335.561951 266.664124,326.688751 273.404266,317.602051 
	C275.524139,314.744171 277.802826,313.538910 281.337799,313.766571 
	C285.757812,314.051178 290.210052,313.834961 295.188171,313.834961 
	C295.188171,309.464752 295.090424,305.833923 295.220490,302.211243 
	C295.316650,299.532928 294.065308,298.766693 291.601288,298.805054 
	C285.773468,298.895844 279.929901,299.065186 274.118622,298.739807 
	C270.342163,298.528381 267.978485,299.847992 265.804321,302.864960 
	C261.167053,309.299835 256.166016,315.472565 250.973129,322.193970 
	C239.428024,310.242523 228.423401,298.850586 217.077271,287.105133 
	C211.253601,295.124237 206.147629,302.516510 200.590332,309.552277 
	C199.208038,311.302307 196.447662,312.621277 194.179199,312.875458 
	C189.620331,313.386230 184.964020,313.027313 180.151123,313.027313 
	C180.151123,318.330322 180.151123,322.997772 180.151123,328.035065 
	C187.782288,328.035065 194.935837,328.269318 202.056793,327.890442 
	C204.155960,327.778748 206.731018,326.413269 208.102661,324.789825 
	C211.814545,320.396515 214.997131,315.555969 218.182404,311.177673 
	C223.247223,315.987305 227.931595,320.435608 233.112854,325.388306 
M284.695709,257.866608 
	C288.268188,257.866608 291.840668,257.866608 295.489441,257.866608 
	C295.489441,252.479752 295.489441,247.914444 295.489441,243.213867 
	C290.473480,243.213867 285.783234,243.213867 280.769653,243.213867 
	C280.769653,247.405365 280.559906,251.222122 280.906372,254.987686 
	C281.001678,256.023499 282.758850,256.906372 284.695709,257.866608 
M325.809021,267.335022 
	C325.809021,264.270508 325.809021,261.205994 325.809021,258.152100 
	C320.363373,258.152100 315.794281,258.152100 311.205048,258.152100 
	C311.205048,263.172089 311.205048,267.849365 311.205048,272.682861 
	C316.095276,272.682861 320.533386,272.682861 325.426849,272.682861 
	C325.561951,271.117737 325.685211,269.689606 325.809021,267.335022 
z"/>
<path fill="#BBBBBE" opacity="1.000000" stroke="none" 
	d="
M66.285500,361.486359 
	C79.151405,359.147125 89.833237,363.832886 99.267921,372.034515 
	C130.916504,399.546967 129.611847,462.539276 96.859756,488.666595 
	C88.493011,495.341003 79.019363,498.856628 67.541855,497.301208 
	C40.577732,476.578308 33.209644,448.725006 36.572227,417.341522 
	C38.959671,395.059113 48.652737,375.992889 66.285500,361.486359 
z"/>
<path fill="#78777C" opacity="1.000000" stroke="none" 
	d="
M65.894379,361.417358 
	C48.652737,375.992889 38.959671,395.059113 36.572227,417.341522 
	C33.209644,448.725006 40.577732,476.578308 67.134262,497.139282 
	C55.575836,496.733582 46.569973,490.679169 39.138512,482.261993 
	C27.603333,469.196899 22.057598,453.541016 20.955990,436.289459 
	C19.608250,415.183350 23.855797,395.548798 37.308834,378.670898 
	C44.563515,369.569336 53.638626,363.106110 65.894379,361.417358 
z"/>
<path fill="#77757A" opacity="1.000000" stroke="none" 
	d="
M68.198143,345.957947 
	C64.148773,346.447327 60.566174,346.926544 56.627789,347.453339 
	C56.627789,343.731628 56.250572,340.261475 56.725571,336.912140 
	C57.288864,332.940186 60.161407,330.979004 64.145897,330.916809 
	C68.962822,330.841644 73.786644,330.762512 78.598534,330.934753 
	C83.513237,331.110687 85.870705,333.495056 86.170761,338.340363 
	C86.314186,340.656281 86.219894,342.990417 86.150238,345.313782 
	C86.131706,345.931915 85.806488,346.540894 85.678291,346.967163 
	C79.854828,346.618225 74.259872,346.282990 68.198143,345.957947 
z"/>
<path fill="#C3E4F8" opacity="1.000000" stroke="none" 
	d="
M392.070068,47.245041 
	C415.581573,42.597794 439.434540,52.399689 452.991516,72.279480 
	C466.536987,92.142372 466.829010,118.177643 453.735382,138.600266 
	C440.811066,158.758774 416.901703,169.121552 392.293762,164.683655 
	C391.386658,164.337097 391.064667,164.283661 390.742645,164.230225 
	C390.742645,164.230225 390.869843,164.181198 390.712097,163.949188 
	C384.487396,158.109421 377.559753,153.180466 372.506317,146.773315 
	C353.303864,122.426888 353.643188,88.422119 373.238373,64.284103 
	C378.284668,58.067879 384.965302,53.178364 390.895172,47.679398 
	C390.895172,47.679401 390.855835,47.805725 391.047668,47.797981 
	C391.516388,47.608505 391.793213,47.426773 392.070068,47.245041 
M382.326019,113.869926 
	C388.049286,125.967438 397.633972,130.483643 410.432404,127.441765 
	C411.947906,127.081558 414.339447,127.792427 415.466980,128.888977 
	C419.338745,132.654434 422.828949,136.812241 425.403351,139.650482 
	C430.171539,135.700409 433.818665,132.679047 437.884827,129.310577 
	C434.322876,125.932564 431.329071,122.797020 428.019409,120.040756 
	C424.910645,117.451797 423.668854,114.910072 425.173401,110.722687 
	C426.123138,108.079361 425.995697,104.760292 425.449463,101.917641 
	C422.941650,88.866066 410.506317,81.019707 397.787231,84.178329 
	C385.364990,87.263237 378.593231,99.727417 382.326019,113.869926 
z"/>
<path fill="#FADF1E" opacity="1.000000" stroke="none" 
	d="
M385.421814,33.211311 
	C354.034821,42.073627 337.738220,60.754978 328.431549,98.341660 
	C323.872406,98.341660 319.253754,98.341660 314.635712,98.341660 
	C314.118744,62.054722 349.482758,19.033928 395.685425,16.751898 
	C395.685425,21.502729 395.685425,26.241169 395.685425,31.227343 
	C392.304138,31.875540 389.064270,32.496624 385.421814,33.211311 
z"/>
<path fill="#FBED8E" opacity="1.000000" stroke="none" 
	d="
M364.776215,187.226242 
	C334.607666,171.780746 317.987152,147.407074 313.602234,113.851479 
	C319.012238,113.851479 323.762848,113.851479 328.453400,113.851479 
	C335.295990,151.682098 357.512756,174.021591 395.624390,180.968842 
	C395.624390,185.558762 395.624390,190.285385 395.624390,195.453003 
	C384.824677,194.920395 374.793945,191.858276 364.776215,187.226242 
z"/>
<path fill="#E16949" opacity="1.000000" stroke="none" 
	d="
M444.887512,26.105877 
	C473.346924,42.003483 489.204193,65.839325 493.245117,98.579552 
	C488.440125,98.579552 484.272095,98.953644 480.250336,98.351189 
	C479.046570,98.170876 477.671326,95.364449 477.359222,93.588173 
	C474.369019,76.568069 466.524078,62.234398 453.818817,50.607906 
	C442.720490,40.451912 429.689087,34.123035 414.754333,32.025005 
	C411.787476,31.608221 410.757477,30.458672 410.917206,27.558001 
	C411.107758,24.098627 410.962097,20.620739 410.962097,16.531055 
	C423.201813,17.185240 434.099396,20.730181 444.887512,26.105877 
z"/>
<path fill="#D9380E" opacity="1.000000" stroke="none" 
	d="
M412.091431,195.287598 
	C411.463501,191.087112 411.048981,186.983536 411.134827,182.890472 
	C411.154419,181.955780 412.783722,180.437881 413.869995,180.231903 
	C449.965302,173.388016 470.996368,151.674561 477.814575,115.807327 
	C477.935699,115.170006 478.222595,114.564217 478.515533,113.696884 
	C483.148926,113.696884 487.749512,113.696884 492.349792,113.696884 
	C492.384247,146.864777 461.919769,190.894058 412.091431,195.287598 
z"/>
<path fill="#83C6EE" opacity="1.000000" stroke="none" 
	d="
M390.484222,47.667809 
	C384.965302,53.178364 378.284668,58.067879 373.238373,64.284103 
	C353.643188,88.422119 353.303864,122.426888 372.506317,146.773315 
	C377.559753,153.180466 384.487396,158.109421 390.732971,164.014069 
	C370.389862,161.417908 351.187622,143.156616 345.348999,120.981071 
	C336.811584,88.555458 357.570312,54.521778 390.484222,47.667809 
z"/>
<path fill="#77767B" opacity="1.000000" stroke="none" 
	d="
M400.133972,225.072266 
	C394.983368,221.943878 395.899750,217.219299 396.230682,212.793335 
	C396.280304,212.130234 397.807587,211.121994 398.705414,211.060257 
	C401.854309,210.843796 405.030823,210.883316 408.187714,211.026703 
	C409.031616,211.065018 410.579651,211.868896 410.555023,212.237915 
	C410.317688,215.793793 410.582550,219.681808 409.173889,222.778992 
	C407.692657,226.035706 404.065033,226.758911 400.133972,225.072266 
z"/>
<path fill="#83C6EE" opacity="1.000000" stroke="none" 
	d="
M390.892212,164.446136 
	C391.064667,164.283661 391.386658,164.337097 391.885590,164.569305 
	C391.722260,164.719421 391.382050,164.690735 390.892212,164.446136 
z"/>
<path fill="#83C6EE" opacity="1.000000" stroke="none" 
	d="
M391.808044,47.207581 
	C391.793213,47.426773 391.516388,47.608505 390.985901,47.774345 
	C391.003510,47.562340 391.274780,47.366226 391.808044,47.207581 
z"/>
<path fill="#3F2E2D" opacity="1.000000" stroke="none" 
	d="
M232.864410,325.136108 
	C227.931595,320.435608 223.247223,315.987305 218.182404,311.177673 
	C214.997131,315.555969 211.814545,320.396515 208.102661,324.789825 
	C206.731018,326.413269 204.155960,327.778748 202.056793,327.890442 
	C194.935837,328.269318 187.782288,328.035065 180.151123,328.035065 
	C180.151123,322.997772 180.151123,318.330322 180.151123,313.027313 
	C184.964020,313.027313 189.620331,313.386230 194.179199,312.875458 
	C196.447662,312.621277 199.208038,311.302307 200.590332,309.552277 
	C206.147629,302.516510 211.253601,295.124237 217.077271,287.105133 
	C228.423401,298.850586 239.428024,310.242523 250.973129,322.193970 
	C256.166016,315.472565 261.167053,309.299835 265.804321,302.864960 
	C267.978485,299.847992 270.342163,298.528381 274.118622,298.739807 
	C279.929901,299.065186 285.773468,298.895844 291.601288,298.805054 
	C294.065308,298.766693 295.316650,299.532928 295.220490,302.211243 
	C295.090424,305.833923 295.188171,309.464752 295.188171,313.834961 
	C290.210052,313.834961 285.757812,314.051178 281.337799,313.766571 
	C277.802826,313.538910 275.524139,314.744171 273.404266,317.602051 
	C266.664124,326.688751 259.636169,335.561951 253.292587,343.775574 
	C246.525116,337.609222 239.818985,331.498749 232.864410,325.136108 
z"/>
<path fill="#FEFAF9" opacity="1.000000" stroke="none" 
	d="
M284.224579,257.863037 
	C282.758850,256.906372 281.001678,256.023499 280.906372,254.987686 
	C280.559906,251.222122 280.769653,247.405365 280.769653,243.213867 
	C285.783234,243.213867 290.473480,243.213867 295.489441,243.213867 
	C295.489441,247.914444 295.489441,252.479752 295.489441,257.866608 
	C291.840668,257.866608 288.268188,257.866608 284.224579,257.863037 
z"/>
<path fill="#FEFAF9" opacity="1.000000" stroke="none" 
	d="
M325.808777,267.798248 
	C325.685211,269.689606 325.561951,271.117737 325.426849,272.682861 
	C320.533386,272.682861 316.095276,272.682861 311.205048,272.682861 
	C311.205048,267.849365 311.205048,263.172089 311.205048,258.152100 
	C315.794281,258.152100 320.363373,258.152100 325.809021,258.152100 
	C325.809021,261.205994 325.809021,264.270508 325.808777,267.798248 
z"/>
<path fill="#403131" opacity="1.000000" stroke="none" 
	d="
M382.198914,113.487152 
	C378.593231,99.727417 385.364990,87.263237 397.787231,84.178329 
	C410.506317,81.019707 422.941650,88.866066 425.449463,101.917641 
	C425.995697,104.760292 426.123138,108.079361 425.173401,110.722687 
	C423.668854,114.910072 424.910645,117.451797 428.019409,120.040756 
	C431.329071,122.797020 434.322876,125.932564 437.884827,129.310577 
	C433.818665,132.679047 430.171539,135.700409 425.403351,139.650482 
	C422.828949,136.812241 419.338745,132.654434 415.466980,128.888977 
	C414.339447,127.792427 411.947906,127.081558 410.432404,127.441765 
	C397.633972,130.483643 388.049286,125.967438 382.198914,113.487152 
M399.590027,99.664818 
	C396.469330,101.770905 394.921570,104.867905 396.514984,108.204269 
	C397.508972,110.285431 400.094635,112.778893 402.102905,112.904823 
	C404.584686,113.060448 408.118256,111.592911 409.499237,109.631248 
	C410.729248,107.883957 410.458099,104.110100 409.398132,101.939339 
	C407.643890,98.346909 403.957703,98.048073 399.590027,99.664818 
z"/>
<path fill="#B8B7BA" opacity="1.000000" stroke="none" 
	d="
M399.934021,99.450142 
	C403.957703,98.048073 407.643890,98.346909 409.398132,101.939339 
	C410.458099,104.110100 410.729248,107.883957 409.499237,109.631248 
	C408.118256,111.592911 404.584686,113.060448 402.102905,112.904823 
	C400.094635,112.778893 397.508972,110.285431 396.514984,108.204269 
	C394.921570,104.867905 396.469330,101.770905 399.934021,99.450142 
z"/>
</svg>