<svg version="1.1" id="Layer_1" xmlns="http://www.w3.org/2000/svg" xmlns:xlink="http://www.w3.org/1999/xlink" x="0px" y="0px"
	 width="100%" viewBox="0 0 512 512" enable-background="new 0 0 512 512" xml:space="preserve">
<path fill="#424242" opacity="1.000000" stroke="none" 
	d="
M445.000000,513.000000 
	C319.978577,513.000000 194.957138,513.000000 69.501617,512.636169 
	C65.493805,508.527863 64.916901,504.027527 64.922440,498.999817 
	C65.028236,402.883759 64.997025,306.767578 65.014076,210.651398 
	C65.014732,206.916931 64.588181,203.030090 65.453697,199.480789 
	C67.096504,192.743958 69.442253,186.170242 71.655876,179.582489 
	C77.410072,162.457993 83.311768,145.382965 89.044014,128.251205 
	C99.829811,96.016083 110.570374,63.765728 121.262650,31.499477 
	C125.760139,17.927332 134.397568,8.343841 147.784042,3.098085 
	C148.661942,2.754061 149.267670,1.715496 150.000000,0.999999 
	C239.688095,1.000000 329.376190,1.000000 419.532959,1.359716 
	C421.376038,2.545570 422.690430,3.499486 424.134247,4.177896 
	C437.038422,10.241159 449.098969,24.961742 449.083344,41.397495 
	C448.940521,191.675644 448.995361,341.954010 449.012238,492.232300 
	C449.013031,499.430756 450.031708,506.789703 445.000000,513.000000 
M348.000397,55.497650 
	C351.522858,44.861988 355.045319,34.226322 358.763611,22.999380 
	C355.925781,22.999380 353.946625,22.999384 351.967468,22.999380 
	C289.642944,22.999304 227.318436,22.998756 164.993927,22.999554 
	C153.076035,22.999706 146.115082,28.039869 142.347458,39.343575 
	C125.305038,90.474815 108.223114,141.592941 91.255310,192.748932 
	C89.497734,198.047821 87.194534,203.563110 87.179771,208.983536 
	C86.928802,301.136505 87.028206,393.290344 86.910881,485.443817 
	C86.905350,489.783997 88.006271,491.119171 92.476967,491.099365 
	C131.304047,490.927185 170.132202,491.004608 208.960022,490.983582 
	C210.525085,490.982727 212.090012,490.740387 214.319672,490.555420 
	C213.287582,487.737549 212.896271,485.342163 211.659775,483.520508 
	C205.998688,475.180725 200.298965,466.852325 194.233444,458.806000 
	C187.947113,450.466827 182.315186,441.865143 182.070969,431.059265 
	C181.784897,418.400848 181.728439,405.723053 182.095703,393.068848 
	C182.362305,383.882660 186.191528,375.800415 193.884506,370.709747 
	C199.798660,366.796234 206.712723,364.393799 214.000595,360.930450 
	C214.000595,360.109619 214.000580,358.133972 214.000595,356.158325 
	C214.000854,333.328217 213.601852,310.489197 214.112122,287.670502 
	C214.636826,264.206726 237.562836,250.580292 259.400665,259.320190 
	C272.743134,264.660095 278.484711,275.941010 278.891571,289.713470 
	C279.353973,305.364288 278.990326,321.039215 279.010925,336.703674 
	C279.013489,338.647522 279.170441,340.591187 279.270233,342.862610 
	C284.002014,343.386688 288.300232,343.648132 292.516724,344.380157 
	C298.812744,345.473175 298.995911,345.461639 298.997070,339.060669 
	C299.003845,301.232697 299.382019,263.398956 298.814545,225.579514 
	C298.584259,210.232178 300.702698,195.715515 305.704407,181.221481 
	C320.041870,139.674286 333.822906,97.935074 348.000397,55.497650 
M346.275604,352.045105 
	C364.467255,359.642731 373.978668,373.229401 374.193817,393.006134 
	C374.356934,408.001434 374.115082,423.001068 374.271118,437.996490 
	C374.371765,447.673187 371.580566,456.352142 366.285431,464.336151 
	C362.972565,469.331329 359.375031,474.172333 356.492310,479.405884 
	C354.602722,482.836487 353.762177,486.844879 352.248474,491.176086 
	C356.021301,491.372559 358.338501,491.589935 360.656494,491.598785 
	C380.651886,491.675323 400.647369,491.736572 420.642883,491.753357 
	C428.607574,491.760040 427.754791,492.484375 427.755463,484.406982 
	C427.767670,339.102295 427.764374,193.797577 427.764130,48.492886 
	C427.764130,47.326450 427.780121,46.159653 427.757324,44.993637 
	C427.489716,31.308168 418.785004,22.504368 405.167175,22.256195 
	C399.336914,22.149946 393.475098,22.587465 387.679871,22.124096 
	C383.089813,21.757084 381.414581,23.702398 380.074646,27.749470 
	C360.878632,85.729645 341.515320,143.654434 322.271973,201.619003 
	C321.452179,204.088440 321.053986,206.813705 321.049713,209.420776 
	C320.976929,253.911880 320.997467,298.403137 320.997437,342.894379 
	C320.997437,344.533386 320.997467,346.172394 320.997467,347.565247 
	C329.502899,349.043335 337.508301,350.434509 346.275604,352.045105 
M226.861588,464.681732 
	C232.874649,472.166351 235.378082,480.988556 236.444870,490.645660 
	C267.837006,490.645660 299.053253,490.645660 330.483368,490.645660 
	C331.279816,486.770416 331.348999,482.747040 332.932281,479.450958 
	C336.994049,470.995056 340.975220,462.318787 346.424744,454.766907 
	C351.030121,448.384735 352.652924,441.616577 352.881775,434.385681 
	C353.287354,421.571930 353.231689,408.730499 352.922882,395.911407 
	C352.676819,385.696838 349.373444,376.781311 338.749451,373.057068 
	C334.628052,371.612335 330.026794,371.435638 325.615204,370.937378 
	C307.553955,368.897400 289.444946,367.235779 271.426544,364.876892 
	C260.096130,363.393616 256.547943,361.780060 256.875397,349.505249 
	C257.359406,331.361053 257.044281,313.194183 256.954010,295.037537 
	C256.940186,292.252716 256.458679,289.441986 255.928940,286.694214 
	C254.957428,281.655151 251.101852,279.631683 246.622681,279.119019 
	C241.889420,278.577271 238.782578,281.516479 237.094025,285.613800 
	C236.243042,287.678741 236.048996,290.131287 236.043213,292.409821 
	C235.975159,319.228821 236.011139,346.048096 235.992065,372.867279 
	C235.985764,381.734406 232.764221,384.980713 224.097107,384.999695 
	C221.598511,385.005188 219.089539,384.869995 216.603180,385.048309 
	C207.907181,385.671844 204.020111,389.818970 204.003830,398.374512 
	C203.986084,407.702881 203.588425,417.057526 204.179535,426.348328 
	C204.461563,430.781403 205.755783,435.676758 208.151871,439.342896 
	C213.754547,447.915375 220.300064,455.871674 226.861588,464.681732 
z"/>
<path fill="#FFFFFF" opacity="1.000000" stroke="none" 
	d="
M149.531342,0.999999 
	C149.267670,1.715496 148.661942,2.754061 147.784042,3.098085 
	C134.397568,8.343841 125.760139,17.927332 121.262650,31.499477 
	C110.570374,63.765728 99.829811,96.016083 89.044014,128.251205 
	C83.311768,145.382965 77.410072,162.457993 71.655876,179.582489 
	C69.442253,186.170242 67.096504,192.743958 65.453697,199.480789 
	C64.588181,203.030090 65.014732,206.916931 65.014076,210.651398 
	C64.997025,306.767578 65.028236,402.883759 64.922440,498.999817 
	C64.916901,504.027527 65.493805,508.527863 69.033768,512.636169 
	C46.346939,513.000000 23.693876,513.000000 1.020407,513.000000 
	C1.020407,342.449371 1.020407,171.898758 1.020407,1.000000 
	C50.353683,1.000000 99.708183,1.000000 149.531342,0.999999 
z"/>
<path fill="#FFFFFF" opacity="1.000000" stroke="none" 
	d="
M445.468658,513.000000 
	C450.031708,506.789703 449.013031,499.430756 449.012238,492.232300 
	C448.995361,341.954010 448.940521,191.675644 449.083344,41.397495 
	C449.098969,24.961742 437.038422,10.241159 424.134247,4.177896 
	C422.690430,3.499486 421.376038,2.545570 420.000793,1.359716 
	C450.979828,1.000000 481.959686,1.000000 512.943176,1.000003 
	C512.946838,171.666672 512.946838,342.333344 512.946838,513.000000 
	C490.574890,513.000000 468.256104,513.000000 445.468658,513.000000 
z"/>
<path fill="#FFFFFF" opacity="1.000000" stroke="none" 
	d="
M347.911530,55.884499 
	C333.822906,97.935074 320.041870,139.674286 305.704407,181.221481 
	C300.702698,195.715515 298.584259,210.232178 298.814545,225.579514 
	C299.382019,263.398956 299.003845,301.232697 298.997070,339.060669 
	C298.995911,345.461639 298.812744,345.473175 292.516724,344.380157 
	C288.300232,343.648132 284.002014,343.386688 279.270233,342.862610 
	C279.170441,340.591187 279.013489,338.647522 279.010925,336.703674 
	C278.990326,321.039215 279.353973,305.364288 278.891571,289.713470 
	C278.484711,275.941010 272.743134,264.660095 259.400665,259.320190 
	C237.562836,250.580292 214.636826,264.206726 214.112122,287.670502 
	C213.601852,310.489197 214.000854,333.328217 214.000595,356.158325 
	C214.000580,358.133972 214.000595,360.109619 214.000595,360.930450 
	C206.712723,364.393799 199.798660,366.796234 193.884506,370.709747 
	C186.191528,375.800415 182.362305,383.882660 182.095703,393.068848 
	C181.728439,405.723053 181.784897,418.400848 182.070969,431.059265 
	C182.315186,441.865143 187.947113,450.466827 194.233444,458.806000 
	C200.298965,466.852325 205.998688,475.180725 211.659775,483.520508 
	C212.896271,485.342163 213.287582,487.737549 214.319672,490.555420 
	C212.090012,490.740387 210.525085,490.982727 208.960022,490.983582 
	C170.132202,491.004608 131.304047,490.927185 92.476967,491.099365 
	C88.006271,491.119171 86.905350,489.783997 86.910881,485.443817 
	C87.028206,393.290344 86.928802,301.136505 87.179771,208.983536 
	C87.194534,203.563110 89.497734,198.047821 91.255310,192.748932 
	C108.223114,141.592941 125.305038,90.474815 142.347458,39.343575 
	C146.115082,28.039869 153.076035,22.999706 164.993927,22.999554 
	C227.318436,22.998756 289.642944,22.999304 351.967468,22.999380 
	C353.946625,22.999384 355.925781,22.999380 358.763611,22.999380 
	C355.045319,34.226322 351.522858,44.861988 347.911530,55.884499 
M127.552078,147.020584 
	C122.461113,162.251968 117.370155,177.483353 112.183846,193.000000 
	C167.695572,193.000000 222.525635,192.977203 277.355530,193.059311 
	C280.490204,193.064011 281.236450,191.689407 282.138916,188.973846 
	C297.272858,143.435028 312.587891,97.956390 327.817993,52.449417 
	C328.804138,49.502846 329.427490,46.434856 330.298340,43.123959 
	C273.805817,43.123959 218.164688,43.123959 162.351151,43.123959 
	C161.369385,45.909027 160.353180,48.652580 159.431580,51.427551 
	C148.928436,83.052887 138.439728,114.683014 127.552078,147.020584 
M107.001793,224.602493 
	C107.756767,232.301697 112.999344,236.379517 118.975143,236.160797 
	C132.789886,235.655121 146.635788,236.009720 160.469025,235.996048 
	C167.662781,235.988937 172.047333,231.712036 171.999756,224.801315 
	C171.955246,218.337784 167.401306,214.012680 160.570053,214.004654 
	C147.236801,213.988983 133.903534,213.999756 120.570267,213.999924 
	C111.936737,214.000031 110.107910,215.320831 107.001793,224.602493 
M246.500000,236.000076 
	C253.825607,236.000031 261.151489,236.039246 268.476746,235.987183 
	C274.080872,235.947372 278.885864,230.962738 278.998108,225.198578 
	C279.114105,219.241913 274.238739,214.033707 268.358002,214.015289 
	C253.706924,213.969406 239.055435,213.959122 224.404465,214.020477 
	C218.489227,214.045242 214.039581,218.770279 214.000336,224.808990 
	C213.958908,231.181595 218.362915,235.924866 224.522247,235.984161 
	C231.514221,236.051498 238.507370,235.999954 246.500000,236.000076 
z"/>
<path fill="#BEBEBE" opacity="1.000000" stroke="none" 
	d="
M345.894653,351.935394 
	C337.508301,350.434509 329.502899,349.043335 320.997467,347.565247 
	C320.997467,346.172394 320.997437,344.533386 320.997437,342.894379 
	C320.997467,298.403137 320.976929,253.911880 321.049713,209.420776 
	C321.053986,206.813705 321.452179,204.088440 322.271973,201.619003 
	C341.515320,143.654434 360.878632,85.729645 380.074646,27.749470 
	C381.414581,23.702398 383.089813,21.757084 387.679871,22.124096 
	C393.475098,22.587465 399.336914,22.149946 405.167175,22.256195 
	C418.785004,22.504368 427.489716,31.308168 427.757324,44.993637 
	C427.780121,46.159653 427.764130,47.326450 427.764130,48.492886 
	C427.764374,193.797577 427.767670,339.102295 427.755463,484.406982 
	C427.754791,492.484375 428.607574,491.760040 420.642883,491.753357 
	C400.647369,491.736572 380.651886,491.675323 360.656494,491.598785 
	C358.338501,491.589935 356.021301,491.372559 352.248474,491.176086 
	C353.762177,486.844879 354.602722,482.836487 356.492310,479.405884 
	C359.375031,474.172333 362.972565,469.331329 366.285431,464.336151 
	C371.580566,456.352142 374.371765,447.673187 374.271118,437.996490 
	C374.115082,423.001068 374.356934,408.001434 374.193817,393.006134 
	C373.978668,373.229401 364.467255,359.642731 345.894653,351.935394 
z"/>
<path fill="#FFFFFF" opacity="1.000000" stroke="none" 
	d="
M226.662689,464.379608 
	C220.300064,455.871674 213.754547,447.915375 208.151871,439.342896 
	C205.755783,435.676758 204.461563,430.781403 204.179535,426.348328 
	C203.588425,417.057526 203.986084,407.702881 204.003830,398.374512 
	C204.020111,389.818970 207.907181,385.671844 216.603180,385.048309 
	C219.089539,384.869995 221.598511,385.005188 224.097107,384.999695 
	C232.764221,384.980713 235.985764,381.734406 235.992065,372.867279 
	C236.011139,346.048096 235.975159,319.228821 236.043213,292.409821 
	C236.048996,290.131287 236.243042,287.678741 237.094025,285.613800 
	C238.782578,281.516479 241.889420,278.577271 246.622681,279.119019 
	C251.101852,279.631683 254.957428,281.655151 255.928940,286.694214 
	C256.458679,289.441986 256.940186,292.252716 256.954010,295.037537 
	C257.044281,313.194183 257.359406,331.361053 256.875397,349.505249 
	C256.547943,361.780060 260.096130,363.393616 271.426544,364.876892 
	C289.444946,367.235779 307.553955,368.897400 325.615204,370.937378 
	C330.026794,371.435638 334.628052,371.612335 338.749451,373.057068 
	C349.373444,376.781311 352.676819,385.696838 352.922882,395.911407 
	C353.231689,408.730499 353.287354,421.571930 352.881775,434.385681 
	C352.652924,441.616577 351.030121,448.384735 346.424744,454.766907 
	C340.975220,462.318787 336.994049,470.995056 332.932281,479.450958 
	C331.348999,482.747040 331.279816,486.770416 330.483368,490.645660 
	C299.053253,490.645660 267.837006,490.645660 236.444870,490.645660 
	C235.378082,480.988556 232.874649,472.166351 226.662689,464.379608 
z"/>
<path fill="#BFBFBF" opacity="1.000000" stroke="none" 
	d="
M127.749626,146.666229 
	C138.439728,114.683014 148.928436,83.052887 159.431580,51.427551 
	C160.353180,48.652580 161.369385,45.909027 162.351151,43.123959 
	C218.164688,43.123959 273.805817,43.123959 330.298340,43.123959 
	C329.427490,46.434856 328.804138,49.502846 327.817993,52.449417 
	C312.587891,97.956390 297.272858,143.435028 282.138916,188.973846 
	C281.236450,191.689407 280.490204,193.064011 277.355530,193.059311 
	C222.525635,192.977203 167.695572,193.000000 112.183846,193.000000 
	C117.370155,177.483353 122.461113,162.251968 127.749626,146.666229 
z"/>
<path fill="#FC6459" opacity="1.000000" stroke="none" 
	d="
M107.004417,224.197968 
	C110.107910,215.320831 111.936737,214.000031 120.570267,213.999924 
	C133.903534,213.999756 147.236801,213.988983 160.570053,214.004654 
	C167.401306,214.012680 171.955246,218.337784 171.999756,224.801315 
	C172.047333,231.712036 167.662781,235.988937 160.469025,235.996048 
	C146.635788,236.009720 132.789886,235.655121 118.975143,236.160797 
	C112.999344,236.379517 107.756767,232.301697 107.004417,224.197968 
z"/>
<path fill="#FC6459" opacity="1.000000" stroke="none" 
	d="
M246.000000,236.000076 
	C238.507370,235.999954 231.514221,236.051498 224.522247,235.984161 
	C218.362915,235.924866 213.958908,231.181595 214.000336,224.808990 
	C214.039581,218.770279 218.489227,214.045242 224.404465,214.020477 
	C239.055435,213.959122 253.706924,213.969406 268.358002,214.015289 
	C274.238739,214.033707 279.114105,219.241913 278.998108,225.198578 
	C278.885864,230.962738 274.080872,235.947372 268.476746,235.987183 
	C261.151489,236.039246 253.825607,236.000031 246.000000,236.000076 
z"/>
</svg>