<svg version="1.1" id="Layer_1" xmlns="http://www.w3.org/2000/svg" xmlns:xlink="http://www.w3.org/1999/xlink" x="0px" y="0px"
	 width="100%" viewBox="0 0 128 128" enable-background="new 0 0 128 128" xml:space="preserve">
<path fill="#FFFFFF" opacity="1.000000" stroke="none" 
	d="
M129.000000,49.000000 
	C129.000000,75.999992 129.000000,102.499992 129.000000,129.000000 
	C86.333344,129.000000 43.666683,129.000000 1.000019,129.000000 
	C1.000012,86.333344 1.000012,43.666695 1.000006,1.000030 
	C43.666645,1.000020 86.333290,1.000020 128.999969,1.000010 
	C129.000000,16.833334 129.000000,32.666668 129.000000,49.000000 
M54.991234,49.257736 
	C54.990849,41.591274 54.784515,33.917099 55.071041,26.261375 
	C55.230640,21.996967 53.607380,20.759977 49.564327,20.940336 
	C43.576378,21.207457 37.537827,21.388630 31.574696,20.920321 
	C22.411299,20.200680 17.919064,24.600836 18.992973,33.541496 
	C19.328484,36.334717 18.723024,38.379765 15.816662,40.044159 
	C12.204425,42.112793 11.941936,47.966553 14.550333,51.026775 
	C17.376513,54.342506 20.094154,57.753139 22.787384,61.178791 
	C24.123119,62.877785 25.297998,64.703239 26.545650,66.471481 
	C24.329306,67.494560 22.124941,68.544868 19.890797,69.527473 
	C18.981136,69.927559 17.990622,70.139793 17.064484,70.507057 
	C9.354268,73.564514 4.403497,80.466255 4.905545,88.620804 
	C5.384899,96.406761 5.047706,104.245598 4.989649,112.060600 
	C4.969638,114.754211 5.037672,116.981018 8.695619,117.257103 
	C9.550562,117.321632 10.880960,119.583138 10.881693,120.834488 
	C10.883685,124.235458 12.448543,125.033211 15.510399,125.027229 
	C48.509613,124.962723 81.509018,124.996078 114.508293,124.952110 
	C115.773209,124.950432 118.095177,124.551643 118.139130,124.144974 
	C118.601723,119.864098 120.592285,117.363564 124.434822,115.080383 
	C125.686440,114.336685 123.996193,108.530388 123.525620,105.056595 
	C123.346115,103.731483 122.339470,102.384102 122.519234,101.166374 
	C123.705803,93.128700 125.077591,85.117470 126.460823,77.110031 
	C127.359772,71.906013 125.233437,69.073738 119.982391,69.035622 
	C109.316505,68.958191 98.649345,69.059563 87.983345,68.990082 
	C83.523697,68.961037 80.671272,70.641975 79.937462,75.320953 
	C79.012794,81.216873 78.139244,87.134300 76.816116,92.945091 
	C76.468811,94.470367 74.524567,96.732010 73.344101,96.713539 
	C71.506844,96.684776 69.269958,95.364853 67.996017,93.901375 
	C66.782387,92.507156 66.484894,90.255753 65.957809,88.333717 
	C63.363716,78.874245 58.153957,71.975853 48.143822,69.477676 
	C46.534214,69.075981 45.119602,67.892952 42.856441,66.656883 
	C50.793598,63.196308 54.970375,58.097401 54.991234,49.257736 
M109.250923,8.121376 
	C93.570084,0.517632 75.686890,5.990705 68.145004,20.701654 
	C60.560646,35.495464 65.774551,53.739723 79.761955,61.351131 
	C94.597351,69.423973 113.024071,64.534683 121.133781,50.777691 
	C129.290848,36.940376 124.968285,15.681638 109.250923,8.121376 
z"/>
<path fill="#2E2F2F" opacity="1.000000" stroke="none" 
	d="
M54.990788,49.720619 
	C54.970375,58.097401 50.793598,63.196308 42.856441,66.656883 
	C45.119602,67.892952 46.534214,69.075981 48.143822,69.477676 
	C58.153957,71.975853 63.363716,78.874245 65.957809,88.333717 
	C66.484894,90.255753 66.782387,92.507156 67.996017,93.901375 
	C69.269958,95.364853 71.506844,96.684776 73.344101,96.713539 
	C74.524567,96.732010 76.468811,94.470367 76.816116,92.945091 
	C78.139244,87.134300 79.012794,81.216873 79.937462,75.320953 
	C80.671272,70.641975 83.523697,68.961037 87.983345,68.990082 
	C98.649345,69.059563 109.316505,68.958191 119.982391,69.035622 
	C125.233437,69.073738 127.359772,71.906013 126.460823,77.110031 
	C125.077591,85.117470 123.705803,93.128700 122.519234,101.166374 
	C122.339470,102.384102 123.346115,103.731483 123.525620,105.056595 
	C123.996193,108.530388 125.686440,114.336685 124.434822,115.080383 
	C120.592285,117.363564 118.601723,119.864098 118.139130,124.144974 
	C118.095177,124.551643 115.773209,124.950432 114.508293,124.952110 
	C81.509018,124.996078 48.509613,124.962723 15.510399,125.027229 
	C12.448543,125.033211 10.883685,124.235458 10.881693,120.834488 
	C10.880960,119.583138 9.550562,117.321632 8.695619,117.257103 
	C5.037672,116.981018 4.969638,114.754211 4.989649,112.060600 
	C5.047706,104.245598 5.384899,96.406761 4.905545,88.620804 
	C4.403497,80.466255 9.354268,73.564514 17.064484,70.507057 
	C17.990622,70.139793 18.981136,69.927559 19.890797,69.527473 
	C22.124941,68.544868 24.329306,67.494560 26.545650,66.471481 
	C25.297998,64.703239 24.123119,62.877785 22.787384,61.178791 
	C20.094154,57.753139 17.376513,54.342506 14.550333,51.026775 
	C11.941936,47.966553 12.204425,42.112793 15.816662,40.044159 
	C18.723024,38.379765 19.328484,36.334717 18.992973,33.541496 
	C17.919064,24.600836 22.411299,20.200680 31.574696,20.920321 
	C37.537827,21.388630 43.576378,21.207457 49.564327,20.940336 
	C53.607380,20.759977 55.230640,21.996967 55.071041,26.261375 
	C54.784515,33.917099 54.990849,41.591274 54.990788,49.720619 
M48.162125,74.353737 
	C46.346985,73.610359 44.531845,72.866982 42.817024,72.164696 
	C36.897770,78.681694 33.400803,78.633949 26.779484,71.948814 
	C23.658428,73.119461 20.342321,74.194641 17.168915,75.593529 
	C12.545798,77.631462 9.753156,81.383591 9.221210,86.316154 
	C8.759830,90.594398 8.489643,95.071632 9.298544,99.234840 
	C9.716202,101.384415 12.405110,104.195251 14.525496,104.672096 
	C18.425653,105.549187 22.664021,104.922371 27.026178,104.922371 
	C26.922134,102.667755 26.848240,101.066437 26.784056,99.675552 
	C22.768671,99.029388 17.359781,99.659744 15.886299,97.546333 
	C13.995845,94.834862 15.266447,89.917534 15.191848,85.950272 
	C15.189293,85.814423 15.366747,85.675194 15.988510,84.760307 
	C21.895231,86.250420 16.971756,92.325638 19.851110,94.780090 
	C23.592731,94.780090 27.379377,94.780090 31.324213,94.780090 
	C31.324213,92.948944 31.324213,91.336945 31.324213,88.842201 
	C32.786739,89.407005 34.538216,89.532837 34.917931,90.320206 
	C37.222717,95.099380 39.214775,100.029373 41.235752,104.733200 
	C43.952602,104.733200 46.219124,104.733200 48.988701,104.733200 
	C48.988701,100.359543 48.815773,96.226799 49.056389,92.118271 
	C49.191330,89.814171 50.010674,87.550148 50.521656,85.268074 
	C51.964901,87.248894 53.969303,89.036049 54.733746,91.251129 
	C56.291183,95.764023 58.300434,98.649849 63.908169,96.339142 
	C60.213120,88.165802 60.240181,77.557495 48.162125,74.353737 
M120.269951,86.843903 
	C120.858070,83.402718 121.677597,79.976402 121.900223,76.511742 
	C121.971550,75.401588 120.491348,73.199142 119.675270,73.176941 
	C110.755806,72.934189 101.827271,73.024849 92.662041,73.024849 
	C90.884163,83.908524 89.191154,94.272675 87.438606,105.001297 
	C96.850052,105.001297 105.499413,105.147217 114.133072,104.844772 
	C115.435722,104.799133 117.439301,102.854752 117.785774,101.458038 
	C118.902603,96.955864 119.396439,92.299141 120.269951,86.843903 
M48.944481,56.178734 
	C52.521515,49.641407 50.436508,42.740356 51.037933,36.146030 
	C43.386482,36.146030 36.523079,36.146030 30.265114,36.146030 
	C28.345116,38.298740 26.273495,40.556763 24.288465,42.888500 
	C23.729843,43.544689 23.159752,44.380070 23.045704,45.196247 
	C22.020876,52.530346 25.369432,59.125423 31.350531,61.764759 
	C37.455460,64.458740 43.305599,62.781048 48.944481,56.178734 
M82.500000,109.007202 
	C59.351677,109.008133 36.203209,108.979095 13.055402,109.089005 
	C11.750747,109.095207 10.451517,110.244041 9.149765,110.861046 
	C10.358889,111.570229 11.566046,112.895119 12.777418,112.898994 
	C47.582809,113.010147 82.388687,113.010147 117.194092,112.900543 
	C118.414909,112.896706 119.631622,111.589363 120.850243,110.889557 
	C119.557983,110.263069 118.272583,109.109726 116.972397,109.092812 
	C105.816452,108.947723 94.657822,109.008171 82.500000,109.007202 
M17.015783,120.991951 
	C33.815491,121.013367 50.615196,121.042297 67.414909,121.053917 
	C81.886322,121.063919 96.358139,121.099640 110.828545,120.977753 
	C112.167854,120.966476 113.498268,119.897797 114.832809,119.320107 
	C113.447357,118.576347 112.096291,117.753563 110.659225,117.128471 
	C110.099335,116.884933 109.345757,117.085770 108.680405,117.085762 
	C79.571220,117.085609 50.462040,117.084770 21.352858,117.088333 
	C20.022690,117.088493 18.671721,116.987183 17.366730,117.179451 
	C14.714435,117.570221 14.484022,118.922005 17.015783,120.991951 
M30.894056,25.008797 
	C23.554617,25.732567 21.211174,30.051529 23.980453,37.750557 
	C26.757385,30.340372 26.685188,30.722353 34.993504,32.292664 
	C39.071568,33.063438 43.520359,32.410099 47.702644,31.763075 
	C48.949512,31.570179 49.861717,29.214087 50.927258,27.849127 
	C49.689373,26.904722 48.497269,25.225800 47.205544,25.145298 
	C42.092884,24.826670 36.949032,25.008579 30.894056,25.008797 
M86.290161,86.965195 
	C87.038422,82.438469 87.786690,77.911743 88.581596,73.102821 
	C83.965576,74.751930 79.831223,90.927345 80.550865,105.150093 
	C81.943848,104.366241 83.508652,103.348305 83.790474,102.051544 
	C84.810097,97.359749 85.398651,92.574272 86.290161,86.965195 
M69.370621,100.997322 
	C65.974419,100.997322 62.578209,100.997322 58.127930,100.997322 
	C61.685440,107.655563 67.008034,104.055496 70.992966,104.916931 
	C73.391357,105.435402 76.229431,105.446152 75.589806,100.997330 
	C73.872917,100.997330 72.090385,100.997330 69.370621,100.997322 
M38.066448,71.403824 
	C38.412975,70.093018 38.759499,68.782211 39.158463,67.273048 
	C36.134686,66.929871 33.756435,66.659950 31.375982,66.389786 
	C30.950342,72.325661 32.507244,73.672867 38.066448,71.403824 
M36.308170,102.411499 
	C34.845055,101.157997 33.381939,99.904488 31.234650,98.064835 
	C31.234650,101.163605 31.234650,102.906921 31.234650,106.054764 
	C33.562023,104.798416 35.111908,103.961761 36.308170,102.411499 
z"/>
<path fill="#2D2F30" opacity="1.000000" stroke="none" 
	d="
M109.583008,8.294413 
	C124.968285,15.681638 129.290848,36.940376 121.133781,50.777691 
	C113.024071,64.534683 94.597351,69.423973 79.761955,61.351131 
	C65.774551,53.739723 60.560646,35.495464 68.145004,20.701654 
	C75.686890,5.990705 93.570084,0.517632 109.583008,8.294413 
M110.944588,55.522820 
	C121.148979,46.416206 123.824219,34.400276 118.139580,23.206322 
	C112.915405,12.919097 101.213516,7.148883 90.184593,9.421694 
	C79.413139,11.641444 71.465736,19.667778 69.360641,30.452471 
	C67.459740,40.191071 71.854591,50.942646 80.454880,56.484592 
	C90.442123,62.920277 100.508446,62.587479 110.944588,55.522820 
z"/>
<path fill="#3D99E0" opacity="1.000000" stroke="none" 
	d="
M48.494316,74.527695 
	C60.240181,77.557495 60.213120,88.165802 63.908169,96.339142 
	C58.300434,98.649849 56.291183,95.764023 54.733746,91.251129 
	C53.969303,89.036049 51.964901,87.248894 50.521660,85.268074 
	C50.010674,87.550148 49.191330,89.814171 49.056389,92.118271 
	C48.815773,96.226799 48.988701,100.359543 48.988701,104.733200 
	C46.219124,104.733200 43.952602,104.733200 41.235752,104.733200 
	C39.214775,100.029373 37.222717,95.099380 34.917931,90.320206 
	C34.538216,89.532837 32.786739,89.407005 31.324213,88.842201 
	C31.324213,91.336945 31.324213,92.948944 31.324213,94.780090 
	C27.379377,94.780090 23.592731,94.780090 19.851110,94.780090 
	C16.971756,92.325638 21.895231,86.250420 15.988510,84.760307 
	C15.366747,85.675194 15.189293,85.814423 15.191848,85.950272 
	C15.266447,89.917534 13.995845,94.834862 15.886299,97.546333 
	C17.359781,99.659744 22.768671,99.029388 26.784056,99.675552 
	C26.848240,101.066437 26.922134,102.667755 27.026178,104.922371 
	C22.664021,104.922371 18.425653,105.549187 14.525496,104.672096 
	C12.405110,104.195251 9.716202,101.384415 9.298544,99.234840 
	C8.489643,95.071632 8.759830,90.594398 9.221210,86.316154 
	C9.753156,81.383591 12.545798,77.631462 17.168915,75.593529 
	C20.342321,74.194641 23.658428,73.119461 26.779484,71.948814 
	C33.400803,78.633949 36.897770,78.681694 42.817024,72.164696 
	C44.531845,72.866982 46.346985,73.610359 48.494316,74.527695 
z"/>
<path fill="#E3E4E5" opacity="1.000000" stroke="none" 
	d="
M120.200195,87.272949 
	C119.396439,92.299141 118.902603,96.955864 117.785774,101.458038 
	C117.439301,102.854752 115.435722,104.799133 114.133072,104.844772 
	C105.499413,105.147217 96.850052,105.001297 87.438606,105.001297 
	C89.191154,94.272675 90.884163,83.908524 92.662041,73.024849 
	C101.827271,73.024849 110.755806,72.934189 119.675270,73.176941 
	C120.491348,73.199142 121.971550,75.401588 121.900223,76.511742 
	C121.677597,79.976402 120.858070,83.402718 120.200195,87.272949 
M104.615021,94.984428 
	C108.565887,94.824013 111.276314,92.710320 110.751167,88.860252 
	C110.467506,86.780640 107.986137,83.666626 106.220306,83.467606 
	C104.105316,83.229225 100.634750,85.050720 99.639359,86.962952 
	C97.688751,90.710220 99.944878,93.547012 104.615021,94.984428 
z"/>
<path fill="#FCC276" opacity="1.000000" stroke="none" 
	d="
M48.747955,56.505325 
	C43.305599,62.781048 37.455460,64.458740 31.350531,61.764759 
	C25.369432,59.125423 22.020876,52.530346 23.045704,45.196247 
	C23.159752,44.380070 23.729843,43.544689 24.288465,42.888500 
	C26.273495,40.556763 28.345116,38.298740 30.265114,36.146030 
	C36.523079,36.146030 43.386482,36.146030 51.037933,36.146030 
	C50.436508,42.740356 52.521515,49.641407 48.747955,56.505325 
z"/>
<path fill="#A97C50" opacity="1.000000" stroke="none" 
	d="
M83.000000,109.007202 
	C94.657822,109.008171 105.816452,108.947723 116.972397,109.092812 
	C118.272583,109.109726 119.557983,110.263069 120.850243,110.889557 
	C119.631622,111.589363 118.414909,112.896706 117.194092,112.900543 
	C82.388687,113.010147 47.582809,113.010147 12.777418,112.898994 
	C11.566046,112.895119 10.358889,111.570229 9.149763,110.861053 
	C10.451517,110.244041 11.750747,109.095207 13.055402,109.089005 
	C36.203209,108.979095 59.351677,109.008133 83.000000,109.007202 
z"/>
<path fill="#9A6D46" opacity="1.000000" stroke="none" 
	d="
M16.580311,120.912415 
	C14.484022,118.922005 14.714435,117.570221 17.366730,117.179451 
	C18.671721,116.987183 20.022690,117.088493 21.352858,117.088333 
	C50.462040,117.084770 79.571220,117.085609 108.680405,117.085762 
	C109.345757,117.085770 110.099335,116.884933 110.659225,117.128471 
	C112.096291,117.753563 113.447357,118.576347 114.832809,119.320107 
	C113.498268,119.897797 112.167854,120.966476 110.828545,120.977753 
	C96.358139,121.099640 81.886322,121.063919 67.414909,121.053917 
	C50.615196,121.042297 33.815491,121.013367 16.580311,120.912415 
z"/>
<path fill="#56555B" opacity="1.000000" stroke="none" 
	d="
M31.355400,25.006855 
	C36.949032,25.008579 42.092884,24.826670 47.205544,25.145298 
	C48.497269,25.225800 49.689373,26.904722 50.927258,27.849127 
	C49.861717,29.214087 48.949512,31.570179 47.702644,31.763075 
	C43.520359,32.410099 39.071568,33.063438 34.993504,32.292664 
	C26.685188,30.722353 26.757385,30.340372 23.980453,37.750557 
	C21.211174,30.051529 23.554617,25.732567 31.355400,25.006855 
z"/>
<path fill="#CBCACD" opacity="1.000000" stroke="none" 
	d="
M86.220032,87.394669 
	C85.398651,92.574272 84.810097,97.359749 83.790474,102.051544 
	C83.508652,103.348305 81.943848,104.366241 80.550865,105.150093 
	C79.831223,90.927345 83.965576,74.751930 88.581596,73.102821 
	C87.786690,77.911743 87.038422,82.438469 86.220032,87.394669 
z"/>
<path fill="#C4C3C8" opacity="1.000000" stroke="none" 
	d="
M69.839233,100.997330 
	C72.090385,100.997330 73.872917,100.997330 75.589806,100.997330 
	C76.229431,105.446152 73.391357,105.435402 70.992966,104.916931 
	C67.008034,104.055496 61.685440,107.655563 58.127930,100.997322 
	C62.578209,100.997322 65.974419,100.997322 69.839233,100.997330 
z"/>
<path fill="#F5B868" opacity="1.000000" stroke="none" 
	d="
M37.797337,71.694717 
	C32.507244,73.672867 30.950342,72.325661 31.375982,66.389786 
	C33.756435,66.659950 36.134686,66.929871 39.158463,67.273048 
	C38.759499,68.782211 38.412975,70.093018 37.797337,71.694717 
z"/>
<path fill="#F8BF75" opacity="1.000000" stroke="none" 
	d="
M36.484982,102.768311 
	C35.111908,103.961761 33.562023,104.798416 31.234650,106.054764 
	C31.234650,102.906921 31.234650,101.163605 31.234650,98.064835 
	C33.381939,99.904488 34.845055,101.157997 36.484982,102.768311 
z"/>
<path fill="#3C94D8" opacity="1.000000" stroke="none" 
	d="
M110.654526,55.739212 
	C100.508446,62.587479 90.442123,62.920277 80.454880,56.484592 
	C71.854591,50.942646 67.459740,40.191071 69.360641,30.452471 
	C71.465736,19.667778 79.413139,11.641444 90.184593,9.421694 
	C101.213516,7.148883 112.915405,12.919097 118.139580,23.206322 
	C123.824219,34.400276 121.148979,46.416206 110.654526,55.739212 
M73.956551,41.237415 
	C77.193718,50.729282 83.839073,56.097851 93.786201,56.906498 
	C103.168396,57.669220 111.936028,51.844151 115.415871,43.068417 
	C118.832817,34.451302 116.448761,24.542192 109.503738,18.495153 
	C102.290222,12.214333 92.153038,11.230331 83.936653,16.013391 
	C75.449471,20.954092 71.582382,30.241556 73.956551,41.237415 
z"/>
<path fill="#393939" opacity="1.000000" stroke="none" 
	d="
M104.227234,94.944656 
	C99.944878,93.547012 97.688751,90.710220 99.639359,86.962952 
	C100.634750,85.050720 104.105316,83.229225 106.220306,83.467606 
	C107.986137,83.666626 110.467506,86.780640 110.751167,88.860252 
	C111.276314,92.710320 108.565887,94.824013 104.227234,94.944656 
z"/>
<path fill="#313436" opacity="1.000000" stroke="none" 
	d="
M73.861221,40.838833 
	C71.582382,30.241556 75.449471,20.954092 83.936653,16.013391 
	C92.153038,11.230331 102.290222,12.214333 109.503738,18.495153 
	C116.448761,24.542192 118.832817,34.451302 115.415871,43.068417 
	C111.936028,51.844151 103.168396,57.669220 93.786201,56.906498 
	C83.839073,56.097851 77.193718,50.729282 73.861221,40.838833 
M83.648109,43.997997 
	C84.326660,45.567863 85.005219,47.137726 85.683769,48.707592 
	C85.232597,49.068214 84.781418,49.428837 84.330246,49.789459 
	C87.025307,50.871273 89.720375,51.953083 91.604607,52.709427 
	C93.026207,51.093311 93.943565,50.050423 94.860931,49.007538 
	C95.893967,50.094929 96.927002,51.182316 98.440056,52.774979 
	C100.426132,51.921089 103.088486,50.776440 104.869698,50.010632 
	C104.869698,47.708321 104.418381,45.377781 104.960770,45.117432 
	C106.207916,44.518795 107.938690,44.927704 110.089897,44.927704 
	C110.905273,42.938587 111.957985,40.370480 112.775650,38.375771 
	C111.226883,36.960281 110.117210,35.946110 109.007538,34.931934 
	C110.150452,33.946232 111.293365,32.960529 112.828751,31.636345 
	C111.927635,29.507191 110.846169,26.951918 110.011604,24.980007 
	C107.843117,24.980007 106.310226,24.980007 104.777344,24.980007 
	C104.924095,23.565115 105.070847,22.150223 105.283127,20.103502 
	C103.014961,19.159861 100.325699,18.041027 98.293404,17.195517 
	C97.004494,18.795225 96.119331,19.893831 95.234169,20.992441 
	C94.090897,19.852661 92.947632,18.712883 91.428635,17.198524 
	C89.349922,18.114788 86.824692,19.227873 84.784653,20.127094 
	C84.959076,22.173988 85.079590,23.588291 85.200111,25.002594 
	C83.666504,25.002594 82.132896,25.002594 79.901939,25.002594 
	C79.086075,27.072659 78.030357,29.751303 77.353851,31.467789 
	C79.013695,33.057381 80.003067,34.004879 80.992439,34.952374 
	C79.875710,35.961971 78.758980,36.971569 77.230438,38.353474 
	C77.875237,39.933056 78.560410,42.174286 79.737251,44.117802 
	C80.050293,44.634792 81.871498,44.238564 83.648109,43.997997 
z"/>
<path fill="#E1E2E3" opacity="1.000000" stroke="none" 
	d="
M83.324188,44.129807 
	C81.871498,44.238564 80.050293,44.634792 79.737251,44.117802 
	C78.560410,42.174286 77.875237,39.933056 77.230438,38.353474 
	C78.758980,36.971569 79.875710,35.961971 80.992439,34.952374 
	C80.003067,34.004879 79.013695,33.057381 77.353851,31.467789 
	C78.030357,29.751303 79.086075,27.072659 79.901939,25.002594 
	C82.132896,25.002594 83.666504,25.002594 85.200111,25.002594 
	C85.079590,23.588291 84.959076,22.173988 84.784653,20.127094 
	C86.824692,19.227873 89.349922,18.114788 91.428635,17.198524 
	C92.947632,18.712883 94.090897,19.852661 95.234169,20.992439 
	C96.119331,19.893831 97.004494,18.795225 98.293404,17.195517 
	C100.325699,18.041027 103.014961,19.159861 105.283127,20.103502 
	C105.070847,22.150223 104.924095,23.565115 104.777344,24.980007 
	C106.310226,24.980007 107.843117,24.980007 110.011604,24.980007 
	C110.846169,26.951918 111.927635,29.507191 112.828751,31.636345 
	C111.293365,32.960529 110.150452,33.946232 109.007538,34.931934 
	C110.117210,35.946110 111.226883,36.960281 112.775650,38.375771 
	C111.957985,40.370480 110.905273,42.938587 110.089897,44.927704 
	C107.938690,44.927704 106.207916,44.518795 104.960770,45.117432 
	C104.418381,45.377781 104.869698,47.708321 104.869698,50.010632 
	C103.088486,50.776440 100.426132,51.921089 98.440056,52.774979 
	C96.927002,51.182316 95.893967,50.094929 94.860931,49.007538 
	C93.943565,50.050423 93.026207,51.093311 91.604607,52.709427 
	C89.720375,51.953083 87.025307,50.871273 84.330246,49.789459 
	C84.781418,49.428837 85.232597,49.068214 85.683769,48.707592 
	C85.005219,47.137726 84.326660,45.567863 83.324188,44.129807 
M91.033836,36.175667 
	C91.219177,37.479935 91.404518,38.784206 91.635345,40.408543 
	C98.831467,36.146317 96.817635,30.464096 95.957039,24.853682 
	C94.516724,25.702692 93.458214,26.826290 93.079636,28.145077 
	C92.379143,30.585251 92.076660,33.139675 91.033836,36.175667 
z"/>
<path fill="#2E2E2E" opacity="1.000000" stroke="none" 
	d="
M91.321121,35.911087 
	C92.076660,33.139675 92.379143,30.585251 93.079636,28.145077 
	C93.458214,26.826290 94.516724,25.702692 95.957039,24.853682 
	C96.817635,30.464096 98.831467,36.146317 91.635345,40.408543 
	C91.404518,38.784206 91.219177,37.479935 91.321121,35.911087 
z"/>
</svg>